<svg width="318" height="56" viewBox="0 0 318 56" fill="none" xmlns="http://www.w3.org/2000/svg">
<rect width="73.3372" height="56" rx="7" fill="#F1F1F1"/>
<path d="M18.4975 38V32.24H19.0855V34.836H22.2695V32.24H22.8535V38H22.2695V35.4H19.0855V38H18.4975ZM24.0541 32.86V32.2H24.6421V32.86H24.0541ZM24.0541 38V33.68H24.6421V38H24.0541ZM25.7613 35.732V35.228H28.1613V35.732H25.7613ZM30.092 38V32.804H28.08V32.24H32.692V32.804H30.68V38H30.092ZM34.5208 38.12C34.0995 38.12 33.7341 38.0267 33.4248 37.84C33.1181 37.6533 32.8795 37.3907 32.7088 37.052C32.5381 36.7133 32.4528 36.316 32.4528 35.86C32.4528 35.388 32.5368 34.98 32.7048 34.636C32.8728 34.292 33.1088 34.0267 33.4128 33.84C33.7195 33.6533 34.0808 33.56 34.4968 33.56C34.9235 33.56 35.2875 33.6587 35.5888 33.856C35.8901 34.0507 36.1181 34.3307 36.2728 34.696C36.4275 35.0613 36.4981 35.4973 36.4848 36.004H35.8848V35.796C35.8741 35.236 35.7528 34.8133 35.5208 34.528C35.2915 34.2427 34.9555 34.1 34.5128 34.1C34.0488 34.1 33.6928 34.2507 33.4448 34.552C33.1995 34.8533 33.0768 35.2827 33.0768 35.84C33.0768 36.384 33.1995 36.8067 33.4448 37.108C33.6928 37.4067 34.0435 37.556 34.4968 37.556C34.8061 37.556 35.0755 37.4853 35.3048 37.344C35.5368 37.2 35.7195 36.9933 35.8528 36.724L36.4008 36.936C36.2301 37.312 35.9781 37.604 35.6448 37.812C35.3141 38.0173 34.9395 38.12 34.5208 38.12ZM32.8688 36.004V35.512H36.1688V36.004H32.8688ZM40.3753 38V35.796C40.3753 35.556 40.3526 35.336 40.3073 35.136C40.262 34.9333 40.1886 34.7573 40.0873 34.608C39.9886 34.456 39.8593 34.3387 39.6993 34.256C39.542 34.1733 39.35 34.132 39.1233 34.132C38.9153 34.132 38.7313 34.168 38.5713 34.24C38.414 34.312 38.2806 34.416 38.1713 34.552C38.0646 34.6853 37.9833 34.848 37.9273 35.04C37.8713 35.232 37.8433 35.4507 37.8433 35.696L37.4273 35.604C37.4273 35.1613 37.5046 34.7893 37.6593 34.488C37.814 34.1867 38.0273 33.9587 38.2993 33.804C38.5713 33.6493 38.8833 33.572 39.2353 33.572C39.494 33.572 39.7193 33.612 39.9113 33.692C40.106 33.772 40.27 33.88 40.4033 34.016C40.5393 34.152 40.6486 34.308 40.7313 34.484C40.814 34.6573 40.874 34.8427 40.9113 35.04C40.9486 35.2347 40.9673 35.4293 40.9673 35.624V38H40.3753ZM37.2513 38V33.68H37.7833V34.744H37.8433V38H37.2513ZM43.6173 38.116C43.1106 38.116 42.6933 38.0067 42.3653 37.788C42.04 37.5693 41.84 37.2653 41.7653 36.876L42.3653 36.776C42.4293 37.0213 42.5746 37.2173 42.8013 37.364C43.0306 37.508 43.3133 37.58 43.6493 37.58C43.9773 37.58 44.236 37.512 44.4253 37.376C44.6146 37.2373 44.7093 37.0493 44.7093 36.812C44.7093 36.6787 44.6786 36.5707 44.6173 36.488C44.5586 36.4027 44.4373 36.324 44.2533 36.252C44.0693 36.18 43.7946 36.0947 43.4293 35.996C43.0373 35.8893 42.7306 35.7827 42.5093 35.676C42.288 35.5693 42.1306 35.4467 42.0373 35.308C41.944 35.1667 41.8973 34.9947 41.8973 34.792C41.8973 34.5467 41.9666 34.332 42.1053 34.148C42.244 33.9613 42.436 33.8173 42.6813 33.716C42.9266 33.612 43.212 33.56 43.5373 33.56C43.8626 33.56 44.1533 33.6133 44.4093 33.72C44.668 33.824 44.876 33.9707 45.0333 34.16C45.1906 34.3493 45.284 34.5693 45.3133 34.82L44.7133 34.928C44.6733 34.6747 44.5466 34.4747 44.3333 34.328C44.1226 34.1787 43.8546 34.1013 43.5293 34.096C43.2226 34.088 42.9733 34.1467 42.7813 34.272C42.5893 34.3947 42.4933 34.5587 42.4933 34.764C42.4933 34.8787 42.528 34.9773 42.5973 35.06C42.6666 35.14 42.792 35.216 42.9733 35.288C43.1573 35.36 43.4186 35.4387 43.7573 35.524C44.1546 35.6253 44.4666 35.732 44.6933 35.844C44.92 35.956 45.0813 36.088 45.1773 36.24C45.2733 36.392 45.3213 36.58 45.3213 36.804C45.3213 37.212 45.1693 37.5333 44.8653 37.768C44.564 38 44.148 38.116 43.6173 38.116ZM46.2884 32.86V32.2H46.8764V32.86H46.2884ZM46.2884 38V33.68H46.8764V38H46.2884ZM48.1556 38V32.12H48.7436V38H48.1556ZM51.7708 38.12C51.3495 38.12 50.9841 38.0267 50.6748 37.84C50.3681 37.6533 50.1295 37.3907 49.9588 37.052C49.7881 36.7133 49.7028 36.316 49.7028 35.86C49.7028 35.388 49.7868 34.98 49.9548 34.636C50.1228 34.292 50.3588 34.0267 50.6628 33.84C50.9695 33.6533 51.3308 33.56 51.7468 33.56C52.1735 33.56 52.5375 33.6587 52.8388 33.856C53.1401 34.0507 53.3681 34.3307 53.5228 34.696C53.6775 35.0613 53.7481 35.4973 53.7348 36.004H53.1348V35.796C53.1241 35.236 53.0028 34.8133 52.7708 34.528C52.5415 34.2427 52.2055 34.1 51.7628 34.1C51.2988 34.1 50.9428 34.2507 50.6948 34.552C50.4495 34.8533 50.3268 35.2827 50.3268 35.84C50.3268 36.384 50.4495 36.8067 50.6948 37.108C50.9428 37.4067 51.2935 37.556 51.7468 37.556C52.0561 37.556 52.3255 37.4853 52.5548 37.344C52.7868 37.2 52.9695 36.9933 53.1028 36.724L53.6508 36.936C53.4801 37.312 53.2281 37.604 52.8948 37.812C52.5641 38.0173 52.1895 38.12 51.7708 38.12ZM50.1188 36.004V35.512H53.4188V36.004H50.1188ZM28.9584 46.12C28.5558 46.12 28.1931 46.0533 27.8704 45.92C27.5504 45.784 27.2851 45.592 27.0744 45.344C26.8664 45.096 26.7304 44.8013 26.6664 44.46L27.2664 44.36C27.3624 44.7333 27.5651 45.0267 27.8744 45.24C28.1838 45.4507 28.5531 45.556 28.9824 45.556C29.2651 45.556 29.5184 45.512 29.7424 45.424C29.9664 45.3333 30.1424 45.2053 30.2704 45.04C30.3984 44.8747 30.4624 44.6787 30.4624 44.452C30.4624 44.3027 30.4358 44.176 30.3824 44.072C30.3291 43.9653 30.2584 43.8773 30.1704 43.808C30.0824 43.7387 29.9864 43.6813 29.8824 43.636C29.7784 43.588 29.6771 43.5493 29.5784 43.52L28.1184 43.084C27.9424 43.0333 27.7798 42.9693 27.6304 42.892C27.4811 42.812 27.3504 42.7173 27.2384 42.608C27.1291 42.496 27.0438 42.3653 26.9824 42.216C26.9211 42.0667 26.8904 41.896 26.8904 41.704C26.8904 41.3787 26.9758 41.0973 27.1464 40.86C27.3171 40.6227 27.5504 40.44 27.8464 40.312C28.1424 40.184 28.4798 40.1213 28.8584 40.124C29.2424 40.124 29.5851 40.192 29.8864 40.328C30.1904 40.464 30.4411 40.6587 30.6384 40.912C30.8358 41.1627 30.9664 41.46 31.0304 41.804L30.4144 41.916C30.3744 41.6653 30.2824 41.448 30.1384 41.264C29.9944 41.08 29.8104 40.9387 29.5864 40.84C29.3651 40.7387 29.1211 40.6867 28.8544 40.684C28.5958 40.684 28.3651 40.728 28.1624 40.816C27.9624 40.9013 27.8038 41.0187 27.6864 41.168C27.5691 41.3173 27.5104 41.488 27.5104 41.68C27.5104 41.8747 27.5638 42.0307 27.6704 42.148C27.7798 42.2653 27.9131 42.3573 28.0704 42.424C28.2304 42.4907 28.3851 42.5453 28.5344 42.588L29.6624 42.92C29.7798 42.952 29.9171 42.9987 30.0744 43.06C30.2344 43.1187 30.3891 43.204 30.5384 43.316C30.6904 43.4253 30.8158 43.5693 30.9144 43.748C31.0131 43.9267 31.0624 44.1533 31.0624 44.428C31.0624 44.6947 31.0091 44.9333 30.9024 45.144C30.7984 45.3547 30.6504 45.532 30.4584 45.676C30.2691 45.82 30.0464 45.9293 29.7904 46.004C29.5371 46.0813 29.2598 46.12 28.9584 46.12ZM34.2401 46C33.9975 46.0507 33.7575 46.0707 33.5201 46.06C33.2855 46.0493 33.0748 45.9987 32.8881 45.908C32.7041 45.8173 32.5641 45.676 32.4681 45.484C32.3908 45.324 32.3481 45.1627 32.3401 45C32.3348 44.8347 32.3321 44.6467 32.3321 44.436V40.48H32.9161V44.412C32.9161 44.5933 32.9175 44.7453 32.9201 44.868C32.9255 44.988 32.9535 45.0947 33.0041 45.188C33.1001 45.3667 33.2521 45.4733 33.4601 45.508C33.6708 45.5427 33.9308 45.5347 34.2401 45.484V46ZM31.4081 42.184V41.68H34.2401V42.184H31.4081ZM36.763 46.12C36.3417 46.12 35.9763 46.0267 35.667 45.84C35.3603 45.6533 35.1217 45.3907 34.951 45.052C34.7803 44.7133 34.695 44.316 34.695 43.86C34.695 43.388 34.779 42.98 34.947 42.636C35.115 42.292 35.351 42.0267 35.655 41.84C35.9617 41.6533 36.323 41.56 36.739 41.56C37.1657 41.56 37.5297 41.6587 37.831 41.856C38.1323 42.0507 38.3603 42.3307 38.515 42.696C38.6697 43.0613 38.7403 43.4973 38.727 44.004H38.127V43.796C38.1163 43.236 37.995 42.8133 37.763 42.528C37.5337 42.2427 37.1977 42.1 36.755 42.1C36.291 42.1 35.935 42.2507 35.687 42.552C35.4417 42.8533 35.319 43.2827 35.319 43.84C35.319 44.384 35.4417 44.8067 35.687 45.108C35.935 45.4067 36.2857 45.556 36.739 45.556C37.0483 45.556 37.3177 45.4853 37.547 45.344C37.779 45.2 37.9617 44.9933 38.095 44.724L38.643 44.936C38.4723 45.312 38.2203 45.604 37.887 45.812C37.5563 46.0173 37.1817 46.12 36.763 46.12ZM35.111 44.004V43.512H38.411V44.004H35.111ZM41.4427 46.12C41.0214 46.12 40.656 46.0267 40.3467 45.84C40.04 45.6533 39.8014 45.3907 39.6307 45.052C39.46 44.7133 39.3747 44.316 39.3747 43.86C39.3747 43.388 39.4587 42.98 39.6267 42.636C39.7947 42.292 40.0307 42.0267 40.3347 41.84C40.6414 41.6533 41.0027 41.56 41.4187 41.56C41.8454 41.56 42.2094 41.6587 42.5107 41.856C42.812 42.0507 43.04 42.3307 43.1947 42.696C43.3494 43.0613 43.42 43.4973 43.4067 44.004H42.8067V43.796C42.796 43.236 42.6747 42.8133 42.4427 42.528C42.2134 42.2427 41.8774 42.1 41.4347 42.1C40.9707 42.1 40.6147 42.2507 40.3667 42.552C40.1214 42.8533 39.9987 43.2827 39.9987 43.84C39.9987 44.384 40.1214 44.8067 40.3667 45.108C40.6147 45.4067 40.9654 45.556 41.4187 45.556C41.728 45.556 41.9974 45.4853 42.2267 45.344C42.4587 45.2 42.6414 44.9933 42.7747 44.724L43.3227 44.936C43.152 45.312 42.9 45.604 42.5667 45.812C42.236 46.0173 41.8614 46.12 41.4427 46.12ZM39.7907 44.004V43.512H43.0907V44.004H39.7907ZM44.3744 46V40.12H44.9624V46H44.3744Z" fill="#222222"/>
<path d="M13.3696 23.4243V13.3443H19.4386V15.0313H15.0566V17.5443H18.5986V19.2243H15.0566V23.4243H13.3696ZM20.6978 23.4243V13.3443H24.8628C24.9608 13.3443 25.0868 13.349 25.2408 13.3583C25.3948 13.363 25.5371 13.377 25.6678 13.4003C26.2511 13.489 26.7318 13.6826 27.1098 13.9813C27.4924 14.28 27.7748 14.658 27.9568 15.1153C28.1434 15.568 28.2368 16.072 28.2368 16.6273C28.2368 17.4486 28.0291 18.1556 27.6138 18.7483C27.1984 19.3363 26.5614 19.7003 25.7028 19.8403L24.9818 19.9033H22.3848V23.4243H20.6978ZM26.4868 23.4243L24.4988 19.3223L26.2138 18.9443L28.3978 23.4243H26.4868ZM22.3848 18.3283H24.7928C24.8861 18.3283 24.9911 18.3236 25.1078 18.3143C25.2244 18.305 25.3318 18.2863 25.4298 18.2583C25.7098 18.1883 25.9291 18.0646 26.0878 17.8873C26.2511 17.71 26.3654 17.5093 26.4308 17.2853C26.5008 17.0613 26.5358 16.842 26.5358 16.6273C26.5358 16.4126 26.5008 16.1933 26.4308 15.9693C26.3654 15.7406 26.2511 15.5376 26.0878 15.3603C25.9291 15.183 25.7098 15.0593 25.4298 14.9893C25.3318 14.9613 25.2244 14.945 25.1078 14.9403C24.9911 14.931 24.8861 14.9263 24.7928 14.9263H22.3848V18.3283ZM29.24 23.4243L32.418 13.3443H34.889L38.067 23.4243H36.331L33.447 14.3803H33.825L30.976 23.4243H29.24ZM31.011 21.2403V19.6653H36.303V21.2403H31.011ZM39.3325 23.4243V13.3443H40.8515L44.3375 20.4843L47.8235 13.3443H49.3425V23.4243H47.7675V16.9633L44.6735 23.4243H44.0015L40.9145 16.9633V23.4243H39.3325ZM51.3091 23.4243V13.3443H57.8191V14.9263H52.9961V17.4113H56.9791V18.9933H52.9961V21.8423H57.8191V23.4243H51.3091Z" fill="#222222"/>
<rect x="244.662" width="73.3372" height="56" rx="7" fill="#F1F1F1"/>
<g clip-path="url(#clip0_1324_60)">
<path d="M265.795 37.996L265.799 37.46L268.403 35.108C268.627 34.9053 268.775 34.7133 268.847 34.532C268.921 34.348 268.959 34.156 268.959 33.956C268.959 33.7187 268.903 33.504 268.791 33.312C268.679 33.12 268.528 32.968 268.339 32.856C268.149 32.7413 267.937 32.684 267.703 32.684C267.457 32.684 267.239 32.7427 267.047 32.86C266.855 32.9773 266.703 33.132 266.591 33.324C266.481 33.516 266.428 33.7253 266.431 33.952H265.831C265.831 33.6027 265.913 33.2893 266.079 33.012C266.244 32.7347 266.468 32.5173 266.751 32.36C267.033 32.2 267.353 32.12 267.711 32.12C268.06 32.12 268.373 32.2027 268.651 32.368C268.931 32.5307 269.151 32.752 269.311 33.032C269.473 33.3093 269.555 33.6187 269.555 33.96C269.555 34.2 269.525 34.412 269.467 34.596C269.411 34.7773 269.321 34.9467 269.199 35.104C269.079 35.2587 268.925 35.4187 268.739 35.584L266.427 37.672L266.335 37.432H269.555V37.996H265.795ZM272.465 38.12C272.105 38.12 271.777 38.0333 271.481 37.86C271.188 37.684 270.953 37.4467 270.777 37.148C270.604 36.8467 270.517 36.508 270.517 36.132V34.136C270.517 33.7493 270.604 33.4053 270.777 33.104C270.95 32.8 271.186 32.5613 271.485 32.388C271.786 32.212 272.128 32.124 272.509 32.124C272.837 32.124 273.141 32.196 273.421 32.34C273.704 32.484 273.934 32.6853 274.113 32.944L273.661 33.316C273.538 33.124 273.376 32.9707 273.173 32.856C272.97 32.7413 272.749 32.684 272.509 32.684C272.24 32.684 272 32.7493 271.789 32.88C271.578 33.0107 271.413 33.1827 271.293 33.396C271.173 33.6067 271.113 33.836 271.113 34.084V35.34L270.965 35.172C271.133 34.908 271.353 34.6947 271.625 34.532C271.9 34.3693 272.198 34.288 272.521 34.288C272.878 34.288 273.2 34.3733 273.485 34.544C273.77 34.712 273.997 34.94 274.165 35.228C274.333 35.516 274.417 35.8387 274.417 36.196C274.417 36.5507 274.328 36.8733 274.149 37.164C273.973 37.4547 273.737 37.6867 273.441 37.86C273.148 38.0333 272.822 38.12 272.465 38.12ZM272.465 37.548C272.716 37.548 272.944 37.488 273.149 37.368C273.357 37.248 273.521 37.0853 273.641 36.88C273.764 36.6747 273.825 36.4467 273.825 36.196C273.825 35.9453 273.764 35.7173 273.641 35.512C273.521 35.304 273.358 35.14 273.153 35.02C272.948 34.8973 272.72 34.836 272.469 34.836C272.218 34.836 271.99 34.8973 271.785 35.02C271.58 35.14 271.416 35.304 271.293 35.512C271.173 35.7173 271.113 35.9453 271.113 36.196C271.113 36.444 271.173 36.6707 271.293 36.876C271.413 37.0813 271.576 37.2453 271.781 37.368C271.986 37.488 272.214 37.548 272.465 37.548ZM276.6 38L278.596 35.084L276.652 32.24H277.364L278.944 34.592L280.524 32.24H281.24L279.296 35.084L281.288 38H280.576L278.944 35.58L277.316 38H276.6ZM283.373 37.996L283.377 37.46L285.981 35.108C286.205 34.9053 286.353 34.7133 286.425 34.532C286.499 34.348 286.537 34.156 286.537 33.956C286.537 33.7187 286.481 33.504 286.369 33.312C286.257 33.12 286.106 32.968 285.917 32.856C285.727 32.7413 285.515 32.684 285.281 32.684C285.035 32.684 284.817 32.7427 284.625 32.86C284.433 32.9773 284.281 33.132 284.169 33.324C284.059 33.516 284.006 33.7253 284.009 33.952H283.409C283.409 33.6027 283.491 33.2893 283.657 33.012C283.822 32.7347 284.046 32.5173 284.329 32.36C284.611 32.2 284.931 32.12 285.289 32.12C285.638 32.12 285.951 32.2027 286.229 32.368C286.509 32.5307 286.729 32.752 286.889 33.032C287.051 33.3093 287.133 33.6187 287.133 33.96C287.133 34.2 287.103 34.412 287.045 34.596C286.989 34.7773 286.899 34.9467 286.777 35.104C286.657 35.2587 286.503 35.4187 286.317 35.584L284.005 37.672L283.913 37.432H287.133V37.996H283.373ZM288.207 38V37.316H288.891V38H288.207ZM290.169 38V32.896L289.085 33.548V32.888L290.169 32.24H290.765V38H290.169ZM294.163 38.12C293.808 38.12 293.488 38.0373 293.203 37.872C292.92 37.7067 292.696 37.4827 292.531 37.2C292.365 36.9147 292.283 36.5947 292.283 36.24V34C292.283 33.6453 292.365 33.3267 292.531 33.044C292.696 32.7587 292.92 32.5333 293.203 32.368C293.488 32.2027 293.808 32.12 294.163 32.12C294.517 32.12 294.836 32.2027 295.119 32.368C295.404 32.5333 295.629 32.7587 295.795 33.044C295.96 33.3267 296.043 33.6453 296.043 34V36.24C296.043 36.5947 295.96 36.9147 295.795 37.2C295.629 37.4827 295.404 37.7067 295.119 37.872C294.836 38.0373 294.517 38.12 294.163 38.12ZM294.163 37.552C294.4 37.552 294.616 37.4947 294.811 37.38C295.005 37.2627 295.16 37.1067 295.275 36.912C295.389 36.7173 295.447 36.5027 295.447 36.268V33.972C295.447 33.7347 295.389 33.5187 295.275 33.324C295.16 33.1293 295.005 32.9747 294.811 32.86C294.616 32.7427 294.4 32.684 294.163 32.684C293.925 32.684 293.709 32.7427 293.515 32.86C293.32 32.9747 293.165 33.1293 293.051 33.324C292.936 33.5187 292.879 33.7347 292.879 33.972V36.268C292.879 36.5027 292.936 36.7173 293.051 36.912C293.165 37.1067 293.32 37.2627 293.515 37.38C293.709 37.4947 293.925 37.552 294.163 37.552ZM271.037 46V40.24H271.629L274.801 44.96V40.24H275.393V46H274.801L271.629 41.276V46H271.037ZM277.129 47.92L277.965 45.652L277.977 46.324L276.085 41.68H276.709L278.261 45.564H278.005L279.437 41.68H280.037L277.717 47.92H277.129ZM280.812 46V40.12H281.4V46H280.812ZM284.403 46.12C283.974 46.12 283.607 46.0227 283.303 45.828C282.999 45.6333 282.766 45.364 282.603 45.02C282.44 44.676 282.359 44.2813 282.359 43.836C282.359 43.3827 282.442 42.9853 282.607 42.644C282.772 42.3027 283.007 42.0373 283.311 41.848C283.618 41.656 283.982 41.56 284.403 41.56C284.835 41.56 285.203 41.6573 285.507 41.852C285.814 42.044 286.047 42.312 286.207 42.656C286.37 42.9973 286.451 43.3907 286.451 43.836C286.451 44.2893 286.37 44.688 286.207 45.032C286.044 45.3733 285.81 45.64 285.503 45.832C285.196 46.024 284.83 46.12 284.403 46.12ZM284.403 45.556C284.883 45.556 285.24 45.3973 285.475 45.08C285.71 44.76 285.827 44.3453 285.827 43.836C285.827 43.3133 285.708 42.8973 285.471 42.588C285.236 42.2787 284.88 42.124 284.403 42.124C284.08 42.124 283.814 42.1973 283.603 42.344C283.395 42.488 283.239 42.6893 283.135 42.948C283.034 43.204 282.983 43.5 282.983 43.836C282.983 44.356 283.103 44.7733 283.343 45.088C283.583 45.4 283.936 45.556 284.403 45.556ZM290.453 46V43.796C290.453 43.556 290.431 43.336 290.385 43.136C290.34 42.9333 290.267 42.7573 290.165 42.608C290.067 42.456 289.937 42.3387 289.777 42.256C289.62 42.1733 289.428 42.132 289.201 42.132C288.993 42.132 288.809 42.168 288.649 42.24C288.492 42.312 288.359 42.416 288.249 42.552C288.143 42.6853 288.061 42.848 288.005 43.04C287.949 43.232 287.921 43.4507 287.921 43.696L287.505 43.604C287.505 43.1613 287.583 42.7893 287.737 42.488C287.892 42.1867 288.105 41.9587 288.377 41.804C288.649 41.6493 288.961 41.572 289.313 41.572C289.572 41.572 289.797 41.612 289.989 41.692C290.184 41.772 290.348 41.88 290.481 42.016C290.617 42.152 290.727 42.308 290.809 42.484C290.892 42.6573 290.952 42.8427 290.989 43.04C291.027 43.2347 291.045 43.4293 291.045 43.624V46H290.453ZM287.329 46V41.68H287.861V42.744H287.921V46H287.329Z" fill="#222222"/>
</g>
<path d="M261.402 23V14.502H258.14V12.92H266.351V14.502H263.089V23H261.402ZM270.344 23V18.87L266.914 12.92H268.881L271.198 16.938L273.508 12.92H275.475L272.052 18.87V23H270.344ZM276.453 23V12.92H280.618C280.716 12.92 280.842 12.9247 280.996 12.934C281.15 12.9387 281.292 12.9527 281.423 12.976C282.006 13.0647 282.487 13.2583 282.865 13.557C283.247 13.8557 283.53 14.2337 283.712 14.691C283.898 15.1437 283.992 15.6477 283.992 16.203C283.992 17.0243 283.784 17.7313 283.369 18.324C282.953 18.912 282.316 19.276 281.458 19.416L280.737 19.479H278.14V23H276.453ZM282.242 23L280.254 18.898L281.969 18.52L284.153 23H282.242ZM278.14 17.904H280.548C280.641 17.904 280.746 17.8993 280.863 17.89C280.979 17.8807 281.087 17.862 281.185 17.834C281.465 17.764 281.684 17.6403 281.843 17.463C282.006 17.2857 282.12 17.085 282.186 16.861C282.256 16.637 282.291 16.4177 282.291 16.203C282.291 15.9883 282.256 15.769 282.186 15.545C282.12 15.3163 282.006 15.1133 281.843 14.936C281.684 14.7587 281.465 14.635 281.185 14.565C281.087 14.537 280.979 14.5207 280.863 14.516C280.746 14.5067 280.641 14.502 280.548 14.502H278.14V17.904ZM285.695 23V12.92H292.205V14.502H287.382V16.987H291.365V18.569H287.382V21.418H292.205V23H285.695ZM297.52 23.21C296.782 23.21 296.117 23.0817 295.525 22.825C294.937 22.5683 294.451 22.202 294.069 21.726C293.691 21.2453 293.45 20.676 293.348 20.018L295.098 19.752C295.247 20.3493 295.553 20.8113 296.015 21.138C296.481 21.4647 297.018 21.628 297.625 21.628C297.984 21.628 298.322 21.572 298.64 21.46C298.957 21.348 299.214 21.1847 299.41 20.97C299.61 20.7553 299.711 20.4917 299.711 20.179C299.711 20.039 299.687 19.9107 299.641 19.794C299.594 19.6727 299.524 19.5653 299.431 19.472C299.342 19.3787 299.225 19.2947 299.081 19.22C298.941 19.1407 298.777 19.073 298.591 19.017L295.987 18.247C295.763 18.1817 295.52 18.0953 295.259 17.988C295.002 17.876 294.757 17.7243 294.524 17.533C294.295 17.337 294.106 17.0897 293.957 16.791C293.812 16.4877 293.74 16.1143 293.74 15.671C293.74 15.0223 293.903 14.4787 294.23 14.04C294.561 13.5967 295.004 13.2653 295.56 13.046C296.12 12.8267 296.74 12.7193 297.422 12.724C298.112 12.7287 298.728 12.8477 299.27 13.081C299.811 13.3097 300.264 13.6433 300.628 14.082C300.992 14.5207 301.248 15.0503 301.398 15.671L299.585 15.986C299.51 15.6313 299.365 15.3303 299.151 15.083C298.941 14.831 298.682 14.6397 298.374 14.509C298.07 14.3783 297.746 14.3083 297.401 14.299C297.065 14.2943 296.752 14.3457 296.463 14.453C296.178 14.5557 295.947 14.705 295.77 14.901C295.597 15.097 295.511 15.3257 295.511 15.587C295.511 15.8343 295.585 16.0373 295.735 16.196C295.884 16.35 296.068 16.4737 296.288 16.567C296.512 16.6557 296.738 16.7303 296.967 16.791L298.773 17.295C299.02 17.3603 299.298 17.449 299.606 17.561C299.914 17.673 300.21 17.8293 300.495 18.03C300.779 18.2307 301.013 18.4943 301.195 18.821C301.381 19.1477 301.475 19.563 301.475 20.067C301.475 20.5897 301.365 21.0493 301.146 21.446C300.931 21.838 300.639 22.1647 300.271 22.426C299.902 22.6873 299.48 22.8833 299.004 23.014C298.532 23.1447 298.038 23.21 297.52 23.21Z" fill="#222222"/>
<rect x="81.3496" width="73.3372" height="56" rx="7" fill="#F1F1F1"/>
<g clip-path="url(#clip1_1324_60)">
<path d="M98.8178 38.12C98.4151 38.12 98.0525 38.0533 97.7298 37.92C97.4098 37.784 97.1445 37.592 96.9338 37.344C96.7258 37.096 96.5898 36.8013 96.5258 36.46L97.1258 36.36C97.2218 36.7333 97.4245 37.0267 97.7338 37.24C98.0431 37.4507 98.4125 37.556 98.8418 37.556C99.1245 37.556 99.3778 37.512 99.6018 37.424C99.8258 37.3333 100.002 37.2053 100.13 37.04C100.258 36.8747 100.322 36.6787 100.322 36.452C100.322 36.3027 100.295 36.176 100.242 36.072C100.188 35.9653 100.118 35.8773 100.03 35.808C99.9418 35.7387 99.8458 35.6813 99.7418 35.636C99.6378 35.588 99.5365 35.5493 99.4378 35.52L97.9778 35.084C97.8018 35.0333 97.6391 34.9693 97.4898 34.892C97.3405 34.812 97.2098 34.7173 97.0978 34.608C96.9885 34.496 96.9031 34.3653 96.8418 34.216C96.7805 34.0667 96.7498 33.896 96.7498 33.704C96.7498 33.3787 96.8351 33.0973 97.0058 32.86C97.1765 32.6227 97.4098 32.44 97.7058 32.312C98.0018 32.184 98.3391 32.1213 98.7178 32.124C99.1018 32.124 99.4445 32.192 99.7458 32.328C100.05 32.464 100.3 32.6587 100.498 32.912C100.695 33.1627 100.826 33.46 100.89 33.804L100.274 33.916C100.234 33.6653 100.142 33.448 99.9978 33.264C99.8538 33.08 99.6698 32.9387 99.4458 32.84C99.2245 32.7387 98.9805 32.6867 98.7138 32.684C98.4551 32.684 98.2245 32.728 98.0218 32.816C97.8218 32.9013 97.6631 33.0187 97.5458 33.168C97.4285 33.3173 97.3698 33.488 97.3698 33.68C97.3698 33.8747 97.4231 34.0307 97.5298 34.148C97.6391 34.2653 97.7725 34.3573 97.9298 34.424C98.0898 34.4907 98.2445 34.5453 98.3938 34.588L99.5218 34.92C99.6391 34.952 99.7765 34.9987 99.9338 35.06C100.094 35.1187 100.248 35.204 100.398 35.316C100.55 35.4253 100.675 35.5693 100.774 35.748C100.872 35.9267 100.922 36.1533 100.922 36.428C100.922 36.6947 100.868 36.9333 100.762 37.144C100.658 37.3547 100.51 37.532 100.318 37.676C100.128 37.82 99.9058 37.9293 99.6498 38.004C99.3965 38.0813 99.1191 38.12 98.8178 38.12ZM103.4 38.108C103.141 38.108 102.914 38.068 102.72 37.988C102.528 37.908 102.364 37.8 102.228 37.664C102.094 37.528 101.986 37.3733 101.904 37.2C101.821 37.024 101.761 36.8387 101.724 36.644C101.686 36.4467 101.668 36.2507 101.668 36.056V33.68H102.26V35.884C102.26 36.1213 102.282 36.3413 102.328 36.544C102.373 36.7467 102.445 36.924 102.544 37.076C102.645 37.2253 102.774 37.3413 102.932 37.424C103.092 37.5067 103.285 37.548 103.512 37.548C103.72 37.548 103.902 37.512 104.06 37.44C104.22 37.368 104.353 37.2653 104.46 37.132C104.569 36.996 104.652 36.832 104.708 36.64C104.764 36.4453 104.792 36.2267 104.792 35.984L105.207 36.076C105.207 36.5187 105.13 36.8907 104.976 37.192C104.821 37.4933 104.608 37.7213 104.336 37.876C104.064 38.0307 103.752 38.108 103.4 38.108ZM104.852 38V36.936H104.792V33.68H105.38V38H104.852ZM108.11 38.116C107.603 38.116 107.186 38.0067 106.858 37.788C106.532 37.5693 106.332 37.2653 106.258 36.876L106.858 36.776C106.922 37.0213 107.067 37.2173 107.294 37.364C107.523 37.508 107.806 37.58 108.141 37.58C108.47 37.58 108.728 37.512 108.918 37.376C109.107 37.2373 109.202 37.0493 109.202 36.812C109.202 36.6787 109.171 36.5707 109.11 36.488C109.051 36.4027 108.93 36.324 108.746 36.252C108.562 36.18 108.287 36.0947 107.922 35.996C107.53 35.8893 107.223 35.7827 107.002 35.676C106.78 35.5693 106.623 35.4467 106.53 35.308C106.436 35.1667 106.39 34.9947 106.39 34.792C106.39 34.5467 106.459 34.332 106.598 34.148C106.736 33.9613 106.928 33.8173 107.174 33.716C107.419 33.612 107.704 33.56 108.03 33.56C108.355 33.56 108.646 33.6133 108.902 33.72C109.16 33.824 109.368 33.9707 109.526 34.16C109.683 34.3493 109.776 34.5693 109.806 34.82L109.206 34.928C109.166 34.6747 109.039 34.4747 108.826 34.328C108.615 34.1787 108.347 34.1013 108.022 34.096C107.715 34.088 107.466 34.1467 107.274 34.272C107.082 34.3947 106.986 34.5587 106.986 34.764C106.986 34.8787 107.02 34.9773 107.09 35.06C107.159 35.14 107.284 35.216 107.466 35.288C107.65 35.36 107.911 35.4387 108.25 35.524C108.647 35.6253 108.959 35.732 109.186 35.844C109.412 35.956 109.574 36.088 109.67 36.24C109.766 36.392 109.814 36.58 109.814 36.804C109.814 37.212 109.662 37.5333 109.358 37.768C109.056 38 108.64 38.116 108.11 38.116ZM112.641 38.12C112.243 38.12 111.907 38.02 111.633 37.82C111.358 37.6173 111.15 37.344 111.009 37C110.867 36.6533 110.797 36.2653 110.797 35.836C110.797 35.3987 110.867 35.0093 111.009 34.668C111.153 34.324 111.363 34.0533 111.641 33.856C111.918 33.6587 112.259 33.56 112.665 33.56C113.059 33.56 113.398 33.66 113.681 33.86C113.963 34.06 114.179 34.332 114.329 34.676C114.481 35.02 114.557 35.4067 114.557 35.836C114.557 36.268 114.481 36.656 114.329 37C114.177 37.344 113.958 37.6173 113.673 37.82C113.387 38.02 113.043 38.12 112.641 38.12ZM110.697 39.92V33.68H111.225V36.932H111.289V39.92H110.697ZM112.581 37.572C112.882 37.572 113.133 37.496 113.333 37.344C113.533 37.192 113.682 36.9853 113.781 36.724C113.882 36.46 113.933 36.164 113.933 35.836C113.933 35.5107 113.883 35.2173 113.785 34.956C113.686 34.6947 113.535 34.488 113.333 34.336C113.133 34.184 112.878 34.108 112.569 34.108C112.267 34.108 112.017 34.1813 111.817 34.328C111.619 34.4747 111.471 34.6787 111.373 34.94C111.274 35.1987 111.225 35.4973 111.225 35.836C111.225 36.1693 111.274 36.468 111.373 36.732C111.471 36.9933 111.621 37.1987 111.821 37.348C112.021 37.4973 112.274 37.572 112.581 37.572ZM117.263 38.12C116.842 38.12 116.476 38.0267 116.167 37.84C115.86 37.6533 115.622 37.3907 115.451 37.052C115.28 36.7133 115.195 36.316 115.195 35.86C115.195 35.388 115.279 34.98 115.447 34.636C115.615 34.292 115.851 34.0267 116.155 33.84C116.462 33.6533 116.823 33.56 117.239 33.56C117.666 33.56 118.03 33.6587 118.331 33.856C118.632 34.0507 118.86 34.3307 119.015 34.696C119.17 35.0613 119.24 35.4973 119.227 36.004H118.627V35.796C118.616 35.236 118.495 34.8133 118.263 34.528C118.034 34.2427 117.698 34.1 117.255 34.1C116.791 34.1 116.435 34.2507 116.187 34.552C115.942 34.8533 115.819 35.2827 115.819 35.84C115.819 36.384 115.942 36.8067 116.187 37.108C116.435 37.4067 116.786 37.556 117.239 37.556C117.548 37.556 117.818 37.4853 118.047 37.344C118.279 37.2 118.462 36.9933 118.595 36.724L119.143 36.936C118.972 37.312 118.72 37.604 118.387 37.812C118.056 38.0173 117.682 38.12 117.263 38.12ZM115.611 36.004V35.512H118.911V36.004H115.611ZM123.118 38V35.796C123.118 35.556 123.095 35.336 123.05 35.136C123.004 34.9333 122.931 34.7573 122.83 34.608C122.731 34.456 122.602 34.3387 122.442 34.256C122.284 34.1733 122.092 34.132 121.866 34.132C121.658 34.132 121.474 34.168 121.314 34.24C121.156 34.312 121.023 34.416 120.914 34.552C120.807 34.6853 120.726 34.848 120.67 35.04C120.614 35.232 120.586 35.4507 120.586 35.696L120.17 35.604C120.17 35.1613 120.247 34.7893 120.402 34.488C120.556 34.1867 120.77 33.9587 121.042 33.804C121.314 33.6493 121.626 33.572 121.978 33.572C122.236 33.572 122.462 33.612 122.654 33.692C122.848 33.772 123.012 33.88 123.146 34.016C123.282 34.152 123.391 34.308 123.474 34.484C123.556 34.6573 123.616 34.8427 123.654 35.04C123.691 35.2347 123.71 35.4293 123.71 35.624V38H123.118ZM119.994 38V33.68H120.526V34.744H120.586V38H119.994ZM126.36 38.116C125.853 38.116 125.436 38.0067 125.108 37.788C124.782 37.5693 124.582 37.2653 124.508 36.876L125.108 36.776C125.172 37.0213 125.317 37.2173 125.544 37.364C125.773 37.508 126.056 37.58 126.391 37.58C126.72 37.58 126.978 37.512 127.168 37.376C127.357 37.2373 127.452 37.0493 127.452 36.812C127.452 36.6787 127.421 36.5707 127.36 36.488C127.301 36.4027 127.18 36.324 126.996 36.252C126.812 36.18 126.537 36.0947 126.172 35.996C125.78 35.8893 125.473 35.7827 125.252 35.676C125.03 35.5693 124.873 35.4467 124.78 35.308C124.686 35.1667 124.64 34.9947 124.64 34.792C124.64 34.5467 124.709 34.332 124.848 34.148C124.986 33.9613 125.178 33.8173 125.424 33.716C125.669 33.612 125.954 33.56 126.28 33.56C126.605 33.56 126.896 33.6133 127.152 33.72C127.41 33.824 127.618 33.9707 127.776 34.16C127.933 34.3493 128.026 34.5693 128.056 34.82L127.456 34.928C127.416 34.6747 127.289 34.4747 127.076 34.328C126.865 34.1787 126.597 34.1013 126.272 34.096C125.965 34.088 125.716 34.1467 125.524 34.272C125.332 34.3947 125.236 34.5587 125.236 34.764C125.236 34.8787 125.27 34.9773 125.34 35.06C125.409 35.14 125.534 35.216 125.716 35.288C125.9 35.36 126.161 35.4387 126.5 35.524C126.897 35.6253 127.209 35.732 127.436 35.844C127.662 35.956 127.824 36.088 127.92 36.24C128.016 36.392 128.064 36.58 128.064 36.804C128.064 37.212 127.912 37.5333 127.608 37.768C127.306 38 126.89 38.116 126.36 38.116ZM129.031 32.86V32.2H129.619V32.86H129.031ZM129.031 38V33.68H129.619V38H129.031ZM132.622 38.12C132.192 38.12 131.826 38.0227 131.522 37.828C131.218 37.6333 130.984 37.364 130.822 37.02C130.659 36.676 130.578 36.2813 130.578 35.836C130.578 35.3827 130.66 34.9853 130.826 34.644C130.991 34.3027 131.226 34.0373 131.53 33.848C131.836 33.656 132.2 33.56 132.622 33.56C133.054 33.56 133.422 33.6573 133.726 33.852C134.032 34.044 134.266 34.312 134.426 34.656C134.588 34.9973 134.67 35.3907 134.67 35.836C134.67 36.2893 134.588 36.688 134.426 37.032C134.263 37.3733 134.028 37.64 133.722 37.832C133.415 38.024 133.048 38.12 132.622 38.12ZM132.622 37.556C133.102 37.556 133.459 37.3973 133.694 37.08C133.928 36.76 134.046 36.3453 134.046 35.836C134.046 35.3133 133.927 34.8973 133.69 34.588C133.455 34.2787 133.099 34.124 132.622 34.124C132.299 34.124 132.032 34.1973 131.822 34.344C131.614 34.488 131.458 34.6893 131.354 34.948C131.252 35.204 131.202 35.5 131.202 35.836C131.202 36.356 131.322 36.7733 131.562 37.088C131.802 37.4 132.155 37.556 132.622 37.556ZM138.672 38V35.796C138.672 35.556 138.65 35.336 138.604 35.136C138.559 34.9333 138.486 34.7573 138.384 34.608C138.286 34.456 138.156 34.3387 137.996 34.256C137.839 34.1733 137.647 34.132 137.42 34.132C137.212 34.132 137.028 34.168 136.868 34.24C136.711 34.312 136.578 34.416 136.468 34.552C136.362 34.6853 136.28 34.848 136.224 35.04C136.168 35.232 136.14 35.4507 136.14 35.696L135.724 35.604C135.724 35.1613 135.802 34.7893 135.956 34.488C136.111 34.1867 136.324 33.9587 136.596 33.804C136.868 33.6493 137.18 33.572 137.532 33.572C137.791 33.572 138.016 33.612 138.208 33.692C138.403 33.772 138.567 33.88 138.7 34.016C138.836 34.152 138.946 34.308 139.028 34.484C139.111 34.6573 139.171 34.8427 139.208 35.04C139.246 35.2347 139.264 35.4293 139.264 35.624V38H138.672ZM135.548 38V33.68H136.08V34.744H136.14V38H135.548ZM102.131 46V40.804H100.119V40.24H104.731V40.804H102.719V46H102.131ZM104.974 46V41.68H105.502V42.72L105.398 42.584C105.446 42.456 105.509 42.3387 105.586 42.232C105.663 42.1227 105.747 42.0333 105.838 41.964C105.95 41.8653 106.081 41.7907 106.23 41.74C106.379 41.6867 106.53 41.656 106.682 41.648C106.834 41.6373 106.973 41.648 107.098 41.68V42.232C106.941 42.192 106.769 42.1827 106.582 42.204C106.395 42.2253 106.223 42.3 106.066 42.428C105.922 42.54 105.814 42.6747 105.742 42.832C105.67 42.9867 105.622 43.152 105.598 43.328C105.574 43.5013 105.562 43.6733 105.562 43.844V46H104.974ZM109.607 46.12C109.185 46.12 108.82 46.0267 108.511 45.84C108.204 45.6533 107.965 45.3907 107.795 45.052C107.624 44.7133 107.539 44.316 107.539 43.86C107.539 43.388 107.623 42.98 107.791 42.636C107.959 42.292 108.195 42.0267 108.499 41.84C108.805 41.6533 109.167 41.56 109.583 41.56C110.009 41.56 110.373 41.6587 110.675 41.856C110.976 42.0507 111.204 42.3307 111.359 42.696C111.513 43.0613 111.584 43.4973 111.571 44.004H110.971V43.796C110.96 43.236 110.839 42.8133 110.607 42.528C110.377 42.2427 110.041 42.1 109.599 42.1C109.135 42.1 108.779 42.2507 108.531 42.552C108.285 42.8533 108.163 43.2827 108.163 43.84C108.163 44.384 108.285 44.8067 108.531 45.108C108.779 45.4067 109.129 45.556 109.583 45.556C109.892 45.556 110.161 45.4853 110.391 45.344C110.623 45.2 110.805 44.9933 110.939 44.724L111.487 44.936C111.316 45.312 111.064 45.604 110.731 45.812C110.4 46.0173 110.025 46.12 109.607 46.12ZM107.955 44.004V43.512H111.255V44.004H107.955ZM113.616 46.12C113.291 46.12 113.018 46.0613 112.796 45.944C112.578 45.8267 112.414 45.6707 112.304 45.476C112.195 45.2813 112.14 45.0693 112.14 44.84C112.14 44.6053 112.187 44.4053 112.28 44.24C112.376 44.072 112.506 43.9347 112.668 43.828C112.834 43.7213 113.024 43.64 113.24 43.584C113.459 43.5307 113.7 43.484 113.964 43.444C114.231 43.4013 114.491 43.3653 114.744 43.336C115 43.304 115.224 43.2733 115.416 43.244L115.208 43.372C115.216 42.9453 115.134 42.6293 114.96 42.424C114.787 42.2187 114.486 42.116 114.056 42.116C113.76 42.116 113.51 42.1827 113.304 42.316C113.102 42.4493 112.959 42.66 112.876 42.948L112.304 42.78C112.403 42.3933 112.602 42.0933 112.9 41.88C113.199 41.6667 113.587 41.56 114.064 41.56C114.459 41.56 114.794 41.6347 115.068 41.784C115.346 41.9307 115.542 42.144 115.656 42.424C115.71 42.5493 115.744 42.6893 115.76 42.844C115.776 42.9987 115.784 43.156 115.784 43.316V46H115.26V44.916L115.412 44.98C115.266 45.3507 115.038 45.6333 114.728 45.828C114.419 46.0227 114.048 46.12 113.616 46.12ZM113.684 45.612C113.959 45.612 114.199 45.5627 114.404 45.464C114.61 45.3653 114.775 45.2307 114.9 45.06C115.026 44.8867 115.107 44.692 115.144 44.476C115.176 44.3373 115.194 44.1853 115.196 44.02C115.199 43.852 115.2 43.7267 115.2 43.644L115.424 43.76C115.224 43.7867 115.007 43.8133 114.772 43.84C114.54 43.8667 114.311 43.8973 114.084 43.932C113.86 43.9667 113.658 44.008 113.476 44.056C113.354 44.0907 113.235 44.14 113.12 44.204C113.006 44.2653 112.911 44.348 112.836 44.452C112.764 44.556 112.728 44.6853 112.728 44.84C112.728 44.9653 112.759 45.0867 112.82 45.204C112.884 45.3213 112.986 45.4187 113.124 45.496C113.266 45.5733 113.452 45.612 113.684 45.612ZM118.502 46.12C118.099 46.12 117.755 46.02 117.47 45.82C117.184 45.6173 116.966 45.344 116.814 45C116.662 44.656 116.586 44.268 116.586 43.836C116.586 43.4067 116.66 43.02 116.81 42.676C116.962 42.332 117.179 42.06 117.462 41.86C117.744 41.66 118.083 41.56 118.478 41.56C118.883 41.56 119.224 41.6587 119.502 41.856C119.779 42.0533 119.988 42.324 120.13 42.668C120.274 43.0093 120.346 43.3987 120.346 43.836C120.346 44.2653 120.275 44.6533 120.134 45C119.992 45.344 119.784 45.6173 119.51 45.82C119.235 46.02 118.899 46.12 118.502 46.12ZM118.562 45.572C118.868 45.572 119.122 45.4973 119.322 45.348C119.522 45.1987 119.671 44.9933 119.77 44.732C119.868 44.468 119.918 44.1693 119.918 43.836C119.918 43.4973 119.868 43.1987 119.77 42.94C119.671 42.6787 119.522 42.4747 119.322 42.328C119.124 42.1813 118.875 42.108 118.574 42.108C118.264 42.108 118.008 42.184 117.806 42.336C117.603 42.488 117.452 42.6947 117.354 42.956C117.258 43.2173 117.21 43.5107 117.21 43.836C117.21 44.164 117.259 44.46 117.358 44.724C117.459 44.9853 117.61 45.192 117.81 45.344C118.01 45.496 118.26 45.572 118.562 45.572ZM119.918 46V42.748H119.854V40.24H120.446V46H119.918ZM121.648 46V40.12H122.236V46H121.648ZM125.263 46.12C124.842 46.12 124.476 46.0267 124.167 45.84C123.86 45.6533 123.622 45.3907 123.451 45.052C123.28 44.7133 123.195 44.316 123.195 43.86C123.195 43.388 123.279 42.98 123.447 42.636C123.615 42.292 123.851 42.0267 124.155 41.84C124.462 41.6533 124.823 41.56 125.239 41.56C125.666 41.56 126.03 41.6587 126.331 41.856C126.632 42.0507 126.86 42.3307 127.015 42.696C127.17 43.0613 127.24 43.4973 127.227 44.004H126.627V43.796C126.616 43.236 126.495 42.8133 126.263 42.528C126.034 42.2427 125.698 42.1 125.255 42.1C124.791 42.1 124.435 42.2507 124.187 42.552C123.942 42.8533 123.819 43.2827 123.819 43.84C123.819 44.384 123.942 44.8067 124.187 45.108C124.435 45.4067 124.786 45.556 125.239 45.556C125.548 45.556 125.818 45.4853 126.047 45.344C126.279 45.2 126.462 44.9933 126.595 44.724L127.143 44.936C126.972 45.312 126.72 45.604 126.387 45.812C126.056 46.0173 125.682 46.12 125.263 46.12ZM123.611 44.004V43.512H126.911V44.004H123.611ZM129.727 46.116C129.22 46.116 128.803 46.0067 128.475 45.788C128.149 45.5693 127.949 45.2653 127.875 44.876L128.475 44.776C128.539 45.0213 128.684 45.2173 128.911 45.364C129.14 45.508 129.423 45.58 129.759 45.58C130.087 45.58 130.345 45.512 130.535 45.376C130.724 45.2373 130.819 45.0493 130.819 44.812C130.819 44.6787 130.788 44.5707 130.727 44.488C130.668 44.4027 130.547 44.324 130.363 44.252C130.179 44.18 129.904 44.0947 129.539 43.996C129.147 43.8893 128.84 43.7827 128.619 43.676C128.397 43.5693 128.24 43.4467 128.147 43.308C128.053 43.1667 128.007 42.9947 128.007 42.792C128.007 42.5467 128.076 42.332 128.215 42.148C128.353 41.9613 128.545 41.8173 128.791 41.716C129.036 41.612 129.321 41.56 129.647 41.56C129.972 41.56 130.263 41.6133 130.519 41.72C130.777 41.824 130.985 41.9707 131.143 42.16C131.3 42.3493 131.393 42.5693 131.423 42.82L130.823 42.928C130.783 42.6747 130.656 42.4747 130.443 42.328C130.232 42.1787 129.964 42.1013 129.639 42.096C129.332 42.088 129.083 42.1467 128.891 42.272C128.699 42.3947 128.603 42.5587 128.603 42.764C128.603 42.8787 128.637 42.9773 128.707 43.06C128.776 43.14 128.901 43.216 129.083 43.288C129.267 43.36 129.528 43.4387 129.867 43.524C130.264 43.6253 130.576 43.732 130.803 43.844C131.029 43.956 131.191 44.088 131.287 44.24C131.383 44.392 131.431 44.58 131.431 44.804C131.431 45.212 131.279 45.5333 130.975 45.768C130.673 46 130.257 46.116 129.727 46.116ZM133.93 46.116C133.423 46.116 133.006 46.0067 132.678 45.788C132.352 45.5693 132.152 45.2653 132.078 44.876L132.678 44.776C132.742 45.0213 132.887 45.2173 133.114 45.364C133.343 45.508 133.626 45.58 133.962 45.58C134.29 45.58 134.548 45.512 134.738 45.376C134.927 45.2373 135.022 45.0493 135.022 44.812C135.022 44.6787 134.991 44.5707 134.93 44.488C134.871 44.4027 134.75 44.324 134.566 44.252C134.382 44.18 134.107 44.0947 133.742 43.996C133.35 43.8893 133.043 43.7827 132.822 43.676C132.6 43.5693 132.443 43.4467 132.35 43.308C132.256 43.1667 132.21 42.9947 132.21 42.792C132.21 42.5467 132.279 42.332 132.418 42.148C132.556 41.9613 132.748 41.8173 132.994 41.716C133.239 41.612 133.524 41.56 133.85 41.56C134.175 41.56 134.466 41.6133 134.722 41.72C134.98 41.824 135.188 41.9707 135.346 42.16C135.503 42.3493 135.596 42.5693 135.626 42.82L135.026 42.928C134.986 42.6747 134.859 42.4747 134.646 42.328C134.435 42.1787 134.167 42.1013 133.842 42.096C133.535 42.088 133.286 42.1467 133.094 42.272C132.902 42.3947 132.806 42.5587 132.806 42.764C132.806 42.8787 132.84 42.9773 132.91 43.06C132.979 43.14 133.104 43.216 133.286 43.288C133.47 43.36 133.731 43.4387 134.07 43.524C134.467 43.6253 134.779 43.732 135.006 43.844C135.232 43.956 135.394 44.088 135.49 44.24C135.586 44.392 135.634 44.58 135.634 44.804C135.634 45.212 135.482 45.5333 135.178 45.768C134.876 46 134.46 46.116 133.93 46.116Z" fill="#222222"/>
</g>
<path d="M99.98 23V12.92H106.049V14.607H101.667V17.12H105.209V18.8H101.667V23H99.98ZM111.571 23.21C110.563 23.21 109.7 22.9907 108.981 22.552C108.262 22.1087 107.709 21.4927 107.322 20.704C106.939 19.9153 106.748 19.0007 106.748 17.96C106.748 16.9193 106.939 16.0047 107.322 15.216C107.709 14.4273 108.262 13.8137 108.981 13.375C109.7 12.9317 110.563 12.71 111.571 12.71C112.579 12.71 113.442 12.9317 114.161 13.375C114.884 13.8137 115.437 14.4273 115.82 15.216C116.207 16.0047 116.401 16.9193 116.401 17.96C116.401 19.0007 116.207 19.9153 115.82 20.704C115.437 21.4927 114.884 22.1087 114.161 22.552C113.442 22.9907 112.579 23.21 111.571 23.21ZM111.571 21.621C112.248 21.6257 112.81 21.4763 113.258 21.173C113.711 20.8697 114.049 20.4427 114.273 19.892C114.502 19.3413 114.616 18.6973 114.616 17.96C114.616 17.2227 114.502 16.5833 114.273 16.042C114.049 15.496 113.711 15.0713 113.258 14.768C112.81 14.4647 112.248 14.3083 111.571 14.299C110.894 14.2943 110.332 14.4437 109.884 14.747C109.436 15.0503 109.098 15.4773 108.869 16.028C108.645 16.5787 108.533 17.2227 108.533 17.96C108.533 18.6973 108.645 19.339 108.869 19.885C109.093 20.4263 109.429 20.8487 109.877 21.152C110.33 21.4553 110.894 21.6117 111.571 21.621ZM117.794 23V12.92H121.959C122.057 12.92 122.183 12.9247 122.337 12.934C122.491 12.9387 122.634 12.9527 122.764 12.976C123.348 13.0647 123.828 13.2583 124.206 13.557C124.589 13.8557 124.871 14.2337 125.053 14.691C125.24 15.1437 125.333 15.6477 125.333 16.203C125.333 17.0243 125.126 17.7313 124.71 18.324C124.295 18.912 123.658 19.276 122.799 19.416L122.078 19.479H119.481V23H117.794ZM123.583 23L121.595 18.898L123.31 18.52L125.494 23H123.583ZM119.481 17.904H121.889C121.983 17.904 122.088 17.8993 122.204 17.89C122.321 17.8807 122.428 17.862 122.526 17.834C122.806 17.764 123.026 17.6403 123.184 17.463C123.348 17.2857 123.462 17.085 123.527 16.861C123.597 16.637 123.632 16.4177 123.632 16.203C123.632 15.9883 123.597 15.769 123.527 15.545C123.462 15.3163 123.348 15.1133 123.184 14.936C123.026 14.7587 122.806 14.635 122.526 14.565C122.428 14.537 122.321 14.5207 122.204 14.516C122.088 14.5067 121.983 14.502 121.889 14.502H119.481V17.904ZM127.037 23V12.92H128.724V17.596L132.749 12.92H134.821L130.488 17.862L135.115 23H132.973L128.724 18.296V23H127.037Z" fill="#222222"/>
<rect x="162.697" width="73.9535" height="56" rx="7" fill="#F1F1F1"/>
<g clip-path="url(#clip2_1324_60)">
<path d="M194.865 38.12C194.462 38.12 194.099 38.0533 193.777 37.92C193.457 37.784 193.191 37.592 192.981 37.344C192.773 37.096 192.637 36.8013 192.573 36.46L193.173 36.36C193.269 36.7333 193.471 37.0267 193.781 37.24C194.09 37.4507 194.459 37.556 194.889 37.556C195.171 37.556 195.425 37.512 195.649 37.424C195.873 37.3333 196.049 37.2053 196.177 37.04C196.305 36.8747 196.369 36.6787 196.369 36.452C196.369 36.3027 196.342 36.176 196.289 36.072C196.235 35.9653 196.165 35.8773 196.077 35.808C195.989 35.7387 195.893 35.6813 195.789 35.636C195.685 35.588 195.583 35.5493 195.485 35.52L194.025 35.084C193.849 35.0333 193.686 34.9693 193.537 34.892C193.387 34.812 193.257 34.7173 193.145 34.608C193.035 34.496 192.95 34.3653 192.889 34.216C192.827 34.0667 192.797 33.896 192.797 33.704C192.797 33.3787 192.882 33.0973 193.053 32.86C193.223 32.6227 193.457 32.44 193.753 32.312C194.049 32.184 194.386 32.1213 194.765 32.124C195.149 32.124 195.491 32.192 195.793 32.328C196.097 32.464 196.347 32.6587 196.545 32.912C196.742 33.1627 196.873 33.46 196.937 33.804L196.321 33.916C196.281 33.6653 196.189 33.448 196.045 33.264C195.901 33.08 195.717 32.9387 195.493 32.84C195.271 32.7387 195.027 32.6867 194.761 32.684C194.502 32.684 194.271 32.728 194.069 32.816C193.869 32.9013 193.71 33.0187 193.593 33.168C193.475 33.3173 193.417 33.488 193.417 33.68C193.417 33.8747 193.47 34.0307 193.577 34.148C193.686 34.2653 193.819 34.3573 193.977 34.424C194.137 34.4907 194.291 34.5453 194.441 34.588L195.569 34.92C195.686 34.952 195.823 34.9987 195.981 35.06C196.141 35.1187 196.295 35.204 196.445 35.316C196.597 35.4253 196.722 35.5693 196.821 35.748C196.919 35.9267 196.969 36.1533 196.969 36.428C196.969 36.6947 196.915 36.9333 196.809 37.144C196.705 37.3547 196.557 37.532 196.365 37.676C196.175 37.82 195.953 37.9293 195.697 38.004C195.443 38.0813 195.166 38.12 194.865 38.12ZM197.874 32.86V32.2H198.462V32.86H197.874ZM197.874 38V33.68H198.462V38H197.874ZM199.262 38V37.876L202.05 34.228H199.47V33.68H203.018V33.816L200.234 37.452H202.866V38H199.262ZM205.404 38.12C204.982 38.12 204.617 38.0267 204.308 37.84C204.001 37.6533 203.762 37.3907 203.592 37.052C203.421 36.7133 203.336 36.316 203.336 35.86C203.336 35.388 203.42 34.98 203.588 34.636C203.756 34.292 203.992 34.0267 204.296 33.84C204.602 33.6533 204.964 33.56 205.38 33.56C205.806 33.56 206.17 33.6587 206.472 33.856C206.773 34.0507 207.001 34.3307 207.156 34.696C207.31 35.0613 207.381 35.4973 207.368 36.004H206.768V35.796C206.757 35.236 206.636 34.8133 206.404 34.528C206.174 34.2427 205.838 34.1 205.396 34.1C204.932 34.1 204.576 34.2507 204.328 34.552C204.082 34.8533 203.96 35.2827 203.96 35.84C203.96 36.384 204.082 36.8067 204.328 37.108C204.576 37.4067 204.926 37.556 205.38 37.556C205.689 37.556 205.958 37.4853 206.188 37.344C206.42 37.2 206.602 36.9933 206.736 36.724L207.284 36.936C207.113 37.312 206.861 37.604 206.528 37.812C206.197 38.0173 205.822 38.12 205.404 38.12ZM203.752 36.004V35.512H207.052V36.004H203.752ZM194.201 46V40.896L193.117 41.548V40.888L194.201 40.24H194.797V46H194.201ZM198.262 46.12C197.902 46.12 197.574 46.0333 197.278 45.86C196.985 45.684 196.75 45.4467 196.574 45.148C196.401 44.8467 196.314 44.508 196.314 44.132V42.136C196.314 41.7493 196.401 41.4053 196.574 41.104C196.747 40.8 196.983 40.5613 197.282 40.388C197.583 40.212 197.925 40.124 198.306 40.124C198.634 40.124 198.938 40.196 199.218 40.34C199.501 40.484 199.731 40.6853 199.91 40.944L199.458 41.316C199.335 41.124 199.173 40.9707 198.97 40.856C198.767 40.7413 198.546 40.684 198.306 40.684C198.037 40.684 197.797 40.7493 197.586 40.88C197.375 41.0107 197.21 41.1827 197.09 41.396C196.97 41.6067 196.91 41.836 196.91 42.084V43.34L196.762 43.172C196.93 42.908 197.15 42.6947 197.422 42.532C197.697 42.3693 197.995 42.288 198.318 42.288C198.675 42.288 198.997 42.3733 199.282 42.544C199.567 42.712 199.794 42.94 199.962 43.228C200.13 43.516 200.214 43.8387 200.214 44.196C200.214 44.5507 200.125 44.8733 199.946 45.164C199.77 45.4547 199.534 45.6867 199.238 45.86C198.945 46.0333 198.619 46.12 198.262 46.12ZM198.262 45.548C198.513 45.548 198.741 45.488 198.946 45.368C199.154 45.248 199.318 45.0853 199.438 44.88C199.561 44.6747 199.622 44.4467 199.622 44.196C199.622 43.9453 199.561 43.7173 199.438 43.512C199.318 43.304 199.155 43.14 198.95 43.02C198.745 42.8973 198.517 42.836 198.266 42.836C198.015 42.836 197.787 42.8973 197.582 43.02C197.377 43.14 197.213 43.304 197.09 43.512C196.97 43.7173 196.91 43.9453 196.91 44.196C196.91 44.444 196.97 44.6707 197.09 44.876C197.21 45.0813 197.373 45.2453 197.578 45.368C197.783 45.488 198.011 45.548 198.262 45.548ZM201.387 46V45.316H202.071V46H201.387ZM205.006 46.12C204.707 46.12 204.431 46.0587 204.178 45.936C203.925 45.8133 203.709 45.644 203.53 45.428C203.351 45.212 203.223 44.964 203.146 44.684L203.71 44.532C203.761 44.74 203.853 44.92 203.986 45.072C204.119 45.2213 204.275 45.3373 204.454 45.42C204.635 45.5027 204.825 45.544 205.022 45.544C205.278 45.544 205.507 45.4827 205.71 45.36C205.915 45.2347 206.078 45.0693 206.198 44.864C206.318 44.6587 206.378 44.4333 206.378 44.188C206.378 43.9347 206.315 43.7067 206.19 43.504C206.065 43.2987 205.899 43.136 205.694 43.016C205.489 42.896 205.265 42.836 205.022 42.836C204.75 42.836 204.515 42.896 204.318 43.016C204.121 43.1333 203.963 43.2813 203.846 43.46L203.31 43.236L203.486 40.24H206.562V40.804H203.746L204.038 40.528L203.882 43.084L203.734 42.888C203.899 42.6987 204.099 42.5507 204.334 42.444C204.569 42.3373 204.815 42.284 205.074 42.284C205.429 42.284 205.749 42.3693 206.034 42.54C206.319 42.708 206.546 42.936 206.714 43.224C206.882 43.512 206.966 43.8333 206.966 44.188C206.966 44.54 206.877 44.8627 206.698 45.156C206.519 45.4467 206.282 45.68 205.986 45.856C205.69 46.032 205.363 46.12 205.006 46.12Z" fill="#222222"/>
</g>
<path d="M179.108 23L176.161 12.92H177.932L179.941 20.2L181.943 12.934L183.714 12.92L185.723 20.2L187.725 12.92H189.496L186.556 23H184.89L182.825 15.832L180.774 23H179.108ZM190.638 23V12.92H192.325V17.162H197.099V12.92H198.779V23H197.099V18.744H192.325V23H190.638ZM200.742 23V12.92H207.252V14.502H202.429V16.987H206.412V18.569H202.429V21.418H207.252V23H200.742ZM208.931 23V12.92H215.441V14.502H210.618V16.987H214.601V18.569H210.618V21.418H215.441V23H208.931ZM217.261 23V12.92H218.948V21.418H223.4V23H217.261Z" fill="#222222"/>
<defs>
<clipPath id="clip0_1324_60">
<rect width="44" height="16" fill="white" transform="translate(259 31)"/>
</clipPath>
<clipPath id="clip1_1324_60">
<rect width="46" height="16" fill="white" transform="translate(95 31)"/>
</clipPath>
<clipPath id="clip2_1324_60">
<rect width="23" height="16" fill="white" transform="translate(188.5 31)"/>
</clipPath>
</defs>
</svg>
