<svg width="258" height="39" viewBox="0 0 258 39" fill="none" xmlns="http://www.w3.org/2000/svg">
<g clip-path="url(#clip0_1324_195)">
<g clip-path="url(#clip1_1324_195)">
<g clip-path="url(#clip2_1324_195)">
<path d="M15.375 11.75C15.9495 11.75 16.5184 11.6368 17.0492 11.417C17.58 11.1971 18.0623 10.8748 18.4686 10.4686C18.8748 10.0623 19.1971 9.58004 19.417 9.04924C19.6368 8.51844 19.75 7.94953 19.75 7.375C19.75 6.80047 19.6368 6.23156 19.417 5.70076C19.1971 5.16996 18.8748 4.68766 18.4686 4.28141C18.0623 3.87515 17.58 3.55289 17.0492 3.33303C16.5184 3.11316 15.9495 3 15.375 3C14.8005 3 14.2316 3.11316 13.7008 3.33303C13.17 3.55289 12.6877 3.87515 12.2814 4.28141C11.8752 4.68766 11.5529 5.16996 11.333 5.70076C11.1132 6.23156 11 6.80047 11 7.375C11 7.94953 11.1132 8.51844 11.333 9.04924C11.5529 9.58004 11.8752 10.0623 12.2814 10.4686C12.6877 10.8748 13.17 11.1971 13.7008 11.417C14.2316 11.6368 14.8005 11.75 15.375 11.75ZM22.25 7.375C22.25 10.7461 19.8242 13.5508 16.625 14.1367V15.5H17.875C18.5664 15.5 19.125 16.0586 19.125 16.75C19.125 17.4414 18.5664 18 17.875 18H16.625V19.25C16.625 19.9414 16.0664 20.5 15.375 20.5C14.6836 20.5 14.125 19.9414 14.125 19.25V18H12.875C12.1836 18 11.625 17.4414 11.625 16.75C11.625 16.0586 12.1836 15.5 12.875 15.5H14.125V14.1367C10.9258 13.5508 8.5 10.7461 8.5 7.375C8.5 3.57812 11.5781 0.5 15.375 0.5C19.1719 0.5 22.25 3.57812 22.25 7.375ZM19.1211 14.5859C19.875 14.1914 20.5625 13.6836 21.1562 13.0859C21.9375 13.8086 22.9805 14.25 24.1289 14.25C26.5469 14.25 28.5039 12.293 28.5039 9.875C28.5039 7.45703 26.5469 5.5 24.1289 5.5C23.8477 5.5 23.5703 5.52734 23.3047 5.57812C23.1133 4.73828 22.7969 3.94922 22.3672 3.22656C22.9258 3.07812 23.5156 3 24.125 3C25.5703 3 26.9141 3.44531 28.0234 4.21094L28.8281 3.40625L27.5234 2.10156C27.2539 1.83203 27.1758 1.42969 27.3203 1.07812C27.4648 0.726562 27.8086 0.5 28.1875 0.5H32.5625C33.082 0.5 33.5 0.917969 33.5 1.4375V5.8125C33.5 6.19141 33.2734 6.53516 32.9219 6.67969C32.5703 6.82422 32.168 6.74609 31.8984 6.47656L30.5938 5.17188L29.7891 5.97656C30.5508 7.08594 31 8.42578 31 9.875C31 13.6719 27.9219 16.75 24.125 16.75C22.1523 16.75 20.375 15.918 19.1211 14.5859Z" fill="#8DC63F"/>
</g>
<path d="M1.34 36.5V27.86H6.38V28.928H2.408V31.646H5.66V32.714H2.408V36.5H1.34ZM10.0894 36.68C9.45341 36.68 8.89741 36.54 8.42141 36.26C7.94941 35.976 7.58141 35.582 7.31741 35.078C7.05341 34.57 6.92141 33.978 6.92141 33.302C6.92141 32.594 7.05141 31.982 7.31141 31.466C7.57141 30.946 7.93341 30.546 8.39741 30.266C8.86541 29.982 9.41341 29.84 10.0414 29.84C10.6934 29.84 11.2474 29.99 11.7034 30.29C12.1634 30.59 12.5074 31.018 12.7354 31.574C12.9674 32.13 13.0674 32.792 13.0354 33.56H11.9554V33.176C11.9434 32.38 11.7814 31.786 11.4694 31.394C11.1574 30.998 10.6934 30.8 10.0774 30.8C9.41741 30.8 8.91541 31.012 8.57141 31.436C8.22741 31.86 8.05541 32.468 8.05541 33.26C8.05541 34.024 8.22741 34.616 8.57141 35.036C8.91541 35.456 9.40541 35.666 10.0414 35.666C10.4694 35.666 10.8414 35.568 11.1574 35.372C11.4734 35.176 11.7214 34.894 11.9014 34.526L12.9274 34.88C12.6754 35.452 12.2954 35.896 11.7874 36.212C11.2834 36.524 10.7174 36.68 10.0894 36.68ZM7.69541 33.56V32.702H12.4834V33.56H7.69541ZM21.9415 36.5L21.9475 32.354C21.9475 31.87 21.8175 31.492 21.5575 31.22C21.3015 30.944 20.9675 30.806 20.5555 30.806C20.3155 30.806 20.0875 30.862 19.8715 30.974C19.6555 31.082 19.4795 31.254 19.3435 31.49C19.2075 31.722 19.1395 32.02 19.1395 32.384L18.5755 32.156C18.5675 31.696 18.6615 31.294 18.8575 30.95C19.0575 30.602 19.3295 30.332 19.6735 30.14C20.0175 29.948 20.4055 29.852 20.8375 29.852C21.5135 29.852 22.0455 30.058 22.4335 30.47C22.8215 30.878 23.0155 31.428 23.0155 32.12L23.0095 36.5H21.9415ZM14.1895 36.5V30.02H15.1435V31.754H15.2635V36.5H14.1895ZM18.0715 36.5L18.0775 32.396C18.0775 31.9 17.9495 31.512 17.6935 31.232C17.4375 30.948 17.0975 30.806 16.6735 30.806C16.2535 30.806 15.9135 30.95 15.6535 31.238C15.3935 31.526 15.2635 31.908 15.2635 32.384L14.6995 32.048C14.6995 31.628 14.7995 31.252 14.9995 30.92C15.1995 30.588 15.4715 30.328 15.8155 30.14C16.1595 29.948 16.5495 29.852 16.9855 29.852C17.4215 29.852 17.8015 29.944 18.1255 30.128C18.4495 30.312 18.6995 30.576 18.8755 30.92C19.0515 31.26 19.1395 31.666 19.1395 32.138L19.1335 36.5H18.0715ZM26.4203 36.68C25.9363 36.68 25.5303 36.592 25.2023 36.416C24.8783 36.236 24.6323 36 24.4643 35.708C24.3003 35.416 24.2183 35.096 24.2183 34.748C24.2183 34.408 24.2823 34.114 24.4103 33.866C24.5423 33.614 24.7263 33.406 24.9623 33.242C25.1983 33.074 25.4803 32.942 25.8083 32.846C26.1163 32.762 26.4603 32.69 26.8403 32.63C27.2243 32.566 27.6123 32.508 28.0043 32.456C28.3963 32.404 28.7623 32.354 29.1023 32.306L28.7183 32.528C28.7303 31.952 28.6143 31.526 28.3703 31.25C28.1303 30.974 27.7143 30.836 27.1223 30.836C26.7303 30.836 26.3863 30.926 26.0903 31.106C25.7983 31.282 25.5923 31.57 25.4723 31.97L24.4583 31.664C24.6143 31.096 24.9163 30.65 25.3643 30.326C25.8123 30.002 26.4023 29.84 27.1343 29.84C27.7223 29.84 28.2263 29.946 28.6463 30.158C29.0703 30.366 29.3743 30.682 29.5583 31.106C29.6503 31.306 29.7083 31.524 29.7323 31.76C29.7563 31.992 29.7683 32.236 29.7683 32.492V36.5H28.8203V34.946L29.0423 35.09C28.7983 35.614 28.4563 36.01 28.0163 36.278C27.5803 36.546 27.0483 36.68 26.4203 36.68ZM26.5823 35.786C26.9663 35.786 27.2983 35.718 27.5783 35.582C27.8623 35.442 28.0903 35.26 28.2623 35.036C28.4343 34.808 28.5463 34.56 28.5983 34.292C28.6583 34.092 28.6903 33.87 28.6943 33.626C28.7023 33.378 28.7063 33.188 28.7063 33.056L29.0783 33.218C28.7303 33.266 28.3883 33.312 28.0523 33.356C27.7163 33.4 27.3983 33.448 27.0983 33.5C26.7983 33.548 26.5283 33.606 26.2883 33.674C26.1123 33.73 25.9463 33.802 25.7903 33.89C25.6383 33.978 25.5143 34.092 25.4183 34.232C25.3263 34.368 25.2803 34.538 25.2803 34.742C25.2803 34.918 25.3243 35.086 25.4123 35.246C25.5043 35.406 25.6443 35.536 25.8323 35.636C26.0243 35.736 26.2743 35.786 26.5823 35.786ZM31.4483 36.5V27.68H32.5163V36.5H31.4483ZM37.1246 36.68C36.4886 36.68 35.9326 36.54 35.4566 36.26C34.9846 35.976 34.6166 35.582 34.3526 35.078C34.0886 34.57 33.9566 33.978 33.9566 33.302C33.9566 32.594 34.0866 31.982 34.3466 31.466C34.6066 30.946 34.9686 30.546 35.4326 30.266C35.9006 29.982 36.4486 29.84 37.0766 29.84C37.7286 29.84 38.2826 29.99 38.7386 30.29C39.1986 30.59 39.5426 31.018 39.7706 31.574C40.0026 32.13 40.1026 32.792 40.0706 33.56H38.9906V33.176C38.9786 32.38 38.8166 31.786 38.5046 31.394C38.1926 30.998 37.7286 30.8 37.1126 30.8C36.4526 30.8 35.9506 31.012 35.6066 31.436C35.2626 31.86 35.0906 32.468 35.0906 33.26C35.0906 34.024 35.2626 34.616 35.6066 35.036C35.9506 35.456 36.4406 35.666 37.0766 35.666C37.5046 35.666 37.8766 35.568 38.1926 35.372C38.5086 35.176 38.7566 34.894 38.9366 34.526L39.9626 34.88C39.7106 35.452 39.3306 35.896 38.8226 36.212C38.3186 36.524 37.7526 36.68 37.1246 36.68ZM34.7306 33.56V32.702H39.5186V33.56H34.7306Z" fill="#222222"/>
</g>
<g clip-path="url(#clip3_1324_195)">
<path d="M85 4.25H107C107 2.87109 105.904 1.75 104.556 1.75H87.4444C86.0962 1.75 85 2.87109 85 4.25ZM85 5.5V16.75C85 18.1289 86.0962 19.25 87.4444 19.25H104.556C105.904 19.25 107 18.1289 107 16.75V5.5H85ZM87.4444 16.332C87.4444 15.1797 88.3573 14.25 89.4802 14.25H93.9642C95.091 14.25 96 15.1836 96 16.332C96 16.5625 95.8167 16.75 95.5913 16.75H87.8531C87.6278 16.75 87.4444 16.5625 87.4444 16.332ZM91.7222 8C92.3705 8 92.9923 8.26339 93.4507 8.73223C93.9091 9.20107 94.1667 9.83696 94.1667 10.5C94.1667 11.163 93.9091 11.7989 93.4507 12.2678C92.9923 12.7366 92.3705 13 91.7222 13C91.0739 13 90.4522 12.7366 89.9937 12.2678C89.5353 11.7989 89.2778 11.163 89.2778 10.5C89.2778 9.83696 89.5353 9.20107 89.9937 8.73223C90.4522 8.26339 91.0739 8 91.7222 8ZM98.4444 8.625C98.4444 8.28125 98.7194 8 99.0556 8H103.944C104.281 8 104.556 8.28125 104.556 8.625C104.556 8.96875 104.281 9.25 103.944 9.25H99.0556C98.7194 9.25 98.4444 8.96875 98.4444 8.625ZM98.4444 11.125C98.4444 10.7812 98.7194 10.5 99.0556 10.5H103.944C104.281 10.5 104.556 10.7812 104.556 11.125C104.556 11.4688 104.281 11.75 103.944 11.75H99.0556C98.7194 11.75 98.4444 11.4688 98.4444 11.125ZM98.4444 13.625C98.4444 13.2812 98.7194 13 99.0556 13H103.944C104.281 13 104.556 13.2812 104.556 13.625C104.556 13.9688 104.281 14.25 103.944 14.25H99.0556C98.7194 14.25 98.4444 13.9688 98.4444 13.625Z" fill="#8DC63F"/>
<path d="M78.846 36.5V29.042L77.22 30.026V28.832L78.846 27.86H79.932V36.5H78.846ZM84.771 36.68C84.327 36.68 83.913 36.588 83.529 36.404C83.149 36.22 82.823 35.968 82.551 35.648C82.283 35.324 82.091 34.952 81.975 34.532L83.001 34.256C83.073 34.54 83.201 34.786 83.385 34.994C83.569 35.198 83.783 35.358 84.027 35.474C84.275 35.586 84.533 35.642 84.801 35.642C85.153 35.642 85.469 35.558 85.749 35.39C86.033 35.218 86.257 34.992 86.421 34.712C86.585 34.428 86.667 34.118 86.667 33.782C86.667 33.434 86.581 33.12 86.409 32.84C86.241 32.556 86.015 32.332 85.731 32.168C85.447 32.004 85.137 31.922 84.801 31.922C84.421 31.922 84.095 32.002 83.823 32.162C83.555 32.318 83.343 32.51 83.187 32.738L82.239 32.378L82.503 27.86H87.141V28.874H83.019L83.493 28.43L83.271 32.048L83.037 31.742C83.277 31.486 83.563 31.288 83.895 31.148C84.231 31.008 84.573 30.938 84.921 30.938C85.457 30.938 85.937 31.064 86.361 31.316C86.785 31.564 87.121 31.904 87.369 32.336C87.617 32.764 87.741 33.246 87.741 33.782C87.741 34.314 87.605 34.8 87.333 35.24C87.061 35.676 86.699 36.026 86.247 36.29C85.799 36.55 85.307 36.68 84.771 36.68ZM91.3479 34.91V32.618H89.0559V31.736H91.3479V29.45H92.2299V31.736H94.5159V32.618H92.2299V34.91H91.3479ZM100.551 36.5V32.906L97.6406 27.86H98.8826L101.091 31.682L103.293 27.86H104.535L101.631 32.906V36.5H100.551ZM104.891 36.5V30.02H105.845V31.586L105.689 31.382C105.765 31.182 105.863 30.998 105.983 30.83C106.107 30.662 106.245 30.524 106.397 30.416C106.565 30.28 106.755 30.176 106.967 30.104C107.179 30.032 107.395 29.99 107.615 29.978C107.835 29.962 108.041 29.976 108.233 30.02V31.022C108.009 30.962 107.763 30.946 107.495 30.974C107.227 31.002 106.979 31.1 106.751 31.268C106.543 31.416 106.381 31.596 106.265 31.808C106.153 32.02 106.075 32.25 106.031 32.498C105.987 32.742 105.965 32.992 105.965 33.248V36.5H104.891ZM111.581 36.674C110.809 36.674 110.175 36.506 109.679 36.17C109.187 35.83 108.885 35.356 108.773 34.748L109.865 34.574C109.953 34.926 110.155 35.206 110.471 35.414C110.787 35.618 111.179 35.72 111.647 35.72C112.091 35.72 112.439 35.628 112.691 35.444C112.943 35.26 113.069 35.01 113.069 34.694C113.069 34.51 113.027 34.362 112.943 34.25C112.859 34.134 112.685 34.026 112.421 33.926C112.161 33.826 111.767 33.706 111.239 33.566C110.667 33.414 110.217 33.256 109.889 33.092C109.561 32.928 109.327 32.738 109.187 32.522C109.047 32.306 108.977 32.044 108.977 31.736C108.977 31.356 109.081 31.024 109.289 30.74C109.497 30.452 109.787 30.23 110.159 30.074C110.535 29.918 110.971 29.84 111.467 29.84C111.959 29.84 112.399 29.918 112.787 30.074C113.175 30.23 113.487 30.452 113.723 30.74C113.963 31.024 114.105 31.356 114.149 31.736L113.057 31.934C113.005 31.586 112.837 31.312 112.553 31.112C112.273 30.912 111.911 30.806 111.467 30.794C111.047 30.778 110.705 30.852 110.441 31.016C110.181 31.18 110.051 31.402 110.051 31.682C110.051 31.838 110.099 31.972 110.195 32.084C110.295 32.196 110.477 32.302 110.741 32.402C111.009 32.502 111.397 32.616 111.905 32.744C112.477 32.888 112.927 33.046 113.255 33.218C113.587 33.386 113.823 33.586 113.963 33.818C114.103 34.046 114.173 34.328 114.173 34.664C114.173 35.288 113.943 35.78 113.483 36.14C113.023 36.496 112.389 36.674 111.581 36.674Z" fill="#222222"/>
</g>
<g clip-path="url(#clip4_1324_195)">
<g clip-path="url(#clip5_1324_195)">
<path d="M170.687 0.800781C170.508 0.609375 170.262 0.5 170 0.5C169.738 0.5 169.492 0.609375 169.312 0.800781L165.25 5.17578C164.996 5.44922 164.93 5.84766 165.078 6.1875C165.227 6.52734 165.566 6.75 165.937 6.75H168.125V14.25H165.937C165.566 14.25 165.227 14.4727 165.078 14.8125C164.93 15.1523 164.996 15.5508 165.25 15.8242L169.312 20.1992C169.488 20.3906 169.738 20.5 170 20.5C170.262 20.5 170.508 20.3906 170.687 20.1992L174.75 15.8242C175.004 15.5508 175.07 15.1523 174.922 14.8125C174.773 14.4727 174.434 14.25 174.062 14.25H171.875V6.75H174.062C174.434 6.75 174.773 6.52734 174.922 6.1875C175.07 5.84766 175.004 5.44922 174.75 5.17578L170.687 0.800781Z" fill="#8DC63F"/>
</g>
<path d="M153.896 36.68C153.452 36.68 153.038 36.588 152.654 36.404C152.274 36.22 151.948 35.968 151.676 35.648C151.408 35.324 151.216 34.952 151.1 34.532L152.126 34.256C152.198 34.54 152.326 34.786 152.51 34.994C152.694 35.198 152.908 35.358 153.152 35.474C153.4 35.586 153.658 35.642 153.926 35.642C154.278 35.642 154.594 35.558 154.874 35.39C155.158 35.218 155.382 34.992 155.546 34.712C155.71 34.428 155.792 34.118 155.792 33.782C155.792 33.434 155.706 33.12 155.534 32.84C155.366 32.556 155.14 32.332 154.856 32.168C154.572 32.004 154.262 31.922 153.926 31.922C153.546 31.922 153.22 32.002 152.948 32.162C152.68 32.318 152.468 32.51 152.312 32.738L151.364 32.378L151.628 27.86H156.266V28.874H152.144L152.618 28.43L152.396 32.048L152.162 31.742C152.402 31.486 152.688 31.288 153.02 31.148C153.356 31.008 153.698 30.938 154.046 30.938C154.582 30.938 155.062 31.064 155.486 31.316C155.91 31.564 156.246 31.904 156.494 32.336C156.742 32.764 156.866 33.246 156.866 33.782C156.866 34.314 156.73 34.8 156.458 35.24C156.186 35.676 155.824 36.026 155.372 36.29C154.924 36.55 154.432 36.68 153.896 36.68ZM158.493 36.5V35.324H159.669V36.5H158.493ZM164.451 36.68C163.891 36.68 163.391 36.554 162.951 36.302C162.515 36.046 162.169 35.7 161.913 35.264C161.661 34.824 161.535 34.324 161.535 33.764V30.596C161.535 30.036 161.661 29.536 161.913 29.096C162.169 28.656 162.515 28.31 162.951 28.058C163.391 27.806 163.891 27.68 164.451 27.68C165.011 27.68 165.511 27.806 165.951 28.058C166.391 28.31 166.737 28.656 166.989 29.096C167.241 29.536 167.367 30.036 167.367 30.596V33.764C167.367 34.324 167.241 34.824 166.989 35.264C166.737 35.7 166.391 36.046 165.951 36.302C165.511 36.554 165.011 36.68 164.451 36.68ZM164.451 35.654C164.791 35.654 165.099 35.572 165.375 35.408C165.651 35.244 165.871 35.024 166.035 34.748C166.199 34.468 166.281 34.16 166.281 33.824V30.53C166.281 30.19 166.199 29.882 166.035 29.606C165.871 29.33 165.651 29.11 165.375 28.946C165.099 28.782 164.791 28.7 164.451 28.7C164.115 28.7 163.807 28.782 163.527 28.946C163.251 29.11 163.031 29.33 162.867 29.606C162.703 29.882 162.621 30.19 162.621 30.53V33.824C162.621 34.16 162.703 34.468 162.867 34.748C163.031 35.024 163.251 35.244 163.527 35.408C163.807 35.572 164.115 35.654 164.451 35.654ZM171.449 36.5V27.86H176.489V28.928H172.517V31.646H175.769V32.714H172.517V36.5H171.449ZM181.185 36.5C180.801 36.576 180.421 36.606 180.045 36.59C179.673 36.578 179.341 36.504 179.049 36.368C178.757 36.228 178.535 36.012 178.383 35.72C178.255 35.464 178.185 35.206 178.173 34.946C178.165 34.682 178.161 34.384 178.161 34.052V28.22H179.229V34.004C179.229 34.268 179.231 34.494 179.235 34.682C179.243 34.87 179.285 35.032 179.361 35.168C179.505 35.424 179.733 35.574 180.045 35.618C180.361 35.662 180.741 35.65 181.185 35.582V36.5ZM176.847 30.902V30.02H181.185V30.902H176.847ZM184.672 34.91V32.618H182.38V31.736H184.672V29.45H185.554V31.736H187.84V32.618H185.554V34.91H184.672Z" fill="#222222"/>
</g>
<g clip-path="url(#clip6_1324_195)">
<g clip-path="url(#clip7_1324_195)">
<path d="M241 21C243.785 21 246.455 19.8938 248.425 17.9246C250.394 15.9555 251.5 13.2848 251.5 10.5C251.5 7.71523 250.394 5.04451 248.425 3.07538C246.455 1.10625 243.785 0 241 0C238.215 0 235.545 1.10625 233.575 3.07538C231.606 5.04451 230.5 7.71523 230.5 10.5C230.5 13.2848 231.606 15.9555 233.575 17.9246C235.545 19.8938 238.215 21 241 21ZM241 6.5625C242.044 6.5625 243.046 6.97734 243.784 7.71577C244.523 8.45419 244.938 9.45571 244.938 10.5C244.938 11.5443 244.523 12.5458 243.784 13.2842C243.046 14.0227 242.044 14.4375 241 14.4375C239.956 14.4375 238.954 14.0227 238.216 13.2842C237.477 12.5458 237.062 11.5443 237.062 10.5C237.062 9.45571 237.477 8.45419 238.216 7.71577C238.954 6.97734 239.956 6.5625 241 6.5625Z" fill="#8DC63F"/>
</g>
<path d="M225.1 36.994L225.106 36.034L228.94 32.584C229.26 32.296 229.474 32.024 229.582 31.768C229.694 31.508 229.75 31.242 229.75 30.97C229.75 30.638 229.674 30.338 229.522 30.07C229.37 29.802 229.162 29.59 228.898 29.434C228.638 29.278 228.342 29.2 228.01 29.2C227.666 29.2 227.36 29.282 227.092 29.446C226.824 29.606 226.612 29.82 226.456 30.088C226.304 30.356 226.23 30.648 226.234 30.964H225.142C225.142 30.42 225.268 29.94 225.52 29.524C225.772 29.104 226.114 28.776 226.546 28.54C226.982 28.3 227.476 28.18 228.028 28.18C228.564 28.18 229.044 28.304 229.468 28.552C229.892 28.796 230.226 29.13 230.47 29.554C230.718 29.974 230.842 30.45 230.842 30.982C230.842 31.358 230.794 31.684 230.698 31.96C230.606 32.236 230.462 32.492 230.266 32.728C230.07 32.96 229.824 33.208 229.528 33.472L226.342 36.334L226.204 35.974H230.842V36.994H225.1ZM235.224 37.18C234.676 37.18 234.178 37.048 233.73 36.784C233.286 36.52 232.932 36.16 232.668 35.704C232.408 35.244 232.278 34.726 232.278 34.15V31.276C232.278 30.672 232.408 30.138 232.668 29.674C232.932 29.206 233.292 28.842 233.748 28.582C234.208 28.318 234.732 28.186 235.32 28.186C235.796 28.186 236.238 28.284 236.646 28.48C237.058 28.672 237.404 28.95 237.684 29.314L236.886 30.022C236.714 29.77 236.49 29.57 236.214 29.422C235.938 29.274 235.64 29.2 235.32 29.2C234.94 29.2 234.602 29.292 234.306 29.476C234.014 29.656 233.784 29.896 233.616 30.196C233.448 30.492 233.364 30.812 233.364 31.156V32.89L233.13 32.626C233.382 32.266 233.702 31.978 234.09 31.762C234.478 31.546 234.898 31.438 235.35 31.438C235.886 31.438 236.366 31.564 236.79 31.816C237.218 32.068 237.554 32.41 237.798 32.842C238.046 33.27 238.17 33.752 238.17 34.288C238.17 34.824 238.036 35.31 237.768 35.746C237.5 36.182 237.142 36.53 236.694 36.79C236.25 37.05 235.76 37.18 235.224 37.18ZM235.224 36.148C235.568 36.148 235.882 36.066 236.166 35.902C236.45 35.734 236.674 35.51 236.838 35.23C237.006 34.946 237.09 34.632 237.09 34.288C237.09 33.944 237.006 33.63 236.838 33.346C236.674 33.062 236.45 32.838 236.166 32.674C235.886 32.506 235.574 32.422 235.23 32.422C234.886 32.422 234.572 32.506 234.288 32.674C234.008 32.838 233.784 33.062 233.616 33.346C233.448 33.63 233.364 33.944 233.364 34.288C233.364 34.628 233.446 34.94 233.61 35.224C233.778 35.504 234.002 35.728 234.282 35.896C234.566 36.064 234.88 36.148 235.224 36.148ZM239.923 37V35.824H241.099V37H239.923ZM245.881 37.18C245.321 37.18 244.821 37.054 244.381 36.802C243.945 36.546 243.599 36.2 243.343 35.764C243.091 35.324 242.965 34.824 242.965 34.264V31.096C242.965 30.536 243.091 30.036 243.343 29.596C243.599 29.156 243.945 28.81 244.381 28.558C244.821 28.306 245.321 28.18 245.881 28.18C246.441 28.18 246.941 28.306 247.381 28.558C247.821 28.81 248.167 29.156 248.419 29.596C248.671 30.036 248.797 30.536 248.797 31.096V34.264C248.797 34.824 248.671 35.324 248.419 35.764C248.167 36.2 247.821 36.546 247.381 36.802C246.941 37.054 246.441 37.18 245.881 37.18ZM245.881 36.154C246.221 36.154 246.529 36.072 246.805 35.908C247.081 35.744 247.301 35.524 247.465 35.248C247.629 34.968 247.711 34.66 247.711 34.324V31.03C247.711 30.69 247.629 30.382 247.465 30.106C247.301 29.83 247.081 29.61 246.805 29.446C246.529 29.282 246.221 29.2 245.881 29.2C245.545 29.2 245.237 29.282 244.957 29.446C244.681 29.61 244.461 29.83 244.297 30.106C244.133 30.382 244.051 30.69 244.051 31.03V34.324C244.051 34.66 244.133 34.968 244.297 35.248C244.461 35.524 244.681 35.744 244.957 35.908C245.237 36.072 245.545 36.154 245.881 36.154ZM253.393 37.18C252.833 37.18 252.333 37.054 251.893 36.802C251.457 36.546 251.111 36.2 250.855 35.764C250.603 35.324 250.477 34.824 250.477 34.264V31.096C250.477 30.536 250.603 30.036 250.855 29.596C251.111 29.156 251.457 28.81 251.893 28.558C252.333 28.306 252.833 28.18 253.393 28.18C253.953 28.18 254.453 28.306 254.893 28.558C255.333 28.81 255.679 29.156 255.931 29.596C256.183 30.036 256.309 30.536 256.309 31.096V34.264C256.309 34.824 256.183 35.324 255.931 35.764C255.679 36.2 255.333 36.546 254.893 36.802C254.453 37.054 253.953 37.18 253.393 37.18ZM253.393 36.154C253.733 36.154 254.041 36.072 254.317 35.908C254.593 35.744 254.813 35.524 254.977 35.248C255.141 34.968 255.223 34.66 255.223 34.324V31.03C255.223 30.69 255.141 30.382 254.977 30.106C254.813 29.83 254.593 29.61 254.317 29.446C254.041 29.282 253.733 29.2 253.393 29.2C253.057 29.2 252.749 29.282 252.469 29.446C252.193 29.61 251.973 29.83 251.809 30.106C251.645 30.382 251.563 30.69 251.563 31.03V34.324C251.563 34.66 251.645 34.968 251.809 35.248C251.973 35.524 252.193 35.744 252.469 35.908C252.749 36.072 253.057 36.154 253.393 36.154Z" fill="#222222"/>
</g>
</g>
<defs>
<clipPath id="clip0_1324_195">
<rect width="257" height="39" fill="white" transform="translate(0.5)"/>
</clipPath>
<clipPath id="clip1_1324_195">
<rect width="41" height="38" fill="white" transform="translate(0.5 0.5)"/>
</clipPath>
<clipPath id="clip2_1324_195">
<rect width="25" height="20" fill="white" transform="translate(8.5 0.5)"/>
</clipPath>
<clipPath id="clip3_1324_195">
<rect width="39" height="38" fill="white" transform="translate(76.5 0.5)"/>
</clipPath>
<clipPath id="clip4_1324_195">
<rect width="39" height="38" fill="white" transform="translate(150.5 0.5)"/>
</clipPath>
<clipPath id="clip5_1324_195">
<rect width="10" height="20" fill="white" transform="translate(165 0.5)"/>
</clipPath>
<clipPath id="clip6_1324_195">
<rect width="33" height="39" fill="white" transform="translate(224.5)"/>
</clipPath>
<clipPath id="clip7_1324_195">
<rect width="21" height="21" fill="white" transform="translate(230.5)"/>
</clipPath>
</defs>
</svg>
