<svg width="317" height="56" viewBox="0 0 317 56" fill="none" xmlns="http://www.w3.org/2000/svg">
<g clip-path="url(#clip0_1322_668)">
<path d="M66.2455 0H6.86147C3.07199 0 0 3.09532 0 6.91358V48.797C0 52.6153 3.07199 55.7106 6.86147 55.7106H66.2455C70.0349 55.7106 73.1069 52.6153 73.1069 48.797V6.91358C73.1069 3.09532 70.0349 0 66.2455 0Z" fill="#F1F1F1"/>
<mask id="mask0_1322_668" style="mask-type:luminance" maskUnits="userSpaceOnUse" x="13" y="30" width="47" height="19">
<path d="M59.6951 30.4198H13.0371V48.3951H59.6951V30.4198Z" fill="white"/>
</mask>
<g mask="url(#mask0_1322_668)">
<path d="M18.3525 38.0248V32.0514H18.9577V34.7436H22.2348V32.0514H22.8358V38.0248H22.2348V35.3285H18.9577V38.0248H18.3525ZM24.0714 32.6944V32.01H24.6766V32.6944H24.0714ZM24.0714 38.0248V33.5448H24.6766V38.0248H24.0714ZM25.8285 35.6728V35.1501H28.2987V35.6728H25.8285ZM30.2858 38.0248V32.6363H28.215V32.0514H32.9618V32.6363H30.891V38.0248H30.2858ZM34.844 38.1492C34.4104 38.1492 34.0344 38.0524 33.716 37.8589C33.4004 37.6653 33.1547 37.3929 32.9791 37.0417C32.8034 36.6905 32.7156 36.2784 32.7156 35.8055C32.7156 35.316 32.802 34.8929 32.975 34.5362C33.1479 34.1794 33.3908 33.9043 33.7036 33.7107C34.0193 33.5171 34.3912 33.4203 34.8193 33.4203C35.2585 33.4203 35.6331 33.5227 35.9432 33.7273C36.2534 33.9292 36.488 34.2195 36.6472 34.5984C36.8064 34.9773 36.8791 35.4294 36.8654 35.9549H36.2479V35.7392C36.2369 35.1584 36.112 34.7201 35.8732 34.4242C35.6372 34.1283 35.2914 33.9803 34.8358 33.9803C34.3582 33.9803 33.9918 34.1366 33.7366 34.4491C33.4841 34.7616 33.3578 35.2068 33.3578 35.7848C33.3578 36.3489 33.4841 36.7872 33.7366 37.0997C33.9918 37.4095 34.3527 37.5643 34.8193 37.5643C35.1377 37.5643 35.4149 37.4911 35.6509 37.3445C35.8897 37.1951 36.0777 36.9808 36.2149 36.7015L36.779 36.9214C36.6033 37.3113 36.3439 37.6141 36.0009 37.8298C35.6605 38.0428 35.2749 38.1492 34.844 38.1492ZM33.1437 35.9549V35.4446H36.5402V35.9549H33.1437ZM40.8696 38.0248V35.7392C40.8696 35.4903 40.8463 35.2621 40.7996 35.0547C40.753 34.8445 40.6775 34.662 40.5732 34.5071C40.4717 34.3495 40.3385 34.2278 40.1739 34.1421C40.0119 34.0564 39.8143 34.0135 39.581 34.0135C39.367 34.0135 39.1776 34.0509 39.0129 34.1255C38.851 34.2002 38.7138 34.308 38.6012 34.4491C38.4914 34.5873 38.4077 34.756 38.3501 34.9552C38.2925 35.1543 38.2636 35.381 38.2636 35.6354L37.8355 35.54C37.8355 35.081 37.9151 34.6952 38.0743 34.3827C38.2334 34.0702 38.453 33.8338 38.733 33.6734C39.0129 33.513 39.334 33.4328 39.6963 33.4328C39.9625 33.4328 40.1945 33.4743 40.3921 33.5572C40.5924 33.6402 40.7612 33.7522 40.8984 33.8932C41.0384 34.0343 41.1509 34.196 41.236 34.3786C41.3211 34.5583 41.3829 34.7505 41.4213 34.9552C41.4597 35.157 41.4789 35.3589 41.4789 35.5608V38.0248H40.8696ZM37.6543 38.0248V33.5448H38.2019V34.6482H38.2636V38.0248H37.6543ZM44.2064 38.1451C43.6849 38.1451 43.2554 38.0317 42.9178 37.8049C42.5829 37.5782 42.3771 37.2629 42.3002 36.8591L42.9178 36.7554C42.9836 37.0099 43.1332 37.2131 43.3665 37.3652C43.6025 37.5146 43.8935 37.5892 44.2393 37.5892C44.5769 37.5892 44.8431 37.5187 45.038 37.3777C45.2328 37.2339 45.3303 37.0389 45.3303 36.7928C45.3303 36.6545 45.2987 36.5425 45.2356 36.4568C45.1752 36.3683 45.0503 36.2867 44.8609 36.212C44.6716 36.1374 44.3889 36.0489 44.0129 35.9466C43.6094 35.8359 43.2938 35.7253 43.066 35.6147C42.8382 35.5041 42.6762 35.3769 42.5802 35.2331C42.4841 35.0865 42.4361 34.9081 42.4361 34.698C42.4361 34.4435 42.5075 34.2209 42.6502 34.0301C42.7929 33.8365 42.9905 33.6872 43.243 33.5821C43.4955 33.4743 43.7892 33.4203 44.124 33.4203C44.4589 33.4203 44.758 33.4756 45.0215 33.5863C45.2877 33.6941 45.5018 33.8462 45.6637 34.0426C45.8257 34.2389 45.9217 34.4671 45.9519 34.727L45.3344 34.839C45.2932 34.5763 45.1628 34.3689 44.9433 34.2168C44.7265 34.0619 44.4506 33.9817 44.1158 33.9762C43.8002 33.9679 43.5435 34.0287 43.3459 34.1587C43.1483 34.2859 43.0495 34.456 43.0495 34.6689C43.0495 34.7878 43.0852 34.8902 43.1566 34.9759C43.2279 35.0589 43.3569 35.1377 43.5435 35.2123C43.7329 35.287 44.0019 35.3686 44.3505 35.4571C44.7594 35.5622 45.0805 35.6728 45.3138 35.7889C45.5471 35.9051 45.7131 36.042 45.8119 36.1996C45.9107 36.3572 45.9602 36.5522 45.9602 36.7845C45.9602 37.2076 45.8037 37.5408 45.4908 37.7842C45.1807 38.0248 44.7525 38.1451 44.2064 38.1451ZM46.9555 32.6944V32.01H47.5607V32.6944H46.9555ZM46.9555 38.0248V33.5448H47.5607V38.0248H46.9555ZM48.8772 38.0248V31.927H49.4824V38.0248H48.8772ZM52.5981 38.1492C52.1644 38.1492 51.7884 38.0524 51.47 37.8589C51.1544 37.6653 50.9088 37.3929 50.7331 37.0417C50.5575 36.6905 50.4696 36.2784 50.4696 35.8055C50.4696 35.316 50.5561 34.8929 50.729 34.5362C50.9019 34.1794 51.1448 33.9043 51.4577 33.7107C51.7733 33.5171 52.1452 33.4203 52.5734 33.4203C53.0125 33.4203 53.3871 33.5227 53.6973 33.7273C54.0074 33.9292 54.2421 34.2195 54.4013 34.5984C54.5605 34.9773 54.6332 35.4294 54.6195 35.9549H54.0019V35.7392C53.991 35.1584 53.8661 34.7201 53.6273 34.4242C53.3913 34.1283 53.0454 33.9803 52.5898 33.9803C52.1123 33.9803 51.7459 34.1366 51.4906 34.4491C51.2381 34.7616 51.1119 35.2068 51.1119 35.7848C51.1119 36.3489 51.2381 36.7872 51.4906 37.0997C51.7459 37.4095 52.1068 37.5643 52.5734 37.5643C52.8917 37.5643 53.1689 37.4911 53.405 37.3445C53.6438 37.1951 53.8318 36.9808 53.969 36.7015L54.533 36.9214C54.3574 37.3113 54.098 37.6141 53.7549 37.8298C53.4146 38.0428 53.029 38.1492 52.5981 38.1492ZM50.8978 35.9549V35.4446H54.2942V35.9549H50.8978ZM29.1191 47.1369C28.7047 47.1369 28.3315 47.0677 27.9994 46.9295C27.67 46.7884 27.3969 46.5893 27.1801 46.3321C26.966 46.075 26.826 45.7694 26.7602 45.4154L27.3777 45.3117C27.4765 45.6989 27.6851 46.0031 28.0035 46.2243C28.3218 46.4428 28.702 46.552 29.1439 46.552C29.4348 46.552 29.6955 46.5064 29.9261 46.4151C30.1566 46.3211 30.3377 46.1883 30.4695 46.0169C30.6012 45.8454 30.6671 45.6422 30.6671 45.4071C30.6671 45.2522 30.6397 45.1209 30.5848 45.013C30.5299 44.9024 30.4571 44.8111 30.3666 44.7392C30.276 44.6673 30.1772 44.6079 30.0701 44.5609C29.9631 44.5111 29.8588 44.471 29.7573 44.4406L28.2546 43.9884C28.0735 43.9359 27.906 43.8695 27.7523 43.7893C27.5986 43.7064 27.4642 43.6082 27.3489 43.4948C27.2364 43.3787 27.1485 43.2432 27.0854 43.0883C27.0223 42.9334 26.9907 42.7564 26.9907 42.5573C26.9907 42.2199 27.0785 41.9282 27.2542 41.6821C27.4299 41.4359 27.67 41.2465 27.9747 41.1138C28.2793 40.981 28.6265 40.916 29.0162 40.9188C29.4114 40.9188 29.7641 40.9893 30.0743 41.1304C30.3871 41.2714 30.6451 41.4733 30.8482 41.736C31.0513 41.9959 31.1858 42.3043 31.2517 42.661L30.6177 42.7772C30.5765 42.5172 30.4818 42.2918 30.3336 42.101C30.1854 41.9102 29.996 41.7636 29.7655 41.6613C29.5377 41.5562 29.2866 41.5023 29.0121 41.4995C28.7459 41.4995 28.5085 41.5452 28.2999 41.6364C28.094 41.7249 27.9307 41.8466 27.81 42.0015C27.6892 42.1563 27.6288 42.3333 27.6288 42.5324C27.6288 42.7343 27.6837 42.8961 27.7935 43.0178C27.906 43.1394 28.0433 43.2349 28.2052 43.304C28.3699 43.3731 28.5291 43.4298 28.6828 43.4741L29.8437 43.8184C29.9645 43.8515 30.1058 43.8999 30.2678 43.9635C30.4324 44.0244 30.5916 44.1129 30.7453 44.229C30.9018 44.3424 31.0308 44.4917 31.1323 44.677C31.2339 44.8623 31.2846 45.0974 31.2846 45.3822C31.2846 45.6588 31.2297 45.9063 31.12 46.1247C31.0129 46.3432 30.8606 46.5271 30.663 46.6764C30.4681 46.8258 30.2389 46.9391 29.9755 47.0166C29.7147 47.0968 29.4293 47.1369 29.1191 47.1369ZM34.5551 47.0124C34.3054 47.065 34.0584 47.0857 33.8141 47.0747C33.5726 47.0636 33.3558 47.0111 33.1636 46.917C32.9743 46.823 32.8302 46.6764 32.7314 46.4773C32.6518 46.3114 32.6079 46.1441 32.5996 45.9754C32.5941 45.8039 32.5914 45.609 32.5914 45.3905V41.288H33.1925V45.3656C33.1925 45.5537 33.1938 45.7113 33.1966 45.8385C33.2021 45.963 33.2309 46.0736 33.283 46.1704C33.3818 46.3556 33.5383 46.4663 33.7524 46.5022C33.9692 46.5382 34.2368 46.5299 34.5551 46.4773V47.0124ZM31.6404 43.0551V42.5324H34.5551V43.0551H31.6404ZM37.1517 47.1369C36.7181 47.1369 36.3421 47.0401 36.0237 46.8465C35.7081 46.6529 35.4624 46.3805 35.2868 46.0293C35.1111 45.6781 35.0233 45.2661 35.0233 44.7932C35.0233 44.3037 35.1098 43.8806 35.2827 43.5238C35.4556 43.1671 35.6985 42.8919 36.0114 42.6984C36.327 42.5048 36.6989 42.408 37.127 42.408C37.5662 42.408 37.9408 42.5103 38.2509 42.715C38.5611 42.9168 38.7957 43.2072 38.9549 43.5861C39.1141 43.9649 39.1868 44.4171 39.1731 44.9425H38.5556V44.7268C38.5446 44.1461 38.4197 43.7077 38.181 43.4118C37.9449 43.1159 37.5991 42.968 37.1435 42.968C36.6659 42.968 36.2995 43.1242 36.0443 43.4367C35.7918 43.7492 35.6655 44.1945 35.6655 44.7724C35.6655 45.3366 35.7918 45.7749 36.0443 46.0874C36.2995 46.3971 36.6605 46.552 37.127 46.552C37.4454 46.552 37.7226 46.4787 37.9586 46.3321C38.1974 46.1828 38.3854 45.9685 38.5227 45.6892L39.0867 45.909C38.911 46.299 38.6517 46.6018 38.3086 46.8175C37.9683 47.0304 37.5826 47.1369 37.1517 47.1369ZM35.4515 44.9425V44.4323H38.8479V44.9425H35.4515ZM41.9681 47.1369C41.5345 47.1369 41.1585 47.0401 40.8401 46.8465C40.5245 46.6529 40.2789 46.3805 40.1032 46.0293C39.9275 45.6781 39.8397 45.2661 39.8397 44.7932C39.8397 44.3037 39.9262 43.8806 40.0991 43.5238C40.272 43.1671 40.5149 42.8919 40.8278 42.6984C41.1434 42.5048 41.5153 42.408 41.9434 42.408C42.3826 42.408 42.7572 42.5103 43.0674 42.715C43.3775 42.9168 43.6122 43.2072 43.7713 43.5861C43.9305 43.9649 44.0033 44.4171 43.9895 44.9425H43.372V44.7268C43.361 44.1461 43.2361 43.7077 42.9974 43.4118C42.7613 43.1159 42.4155 42.968 41.9599 42.968C41.4824 42.968 41.116 43.1242 40.8607 43.4367C40.6082 43.7492 40.482 44.1945 40.482 44.7724C40.482 45.3366 40.6082 45.7749 40.8607 46.0874C41.116 46.3971 41.4769 46.552 41.9434 46.552C42.2618 46.552 42.539 46.4787 42.7751 46.3321C43.0138 46.1828 43.2018 45.9685 43.3391 45.6892L43.9031 45.909C43.7274 46.299 43.4681 46.6018 43.125 46.8175C42.7847 47.0304 42.399 47.1369 41.9681 47.1369ZM40.2679 44.9425V44.4323H43.6643V44.9425H40.2679ZM44.9855 47.0124V40.9147H45.5907V47.0124H44.9855Z" fill="#222222"/>
</g>
<path d="M13.3115 22.8148V12.8593H19.2604V14.5254H14.9651V17.0074H18.437V18.6667H14.9651V22.8148H13.3115ZM20.4947 22.8148V12.8593H24.5772C24.6733 12.8593 24.7968 12.8639 24.9478 12.8731C25.0987 12.8777 25.2382 12.8915 25.3663 12.9146C25.9381 13.0022 26.4093 13.1934 26.7797 13.4884C27.1548 13.7834 27.4316 14.1567 27.61 14.6084C27.7929 15.0555 27.8845 15.5533 27.8845 16.1017C27.8845 16.9129 27.6809 17.6112 27.2738 18.1965C26.8666 18.7773 26.2422 19.1368 25.4006 19.2751L24.6939 19.3373H22.1483V22.8148H20.4947ZM26.1691 22.8148L24.2204 18.7634L25.9015 18.3901L28.0423 22.8148H26.1691ZM22.1483 17.7817H24.5086C24.6001 17.7817 24.703 17.7771 24.8174 17.7679C24.9317 17.7587 25.037 17.7402 25.133 17.7126C25.4075 17.6435 25.6224 17.5213 25.778 17.3462C25.9381 17.171 26.0501 16.9728 26.1142 16.7516C26.1828 16.5304 26.2171 16.3138 26.2171 16.1017C26.2171 15.8897 26.1828 15.6731 26.1142 15.4518C26.0501 15.226 25.9381 15.0255 25.778 14.8504C25.6224 14.6752 25.4075 14.5531 25.133 14.4839C25.037 14.4563 24.9317 14.4402 24.8174 14.4355C24.703 14.4264 24.6001 14.4217 24.5086 14.4217H22.1483V17.7817ZM28.8678 22.8148L31.9829 12.8593H34.405L37.5201 22.8148H35.8185L32.9915 13.8825H33.362L30.5694 22.8148H28.8678ZM30.6037 20.6578V19.1022H35.791V20.6578H30.6037ZM38.7606 22.8148V12.8593H40.2495L43.6665 19.9111L47.0835 12.8593H48.5725V22.8148H47.0287V16.4336L43.9959 22.8148H43.3372L40.3113 16.4336V22.8148H38.7606ZM50.5002 22.8148V12.8593H56.8813V14.4217H52.1538V16.876H56.0579V18.4385H52.1538V21.2523H56.8813V22.8148H50.5002Z" fill="#222222"/>
<path d="M310.139 0H250.755C246.966 0 243.894 3.09532 243.894 6.91358V48.797C243.894 52.6153 246.966 55.7106 250.755 55.7106H310.139C313.928 55.7106 317 52.6153 317 48.797V6.91358C317 3.09532 313.928 0 310.139 0Z" fill="#F1F1F1"/>
<mask id="mask1_1322_668" style="mask-type:luminance" maskUnits="userSpaceOnUse" x="257" y="30" width="47" height="19">
<path d="M303.964 30.4198H257.306V48.3951H303.964V30.4198Z" fill="white"/>
</mask>
<g mask="url(#mask1_1322_668)">
<path d="M263.666 38.0206L263.67 37.4648L266.35 35.0257C266.581 34.8155 266.733 34.6164 266.807 34.4283C266.884 34.2375 266.922 34.0384 266.922 33.831C266.922 33.5849 266.865 33.3623 266.75 33.1631C266.634 32.964 266.479 32.8064 266.284 32.6903C266.089 32.5713 265.871 32.5119 265.63 32.5119C265.377 32.5119 265.152 32.5727 264.955 32.6944C264.757 32.8161 264.601 32.9765 264.485 33.1756C264.373 33.3747 264.318 33.5918 264.321 33.8269H263.703C263.703 33.4646 263.788 33.1396 263.958 32.852C264.128 32.5644 264.359 32.3391 264.65 32.1759C264.941 32.01 265.27 31.927 265.638 31.927C265.998 31.927 266.32 32.0127 266.605 32.1842C266.894 32.3529 267.12 32.5824 267.285 32.8728C267.452 33.1604 267.536 33.4812 267.536 33.8351C267.536 34.084 267.506 34.3039 267.445 34.4947C267.388 34.6828 267.296 34.8584 267.169 35.0215C267.046 35.1819 266.888 35.3478 266.696 35.5193L264.316 37.6846L264.222 37.4357H267.536V38.0206H263.666ZM270.478 31.9312C270.851 31.9312 271.189 32.0224 271.491 32.2049C271.796 32.3847 272.037 32.6308 272.215 32.9433C272.394 33.253 272.483 33.6015 272.483 33.9886V36.0627C272.483 36.4609 272.394 36.8177 272.215 37.1329C272.037 37.4482 271.793 37.6971 271.483 37.8796C271.175 38.0593 270.825 38.1492 270.433 38.1492C270.095 38.1492 269.782 38.0746 269.494 37.9252C269.209 37.7731 268.973 37.5643 268.786 37.2989L269.247 36.9131C269.373 37.1094 269.541 37.2671 269.749 37.386C269.961 37.5049 270.189 37.5643 270.433 37.5643C270.713 37.5643 270.96 37.498 271.174 37.3652C271.391 37.2297 271.561 37.0527 271.684 36.8343C271.811 36.613 271.874 36.3738 271.874 36.1166V34.8141L272.022 34.9883C271.852 35.2621 271.625 35.4833 271.343 35.652C271.063 35.8207 270.755 35.9051 270.42 35.9051C270.055 35.9051 269.725 35.8166 269.428 35.6396C269.135 35.4626 268.901 35.2248 268.728 34.9261C268.558 34.6274 268.473 34.2942 268.473 33.9264C268.473 33.5586 268.564 33.224 268.745 32.9226C268.926 32.6184 269.169 32.3778 269.474 32.2008C269.778 32.021 270.113 31.9312 270.478 31.9312ZM270.478 32.5202C270.22 32.5202 269.985 32.5838 269.774 32.711C269.563 32.8354 269.394 33.0041 269.268 33.2171C269.144 33.43 269.082 33.6665 269.082 33.9264C269.082 34.1864 269.144 34.4228 269.268 34.6357C269.391 34.8487 269.559 35.0188 269.77 35.146C269.981 35.2704 270.216 35.3326 270.474 35.3326C270.732 35.3326 270.967 35.2704 271.178 35.146C271.392 35.0188 271.561 34.8487 271.684 34.6357C271.811 34.4228 271.874 34.1864 271.874 33.9264C271.874 33.6692 271.811 33.4342 271.684 33.2212C271.561 33.0083 271.393 32.8382 271.182 32.711C270.971 32.5838 270.736 32.5202 270.478 32.5202ZM274.786 38.0248L276.841 35.0008L274.84 32.0514H275.573L277.199 34.4906L278.825 32.0514H279.562L277.561 35.0008L279.611 38.0248H278.879L277.199 35.5151L275.523 38.0248H274.786ZM281.758 38.0206L281.762 37.4648L284.442 35.0257C284.672 34.8155 284.825 34.6164 284.899 34.4283C284.976 34.2375 285.014 34.0384 285.014 33.831C285.014 33.5849 284.956 33.3623 284.841 33.1631C284.726 32.964 284.571 32.8064 284.376 32.6903C284.181 32.5713 283.963 32.5119 283.721 32.5119C283.469 32.5119 283.244 32.5727 283.046 32.6944C282.849 32.8161 282.692 32.9765 282.577 33.1756C282.464 33.3747 282.41 33.5918 282.412 33.8269H281.795C281.795 33.4646 281.88 33.1396 282.05 32.852C282.22 32.5644 282.451 32.3391 282.742 32.1759C283.033 32.01 283.362 31.927 283.73 31.927C284.089 31.927 284.412 32.0127 284.697 32.1842C284.985 32.3529 285.212 32.5824 285.376 32.8728C285.544 33.1604 285.628 33.4812 285.628 33.8351C285.628 34.084 285.597 34.3039 285.537 34.4947C285.479 34.6828 285.387 34.8584 285.261 35.0215C285.138 35.1819 284.98 35.3478 284.788 35.5193L282.408 37.6846L282.313 37.4357H285.628V38.0206H281.758ZM286.734 38.0248V37.3154H287.438V38.0248H286.734ZM291.319 38.0248V36.8674H288.544V36.2867L290.529 32.0514H291.208L289.224 36.2867H291.319V34.5445H291.928V36.2867H292.575V36.8674H291.928V38.0248H291.319ZM295.5 38.1492C295.135 38.1492 294.806 38.0635 294.512 37.892C294.222 37.7206 293.991 37.4883 293.821 37.1951C293.651 36.8992 293.566 36.5674 293.566 36.1996V33.8766C293.566 33.5088 293.651 33.1784 293.821 32.8852C293.991 32.5893 294.222 32.3556 294.512 32.1842C294.806 32.0127 295.135 31.927 295.5 31.927C295.866 31.927 296.194 32.0127 296.484 32.1842C296.778 32.3556 297.01 32.5893 297.18 32.8852C297.35 33.1784 297.435 33.5088 297.435 33.8766V36.1996C297.435 36.5674 297.35 36.8992 297.18 37.1951C297.01 37.4883 296.778 37.7206 296.484 37.892C296.194 38.0635 295.866 38.1492 295.5 38.1492ZM295.5 37.5602C295.745 37.5602 295.967 37.5007 296.167 37.3818C296.368 37.2601 296.527 37.0984 296.645 36.8965C296.763 36.6946 296.822 36.472 296.822 36.2286V33.8476C296.822 33.6015 296.763 33.3775 296.645 33.1756C296.527 32.9737 296.368 32.8133 296.167 32.6944C295.967 32.5727 295.745 32.5119 295.5 32.5119C295.256 32.5119 295.034 32.5727 294.834 32.6944C294.633 32.8133 294.474 32.9737 294.356 33.1756C294.238 33.3775 294.179 33.6015 294.179 33.8476V36.2286C294.179 36.472 294.238 36.6946 294.356 36.8965C294.474 37.0984 294.633 37.2601 294.834 37.3818C295.034 37.5007 295.256 37.5602 295.5 37.5602ZM270.38 47.0124V41.0391H270.989L274.254 45.9339V41.0391H274.863V47.0124H274.254L270.989 42.1135V47.0124H270.38ZM276.651 49.0035L277.511 46.6515L277.523 47.3484L275.576 42.5324H276.218L277.816 46.5603H277.552L279.026 42.5324H279.644L277.256 49.0035H276.651ZM280.441 47.0124V40.9147H281.046V47.0124H280.441ZM284.137 47.1369C283.695 47.1369 283.318 47.0359 283.005 46.8341C282.692 46.6322 282.452 46.3529 282.285 45.9961C282.117 45.6394 282.033 45.2301 282.033 44.7683C282.033 44.2982 282.119 43.8861 282.289 43.5321C282.459 43.1782 282.7 42.903 283.013 42.7067C283.329 42.5075 283.704 42.408 284.137 42.408C284.582 42.408 284.961 42.5089 285.273 42.7108C285.589 42.9099 285.829 43.1878 285.994 43.5446C286.161 43.8986 286.245 44.3065 286.245 44.7683C286.245 45.2384 286.161 45.6518 285.994 46.0086C285.827 46.3626 285.585 46.6391 285.269 46.8382C284.954 47.0373 284.576 47.1369 284.137 47.1369ZM284.137 46.552C284.631 46.552 284.999 46.3874 285.241 46.0584C285.482 45.7265 285.603 45.2965 285.603 44.7683C285.603 44.2263 285.481 43.7949 285.236 43.4741C284.995 43.1533 284.629 42.9929 284.137 42.9929C283.805 42.9929 283.531 43.0689 283.314 43.221C283.1 43.3704 282.939 43.5792 282.832 43.8474C282.728 44.1129 282.676 44.4198 282.676 44.7683C282.676 45.3075 282.799 45.7403 283.046 46.0667C283.293 46.3902 283.657 46.552 284.137 46.552ZM290.364 47.0124V44.7268C290.364 44.4779 290.341 44.2498 290.294 44.0424C290.247 43.8322 290.172 43.6497 290.068 43.4948C289.966 43.3372 289.833 43.2155 289.668 43.1298C289.506 43.044 289.309 43.0012 289.075 43.0012C288.861 43.0012 288.672 43.0385 288.507 43.1132C288.345 43.1878 288.208 43.2957 288.096 43.4367C287.986 43.575 287.902 43.7437 287.844 43.9428C287.787 44.1419 287.758 44.3687 287.758 44.6231L287.33 44.5277C287.33 44.0686 287.409 43.6829 287.569 43.3704C287.728 43.0579 287.947 42.8214 288.227 42.661C288.507 42.5006 288.828 42.4204 289.191 42.4204C289.457 42.4204 289.689 42.4619 289.886 42.5449C290.087 42.6278 290.256 42.7398 290.393 42.8809C290.533 43.0219 290.645 43.1837 290.73 43.3662C290.815 43.546 290.877 43.7382 290.916 43.9428C290.954 44.1447 290.973 44.3466 290.973 44.5484V47.0124H290.364ZM287.149 47.0124V42.5324H287.696V43.6358H287.758V47.0124H287.149Z" fill="#222222"/>
</g>
<path d="M260.64 22.8148V14.4217H257.442V12.8593H265.491V14.4217H262.293V22.8148H260.64ZM269.405 22.8148V18.7358L266.043 12.8593H267.971L270.242 16.8276L272.506 12.8593H274.434L271.079 18.7358V22.8148H269.405ZM275.393 22.8148V12.8593H279.475C279.571 12.8593 279.695 12.8639 279.846 12.8731C279.997 12.8777 280.136 12.8915 280.264 12.9146C280.836 13.0022 281.307 13.1934 281.678 13.4884C282.053 13.7834 282.33 14.1567 282.508 14.6084C282.691 15.0555 282.782 15.5533 282.782 16.1017C282.782 16.9129 282.579 17.6112 282.172 18.1965C281.765 18.7773 281.141 19.1368 280.299 19.2751L279.592 19.3373H277.046V22.8148H275.393ZM281.067 22.8148L279.118 18.7635L280.8 18.3901L282.94 22.8148H281.067ZM277.046 17.7817H279.407C279.498 17.7817 279.601 17.7771 279.715 17.7679C279.83 17.7587 279.935 17.7402 280.031 17.7126C280.305 17.6435 280.52 17.5213 280.676 17.3462C280.836 17.171 280.948 16.9728 281.012 16.7516C281.081 16.5304 281.115 16.3138 281.115 16.1017C281.115 15.8897 281.081 15.6731 281.012 15.4518C280.948 15.226 280.836 15.0255 280.676 14.8504C280.52 14.6752 280.305 14.5531 280.031 14.4839C279.935 14.4563 279.83 14.4402 279.715 14.4355C279.601 14.4264 279.498 14.4217 279.407 14.4217H277.046V17.7817ZM284.452 22.8148V12.8593H290.833V14.4217H286.105V16.876H290.01V18.4385H286.105V21.2523H290.833V22.8148H284.452ZM296.043 23.0222C295.32 23.0222 294.668 22.8955 294.087 22.642C293.511 22.3884 293.035 22.0267 292.66 21.5565C292.29 21.0818 292.054 20.5195 291.954 19.8696L293.669 19.6069C293.815 20.1968 294.115 20.6531 294.568 20.9758C295.025 21.2985 295.551 21.4597 296.146 21.4597C296.498 21.4597 296.829 21.4044 297.141 21.2938C297.452 21.1832 297.703 21.0219 297.896 20.8099C298.092 20.5978 298.191 20.3375 298.191 20.0286C298.191 19.8904 298.167 19.7636 298.122 19.6484C298.076 19.5286 298.007 19.4225 297.916 19.3304C297.829 19.2382 297.714 19.1552 297.573 19.0815C297.436 19.0031 297.275 18.9363 297.093 18.881L294.54 18.1205C294.321 18.056 294.083 17.9707 293.827 17.8647C293.575 17.7541 293.335 17.6043 293.106 17.4153C292.882 17.2217 292.697 16.9775 292.55 16.6825C292.408 16.3829 292.338 16.0141 292.338 15.5763C292.338 14.9356 292.498 14.3987 292.818 13.9654C293.143 13.5276 293.577 13.2003 294.122 12.9837C294.671 12.7671 295.279 12.661 295.947 12.6657C296.623 12.6703 297.227 12.7878 297.758 13.0183C298.289 13.2441 298.733 13.5736 299.089 14.0069C299.446 14.4402 299.697 14.9633 299.844 15.5763L298.067 15.8874C297.994 15.5371 297.852 15.2398 297.642 14.9955C297.436 14.7467 297.182 14.5577 296.88 14.4286C296.582 14.2996 296.265 14.2304 295.926 14.2212C295.597 14.2166 295.29 14.2673 295.007 14.3733C294.728 14.4748 294.501 14.6222 294.328 14.8158C294.158 15.0094 294.074 15.2352 294.074 15.4933C294.074 15.7376 294.146 15.9381 294.293 16.0948C294.439 16.2469 294.62 16.3691 294.835 16.4612C295.055 16.5488 295.277 16.6225 295.501 16.6825L297.271 17.1802C297.513 17.2447 297.786 17.3323 298.088 17.443C298.39 17.5536 298.68 17.708 298.959 17.9062C299.238 18.1044 299.467 18.3647 299.645 18.6874C299.828 19.0101 299.92 19.4202 299.92 19.918C299.92 20.4343 299.812 20.8882 299.597 21.28C299.387 21.6672 299.1 21.9898 298.74 22.2479C298.378 22.506 297.964 22.6996 297.498 22.8286C297.035 22.9577 296.551 23.0222 296.043 23.0222Z" fill="#222222"/>
<path d="M147.338 0H87.9543C84.1648 0 81.0928 3.09532 81.0928 6.91358V48.797C81.0928 52.6153 84.1648 55.7106 87.9543 55.7106H147.338C151.128 55.7106 154.2 52.6153 154.2 48.797V6.91358C154.2 3.09532 151.128 0 147.338 0Z" fill="#F1F1F1"/>
<mask id="mask2_1322_668" style="mask-type:luminance" maskUnits="userSpaceOnUse" x="94" y="30" width="47" height="19">
<path d="M140.66 30.4198H94.002V48.3951H140.66V30.4198Z" fill="white"/>
</mask>
<g mask="url(#mask2_1322_668)">
<path d="M97.5885 38.1492C97.174 38.1492 96.8008 38.0801 96.4687 37.9418C96.1393 37.8007 95.8662 37.6016 95.6494 37.3444C95.4353 37.0873 95.2954 36.7817 95.2295 36.4277L95.847 36.324C95.9458 36.7112 96.1544 37.0154 96.4728 37.2366C96.7912 37.4551 97.1713 37.5643 97.6132 37.5643C97.9041 37.5643 98.1648 37.5187 98.3954 37.4274C98.6259 37.3334 98.8071 37.2006 98.9388 37.0292C99.0705 36.8577 99.1364 36.6545 99.1364 36.4194C99.1364 36.2645 99.109 36.1332 99.0541 36.0253C98.9992 35.9147 98.9265 35.8235 98.8359 35.7516C98.7453 35.6797 98.6465 35.6202 98.5395 35.5732C98.4324 35.5234 98.3281 35.4833 98.2266 35.4529L96.7239 35.0007C96.5428 34.9482 96.3754 34.8818 96.2217 34.8016C96.068 34.7187 95.9335 34.6205 95.8182 34.5071C95.7057 34.391 95.6179 34.2555 95.5547 34.1006C95.4916 33.9457 95.46 33.7687 95.46 33.5696C95.46 33.2323 95.5479 32.9405 95.7235 32.6944C95.8992 32.4483 96.1393 32.2588 96.444 32.1261C96.7486 31.9933 97.0958 31.9283 97.4855 31.9311C97.8808 31.9311 98.2334 32.0016 98.5436 32.1427C98.8565 32.2837 99.1145 32.4856 99.3176 32.7483C99.5207 33.0083 99.6551 33.3166 99.721 33.6733L99.087 33.7895C99.0458 33.5295 98.9511 33.3042 98.8029 33.1133C98.6547 32.9225 98.4654 32.776 98.2348 32.6736C98.007 32.5685 97.7559 32.5146 97.4814 32.5119C97.2152 32.5119 96.9778 32.5575 96.7692 32.6487C96.5634 32.7372 96.4001 32.8589 96.2793 33.0138C96.1585 33.1686 96.0981 33.3456 96.0981 33.5447C96.0981 33.7466 96.153 33.9084 96.2628 34.0301C96.3754 34.1518 96.5126 34.2472 96.6745 34.3163C96.8392 34.3854 96.9984 34.4421 97.1521 34.4864L98.313 34.8307C98.4338 34.8639 98.5751 34.9123 98.7371 34.9759C98.9018 35.0367 99.0609 35.1252 99.2146 35.2413C99.3711 35.3547 99.5001 35.5041 99.6016 35.6893C99.7032 35.8746 99.7539 36.1097 99.7539 36.3945C99.7539 36.6711 99.6991 36.9186 99.5893 37.137C99.4822 37.3555 99.3299 37.5394 99.1323 37.6887C98.9374 37.8381 98.7083 37.9515 98.4448 38.0289C98.184 38.1091 97.8986 38.1492 97.5885 38.1492ZM102.304 38.1367C102.037 38.1367 101.804 38.0953 101.604 38.0123C101.406 37.9293 101.237 37.8173 101.097 37.6763C100.96 37.5353 100.849 37.3749 100.764 37.1951C100.679 37.0126 100.617 36.8204 100.579 36.6185C100.54 36.4139 100.521 36.2106 100.521 36.0087V33.5447H101.13V35.8304C101.13 36.0765 101.154 36.3046 101.2 36.5148C101.247 36.725 101.321 36.9089 101.423 37.0665C101.527 37.2214 101.66 37.3417 101.822 37.4274C101.987 37.5131 102.186 37.556 102.419 37.556C102.633 37.556 102.821 37.5187 102.983 37.444C103.148 37.3693 103.285 37.2629 103.395 37.1246C103.507 36.9836 103.592 36.8135 103.65 36.6144C103.708 36.4125 103.736 36.1857 103.736 35.9341L104.165 36.0295C104.165 36.4885 104.085 36.8743 103.926 37.1868C103.767 37.4993 103.547 37.7358 103.267 37.8962C102.987 38.0565 102.666 38.1367 102.304 38.1367ZM103.798 38.0247V36.9213H103.736V33.5447H104.342V38.0247H103.798ZM107.151 38.145C106.63 38.145 106.2 38.0317 105.863 37.8049C105.528 37.5781 105.322 37.2629 105.245 36.8591L105.863 36.7554C105.929 37.0098 106.078 37.2131 106.311 37.3652C106.547 37.5145 106.838 37.5892 107.184 37.5892C107.522 37.5892 107.788 37.5187 107.983 37.3776C108.178 37.2338 108.275 37.0389 108.275 36.7927C108.275 36.6545 108.244 36.5425 108.181 36.4567C108.12 36.3682 107.995 36.2867 107.806 36.212C107.617 36.1373 107.334 36.0488 106.958 35.9465C106.554 35.8359 106.239 35.7253 106.011 35.6147C105.783 35.5041 105.621 35.3768 105.525 35.233C105.429 35.0865 105.381 34.9081 105.381 34.6979C105.381 34.4435 105.452 34.2209 105.595 34.0301C105.738 33.8365 105.935 33.6872 106.188 33.5821C106.44 33.4742 106.734 33.4203 107.069 33.4203C107.404 33.4203 107.703 33.4756 107.966 33.5862C108.233 33.6941 108.447 33.8462 108.609 34.0425C108.771 34.2389 108.867 34.467 108.897 34.727L108.279 34.839C108.238 34.5762 108.108 34.3688 107.888 34.2167C107.671 34.0619 107.396 33.9817 107.061 33.9762C106.745 33.9679 106.488 34.0287 106.291 34.1587C106.093 34.2859 105.994 34.456 105.994 34.6689C105.994 34.7878 106.03 34.8901 106.101 34.9759C106.173 35.0588 106.302 35.1376 106.488 35.2123C106.678 35.287 106.947 35.3685 107.295 35.457C107.704 35.5621 108.025 35.6727 108.259 35.7889C108.492 35.905 108.658 36.0419 108.757 36.1996C108.856 36.3572 108.905 36.5522 108.905 36.7844C108.905 37.2076 108.749 37.5408 108.436 37.7842C108.126 38.0247 107.697 38.145 107.151 38.145ZM111.815 38.1492C111.406 38.1492 111.06 38.0455 110.778 37.8381C110.495 37.6279 110.281 37.3444 110.135 36.9877C109.99 36.6282 109.917 36.2258 109.917 35.7806C109.917 35.3271 109.99 34.9233 110.135 34.5693C110.284 34.2126 110.5 33.9319 110.786 33.7273C111.071 33.5226 111.423 33.4203 111.84 33.4203C112.246 33.4203 112.595 33.524 112.885 33.7314C113.176 33.9388 113.399 34.2209 113.552 34.5776C113.709 34.9344 113.787 35.3354 113.787 35.7806C113.787 36.2286 113.709 36.631 113.552 36.9877C113.396 37.3444 113.171 37.6279 112.877 37.8381C112.584 38.0455 112.229 38.1492 111.815 38.1492ZM109.814 40.0159V33.5447H110.358V36.9172H110.424V40.0159H109.814ZM111.753 37.5809C112.063 37.5809 112.321 37.5021 112.527 37.3444C112.733 37.1868 112.887 36.9725 112.988 36.7015C113.093 36.4277 113.145 36.1207 113.145 35.7806C113.145 35.4432 113.094 35.139 112.992 34.868C112.891 34.597 112.736 34.3827 112.527 34.225C112.321 34.0674 112.059 33.9886 111.741 33.9886C111.431 33.9886 111.173 34.0646 110.967 34.2167C110.764 34.3688 110.612 34.5804 110.51 34.8514C110.408 35.1197 110.358 35.4294 110.358 35.7806C110.358 36.1263 110.408 36.436 110.51 36.7098C110.612 36.9808 110.765 37.1937 110.971 37.3486C111.177 37.5035 111.438 37.5809 111.753 37.5809ZM116.573 38.1492C116.139 38.1492 115.763 38.0524 115.445 37.8588C115.129 37.6652 114.883 37.3928 114.708 37.0416C114.532 36.6904 114.444 36.2784 114.444 35.8055C114.444 35.316 114.531 34.8929 114.704 34.5362C114.877 34.1794 115.12 33.9042 115.432 33.7107C115.748 33.5171 116.12 33.4203 116.548 33.4203C116.987 33.4203 117.362 33.5226 117.672 33.7273C117.982 33.9291 118.217 34.2195 118.376 34.5984C118.535 34.9772 118.608 35.4294 118.594 35.9548H117.977V35.7391C117.966 35.1584 117.841 34.7201 117.602 34.4242C117.366 34.1283 117.02 33.9803 116.565 33.9803C116.087 33.9803 115.721 34.1365 115.465 34.449C115.213 34.7615 115.087 35.2068 115.087 35.7847C115.087 36.3489 115.213 36.7872 115.465 37.0997C115.721 37.4094 116.082 37.5643 116.548 37.5643C116.866 37.5643 117.144 37.491 117.38 37.3444C117.618 37.1951 117.806 36.9808 117.944 36.7015L118.508 36.9213C118.332 37.3113 118.073 37.6141 117.73 37.8298C117.389 38.0427 117.004 38.1492 116.573 38.1492ZM114.873 35.9548V35.4446H118.269V35.9548H114.873ZM122.598 38.0247V35.7391C122.598 35.4902 122.575 35.2621 122.528 35.0547C122.481 34.8445 122.406 34.662 122.301 34.5071C122.2 34.3495 122.067 34.2278 121.902 34.1421C121.74 34.0563 121.543 34.0135 121.309 34.0135C121.095 34.0135 120.906 34.0508 120.741 34.1255C120.579 34.2002 120.442 34.308 120.329 34.449C120.22 34.5873 120.136 34.756 120.078 34.9551C120.021 35.1542 119.992 35.381 119.992 35.6354L119.564 35.54C119.564 35.0809 119.643 34.6952 119.802 34.3827C119.962 34.0702 120.181 33.8337 120.461 33.6733C120.741 33.5129 121.062 33.4327 121.425 33.4327C121.691 33.4327 121.923 33.4742 122.12 33.5572C122.321 33.6402 122.489 33.7522 122.627 33.8932C122.767 34.0342 122.879 34.196 122.964 34.3785C123.049 34.5583 123.111 34.7505 123.15 34.9551C123.188 35.157 123.207 35.3589 123.207 35.5607V38.0247H122.598ZM119.383 38.0247V33.5447H119.93V34.6482H119.992V38.0247H119.383ZM125.935 38.145C125.413 38.145 124.984 38.0317 124.646 37.8049C124.311 37.5781 124.105 37.2629 124.028 36.8591L124.646 36.7554C124.712 37.0098 124.861 37.2131 125.095 37.3652C125.331 37.5145 125.622 37.5892 125.968 37.5892C126.305 37.5892 126.571 37.5187 126.766 37.3776C126.961 37.2338 127.058 37.0389 127.058 36.7927C127.058 36.6545 127.027 36.5425 126.964 36.4567C126.903 36.3682 126.779 36.2867 126.589 36.212C126.4 36.1373 126.117 36.0488 125.741 35.9465C125.338 35.8359 125.022 35.7253 124.794 35.6147C124.566 35.5041 124.404 35.3768 124.308 35.233C124.212 35.0865 124.164 34.9081 124.164 34.6979C124.164 34.4435 124.236 34.2209 124.378 34.0301C124.521 33.8365 124.719 33.6872 124.971 33.5821C125.224 33.4742 125.517 33.4203 125.852 33.4203C126.187 33.4203 126.486 33.4756 126.75 33.5862C127.016 33.6941 127.23 33.8462 127.392 34.0425C127.554 34.2389 127.65 34.467 127.68 34.727L127.063 34.839C127.021 34.5762 126.891 34.3688 126.672 34.2167C126.455 34.0619 126.179 33.9817 125.844 33.9762C125.528 33.9679 125.272 34.0287 125.074 34.1587C124.877 34.2859 124.778 34.456 124.778 34.6689C124.778 34.7878 124.813 34.8901 124.885 34.9759C124.956 35.0588 125.085 35.1376 125.272 35.2123C125.461 35.287 125.73 35.3685 126.079 35.457C126.488 35.5621 126.809 35.6727 127.042 35.7889C127.275 35.905 127.441 36.0419 127.54 36.1996C127.639 36.3572 127.688 36.5522 127.688 36.7844C127.688 37.2076 127.532 37.5408 127.219 37.7842C126.909 38.0247 126.481 38.145 125.935 38.145ZM128.684 32.6944V32.0099H129.289V32.6944H128.684ZM128.684 38.0247V33.5447H129.289V38.0247H128.684ZM132.38 38.1492C131.938 38.1492 131.561 38.0483 131.248 37.8464C130.935 37.6445 130.695 37.3652 130.528 37.0084C130.36 36.6517 130.277 36.2424 130.277 35.7806C130.277 35.3105 130.362 34.8984 130.532 34.5444C130.702 34.1905 130.943 33.9153 131.256 33.719C131.572 33.5199 131.947 33.4203 132.38 33.4203C132.825 33.4203 133.204 33.5212 133.517 33.7231C133.832 33.9222 134.072 34.2002 134.237 34.5569C134.404 34.9109 134.488 35.3188 134.488 35.7806C134.488 36.2507 134.404 36.6642 134.237 37.0209C134.07 37.3749 133.828 37.6514 133.512 37.8505C133.197 38.0496 132.819 38.1492 132.38 38.1492ZM132.38 37.5643C132.874 37.5643 133.242 37.3998 133.484 37.0707C133.725 36.7388 133.846 36.3088 133.846 35.7806C133.846 35.2386 133.724 34.8072 133.479 34.4864C133.238 34.1656 132.872 34.0052 132.38 34.0052C132.048 34.0052 131.774 34.0812 131.557 34.2333C131.343 34.3827 131.182 34.5915 131.075 34.8597C130.971 35.1252 130.919 35.4322 130.919 35.7806C130.919 36.3199 131.042 36.7526 131.289 37.079C131.536 37.4025 131.9 37.5643 132.38 37.5643ZM138.607 38.0247V35.7391C138.607 35.4902 138.584 35.2621 138.537 35.0547C138.49 34.8445 138.415 34.662 138.311 34.5071C138.209 34.3495 138.076 34.2278 137.911 34.1421C137.749 34.0563 137.552 34.0135 137.318 34.0135C137.104 34.0135 136.915 34.0508 136.75 34.1255C136.588 34.2002 136.451 34.308 136.339 34.449C136.229 34.5873 136.145 34.756 136.087 34.9551C136.03 35.1542 136.001 35.381 136.001 35.6354L135.573 35.54C135.573 35.0809 135.652 34.6952 135.812 34.3827C135.971 34.0702 136.19 33.8337 136.47 33.6733C136.75 33.5129 137.071 33.4327 137.434 33.4327C137.7 33.4327 137.932 33.4742 138.129 33.5572C138.33 33.6402 138.499 33.7522 138.636 33.8932C138.776 34.0342 138.888 34.196 138.973 34.3785C139.059 34.5583 139.12 34.7505 139.159 34.9551C139.197 35.157 139.216 35.3589 139.216 35.5607V38.0247H138.607ZM135.392 38.0247V33.5447H135.939V34.6482H136.001V38.0247H135.392ZM100.999 47.0124V41.624H98.9278V41.0391H103.675V41.624H101.604V47.0124H100.999ZM103.924 47.0124V42.5324H104.468V43.6109L104.361 43.4699C104.41 43.3371 104.475 43.2155 104.554 43.1048C104.634 42.9915 104.72 42.8988 104.814 42.8269C104.929 42.7246 105.063 42.6472 105.217 42.5946C105.371 42.5393 105.526 42.5075 105.682 42.4992C105.839 42.4882 105.981 42.4992 106.11 42.5324V43.1048C105.948 43.0634 105.771 43.0537 105.579 43.0758C105.387 43.0979 105.21 43.1754 105.048 43.3081C104.9 43.4242 104.789 43.5639 104.715 43.7271C104.641 43.8875 104.591 44.0589 104.567 44.2414C104.542 44.4212 104.53 44.5996 104.53 44.7765V47.0124H103.924ZM108.692 47.1368C108.259 47.1368 107.883 47.0401 107.564 46.8465C107.249 46.6529 107.003 46.3805 106.827 46.0293C106.652 45.6781 106.564 45.266 106.564 44.7931C106.564 44.3037 106.65 43.8805 106.823 43.5238C106.996 43.1671 107.239 42.8919 107.552 42.6983C107.868 42.5047 108.24 42.408 108.668 42.408C109.107 42.408 109.481 42.5103 109.792 42.7149C110.102 42.9168 110.336 43.2072 110.496 43.586C110.655 43.9649 110.728 44.417 110.714 44.9425H110.096V44.7268C110.085 44.146 109.96 43.7077 109.722 43.4118C109.486 43.1159 109.14 42.968 108.684 42.968C108.207 42.968 107.84 43.1242 107.585 43.4367C107.332 43.7492 107.206 44.1944 107.206 44.7724C107.206 45.3365 107.332 45.7749 107.585 46.0874C107.84 46.3971 108.201 46.552 108.668 46.552C108.986 46.552 109.263 46.4787 109.499 46.3321C109.738 46.1828 109.926 45.9684 110.063 45.6891L110.627 45.909C110.452 46.2989 110.192 46.6017 109.849 46.8174C109.509 47.0304 109.123 47.1368 108.692 47.1368ZM106.992 44.9425V44.4322H110.389V44.9425H106.992ZM112.819 47.1368C112.484 47.1368 112.203 47.076 111.975 46.9543C111.75 46.8326 111.581 46.6709 111.469 46.469C111.356 46.2671 111.3 46.0473 111.3 45.8094C111.3 45.5661 111.348 45.3587 111.444 45.1872C111.543 45.013 111.676 44.8706 111.843 44.76C112.013 44.6493 112.21 44.565 112.432 44.5069C112.657 44.4516 112.905 44.4032 113.177 44.3617C113.452 44.3175 113.719 44.2801 113.98 44.2497C114.243 44.2165 114.474 44.1847 114.671 44.1543L114.457 44.2871C114.466 43.8446 114.381 43.5169 114.202 43.304C114.024 43.091 113.714 42.9845 113.272 42.9845C112.967 42.9845 112.709 43.0537 112.498 43.192C112.289 43.3302 112.142 43.5487 112.057 43.8474L111.469 43.6731C111.57 43.2721 111.775 42.961 112.082 42.7398C112.389 42.5186 112.789 42.408 113.28 42.408C113.686 42.408 114.031 42.4854 114.313 42.6402C114.599 42.7923 114.8 43.0136 114.918 43.304C114.973 43.4339 115.009 43.5791 115.026 43.7395C115.042 43.8999 115.05 44.0631 115.05 44.229V47.0124H114.511V45.8883L114.667 45.9546C114.516 46.339 114.282 46.6321 113.963 46.834C113.645 47.0359 113.263 47.1368 112.819 47.1368ZM112.889 46.61C113.172 46.61 113.419 46.5589 113.63 46.4565C113.841 46.3542 114.011 46.2146 114.14 46.0376C114.269 45.8578 114.353 45.656 114.392 45.432C114.424 45.2881 114.442 45.1305 114.445 44.9591C114.448 44.7848 114.449 44.6549 114.449 44.5691L114.68 44.6894C114.474 44.7171 114.25 44.7447 114.009 44.7724C113.77 44.8001 113.534 44.8319 113.301 44.8678C113.07 44.9038 112.861 44.9466 112.675 44.9964C112.549 45.0323 112.426 45.0835 112.308 45.1499C112.19 45.2135 112.093 45.2992 112.016 45.4071C111.942 45.5149 111.905 45.649 111.905 45.8094C111.905 45.9394 111.936 46.0652 112 46.1869C112.065 46.3086 112.17 46.4095 112.313 46.4897C112.458 46.5699 112.65 46.61 112.889 46.61ZM117.847 47.1368C117.433 47.1368 117.078 47.0331 116.785 46.8257C116.491 46.6156 116.266 46.3321 116.11 45.9754C115.953 45.6186 115.875 45.2162 115.875 44.7682C115.875 44.323 115.952 43.922 116.106 43.5653C116.262 43.2085 116.486 42.9265 116.777 42.7191C117.067 42.5117 117.416 42.408 117.822 42.408C118.239 42.408 118.591 42.5103 118.876 42.7149C119.162 42.9196 119.377 43.2002 119.523 43.557C119.671 43.911 119.745 44.3147 119.745 44.7682C119.745 45.2135 119.672 45.6159 119.527 45.9754C119.381 46.3321 119.167 46.6156 118.884 46.8257C118.602 47.0331 118.256 47.1368 117.847 47.1368ZM117.909 46.5685C118.224 46.5685 118.485 46.4911 118.691 46.3363C118.897 46.1814 119.05 45.9684 119.152 45.6974C119.254 45.4237 119.304 45.1139 119.304 44.7682C119.304 44.417 119.254 44.1073 119.152 43.8391C119.05 43.5681 118.897 43.3565 118.691 43.2044C118.488 43.0523 118.231 42.9762 117.921 42.9762C117.603 42.9762 117.339 43.0551 117.131 43.2127C116.922 43.3703 116.767 43.5846 116.665 43.8557C116.567 44.1267 116.517 44.4309 116.517 44.7682C116.517 45.1084 116.568 45.4154 116.67 45.6891C116.774 45.9602 116.929 46.1745 117.135 46.3321C117.341 46.4897 117.599 46.5685 117.909 46.5685ZM119.304 47.0124V43.64H119.238V41.0391H119.848V47.0124H119.304ZM121.086 47.0124V40.9146H121.691V47.0124H121.086ZM124.807 47.1368C124.373 47.1368 123.997 47.0401 123.679 46.8465C123.363 46.6529 123.117 46.3805 122.942 46.0293C122.766 45.6781 122.678 45.266 122.678 44.7931C122.678 44.3037 122.765 43.8805 122.937 43.5238C123.11 43.1671 123.353 42.8919 123.666 42.6983C123.982 42.5047 124.354 42.408 124.782 42.408C125.221 42.408 125.596 42.5103 125.906 42.7149C126.216 42.9168 126.451 43.2072 126.61 43.586C126.769 43.9649 126.842 44.417 126.828 44.9425H126.21V44.7268C126.199 44.146 126.075 43.7077 125.836 43.4118C125.6 43.1159 125.254 42.968 124.798 42.968C124.321 42.968 123.954 43.1242 123.699 43.4367C123.447 43.7492 123.32 44.1944 123.32 44.7724C123.32 45.3365 123.447 45.7749 123.699 46.0874C123.954 46.3971 124.315 46.552 124.782 46.552C125.1 46.552 125.377 46.4787 125.613 46.3321C125.852 46.1828 126.04 45.9684 126.177 45.6891L126.741 45.909C126.566 46.2989 126.306 46.6017 125.963 46.8174C125.623 47.0304 125.237 47.1368 124.807 47.1368ZM123.106 44.9425V44.4322H126.503V44.9425H123.106ZM129.4 47.1327C128.879 47.1327 128.449 47.0193 128.112 46.7925C127.777 46.5658 127.571 46.2505 127.494 45.8468L128.112 45.7431C128.178 45.9975 128.327 46.2007 128.56 46.3528C128.796 46.5022 129.087 46.5768 129.433 46.5768C129.771 46.5768 130.037 46.5063 130.232 46.3653C130.427 46.2215 130.524 46.0265 130.524 45.7804C130.524 45.6421 130.493 45.5301 130.43 45.4444C130.369 45.3559 130.244 45.2743 130.055 45.1997C129.866 45.125 129.583 45.0365 129.207 44.9342C128.803 44.8236 128.488 44.7129 128.26 44.6023C128.032 44.4917 127.87 44.3645 127.774 44.2207C127.678 44.0741 127.63 43.8958 127.63 43.6856C127.63 43.4312 127.701 43.2085 127.844 43.0177C127.987 42.8242 128.184 42.6748 128.437 42.5697C128.689 42.4619 128.983 42.408 129.318 42.408C129.653 42.408 129.952 42.4633 130.215 42.5739C130.482 42.6817 130.696 42.8338 130.858 43.0302C131.02 43.2265 131.116 43.4547 131.146 43.7146L130.528 43.8266C130.487 43.5639 130.357 43.3565 130.137 43.2044C129.92 43.0495 129.645 42.9693 129.31 42.9638C128.994 42.9555 128.737 43.0163 128.54 43.1463C128.342 43.2735 128.243 43.4436 128.243 43.6565C128.243 43.7755 128.279 43.8778 128.351 43.9635C128.422 44.0465 128.551 44.1253 128.737 44.2C128.927 44.2746 129.196 44.3562 129.544 44.4447C129.953 44.5498 130.274 44.6604 130.508 44.7765C130.741 44.8927 130.907 45.0296 131.006 45.1872C131.105 45.3448 131.154 45.5398 131.154 45.7721C131.154 46.1952 130.998 46.5284 130.685 46.7718C130.375 47.0124 129.946 47.1327 129.4 47.1327ZM133.726 47.1327C133.205 47.1327 132.775 47.0193 132.438 46.7925C132.103 46.5658 131.897 46.2505 131.82 45.8468L132.438 45.7431C132.504 45.9975 132.653 46.2007 132.887 46.3528C133.123 46.5022 133.414 46.5768 133.759 46.5768C134.097 46.5768 134.363 46.5063 134.558 46.3653C134.753 46.2215 134.85 46.0265 134.85 45.7804C134.85 45.6421 134.819 45.5301 134.756 45.4444C134.695 45.3559 134.57 45.2743 134.381 45.1997C134.192 45.125 133.909 45.0365 133.533 44.9342C133.13 44.8236 132.814 44.7129 132.586 44.6023C132.358 44.4917 132.196 44.3645 132.1 44.2207C132.004 44.0741 131.956 43.8958 131.956 43.6856C131.956 43.4312 132.028 43.2085 132.17 43.0177C132.313 42.8242 132.511 42.6748 132.763 42.5697C133.016 42.4619 133.309 42.408 133.644 42.408C133.979 42.408 134.278 42.4633 134.542 42.5739C134.808 42.6817 135.022 42.8338 135.184 43.0302C135.346 43.2265 135.442 43.4547 135.472 43.7146L134.854 43.8266C134.813 43.5639 134.683 43.3565 134.463 43.2044C134.247 43.0495 133.971 42.9693 133.636 42.9638C133.32 42.9555 133.064 43.0163 132.866 43.1463C132.668 43.2735 132.57 43.4436 132.57 43.6565C132.57 43.7755 132.605 43.8778 132.677 43.9635C132.748 44.0465 132.877 44.1253 133.064 44.2C133.253 44.2746 133.522 44.3562 133.871 44.4447C134.279 44.5498 134.601 44.6604 134.834 44.7765C135.067 44.8927 135.233 45.0296 135.332 45.1872C135.431 45.3448 135.48 45.5398 135.48 45.7721C135.48 46.1952 135.324 46.5284 135.011 46.7718C134.701 47.0124 134.273 47.1327 133.726 47.1327Z" fill="#222222"/>
</g>
<path d="M98.9521 22.8148V12.8593H104.901V14.5254H100.606V17.0074H104.078V18.6667H100.606V22.8148H98.9521ZM110.314 23.0222C109.326 23.0222 108.479 22.8056 107.775 22.3723C107.071 21.9345 106.529 21.3261 106.149 20.5472C105.774 19.7682 105.586 18.8649 105.586 17.837C105.586 16.8092 105.774 15.9059 106.149 15.1269C106.529 14.348 107.071 13.7419 107.775 13.3086C108.479 12.8708 109.326 12.6519 110.314 12.6519C111.302 12.6519 112.148 12.8708 112.853 13.3086C113.562 13.7419 114.104 14.348 114.479 15.1269C114.858 15.9059 115.048 16.8092 115.048 17.837C115.048 18.8649 114.858 19.7682 114.479 20.5472C114.104 21.3261 113.562 21.9345 112.853 22.3723C112.148 22.8056 111.302 23.0222 110.314 23.0222ZM110.314 21.4528C110.977 21.4575 111.529 21.3099 111.968 21.0104C112.411 20.7108 112.743 20.2891 112.963 19.7452C113.186 19.2013 113.299 18.5652 113.299 17.837C113.299 17.1088 113.186 16.4773 112.963 15.9427C112.743 15.4035 112.411 14.984 111.968 14.6844C111.529 14.3849 110.977 14.2304 110.314 14.2212C109.651 14.2166 109.1 14.3641 108.66 14.6637C108.221 14.9633 107.889 15.385 107.666 15.9289C107.446 16.4728 107.336 17.1088 107.336 17.837C107.336 18.5652 107.446 19.199 107.666 19.7383C107.885 20.2729 108.214 20.6901 108.654 20.9896C109.097 21.2892 109.651 21.4436 110.314 21.4528ZM116.414 22.8148V12.8593H120.496C120.593 12.8593 120.716 12.8639 120.867 12.8731C121.018 12.8777 121.158 12.8916 121.286 12.9146C121.858 13.0022 122.328 13.1934 122.699 13.4884C123.074 13.7834 123.351 14.1567 123.529 14.6084C123.712 15.0555 123.804 15.5533 123.804 16.1017C123.804 16.9129 123.601 17.6112 123.193 18.1965C122.786 18.7773 122.162 19.1368 121.32 19.2751L120.613 19.3373H118.068V22.8148H116.414ZM122.088 22.8148L120.14 18.7635L121.821 18.3901L123.962 22.8148H122.088ZM118.068 17.7817H120.428C120.52 17.7817 120.623 17.7771 120.737 17.7679C120.851 17.7587 120.956 17.7403 121.052 17.7126C121.327 17.6435 121.542 17.5213 121.697 17.3462C121.858 17.1711 121.97 16.9728 122.033 16.7516C122.102 16.5304 122.136 16.3138 122.136 16.1017C122.136 15.8897 122.102 15.6731 122.033 15.4519C121.97 15.226 121.858 15.0255 121.697 14.8504C121.542 14.6753 121.327 14.5531 121.052 14.484C120.956 14.4563 120.851 14.4402 120.737 14.4356C120.623 14.4264 120.52 14.4217 120.428 14.4217H118.068V17.7817ZM125.473 22.8148V12.8593H127.127V17.4775L131.072 12.8593H133.103L128.856 17.7403L133.391 22.8148H131.292L127.127 18.1689V22.8148H125.473Z" fill="#222222"/>
<path d="M229.045 0H169.047C165.258 0 162.186 3.09532 162.186 6.91358V48.797C162.186 52.6153 165.258 55.7106 169.047 55.7106H229.045C232.835 55.7106 235.907 52.6153 235.907 48.797V6.91358C235.907 3.09532 232.835 0 229.045 0Z" fill="#F1F1F1"/>
<mask id="mask3_1322_668" style="mask-type:luminance" maskUnits="userSpaceOnUse" x="177" y="30" width="48" height="19">
<path d="M224.37 30.4198H177.712V48.3951H224.37V30.4198Z" fill="white"/>
</mask>
<g mask="url(#mask3_1322_668)">
<path d="M195.755 38.1492C195.341 38.1492 194.968 38.0801 194.636 37.9418C194.306 37.8007 194.033 37.6016 193.816 37.3444C193.602 37.0873 193.462 36.7817 193.396 36.4277L194.014 36.324C194.113 36.7112 194.321 37.0154 194.64 37.2366C194.958 37.4551 195.338 37.5643 195.78 37.5643C196.071 37.5643 196.332 37.5187 196.562 37.4274C196.793 37.3334 196.974 37.2006 197.106 37.0292C197.238 36.8577 197.303 36.6545 197.303 36.4194C197.303 36.2645 197.276 36.1332 197.221 36.0253C197.166 35.9147 197.093 35.8235 197.003 35.7516C196.912 35.6797 196.814 35.6202 196.706 35.5732C196.599 35.5234 196.495 35.4833 196.394 35.4529L194.891 35.0007C194.71 34.9482 194.542 34.8818 194.389 34.8016C194.235 34.7187 194.1 34.6205 193.985 34.5071C193.873 34.391 193.785 34.2555 193.722 34.1006C193.659 33.9457 193.627 33.7687 193.627 33.5696C193.627 33.2323 193.715 32.9405 193.891 32.6944C194.066 32.4483 194.306 32.2588 194.611 32.1261C194.916 31.9933 195.263 31.9283 195.653 31.9311C196.048 31.9311 196.4 32.0016 196.711 32.1427C197.023 32.2837 197.281 32.4856 197.485 32.7483C197.688 33.0083 197.822 33.3166 197.888 33.6733L197.254 33.7895C197.213 33.5295 197.118 33.3042 196.97 33.1133C196.822 32.9225 196.632 32.776 196.402 32.6736C196.174 32.5685 195.923 32.5146 195.648 32.5119C195.382 32.5119 195.145 32.5575 194.936 32.6487C194.73 32.7372 194.567 32.8589 194.446 33.0138C194.326 33.1686 194.265 33.3456 194.265 33.5447C194.265 33.7466 194.32 33.9084 194.43 34.0301C194.542 34.1518 194.68 34.2472 194.842 34.3163C195.006 34.3854 195.165 34.4421 195.319 34.4864L196.48 34.8307C196.601 34.8639 196.742 34.9123 196.904 34.9759C197.069 35.0367 197.228 35.1252 197.382 35.2413C197.538 35.3547 197.667 35.5041 197.769 35.6893C197.87 35.8746 197.921 36.1097 197.921 36.3945C197.921 36.6711 197.866 36.9186 197.756 37.137C197.649 37.3555 197.497 37.5394 197.299 37.6887C197.104 37.8381 196.875 37.9515 196.612 38.0289C196.351 38.1091 196.066 38.1492 195.755 38.1492ZM198.853 32.6944V32.0099H199.459V32.6944H198.853ZM198.853 38.0247V33.5447H199.459V38.0247H198.853ZM200.281 38.0247V37.8962L203.15 34.113H200.495V33.5447H204.146V33.6858L201.281 37.4564H203.99V38.0247H200.281ZM206.602 38.1492C206.168 38.1492 205.792 38.0524 205.474 37.8588C205.158 37.6652 204.913 37.3928 204.737 37.0416C204.561 36.6904 204.474 36.2784 204.474 35.8055C204.474 35.316 204.56 34.8929 204.733 34.5362C204.906 34.1794 205.149 33.9042 205.462 33.7107C205.777 33.5171 206.149 33.4203 206.577 33.4203C207.017 33.4203 207.391 33.5226 207.701 33.7273C208.011 33.9291 208.246 34.2195 208.405 34.5984C208.564 34.9772 208.637 35.4294 208.623 35.9548H208.006V35.7391C207.995 35.1584 207.87 34.7201 207.631 34.4242C207.395 34.1283 207.049 33.9803 206.594 33.9803C206.116 33.9803 205.75 34.1365 205.495 34.449C205.242 34.7615 205.116 35.2068 205.116 35.7847C205.116 36.3489 205.242 36.7872 205.495 37.0997C205.75 37.4094 206.111 37.5643 206.577 37.5643C206.896 37.5643 207.173 37.491 207.409 37.3444C207.648 37.1951 207.836 36.9808 207.973 36.7015L208.537 36.9213C208.361 37.3113 208.102 37.6141 207.759 37.8298C207.419 38.0427 207.033 38.1492 206.602 38.1492ZM204.902 35.9548V35.4446H208.298V35.9548H204.902ZM195.237 47.0124V41.7194L194.121 42.3955V41.7111L195.237 41.0391H195.85V47.0124H195.237ZM199.219 47.1368C198.849 47.1368 198.521 47.0622 198.235 46.9128C197.953 46.7635 197.73 46.5547 197.568 46.2865C197.409 46.0155 197.329 45.6988 197.329 45.3365C197.329 44.966 197.419 44.6369 197.597 44.3493C197.775 44.0589 198.047 43.8391 198.412 43.6897L198.404 43.9303C198.099 43.8169 197.867 43.6317 197.708 43.3745C197.549 43.1173 197.469 42.8324 197.469 42.52C197.469 42.1881 197.545 41.9033 197.696 41.6654C197.847 41.4248 198.053 41.2396 198.313 41.1096C198.577 40.9796 198.879 40.9146 199.219 40.9146C199.559 40.9146 199.861 40.9796 200.125 41.1096C200.388 41.2396 200.596 41.4248 200.746 41.6654C200.897 41.9033 200.973 42.1881 200.973 42.52C200.973 42.8324 200.896 43.1159 200.742 43.3703C200.591 43.6247 200.359 43.8114 200.047 43.9303L200.026 43.6897C200.391 43.8363 200.664 44.0548 200.845 44.3451C201.029 44.6355 201.121 44.966 201.121 45.3365C201.121 45.6988 201.04 46.0155 200.878 46.2865C200.716 46.5547 200.493 46.7635 200.207 46.9128C199.922 47.0622 199.592 47.1368 199.219 47.1368ZM199.219 46.552C199.592 46.552 199.896 46.4483 200.129 46.2408C200.362 46.0307 200.479 45.7292 200.479 45.3365C200.479 44.9383 200.364 44.6369 200.133 44.4322C199.903 44.2248 199.598 44.1211 199.219 44.1211C198.84 44.1211 198.537 44.2248 198.309 44.4322C198.082 44.6369 197.968 44.9383 197.968 45.3365C197.968 45.7292 198.083 46.0307 198.313 46.2408C198.544 46.4483 198.846 46.552 199.219 46.552ZM199.219 43.5321C199.548 43.5321 199.816 43.4478 200.022 43.2791C200.228 43.1076 200.331 42.8546 200.331 42.52C200.331 42.1853 200.228 41.9351 200.022 41.7691C199.816 41.6004 199.548 41.5161 199.219 41.5161C198.89 41.5161 198.622 41.6004 198.416 41.7691C198.213 41.9351 198.112 42.1853 198.112 42.52C198.112 42.8546 198.213 43.1076 198.416 43.2791C198.622 43.4478 198.89 43.5321 199.219 43.5321ZM202.303 47.0124V46.3031H203.007V47.0124H202.303ZM206.028 47.1368C205.721 47.1368 205.437 47.0732 205.176 46.946C204.916 46.8188 204.693 46.6432 204.509 46.4192C204.325 46.1952 204.194 45.938 204.114 45.6477L204.695 45.49C204.747 45.7057 204.841 45.8924 204.979 46.05C205.116 46.2049 205.276 46.3252 205.46 46.4109C205.647 46.4966 205.842 46.5395 206.045 46.5395C206.308 46.5395 206.544 46.4759 206.753 46.3487C206.964 46.2187 207.132 46.0473 207.255 45.8343C207.379 45.6214 207.441 45.3877 207.441 45.1333C207.441 44.8706 207.376 44.6341 207.247 44.424C207.118 44.211 206.948 44.0423 206.737 43.9179C206.525 43.7934 206.295 43.7312 206.045 43.7312C205.765 43.7312 205.523 43.7934 205.32 43.9179C205.117 44.0396 204.955 44.193 204.835 44.3783L204.283 44.146L204.464 41.0391H207.63V41.624H204.732L205.032 41.3377L204.872 43.9884L204.719 43.7851C204.889 43.5888 205.095 43.4353 205.337 43.3247C205.578 43.2141 205.832 43.1588 206.098 43.1588C206.463 43.1588 206.793 43.2473 207.086 43.4243C207.38 43.5985 207.613 43.8349 207.786 44.1336C207.959 44.4322 208.046 44.7655 208.046 45.1333C208.046 45.4983 207.954 45.8329 207.77 46.1371C207.586 46.4386 207.342 46.6805 207.037 46.8631C206.732 47.0456 206.396 47.1368 206.028 47.1368Z" fill="#222222"/>
</g>
<path d="M179.387 22.8148L176.498 12.8593H178.234L180.203 20.0494L182.166 12.8731L183.902 12.8593L185.871 20.0494L187.833 12.8593H189.569L186.687 22.8148H185.054L183.03 15.7353L181.02 22.8148H179.387ZM190.689 22.8148V12.8593H192.343V17.0489H197.022V12.8593H198.669V22.8148H197.022V18.6114H192.343V22.8148H190.689ZM200.592 22.8148V12.8593H206.973V14.4217H202.246V16.876H206.15V18.4385H202.246V21.2523H206.973V22.8148H200.592ZM208.62 22.8148V12.8593H215.001V14.4217H210.274V16.876H214.178V18.4385H210.274V21.2523H215.001V22.8148H208.62ZM216.784 22.8148V12.8593H218.438V21.2523H222.802V22.8148H216.784Z" fill="#222222"/>
</g>
<defs>
<clipPath id="clip0_1322_668">
<rect width="317" height="56" fill="white"/>
</clipPath>
</defs>
</svg>
