<svg width="318" height="56" viewBox="0 0 318 56" fill="none" xmlns="http://www.w3.org/2000/svg">
<rect width="73.3372" height="56" rx="7" fill="#F1F1F1"/>
<g clip-path="url(#clip0_1324_136)">
<path d="M17.8514 38L19.8354 32.24H20.6154L22.5994 38H21.9874L20.1034 32.568H20.3354L18.4634 38H17.8514ZM18.7354 36.604V36.052H21.7114V36.604H18.7354ZM23.4017 38V32.12H23.9897V38H23.4017ZM26.8409 38.108C26.5822 38.108 26.3556 38.068 26.1609 37.988C25.9689 37.908 25.8049 37.8 25.6689 37.664C25.5356 37.528 25.4276 37.3733 25.3449 37.2C25.2622 37.024 25.2022 36.8387 25.1649 36.644C25.1276 36.4467 25.1089 36.2507 25.1089 36.056V33.68H25.7009V35.884C25.7009 36.1213 25.7236 36.3413 25.7689 36.544C25.8142 36.7467 25.8862 36.924 25.9849 37.076C26.0862 37.2253 26.2156 37.3413 26.3729 37.424C26.5329 37.5067 26.7262 37.548 26.9529 37.548C27.1609 37.548 27.3436 37.512 27.5009 37.44C27.6609 37.368 27.7942 37.2653 27.9009 37.132C28.0102 36.996 28.0929 36.832 28.1489 36.64C28.2049 36.4453 28.2329 36.2267 28.2329 35.984L28.6489 36.076C28.6489 36.5187 28.5716 36.8907 28.4169 37.192C28.2622 37.4933 28.0489 37.7213 27.7769 37.876C27.5049 38.0307 27.1929 38.108 26.8409 38.108ZM28.2929 38V36.936H28.2329V33.68H28.8209V38H28.2929ZM35.0909 38L35.0949 35.164C35.0949 34.8307 35.0016 34.5693 34.8149 34.38C34.6309 34.188 34.3962 34.092 34.1109 34.092C33.9482 34.092 33.7896 34.1293 33.6349 34.204C33.4802 34.2787 33.3522 34.3987 33.2509 34.564C33.1522 34.7293 33.1029 34.9453 33.1029 35.212L32.7549 35.112C32.7469 34.8027 32.8069 34.532 32.9349 34.3C33.0656 34.068 33.2442 33.888 33.4709 33.76C33.7002 33.6293 33.9589 33.564 34.2469 33.564C34.6816 33.564 35.0296 33.6987 35.2909 33.968C35.5522 34.2347 35.6829 34.596 35.6829 35.052L35.6789 38H35.0909ZM29.9349 38V33.68H30.4629V34.744H30.5269V38H29.9349ZM32.5189 38L32.5229 35.204C32.5229 34.86 32.4309 34.5893 32.2469 34.392C32.0656 34.192 31.8256 34.092 31.5269 34.092C31.2282 34.092 30.9869 34.1947 30.8029 34.4C30.6189 34.6027 30.5269 34.8733 30.5269 35.212L30.1749 35.02C30.1749 34.7427 30.2402 34.4947 30.3709 34.276C30.5016 34.0547 30.6802 33.8813 30.9069 33.756C31.1336 33.628 31.3909 33.564 31.6789 33.564C31.9536 33.564 32.1976 33.6227 32.4109 33.74C32.6269 33.8573 32.7962 34.028 32.9189 34.252C33.0416 34.476 33.1029 34.748 33.1029 35.068L33.0989 38H32.5189ZM36.8002 32.86V32.2H37.3882V32.86H36.8002ZM36.8002 38V33.68H37.3882V38H36.8002ZM41.7073 38V35.796C41.7073 35.556 41.6847 35.336 41.6393 35.136C41.594 34.9333 41.5207 34.7573 41.4193 34.608C41.3207 34.456 41.1913 34.3387 41.0313 34.256C40.874 34.1733 40.682 34.132 40.4553 34.132C40.2473 34.132 40.0633 34.168 39.9033 34.24C39.746 34.312 39.6127 34.416 39.5033 34.552C39.3967 34.6853 39.3153 34.848 39.2593 35.04C39.2033 35.232 39.1753 35.4507 39.1753 35.696L38.7593 35.604C38.7593 35.1613 38.8367 34.7893 38.9913 34.488C39.146 34.1867 39.3593 33.9587 39.6313 33.804C39.9033 33.6493 40.2153 33.572 40.5673 33.572C40.826 33.572 41.0513 33.612 41.2433 33.692C41.438 33.772 41.602 33.88 41.7353 34.016C41.8713 34.152 41.9807 34.308 42.0633 34.484C42.146 34.6573 42.206 34.8427 42.2433 35.04C42.2807 35.2347 42.2993 35.4293 42.2993 35.624V38H41.7073ZM38.5833 38V33.68H39.1153V34.744H39.1753V38H38.5833ZM44.9893 38.108C44.7307 38.108 44.504 38.068 44.3093 37.988C44.1173 37.908 43.9533 37.8 43.8173 37.664C43.684 37.528 43.576 37.3733 43.4933 37.2C43.4107 37.024 43.3507 36.8387 43.3133 36.644C43.276 36.4467 43.2573 36.2507 43.2573 36.056V33.68H43.8493V35.884C43.8493 36.1213 43.872 36.3413 43.9173 36.544C43.9627 36.7467 44.0347 36.924 44.1333 37.076C44.2347 37.2253 44.364 37.3413 44.5213 37.424C44.6813 37.5067 44.8747 37.548 45.1013 37.548C45.3093 37.548 45.492 37.512 45.6493 37.44C45.8093 37.368 45.9427 37.2653 46.0493 37.132C46.1587 36.996 46.2413 36.832 46.2973 36.64C46.3533 36.4453 46.3813 36.2267 46.3813 35.984L46.7973 36.076C46.7973 36.5187 46.72 36.8907 46.5653 37.192C46.4107 37.4933 46.1973 37.7213 45.9253 37.876C45.6533 38.0307 45.3413 38.108 44.9893 38.108ZM46.4413 38V36.936H46.3813V33.68H46.9693V38H46.4413ZM53.2393 38L53.2433 35.164C53.2433 34.8307 53.15 34.5693 52.9633 34.38C52.7793 34.188 52.5447 34.092 52.2593 34.092C52.0967 34.092 51.938 34.1293 51.7833 34.204C51.6287 34.2787 51.5007 34.3987 51.3993 34.564C51.3007 34.7293 51.2513 34.9453 51.2513 35.212L50.9033 35.112C50.8953 34.8027 50.9553 34.532 51.0833 34.3C51.214 34.068 51.3927 33.888 51.6193 33.76C51.8487 33.6293 52.1073 33.564 52.3953 33.564C52.83 33.564 53.178 33.6987 53.4393 33.968C53.7007 34.2347 53.8313 34.596 53.8313 35.052L53.8273 38H53.2393ZM48.0833 38V33.68H48.6113V34.744H48.6753V38H48.0833ZM50.6673 38L50.6713 35.204C50.6713 34.86 50.5793 34.5893 50.3953 34.392C50.214 34.192 49.974 34.092 49.6753 34.092C49.3767 34.092 49.1353 34.1947 48.9513 34.4C48.7673 34.6027 48.6753 34.8733 48.6753 35.212L48.3233 35.02C48.3233 34.7427 48.3887 34.4947 48.5193 34.276C48.65 34.0547 48.8287 33.8813 49.0553 33.756C49.282 33.628 49.5393 33.564 49.8273 33.564C50.102 33.564 50.346 33.6227 50.5593 33.74C50.7753 33.8573 50.9447 34.028 51.0673 34.252C51.19 34.476 51.2513 34.748 51.2513 35.068L51.2473 38H50.6673ZM27.3592 46L29.3432 40.24H30.1232L32.1072 46H31.4952L29.6112 40.568H29.8432L27.9712 46H27.3592ZM28.2432 44.604V44.052H31.2192V44.604H28.2432ZM32.9095 46V40.12H33.4975V46H32.9095ZM34.7767 46V40.12H35.3647V46H34.7767ZM38.3679 46.12C37.9386 46.12 37.5719 46.0227 37.2679 45.828C36.9639 45.6333 36.7306 45.364 36.5679 45.02C36.4052 44.676 36.3239 44.2813 36.3239 43.836C36.3239 43.3827 36.4066 42.9853 36.5719 42.644C36.7372 42.3027 36.9719 42.0373 37.2759 41.848C37.5826 41.656 37.9466 41.56 38.3679 41.56C38.7999 41.56 39.1679 41.6573 39.4719 41.852C39.7786 42.044 40.0119 42.312 40.1719 42.656C40.3346 42.9973 40.4159 43.3907 40.4159 43.836C40.4159 44.2893 40.3346 44.688 40.1719 45.032C40.0092 45.3733 39.7746 45.64 39.4679 45.832C39.1612 46.024 38.7946 46.12 38.3679 46.12ZM38.3679 45.556C38.8479 45.556 39.2052 45.3973 39.4399 45.08C39.6746 44.76 39.7919 44.3453 39.7919 43.836C39.7919 43.3133 39.6732 42.8973 39.4359 42.588C39.2012 42.2787 38.8452 42.124 38.3679 42.124C38.0452 42.124 37.7786 42.1973 37.5679 42.344C37.3599 42.488 37.2039 42.6893 37.0999 42.948C36.9986 43.204 36.9479 43.5 36.9479 43.836C36.9479 44.356 37.0679 44.7733 37.3079 45.088C37.5479 45.4 37.9012 45.556 38.3679 45.556ZM41.758 47.92L42.594 45.652L42.606 46.324L40.714 41.68H41.338L42.89 45.564H42.634L44.066 41.68H44.666L42.346 47.92H41.758Z" fill="#222222"/>
</g>
<path d="M13.3696 23.4243V13.3443H19.4386V15.0313H15.0566V17.5443H18.5986V19.2243H15.0566V23.4243H13.3696ZM20.6978 23.4243V13.3443H24.8628C24.9608 13.3443 25.0868 13.349 25.2408 13.3583C25.3948 13.363 25.5371 13.377 25.6678 13.4003C26.2511 13.489 26.7318 13.6826 27.1098 13.9813C27.4924 14.28 27.7748 14.658 27.9568 15.1153C28.1434 15.568 28.2368 16.072 28.2368 16.6273C28.2368 17.4486 28.0291 18.1556 27.6138 18.7483C27.1984 19.3363 26.5614 19.7003 25.7028 19.8403L24.9818 19.9033H22.3848V23.4243H20.6978ZM26.4868 23.4243L24.4988 19.3223L26.2138 18.9443L28.3978 23.4243H26.4868ZM22.3848 18.3283H24.7928C24.8861 18.3283 24.9911 18.3236 25.1078 18.3143C25.2244 18.305 25.3318 18.2863 25.4298 18.2583C25.7098 18.1883 25.9291 18.0646 26.0878 17.8873C26.2511 17.71 26.3654 17.5093 26.4308 17.2853C26.5008 17.0613 26.5358 16.842 26.5358 16.6273C26.5358 16.4126 26.5008 16.1933 26.4308 15.9693C26.3654 15.7406 26.2511 15.5376 26.0878 15.3603C25.9291 15.183 25.7098 15.0593 25.4298 14.9893C25.3318 14.9613 25.2244 14.945 25.1078 14.9403C24.9911 14.931 24.8861 14.9263 24.7928 14.9263H22.3848V18.3283ZM29.24 23.4243L32.418 13.3443H34.889L38.067 23.4243H36.331L33.447 14.3803H33.825L30.976 23.4243H29.24ZM31.011 21.2403V19.6653H36.303V21.2403H31.011ZM39.3325 23.4243V13.3443H40.8515L44.3375 20.4843L47.8235 13.3443H49.3425V23.4243H47.7675V16.9633L44.6735 23.4243H44.0015L40.9145 16.9633V23.4243H39.3325ZM51.3091 23.4243V13.3443H57.8191V14.9263H52.9961V17.4113H56.9791V18.9933H52.9961V21.8423H57.8191V23.4243H51.3091Z" fill="#222222"/>
<rect x="244.662" width="73.3372" height="56" rx="7" fill="#F1F1F1"/>
<g clip-path="url(#clip1_1324_136)">
<path d="M264.662 37.996L264.666 37.46L267.27 35.108C267.494 34.9053 267.642 34.7133 267.714 34.532C267.788 34.348 267.826 34.156 267.826 33.956C267.826 33.7187 267.77 33.504 267.658 33.312C267.546 33.12 267.395 32.968 267.206 32.856C267.016 32.7413 266.804 32.684 266.57 32.684C266.324 32.684 266.106 32.7427 265.914 32.86C265.722 32.9773 265.57 33.132 265.458 33.324C265.348 33.516 265.295 33.7253 265.298 33.952H264.698C264.698 33.6027 264.78 33.2893 264.946 33.012C265.111 32.7347 265.335 32.5173 265.618 32.36C265.9 32.2 266.22 32.12 266.578 32.12C266.927 32.12 267.24 32.2027 267.518 32.368C267.798 32.5307 268.018 32.752 268.178 33.032C268.34 33.3093 268.422 33.6187 268.422 33.96C268.422 34.2 268.392 34.412 268.334 34.596C268.278 34.7773 268.188 34.9467 268.066 35.104C267.946 35.2587 267.792 35.4187 267.606 35.584L265.294 37.672L265.202 37.432H268.422V37.996H264.662ZM271.28 32.124C271.643 32.124 271.971 32.212 272.264 32.388C272.56 32.5613 272.795 32.7987 272.968 33.1C273.142 33.3987 273.228 33.7347 273.228 34.108V36.108C273.228 36.492 273.142 36.836 272.968 37.14C272.795 37.444 272.558 37.684 272.256 37.86C271.958 38.0333 271.618 38.12 271.236 38.12C270.908 38.12 270.604 38.048 270.324 37.904C270.047 37.7573 269.818 37.556 269.636 37.3L270.084 36.928C270.207 37.1173 270.37 37.2693 270.572 37.384C270.778 37.4987 270.999 37.556 271.236 37.556C271.508 37.556 271.748 37.492 271.956 37.364C272.167 37.2333 272.332 37.0627 272.452 36.852C272.575 36.6387 272.636 36.408 272.636 36.16V34.904L272.78 35.072C272.615 35.336 272.395 35.5493 272.12 35.712C271.848 35.8747 271.55 35.956 271.224 35.956C270.87 35.956 270.548 35.8707 270.26 35.7C269.975 35.5293 269.748 35.3 269.58 35.012C269.415 34.724 269.332 34.4027 269.332 34.048C269.332 33.6933 269.42 33.3707 269.596 33.08C269.772 32.7867 270.008 32.5547 270.304 32.384C270.6 32.2107 270.926 32.124 271.28 32.124ZM271.28 32.692C271.03 32.692 270.802 32.7533 270.596 32.876C270.391 32.996 270.227 33.1587 270.104 33.364C269.984 33.5693 269.924 33.7973 269.924 34.048C269.924 34.2987 269.984 34.5267 270.104 34.732C270.224 34.9373 270.387 35.1013 270.592 35.224C270.798 35.344 271.026 35.404 271.276 35.404C271.527 35.404 271.755 35.344 271.96 35.224C272.168 35.1013 272.332 34.9373 272.452 34.732C272.575 34.5267 272.636 34.2987 272.636 34.048C272.636 33.8 272.575 33.5733 272.452 33.368C272.332 33.1627 272.17 32.9987 271.964 32.876C271.759 32.7533 271.531 32.692 271.28 32.692ZM275.467 38L277.463 35.084L275.519 32.24H276.231L277.811 34.592L279.391 32.24H280.107L278.163 35.084L280.155 38H279.443L277.811 35.58L276.183 38H275.467ZM282.24 37.996L282.244 37.46L284.848 35.108C285.072 34.9053 285.22 34.7133 285.292 34.532C285.367 34.348 285.404 34.156 285.404 33.956C285.404 33.7187 285.348 33.504 285.236 33.312C285.124 33.12 284.973 32.968 284.784 32.856C284.595 32.7413 284.383 32.684 284.148 32.684C283.903 32.684 283.684 32.7427 283.492 32.86C283.3 32.9773 283.148 33.132 283.036 33.324C282.927 33.516 282.873 33.7253 282.876 33.952H282.276C282.276 33.6027 282.359 33.2893 282.524 33.012C282.689 32.7347 282.913 32.5173 283.196 32.36C283.479 32.2 283.799 32.12 284.156 32.12C284.505 32.12 284.819 32.2027 285.096 32.368C285.376 32.5307 285.596 32.752 285.756 33.032C285.919 33.3093 286 33.6187 286 33.96C286 34.2 285.971 34.412 285.912 34.596C285.856 34.7773 285.767 34.9467 285.644 35.104C285.524 35.2587 285.371 35.4187 285.184 35.584L282.872 37.672L282.78 37.432H286V37.996H282.24ZM287.074 38V37.316H287.758V38H287.074ZM290.542 38.116C290.256 38.116 289.994 38.0653 289.754 37.964C289.514 37.8627 289.307 37.7187 289.134 37.532C288.96 37.3427 288.834 37.1173 288.754 36.856L289.314 36.688C289.41 36.9733 289.567 37.1893 289.786 37.336C290.007 37.4827 290.256 37.5533 290.534 37.548C290.79 37.5427 291.01 37.4853 291.194 37.376C291.38 37.2667 291.523 37.1147 291.622 36.92C291.72 36.7253 291.77 36.5 291.77 36.244C291.77 35.852 291.655 35.5373 291.426 35.3C291.199 35.06 290.899 34.94 290.526 34.94C290.422 34.94 290.312 34.9547 290.198 34.984C290.083 35.0107 289.976 35.0493 289.878 35.1L289.582 34.632L291.822 32.564L291.918 32.804H288.982V32.24H292.31V32.812L290.358 34.676L290.35 34.444C290.75 34.3933 291.102 34.4387 291.406 34.58C291.71 34.7213 291.947 34.9373 292.118 35.228C292.291 35.516 292.378 35.8547 292.378 36.244C292.378 36.612 292.298 36.9373 292.138 37.22C291.98 37.5 291.763 37.72 291.486 37.88C291.208 38.0373 290.894 38.116 290.542 38.116ZM295.295 38.12C294.941 38.12 294.621 38.0373 294.335 37.872C294.053 37.7067 293.829 37.4827 293.663 37.2C293.498 36.9147 293.415 36.5947 293.415 36.24V34C293.415 33.6453 293.498 33.3267 293.663 33.044C293.829 32.7587 294.053 32.5333 294.335 32.368C294.621 32.2027 294.941 32.12 295.295 32.12C295.65 32.12 295.969 32.2027 296.251 32.368C296.537 32.5333 296.762 32.7587 296.927 33.044C297.093 33.3267 297.175 33.6453 297.175 34V36.24C297.175 36.5947 297.093 36.9147 296.927 37.2C296.762 37.4827 296.537 37.7067 296.251 37.872C295.969 38.0373 295.65 38.12 295.295 38.12ZM295.295 37.552C295.533 37.552 295.749 37.4947 295.943 37.38C296.138 37.2627 296.293 37.1067 296.407 36.912C296.522 36.7173 296.579 36.5027 296.579 36.268V33.972C296.579 33.7347 296.522 33.5187 296.407 33.324C296.293 33.1293 296.138 32.9747 295.943 32.86C295.749 32.7427 295.533 32.684 295.295 32.684C295.058 32.684 294.842 32.7427 294.647 32.86C294.453 32.9747 294.298 33.1293 294.183 33.324C294.069 33.5187 294.011 33.7347 294.011 33.972V36.268C294.011 36.5027 294.069 36.7173 294.183 36.912C294.298 37.1067 294.453 37.2627 294.647 37.38C294.842 37.4947 295.058 37.552 295.295 37.552ZM271.037 46V40.24H271.629L274.801 44.96V40.24H275.393V46H274.801L271.629 41.276V46H271.037ZM277.129 47.92L277.965 45.652L277.977 46.324L276.085 41.68H276.709L278.261 45.564H278.005L279.437 41.68H280.037L277.717 47.92H277.129ZM280.812 46V40.12H281.4V46H280.812ZM284.403 46.12C283.974 46.12 283.607 46.0227 283.303 45.828C282.999 45.6333 282.766 45.364 282.603 45.02C282.44 44.676 282.359 44.2813 282.359 43.836C282.359 43.3827 282.442 42.9853 282.607 42.644C282.772 42.3027 283.007 42.0373 283.311 41.848C283.618 41.656 283.982 41.56 284.403 41.56C284.835 41.56 285.203 41.6573 285.507 41.852C285.814 42.044 286.047 42.312 286.207 42.656C286.37 42.9973 286.451 43.3907 286.451 43.836C286.451 44.2893 286.37 44.688 286.207 45.032C286.044 45.3733 285.81 45.64 285.503 45.832C285.196 46.024 284.83 46.12 284.403 46.12ZM284.403 45.556C284.883 45.556 285.24 45.3973 285.475 45.08C285.71 44.76 285.827 44.3453 285.827 43.836C285.827 43.3133 285.708 42.8973 285.471 42.588C285.236 42.2787 284.88 42.124 284.403 42.124C284.08 42.124 283.814 42.1973 283.603 42.344C283.395 42.488 283.239 42.6893 283.135 42.948C283.034 43.204 282.983 43.5 282.983 43.836C282.983 44.356 283.103 44.7733 283.343 45.088C283.583 45.4 283.936 45.556 284.403 45.556ZM290.453 46V43.796C290.453 43.556 290.431 43.336 290.385 43.136C290.34 42.9333 290.267 42.7573 290.165 42.608C290.067 42.456 289.937 42.3387 289.777 42.256C289.62 42.1733 289.428 42.132 289.201 42.132C288.993 42.132 288.809 42.168 288.649 42.24C288.492 42.312 288.359 42.416 288.249 42.552C288.143 42.6853 288.061 42.848 288.005 43.04C287.949 43.232 287.921 43.4507 287.921 43.696L287.505 43.604C287.505 43.1613 287.583 42.7893 287.737 42.488C287.892 42.1867 288.105 41.9587 288.377 41.804C288.649 41.6493 288.961 41.572 289.313 41.572C289.572 41.572 289.797 41.612 289.989 41.692C290.184 41.772 290.348 41.88 290.481 42.016C290.617 42.152 290.727 42.308 290.809 42.484C290.892 42.6573 290.952 42.8427 290.989 43.04C291.027 43.2347 291.045 43.4293 291.045 43.624V46H290.453ZM287.329 46V41.68H287.861V42.744H287.921V46H287.329Z" fill="#222222"/>
</g>
<path d="M261.402 23V14.502H258.14V12.92H266.351V14.502H263.089V23H261.402ZM270.344 23V18.87L266.914 12.92H268.881L271.198 16.938L273.508 12.92H275.475L272.052 18.87V23H270.344ZM276.453 23V12.92H280.618C280.716 12.92 280.842 12.9247 280.996 12.934C281.15 12.9387 281.292 12.9527 281.423 12.976C282.006 13.0647 282.487 13.2583 282.865 13.557C283.247 13.8557 283.53 14.2337 283.712 14.691C283.898 15.1437 283.992 15.6477 283.992 16.203C283.992 17.0243 283.784 17.7313 283.369 18.324C282.953 18.912 282.316 19.276 281.458 19.416L280.737 19.479H278.14V23H276.453ZM282.242 23L280.254 18.898L281.969 18.52L284.153 23H282.242ZM278.14 17.904H280.548C280.641 17.904 280.746 17.8993 280.863 17.89C280.979 17.8807 281.087 17.862 281.185 17.834C281.465 17.764 281.684 17.6403 281.843 17.463C282.006 17.2857 282.12 17.085 282.186 16.861C282.256 16.637 282.291 16.4177 282.291 16.203C282.291 15.9883 282.256 15.769 282.186 15.545C282.12 15.3163 282.006 15.1133 281.843 14.936C281.684 14.7587 281.465 14.635 281.185 14.565C281.087 14.537 280.979 14.5207 280.863 14.516C280.746 14.5067 280.641 14.502 280.548 14.502H278.14V17.904ZM285.695 23V12.92H292.205V14.502H287.382V16.987H291.365V18.569H287.382V21.418H292.205V23H285.695ZM297.52 23.21C296.782 23.21 296.117 23.0817 295.525 22.825C294.937 22.5683 294.451 22.202 294.069 21.726C293.691 21.2453 293.45 20.676 293.348 20.018L295.098 19.752C295.247 20.3493 295.553 20.8113 296.015 21.138C296.481 21.4647 297.018 21.628 297.625 21.628C297.984 21.628 298.322 21.572 298.64 21.46C298.957 21.348 299.214 21.1847 299.41 20.97C299.61 20.7553 299.711 20.4917 299.711 20.179C299.711 20.039 299.687 19.9107 299.641 19.794C299.594 19.6727 299.524 19.5653 299.431 19.472C299.342 19.3787 299.225 19.2947 299.081 19.22C298.941 19.1407 298.777 19.073 298.591 19.017L295.987 18.247C295.763 18.1817 295.52 18.0953 295.259 17.988C295.002 17.876 294.757 17.7243 294.524 17.533C294.295 17.337 294.106 17.0897 293.957 16.791C293.812 16.4877 293.74 16.1143 293.74 15.671C293.74 15.0223 293.903 14.4787 294.23 14.04C294.561 13.5967 295.004 13.2653 295.56 13.046C296.12 12.8267 296.74 12.7193 297.422 12.724C298.112 12.7287 298.728 12.8477 299.27 13.081C299.811 13.3097 300.264 13.6433 300.628 14.082C300.992 14.5207 301.248 15.0503 301.398 15.671L299.585 15.986C299.51 15.6313 299.365 15.3303 299.151 15.083C298.941 14.831 298.682 14.6397 298.374 14.509C298.07 14.3783 297.746 14.3083 297.401 14.299C297.065 14.2943 296.752 14.3457 296.463 14.453C296.178 14.5557 295.947 14.705 295.77 14.901C295.597 15.097 295.511 15.3257 295.511 15.587C295.511 15.8343 295.585 16.0373 295.735 16.196C295.884 16.35 296.068 16.4737 296.288 16.567C296.512 16.6557 296.738 16.7303 296.967 16.791L298.773 17.295C299.02 17.3603 299.298 17.449 299.606 17.561C299.914 17.673 300.21 17.8293 300.495 18.03C300.779 18.2307 301.013 18.4943 301.195 18.821C301.381 19.1477 301.475 19.563 301.475 20.067C301.475 20.5897 301.365 21.0493 301.146 21.446C300.931 21.838 300.639 22.1647 300.271 22.426C299.902 22.6873 299.48 22.8833 299.004 23.014C298.532 23.1447 298.038 23.21 297.52 23.21Z" fill="#222222"/>
<rect x="81.3496" width="73.3372" height="56" rx="7" fill="#F1F1F1"/>
<g clip-path="url(#clip2_1324_136)">
<path d="M98.8178 38.12C98.4151 38.12 98.0525 38.0533 97.7298 37.92C97.4098 37.784 97.1445 37.592 96.9338 37.344C96.7258 37.096 96.5898 36.8013 96.5258 36.46L97.1258 36.36C97.2218 36.7333 97.4245 37.0267 97.7338 37.24C98.0431 37.4507 98.4125 37.556 98.8418 37.556C99.1245 37.556 99.3778 37.512 99.6018 37.424C99.8258 37.3333 100.002 37.2053 100.13 37.04C100.258 36.8747 100.322 36.6787 100.322 36.452C100.322 36.3027 100.295 36.176 100.242 36.072C100.188 35.9653 100.118 35.8773 100.03 35.808C99.9418 35.7387 99.8458 35.6813 99.7418 35.636C99.6378 35.588 99.5365 35.5493 99.4378 35.52L97.9778 35.084C97.8018 35.0333 97.6391 34.9693 97.4898 34.892C97.3405 34.812 97.2098 34.7173 97.0978 34.608C96.9885 34.496 96.9031 34.3653 96.8418 34.216C96.7805 34.0667 96.7498 33.896 96.7498 33.704C96.7498 33.3787 96.8351 33.0973 97.0058 32.86C97.1765 32.6227 97.4098 32.44 97.7058 32.312C98.0018 32.184 98.3391 32.1213 98.7178 32.124C99.1018 32.124 99.4445 32.192 99.7458 32.328C100.05 32.464 100.3 32.6587 100.498 32.912C100.695 33.1627 100.826 33.46 100.89 33.804L100.274 33.916C100.234 33.6653 100.142 33.448 99.9978 33.264C99.8538 33.08 99.6698 32.9387 99.4458 32.84C99.2245 32.7387 98.9805 32.6867 98.7138 32.684C98.4551 32.684 98.2245 32.728 98.0218 32.816C97.8218 32.9013 97.6631 33.0187 97.5458 33.168C97.4285 33.3173 97.3698 33.488 97.3698 33.68C97.3698 33.8747 97.4231 34.0307 97.5298 34.148C97.6391 34.2653 97.7725 34.3573 97.9298 34.424C98.0898 34.4907 98.2445 34.5453 98.3938 34.588L99.5218 34.92C99.6391 34.952 99.7765 34.9987 99.9338 35.06C100.094 35.1187 100.248 35.204 100.398 35.316C100.55 35.4253 100.675 35.5693 100.774 35.748C100.872 35.9267 100.922 36.1533 100.922 36.428C100.922 36.6947 100.868 36.9333 100.762 37.144C100.658 37.3547 100.51 37.532 100.318 37.676C100.128 37.82 99.9058 37.9293 99.6498 38.004C99.3965 38.0813 99.1191 38.12 98.8178 38.12ZM103.4 38.108C103.141 38.108 102.914 38.068 102.72 37.988C102.528 37.908 102.364 37.8 102.228 37.664C102.094 37.528 101.986 37.3733 101.904 37.2C101.821 37.024 101.761 36.8387 101.724 36.644C101.686 36.4467 101.668 36.2507 101.668 36.056V33.68H102.26V35.884C102.26 36.1213 102.282 36.3413 102.328 36.544C102.373 36.7467 102.445 36.924 102.544 37.076C102.645 37.2253 102.774 37.3413 102.932 37.424C103.092 37.5067 103.285 37.548 103.512 37.548C103.72 37.548 103.902 37.512 104.06 37.44C104.22 37.368 104.353 37.2653 104.46 37.132C104.569 36.996 104.652 36.832 104.708 36.64C104.764 36.4453 104.792 36.2267 104.792 35.984L105.207 36.076C105.207 36.5187 105.13 36.8907 104.976 37.192C104.821 37.4933 104.608 37.7213 104.336 37.876C104.064 38.0307 103.752 38.108 103.4 38.108ZM104.852 38V36.936H104.792V33.68H105.38V38H104.852ZM108.11 38.116C107.603 38.116 107.186 38.0067 106.858 37.788C106.532 37.5693 106.332 37.2653 106.258 36.876L106.858 36.776C106.922 37.0213 107.067 37.2173 107.294 37.364C107.523 37.508 107.806 37.58 108.141 37.58C108.47 37.58 108.728 37.512 108.918 37.376C109.107 37.2373 109.202 37.0493 109.202 36.812C109.202 36.6787 109.171 36.5707 109.11 36.488C109.051 36.4027 108.93 36.324 108.746 36.252C108.562 36.18 108.287 36.0947 107.922 35.996C107.53 35.8893 107.223 35.7827 107.002 35.676C106.78 35.5693 106.623 35.4467 106.53 35.308C106.436 35.1667 106.39 34.9947 106.39 34.792C106.39 34.5467 106.459 34.332 106.598 34.148C106.736 33.9613 106.928 33.8173 107.174 33.716C107.419 33.612 107.704 33.56 108.03 33.56C108.355 33.56 108.646 33.6133 108.902 33.72C109.16 33.824 109.368 33.9707 109.526 34.16C109.683 34.3493 109.776 34.5693 109.806 34.82L109.206 34.928C109.166 34.6747 109.039 34.4747 108.826 34.328C108.615 34.1787 108.347 34.1013 108.022 34.096C107.715 34.088 107.466 34.1467 107.274 34.272C107.082 34.3947 106.986 34.5587 106.986 34.764C106.986 34.8787 107.02 34.9773 107.09 35.06C107.159 35.14 107.284 35.216 107.466 35.288C107.65 35.36 107.911 35.4387 108.25 35.524C108.647 35.6253 108.959 35.732 109.186 35.844C109.412 35.956 109.574 36.088 109.67 36.24C109.766 36.392 109.814 36.58 109.814 36.804C109.814 37.212 109.662 37.5333 109.358 37.768C109.056 38 108.64 38.116 108.11 38.116ZM112.641 38.12C112.243 38.12 111.907 38.02 111.633 37.82C111.358 37.6173 111.15 37.344 111.009 37C110.867 36.6533 110.797 36.2653 110.797 35.836C110.797 35.3987 110.867 35.0093 111.009 34.668C111.153 34.324 111.363 34.0533 111.641 33.856C111.918 33.6587 112.259 33.56 112.665 33.56C113.059 33.56 113.398 33.66 113.681 33.86C113.963 34.06 114.179 34.332 114.329 34.676C114.481 35.02 114.557 35.4067 114.557 35.836C114.557 36.268 114.481 36.656 114.329 37C114.177 37.344 113.958 37.6173 113.673 37.82C113.387 38.02 113.043 38.12 112.641 38.12ZM110.697 39.92V33.68H111.225V36.932H111.289V39.92H110.697ZM112.581 37.572C112.882 37.572 113.133 37.496 113.333 37.344C113.533 37.192 113.682 36.9853 113.781 36.724C113.882 36.46 113.933 36.164 113.933 35.836C113.933 35.5107 113.883 35.2173 113.785 34.956C113.686 34.6947 113.535 34.488 113.333 34.336C113.133 34.184 112.878 34.108 112.569 34.108C112.267 34.108 112.017 34.1813 111.817 34.328C111.619 34.4747 111.471 34.6787 111.373 34.94C111.274 35.1987 111.225 35.4973 111.225 35.836C111.225 36.1693 111.274 36.468 111.373 36.732C111.471 36.9933 111.621 37.1987 111.821 37.348C112.021 37.4973 112.274 37.572 112.581 37.572ZM117.263 38.12C116.842 38.12 116.476 38.0267 116.167 37.84C115.86 37.6533 115.622 37.3907 115.451 37.052C115.28 36.7133 115.195 36.316 115.195 35.86C115.195 35.388 115.279 34.98 115.447 34.636C115.615 34.292 115.851 34.0267 116.155 33.84C116.462 33.6533 116.823 33.56 117.239 33.56C117.666 33.56 118.03 33.6587 118.331 33.856C118.632 34.0507 118.86 34.3307 119.015 34.696C119.17 35.0613 119.24 35.4973 119.227 36.004H118.627V35.796C118.616 35.236 118.495 34.8133 118.263 34.528C118.034 34.2427 117.698 34.1 117.255 34.1C116.791 34.1 116.435 34.2507 116.187 34.552C115.942 34.8533 115.819 35.2827 115.819 35.84C115.819 36.384 115.942 36.8067 116.187 37.108C116.435 37.4067 116.786 37.556 117.239 37.556C117.548 37.556 117.818 37.4853 118.047 37.344C118.279 37.2 118.462 36.9933 118.595 36.724L119.143 36.936C118.972 37.312 118.72 37.604 118.387 37.812C118.056 38.0173 117.682 38.12 117.263 38.12ZM115.611 36.004V35.512H118.911V36.004H115.611ZM123.118 38V35.796C123.118 35.556 123.095 35.336 123.05 35.136C123.004 34.9333 122.931 34.7573 122.83 34.608C122.731 34.456 122.602 34.3387 122.442 34.256C122.284 34.1733 122.092 34.132 121.866 34.132C121.658 34.132 121.474 34.168 121.314 34.24C121.156 34.312 121.023 34.416 120.914 34.552C120.807 34.6853 120.726 34.848 120.67 35.04C120.614 35.232 120.586 35.4507 120.586 35.696L120.17 35.604C120.17 35.1613 120.247 34.7893 120.402 34.488C120.556 34.1867 120.77 33.9587 121.042 33.804C121.314 33.6493 121.626 33.572 121.978 33.572C122.236 33.572 122.462 33.612 122.654 33.692C122.848 33.772 123.012 33.88 123.146 34.016C123.282 34.152 123.391 34.308 123.474 34.484C123.556 34.6573 123.616 34.8427 123.654 35.04C123.691 35.2347 123.71 35.4293 123.71 35.624V38H123.118ZM119.994 38V33.68H120.526V34.744H120.586V38H119.994ZM126.36 38.116C125.853 38.116 125.436 38.0067 125.108 37.788C124.782 37.5693 124.582 37.2653 124.508 36.876L125.108 36.776C125.172 37.0213 125.317 37.2173 125.544 37.364C125.773 37.508 126.056 37.58 126.391 37.58C126.72 37.58 126.978 37.512 127.168 37.376C127.357 37.2373 127.452 37.0493 127.452 36.812C127.452 36.6787 127.421 36.5707 127.36 36.488C127.301 36.4027 127.18 36.324 126.996 36.252C126.812 36.18 126.537 36.0947 126.172 35.996C125.78 35.8893 125.473 35.7827 125.252 35.676C125.03 35.5693 124.873 35.4467 124.78 35.308C124.686 35.1667 124.64 34.9947 124.64 34.792C124.64 34.5467 124.709 34.332 124.848 34.148C124.986 33.9613 125.178 33.8173 125.424 33.716C125.669 33.612 125.954 33.56 126.28 33.56C126.605 33.56 126.896 33.6133 127.152 33.72C127.41 33.824 127.618 33.9707 127.776 34.16C127.933 34.3493 128.026 34.5693 128.056 34.82L127.456 34.928C127.416 34.6747 127.289 34.4747 127.076 34.328C126.865 34.1787 126.597 34.1013 126.272 34.096C125.965 34.088 125.716 34.1467 125.524 34.272C125.332 34.3947 125.236 34.5587 125.236 34.764C125.236 34.8787 125.27 34.9773 125.34 35.06C125.409 35.14 125.534 35.216 125.716 35.288C125.9 35.36 126.161 35.4387 126.5 35.524C126.897 35.6253 127.209 35.732 127.436 35.844C127.662 35.956 127.824 36.088 127.92 36.24C128.016 36.392 128.064 36.58 128.064 36.804C128.064 37.212 127.912 37.5333 127.608 37.768C127.306 38 126.89 38.116 126.36 38.116ZM129.031 32.86V32.2H129.619V32.86H129.031ZM129.031 38V33.68H129.619V38H129.031ZM132.622 38.12C132.192 38.12 131.826 38.0227 131.522 37.828C131.218 37.6333 130.984 37.364 130.822 37.02C130.659 36.676 130.578 36.2813 130.578 35.836C130.578 35.3827 130.66 34.9853 130.826 34.644C130.991 34.3027 131.226 34.0373 131.53 33.848C131.836 33.656 132.2 33.56 132.622 33.56C133.054 33.56 133.422 33.6573 133.726 33.852C134.032 34.044 134.266 34.312 134.426 34.656C134.588 34.9973 134.67 35.3907 134.67 35.836C134.67 36.2893 134.588 36.688 134.426 37.032C134.263 37.3733 134.028 37.64 133.722 37.832C133.415 38.024 133.048 38.12 132.622 38.12ZM132.622 37.556C133.102 37.556 133.459 37.3973 133.694 37.08C133.928 36.76 134.046 36.3453 134.046 35.836C134.046 35.3133 133.927 34.8973 133.69 34.588C133.455 34.2787 133.099 34.124 132.622 34.124C132.299 34.124 132.032 34.1973 131.822 34.344C131.614 34.488 131.458 34.6893 131.354 34.948C131.252 35.204 131.202 35.5 131.202 35.836C131.202 36.356 131.322 36.7733 131.562 37.088C131.802 37.4 132.155 37.556 132.622 37.556ZM138.672 38V35.796C138.672 35.556 138.65 35.336 138.604 35.136C138.559 34.9333 138.486 34.7573 138.384 34.608C138.286 34.456 138.156 34.3387 137.996 34.256C137.839 34.1733 137.647 34.132 137.42 34.132C137.212 34.132 137.028 34.168 136.868 34.24C136.711 34.312 136.578 34.416 136.468 34.552C136.362 34.6853 136.28 34.848 136.224 35.04C136.168 35.232 136.14 35.4507 136.14 35.696L135.724 35.604C135.724 35.1613 135.802 34.7893 135.956 34.488C136.111 34.1867 136.324 33.9587 136.596 33.804C136.868 33.6493 137.18 33.572 137.532 33.572C137.791 33.572 138.016 33.612 138.208 33.692C138.403 33.772 138.567 33.88 138.7 34.016C138.836 34.152 138.946 34.308 139.028 34.484C139.111 34.6573 139.171 34.8427 139.208 35.04C139.246 35.2347 139.264 35.4293 139.264 35.624V38H138.672ZM135.548 38V33.68H136.08V34.744H136.14V38H135.548ZM102.131 46V40.804H100.119V40.24H104.731V40.804H102.719V46H102.131ZM104.974 46V41.68H105.502V42.72L105.398 42.584C105.446 42.456 105.509 42.3387 105.586 42.232C105.663 42.1227 105.747 42.0333 105.838 41.964C105.95 41.8653 106.081 41.7907 106.23 41.74C106.379 41.6867 106.53 41.656 106.682 41.648C106.834 41.6373 106.973 41.648 107.098 41.68V42.232C106.941 42.192 106.769 42.1827 106.582 42.204C106.395 42.2253 106.223 42.3 106.066 42.428C105.922 42.54 105.814 42.6747 105.742 42.832C105.67 42.9867 105.622 43.152 105.598 43.328C105.574 43.5013 105.562 43.6733 105.562 43.844V46H104.974ZM109.607 46.12C109.185 46.12 108.82 46.0267 108.511 45.84C108.204 45.6533 107.965 45.3907 107.795 45.052C107.624 44.7133 107.539 44.316 107.539 43.86C107.539 43.388 107.623 42.98 107.791 42.636C107.959 42.292 108.195 42.0267 108.499 41.84C108.805 41.6533 109.167 41.56 109.583 41.56C110.009 41.56 110.373 41.6587 110.675 41.856C110.976 42.0507 111.204 42.3307 111.359 42.696C111.513 43.0613 111.584 43.4973 111.571 44.004H110.971V43.796C110.96 43.236 110.839 42.8133 110.607 42.528C110.377 42.2427 110.041 42.1 109.599 42.1C109.135 42.1 108.779 42.2507 108.531 42.552C108.285 42.8533 108.163 43.2827 108.163 43.84C108.163 44.384 108.285 44.8067 108.531 45.108C108.779 45.4067 109.129 45.556 109.583 45.556C109.892 45.556 110.161 45.4853 110.391 45.344C110.623 45.2 110.805 44.9933 110.939 44.724L111.487 44.936C111.316 45.312 111.064 45.604 110.731 45.812C110.4 46.0173 110.025 46.12 109.607 46.12ZM107.955 44.004V43.512H111.255V44.004H107.955ZM113.616 46.12C113.291 46.12 113.018 46.0613 112.796 45.944C112.578 45.8267 112.414 45.6707 112.304 45.476C112.195 45.2813 112.14 45.0693 112.14 44.84C112.14 44.6053 112.187 44.4053 112.28 44.24C112.376 44.072 112.506 43.9347 112.668 43.828C112.834 43.7213 113.024 43.64 113.24 43.584C113.459 43.5307 113.7 43.484 113.964 43.444C114.231 43.4013 114.491 43.3653 114.744 43.336C115 43.304 115.224 43.2733 115.416 43.244L115.208 43.372C115.216 42.9453 115.134 42.6293 114.96 42.424C114.787 42.2187 114.486 42.116 114.056 42.116C113.76 42.116 113.51 42.1827 113.304 42.316C113.102 42.4493 112.959 42.66 112.876 42.948L112.304 42.78C112.403 42.3933 112.602 42.0933 112.9 41.88C113.199 41.6667 113.587 41.56 114.064 41.56C114.459 41.56 114.794 41.6347 115.068 41.784C115.346 41.9307 115.542 42.144 115.656 42.424C115.71 42.5493 115.744 42.6893 115.76 42.844C115.776 42.9987 115.784 43.156 115.784 43.316V46H115.26V44.916L115.412 44.98C115.266 45.3507 115.038 45.6333 114.728 45.828C114.419 46.0227 114.048 46.12 113.616 46.12ZM113.684 45.612C113.959 45.612 114.199 45.5627 114.404 45.464C114.61 45.3653 114.775 45.2307 114.9 45.06C115.026 44.8867 115.107 44.692 115.144 44.476C115.176 44.3373 115.194 44.1853 115.196 44.02C115.199 43.852 115.2 43.7267 115.2 43.644L115.424 43.76C115.224 43.7867 115.007 43.8133 114.772 43.84C114.54 43.8667 114.311 43.8973 114.084 43.932C113.86 43.9667 113.658 44.008 113.476 44.056C113.354 44.0907 113.235 44.14 113.12 44.204C113.006 44.2653 112.911 44.348 112.836 44.452C112.764 44.556 112.728 44.6853 112.728 44.84C112.728 44.9653 112.759 45.0867 112.82 45.204C112.884 45.3213 112.986 45.4187 113.124 45.496C113.266 45.5733 113.452 45.612 113.684 45.612ZM118.502 46.12C118.099 46.12 117.755 46.02 117.47 45.82C117.184 45.6173 116.966 45.344 116.814 45C116.662 44.656 116.586 44.268 116.586 43.836C116.586 43.4067 116.66 43.02 116.81 42.676C116.962 42.332 117.179 42.06 117.462 41.86C117.744 41.66 118.083 41.56 118.478 41.56C118.883 41.56 119.224 41.6587 119.502 41.856C119.779 42.0533 119.988 42.324 120.13 42.668C120.274 43.0093 120.346 43.3987 120.346 43.836C120.346 44.2653 120.275 44.6533 120.134 45C119.992 45.344 119.784 45.6173 119.51 45.82C119.235 46.02 118.899 46.12 118.502 46.12ZM118.562 45.572C118.868 45.572 119.122 45.4973 119.322 45.348C119.522 45.1987 119.671 44.9933 119.77 44.732C119.868 44.468 119.918 44.1693 119.918 43.836C119.918 43.4973 119.868 43.1987 119.77 42.94C119.671 42.6787 119.522 42.4747 119.322 42.328C119.124 42.1813 118.875 42.108 118.574 42.108C118.264 42.108 118.008 42.184 117.806 42.336C117.603 42.488 117.452 42.6947 117.354 42.956C117.258 43.2173 117.21 43.5107 117.21 43.836C117.21 44.164 117.259 44.46 117.358 44.724C117.459 44.9853 117.61 45.192 117.81 45.344C118.01 45.496 118.26 45.572 118.562 45.572ZM119.918 46V42.748H119.854V40.24H120.446V46H119.918ZM121.648 46V40.12H122.236V46H121.648ZM125.263 46.12C124.842 46.12 124.476 46.0267 124.167 45.84C123.86 45.6533 123.622 45.3907 123.451 45.052C123.28 44.7133 123.195 44.316 123.195 43.86C123.195 43.388 123.279 42.98 123.447 42.636C123.615 42.292 123.851 42.0267 124.155 41.84C124.462 41.6533 124.823 41.56 125.239 41.56C125.666 41.56 126.03 41.6587 126.331 41.856C126.632 42.0507 126.86 42.3307 127.015 42.696C127.17 43.0613 127.24 43.4973 127.227 44.004H126.627V43.796C126.616 43.236 126.495 42.8133 126.263 42.528C126.034 42.2427 125.698 42.1 125.255 42.1C124.791 42.1 124.435 42.2507 124.187 42.552C123.942 42.8533 123.819 43.2827 123.819 43.84C123.819 44.384 123.942 44.8067 124.187 45.108C124.435 45.4067 124.786 45.556 125.239 45.556C125.548 45.556 125.818 45.4853 126.047 45.344C126.279 45.2 126.462 44.9933 126.595 44.724L127.143 44.936C126.972 45.312 126.72 45.604 126.387 45.812C126.056 46.0173 125.682 46.12 125.263 46.12ZM123.611 44.004V43.512H126.911V44.004H123.611ZM129.727 46.116C129.22 46.116 128.803 46.0067 128.475 45.788C128.149 45.5693 127.949 45.2653 127.875 44.876L128.475 44.776C128.539 45.0213 128.684 45.2173 128.911 45.364C129.14 45.508 129.423 45.58 129.759 45.58C130.087 45.58 130.345 45.512 130.535 45.376C130.724 45.2373 130.819 45.0493 130.819 44.812C130.819 44.6787 130.788 44.5707 130.727 44.488C130.668 44.4027 130.547 44.324 130.363 44.252C130.179 44.18 129.904 44.0947 129.539 43.996C129.147 43.8893 128.84 43.7827 128.619 43.676C128.397 43.5693 128.24 43.4467 128.147 43.308C128.053 43.1667 128.007 42.9947 128.007 42.792C128.007 42.5467 128.076 42.332 128.215 42.148C128.353 41.9613 128.545 41.8173 128.791 41.716C129.036 41.612 129.321 41.56 129.647 41.56C129.972 41.56 130.263 41.6133 130.519 41.72C130.777 41.824 130.985 41.9707 131.143 42.16C131.3 42.3493 131.393 42.5693 131.423 42.82L130.823 42.928C130.783 42.6747 130.656 42.4747 130.443 42.328C130.232 42.1787 129.964 42.1013 129.639 42.096C129.332 42.088 129.083 42.1467 128.891 42.272C128.699 42.3947 128.603 42.5587 128.603 42.764C128.603 42.8787 128.637 42.9773 128.707 43.06C128.776 43.14 128.901 43.216 129.083 43.288C129.267 43.36 129.528 43.4387 129.867 43.524C130.264 43.6253 130.576 43.732 130.803 43.844C131.029 43.956 131.191 44.088 131.287 44.24C131.383 44.392 131.431 44.58 131.431 44.804C131.431 45.212 131.279 45.5333 130.975 45.768C130.673 46 130.257 46.116 129.727 46.116ZM133.93 46.116C133.423 46.116 133.006 46.0067 132.678 45.788C132.352 45.5693 132.152 45.2653 132.078 44.876L132.678 44.776C132.742 45.0213 132.887 45.2173 133.114 45.364C133.343 45.508 133.626 45.58 133.962 45.58C134.29 45.58 134.548 45.512 134.738 45.376C134.927 45.2373 135.022 45.0493 135.022 44.812C135.022 44.6787 134.991 44.5707 134.93 44.488C134.871 44.4027 134.75 44.324 134.566 44.252C134.382 44.18 134.107 44.0947 133.742 43.996C133.35 43.8893 133.043 43.7827 132.822 43.676C132.6 43.5693 132.443 43.4467 132.35 43.308C132.256 43.1667 132.21 42.9947 132.21 42.792C132.21 42.5467 132.279 42.332 132.418 42.148C132.556 41.9613 132.748 41.8173 132.994 41.716C133.239 41.612 133.524 41.56 133.85 41.56C134.175 41.56 134.466 41.6133 134.722 41.72C134.98 41.824 135.188 41.9707 135.346 42.16C135.503 42.3493 135.596 42.5693 135.626 42.82L135.026 42.928C134.986 42.6747 134.859 42.4747 134.646 42.328C134.435 42.1787 134.167 42.1013 133.842 42.096C133.535 42.088 133.286 42.1467 133.094 42.272C132.902 42.3947 132.806 42.5587 132.806 42.764C132.806 42.8787 132.84 42.9773 132.91 43.06C132.979 43.14 133.104 43.216 133.286 43.288C133.47 43.36 133.731 43.4387 134.07 43.524C134.467 43.6253 134.779 43.732 135.006 43.844C135.232 43.956 135.394 44.088 135.49 44.24C135.586 44.392 135.634 44.58 135.634 44.804C135.634 45.212 135.482 45.5333 135.178 45.768C134.876 46 134.46 46.116 133.93 46.116Z" fill="#222222"/>
</g>
<path d="M99.98 23V12.92H106.049V14.607H101.667V17.12H105.209V18.8H101.667V23H99.98ZM111.571 23.21C110.563 23.21 109.7 22.9907 108.981 22.552C108.262 22.1087 107.709 21.4927 107.322 20.704C106.939 19.9153 106.748 19.0007 106.748 17.96C106.748 16.9193 106.939 16.0047 107.322 15.216C107.709 14.4273 108.262 13.8137 108.981 13.375C109.7 12.9317 110.563 12.71 111.571 12.71C112.579 12.71 113.442 12.9317 114.161 13.375C114.884 13.8137 115.437 14.4273 115.82 15.216C116.207 16.0047 116.401 16.9193 116.401 17.96C116.401 19.0007 116.207 19.9153 115.82 20.704C115.437 21.4927 114.884 22.1087 114.161 22.552C113.442 22.9907 112.579 23.21 111.571 23.21ZM111.571 21.621C112.248 21.6257 112.81 21.4763 113.258 21.173C113.711 20.8697 114.049 20.4427 114.273 19.892C114.502 19.3413 114.616 18.6973 114.616 17.96C114.616 17.2227 114.502 16.5833 114.273 16.042C114.049 15.496 113.711 15.0713 113.258 14.768C112.81 14.4647 112.248 14.3083 111.571 14.299C110.894 14.2943 110.332 14.4437 109.884 14.747C109.436 15.0503 109.098 15.4773 108.869 16.028C108.645 16.5787 108.533 17.2227 108.533 17.96C108.533 18.6973 108.645 19.339 108.869 19.885C109.093 20.4263 109.429 20.8487 109.877 21.152C110.33 21.4553 110.894 21.6117 111.571 21.621ZM117.794 23V12.92H121.959C122.057 12.92 122.183 12.9247 122.337 12.934C122.491 12.9387 122.634 12.9527 122.764 12.976C123.348 13.0647 123.828 13.2583 124.206 13.557C124.589 13.8557 124.871 14.2337 125.053 14.691C125.24 15.1437 125.333 15.6477 125.333 16.203C125.333 17.0243 125.126 17.7313 124.71 18.324C124.295 18.912 123.658 19.276 122.799 19.416L122.078 19.479H119.481V23H117.794ZM123.583 23L121.595 18.898L123.31 18.52L125.494 23H123.583ZM119.481 17.904H121.889C121.983 17.904 122.088 17.8993 122.204 17.89C122.321 17.8807 122.428 17.862 122.526 17.834C122.806 17.764 123.026 17.6403 123.184 17.463C123.348 17.2857 123.462 17.085 123.527 16.861C123.597 16.637 123.632 16.4177 123.632 16.203C123.632 15.9883 123.597 15.769 123.527 15.545C123.462 15.3163 123.348 15.1133 123.184 14.936C123.026 14.7587 122.806 14.635 122.526 14.565C122.428 14.537 122.321 14.5207 122.204 14.516C122.088 14.5067 121.983 14.502 121.889 14.502H119.481V17.904ZM127.037 23V12.92H128.724V17.596L132.749 12.92H134.821L130.488 17.862L135.115 23H132.973L128.724 18.296V23H127.037Z" fill="#222222"/>
<rect x="162.697" width="73.9535" height="56" rx="7" fill="#F1F1F1"/>
<g clip-path="url(#clip3_1324_136)">
<path d="M194.865 38.12C194.462 38.12 194.099 38.0533 193.777 37.92C193.457 37.784 193.191 37.592 192.981 37.344C192.773 37.096 192.637 36.8013 192.573 36.46L193.173 36.36C193.269 36.7333 193.471 37.0267 193.781 37.24C194.09 37.4507 194.459 37.556 194.889 37.556C195.171 37.556 195.425 37.512 195.649 37.424C195.873 37.3333 196.049 37.2053 196.177 37.04C196.305 36.8747 196.369 36.6787 196.369 36.452C196.369 36.3027 196.342 36.176 196.289 36.072C196.235 35.9653 196.165 35.8773 196.077 35.808C195.989 35.7387 195.893 35.6813 195.789 35.636C195.685 35.588 195.583 35.5493 195.485 35.52L194.025 35.084C193.849 35.0333 193.686 34.9693 193.537 34.892C193.387 34.812 193.257 34.7173 193.145 34.608C193.035 34.496 192.95 34.3653 192.889 34.216C192.827 34.0667 192.797 33.896 192.797 33.704C192.797 33.3787 192.882 33.0973 193.053 32.86C193.223 32.6227 193.457 32.44 193.753 32.312C194.049 32.184 194.386 32.1213 194.765 32.124C195.149 32.124 195.491 32.192 195.793 32.328C196.097 32.464 196.347 32.6587 196.545 32.912C196.742 33.1627 196.873 33.46 196.937 33.804L196.321 33.916C196.281 33.6653 196.189 33.448 196.045 33.264C195.901 33.08 195.717 32.9387 195.493 32.84C195.271 32.7387 195.027 32.6867 194.761 32.684C194.502 32.684 194.271 32.728 194.069 32.816C193.869 32.9013 193.71 33.0187 193.593 33.168C193.475 33.3173 193.417 33.488 193.417 33.68C193.417 33.8747 193.47 34.0307 193.577 34.148C193.686 34.2653 193.819 34.3573 193.977 34.424C194.137 34.4907 194.291 34.5453 194.441 34.588L195.569 34.92C195.686 34.952 195.823 34.9987 195.981 35.06C196.141 35.1187 196.295 35.204 196.445 35.316C196.597 35.4253 196.722 35.5693 196.821 35.748C196.919 35.9267 196.969 36.1533 196.969 36.428C196.969 36.6947 196.915 36.9333 196.809 37.144C196.705 37.3547 196.557 37.532 196.365 37.676C196.175 37.82 195.953 37.9293 195.697 38.004C195.443 38.0813 195.166 38.12 194.865 38.12ZM197.874 32.86V32.2H198.462V32.86H197.874ZM197.874 38V33.68H198.462V38H197.874ZM199.262 38V37.876L202.05 34.228H199.47V33.68H203.018V33.816L200.234 37.452H202.866V38H199.262ZM205.404 38.12C204.982 38.12 204.617 38.0267 204.308 37.84C204.001 37.6533 203.762 37.3907 203.592 37.052C203.421 36.7133 203.336 36.316 203.336 35.86C203.336 35.388 203.42 34.98 203.588 34.636C203.756 34.292 203.992 34.0267 204.296 33.84C204.602 33.6533 204.964 33.56 205.38 33.56C205.806 33.56 206.17 33.6587 206.472 33.856C206.773 34.0507 207.001 34.3307 207.156 34.696C207.31 35.0613 207.381 35.4973 207.368 36.004H206.768V35.796C206.757 35.236 206.636 34.8133 206.404 34.528C206.174 34.2427 205.838 34.1 205.396 34.1C204.932 34.1 204.576 34.2507 204.328 34.552C204.082 34.8533 203.96 35.2827 203.96 35.84C203.96 36.384 204.082 36.8067 204.328 37.108C204.576 37.4067 204.926 37.556 205.38 37.556C205.689 37.556 205.958 37.4853 206.188 37.344C206.42 37.2 206.602 36.9933 206.736 36.724L207.284 36.936C207.113 37.312 206.861 37.604 206.528 37.812C206.197 38.0173 205.822 38.12 205.404 38.12ZM203.752 36.004V35.512H207.052V36.004H203.752ZM197.525 46V40.896L196.441 41.548V40.888L197.525 40.24H198.121V46H197.525ZM201.534 40.124C201.897 40.124 202.225 40.212 202.518 40.388C202.814 40.5613 203.049 40.7987 203.222 41.1C203.395 41.3987 203.482 41.7347 203.482 42.108V44.108C203.482 44.492 203.395 44.836 203.222 45.14C203.049 45.444 202.811 45.684 202.51 45.86C202.211 46.0333 201.871 46.12 201.49 46.12C201.162 46.12 200.858 46.048 200.578 45.904C200.301 45.7573 200.071 45.556 199.89 45.3L200.338 44.928C200.461 45.1173 200.623 45.2693 200.826 45.384C201.031 45.4987 201.253 45.556 201.49 45.556C201.762 45.556 202.002 45.492 202.21 45.364C202.421 45.2333 202.586 45.0627 202.706 44.852C202.829 44.6387 202.89 44.408 202.89 44.16V42.904L203.034 43.072C202.869 43.336 202.649 43.5493 202.374 43.712C202.102 43.8747 201.803 43.956 201.478 43.956C201.123 43.956 200.802 43.8707 200.514 43.7C200.229 43.5293 200.002 43.3 199.834 43.012C199.669 42.724 199.586 42.4027 199.586 42.048C199.586 41.6933 199.674 41.3707 199.85 41.08C200.026 40.7867 200.262 40.5547 200.558 40.384C200.854 40.2107 201.179 40.124 201.534 40.124ZM201.534 40.692C201.283 40.692 201.055 40.7533 200.85 40.876C200.645 40.996 200.481 41.1587 200.358 41.364C200.238 41.5693 200.178 41.7973 200.178 42.048C200.178 42.2987 200.238 42.5267 200.358 42.732C200.478 42.9373 200.641 43.1013 200.846 43.224C201.051 43.344 201.279 43.404 201.53 43.404C201.781 43.404 202.009 43.344 202.214 43.224C202.422 43.1013 202.586 42.9373 202.706 42.732C202.829 42.5267 202.89 42.2987 202.89 42.048C202.89 41.8 202.829 41.5733 202.706 41.368C202.586 41.1627 202.423 40.9987 202.218 40.876C202.013 40.7533 201.785 40.692 201.534 40.692Z" fill="#222222"/>
</g>
<path d="M179.108 23L176.161 12.92H177.932L179.941 20.2L181.943 12.934L183.714 12.92L185.723 20.2L187.725 12.92H189.496L186.556 23H184.89L182.825 15.832L180.774 23H179.108ZM190.638 23V12.92H192.325V17.162H197.099V12.92H198.779V23H197.099V18.744H192.325V23H190.638ZM200.742 23V12.92H207.252V14.502H202.429V16.987H206.412V18.569H202.429V21.418H207.252V23H200.742ZM208.931 23V12.92H215.441V14.502H210.618V16.987H214.601V18.569H210.618V21.418H215.441V23H208.931ZM217.261 23V12.92H218.948V21.418H223.4V23H217.261Z" fill="#222222"/>
<defs>
<clipPath id="clip0_1324_136">
<rect width="60" height="16" fill="white" transform="translate(6 31)"/>
</clipPath>
<clipPath id="clip1_1324_136">
<rect width="44" height="16" fill="white" transform="translate(259 31)"/>
</clipPath>
<clipPath id="clip2_1324_136">
<rect width="46" height="16" fill="white" transform="translate(95 31)"/>
</clipPath>
<clipPath id="clip3_1324_136">
<rect width="23" height="16" fill="white" transform="translate(188.5 31)"/>
</clipPath>
</defs>
</svg>
