<svg width="240" height="39" viewBox="0 0 240 39" fill="none" xmlns="http://www.w3.org/2000/svg">
<g clip-path="url(#clip0_1324_157)">
<g clip-path="url(#clip1_1324_157)">
<g clip-path="url(#clip2_1324_157)">
<path d="M8.375 11.75C8.94953 11.75 9.51844 11.6368 10.0492 11.417C10.58 11.1971 11.0623 10.8748 11.4686 10.4686C11.8748 10.0623 12.1971 9.58004 12.417 9.04924C12.6368 8.51844 12.75 7.94953 12.75 7.375C12.75 6.80047 12.6368 6.23156 12.417 5.70076C12.1971 5.16996 11.8748 4.68766 11.4686 4.28141C11.0623 3.87515 10.58 3.55289 10.0492 3.33303C9.51844 3.11316 8.94953 3 8.375 3C7.80047 3 7.23156 3.11316 6.70076 3.33303C6.16996 3.55289 5.68766 3.87515 5.28141 4.28141C4.87515 4.68766 4.55289 5.16996 4.33303 5.70076C4.11316 6.23156 4 6.80047 4 7.375C4 7.94953 4.11316 8.51844 4.33303 9.04924C4.55289 9.58004 4.87515 10.0623 5.28141 10.4686C5.68766 10.8748 6.16996 11.1971 6.70076 11.417C7.23156 11.6368 7.80047 11.75 8.375 11.75ZM15.25 7.375C15.25 10.7461 12.8242 13.5508 9.625 14.1367V15.5H10.875C11.5664 15.5 12.125 16.0586 12.125 16.75C12.125 17.4414 11.5664 18 10.875 18H9.625V19.25C9.625 19.9414 9.06641 20.5 8.375 20.5C7.68359 20.5 7.125 19.9414 7.125 19.25V18H5.875C5.18359 18 4.625 17.4414 4.625 16.75C4.625 16.0586 5.18359 15.5 5.875 15.5H7.125V14.1367C3.92578 13.5508 1.5 10.7461 1.5 7.375C1.5 3.57812 4.57812 0.5 8.375 0.5C12.1719 0.5 15.25 3.57812 15.25 7.375ZM12.1211 14.5859C12.875 14.1914 13.5625 13.6836 14.1562 13.0859C14.9375 13.8086 15.9805 14.25 17.1289 14.25C19.5469 14.25 21.5039 12.293 21.5039 9.875C21.5039 7.45703 19.5469 5.5 17.1289 5.5C16.8477 5.5 16.5703 5.52734 16.3047 5.57812C16.1133 4.73828 15.7969 3.94922 15.3672 3.22656C15.9258 3.07812 16.5156 3 17.125 3C18.5703 3 19.9141 3.44531 21.0234 4.21094L21.8281 3.40625L20.5234 2.10156C20.2539 1.83203 20.1758 1.42969 20.3203 1.07812C20.4648 0.726562 20.8086 0.5 21.1875 0.5H25.5625C26.082 0.5 26.5 0.917969 26.5 1.4375V5.8125C26.5 6.19141 26.2734 6.53516 25.9219 6.67969C25.5703 6.82422 25.168 6.74609 24.8984 6.47656L23.5938 5.17188L22.7891 5.97656C23.5508 7.08594 24 8.42578 24 9.875C24 13.6719 20.9219 16.75 17.125 16.75C15.1523 16.75 13.375 15.918 12.1211 14.5859Z" fill="#8DC63F"/>
</g>
<path d="M1.34 36.5V27.86H2.312L5.576 34.742L8.822 27.86H9.806V36.494H8.792V30.206L5.858 36.5H5.288L2.354 30.206V36.5H1.34ZM13.3304 36.68C12.8464 36.68 12.4404 36.592 12.1124 36.416C11.7884 36.236 11.5424 36 11.3744 35.708C11.2104 35.416 11.1284 35.096 11.1284 34.748C11.1284 34.408 11.1924 34.114 11.3204 33.866C11.4524 33.614 11.6364 33.406 11.8724 33.242C12.1084 33.074 12.3904 32.942 12.7184 32.846C13.0264 32.762 13.3704 32.69 13.7504 32.63C14.1344 32.566 14.5224 32.508 14.9144 32.456C15.3064 32.404 15.6724 32.354 16.0124 32.306L15.6284 32.528C15.6404 31.952 15.5244 31.526 15.2804 31.25C15.0404 30.974 14.6244 30.836 14.0324 30.836C13.6404 30.836 13.2964 30.926 13.0004 31.106C12.7084 31.282 12.5024 31.57 12.3824 31.97L11.3684 31.664C11.5244 31.096 11.8264 30.65 12.2744 30.326C12.7224 30.002 13.3124 29.84 14.0444 29.84C14.6324 29.84 15.1364 29.946 15.5564 30.158C15.9804 30.366 16.2844 30.682 16.4684 31.106C16.5604 31.306 16.6184 31.524 16.6424 31.76C16.6664 31.992 16.6784 32.236 16.6784 32.492V36.5H15.7304V34.946L15.9524 35.09C15.7084 35.614 15.3664 36.01 14.9264 36.278C14.4904 36.546 13.9584 36.68 13.3304 36.68ZM13.4924 35.786C13.8764 35.786 14.2084 35.718 14.4884 35.582C14.7724 35.442 15.0004 35.26 15.1724 35.036C15.3444 34.808 15.4564 34.56 15.5084 34.292C15.5684 34.092 15.6004 33.87 15.6044 33.626C15.6124 33.378 15.6164 33.188 15.6164 33.056L15.9884 33.218C15.6404 33.266 15.2984 33.312 14.9624 33.356C14.6264 33.4 14.3084 33.448 14.0084 33.5C13.7084 33.548 13.4384 33.606 13.1984 33.674C13.0224 33.73 12.8564 33.802 12.7004 33.89C12.5484 33.978 12.4244 34.092 12.3284 34.232C12.2364 34.368 12.1904 34.538 12.1904 34.742C12.1904 34.918 12.2344 35.086 12.3224 35.246C12.4144 35.406 12.5544 35.536 12.7424 35.636C12.9344 35.736 13.1844 35.786 13.4924 35.786ZM18.3584 36.5V27.68H19.4264V36.5H18.3584ZM24.0347 36.68C23.3987 36.68 22.8427 36.54 22.3667 36.26C21.8947 35.976 21.5267 35.582 21.2627 35.078C20.9987 34.57 20.8667 33.978 20.8667 33.302C20.8667 32.594 20.9967 31.982 21.2567 31.466C21.5167 30.946 21.8787 30.546 22.3427 30.266C22.8107 29.982 23.3587 29.84 23.9867 29.84C24.6387 29.84 25.1927 29.99 25.6487 30.29C26.1087 30.59 26.4527 31.018 26.6807 31.574C26.9127 32.13 27.0127 32.792 26.9807 33.56H25.9007V33.176C25.8887 32.38 25.7267 31.786 25.4147 31.394C25.1027 30.998 24.6387 30.8 24.0227 30.8C23.3627 30.8 22.8607 31.012 22.5167 31.436C22.1727 31.86 22.0007 32.468 22.0007 33.26C22.0007 34.024 22.1727 34.616 22.5167 35.036C22.8607 35.456 23.3507 35.666 23.9867 35.666C24.4147 35.666 24.7867 35.568 25.1027 35.372C25.4187 35.176 25.6667 34.894 25.8467 34.526L26.8727 34.88C26.6207 35.452 26.2407 35.896 25.7327 36.212C25.2287 36.524 24.6627 36.68 24.0347 36.68ZM21.6407 33.56V32.702H26.4287V33.56H21.6407Z" fill="#222222"/>
</g>
<g clip-path="url(#clip3_1324_157)">
<g clip-path="url(#clip4_1324_157)">
<path d="M70.5 4.25H92.5C92.5 2.87109 91.4038 1.75 90.0556 1.75H72.9444C71.5962 1.75 70.5 2.87109 70.5 4.25ZM70.5 5.5V16.75C70.5 18.1289 71.5962 19.25 72.9444 19.25H90.0556C91.4038 19.25 92.5 18.1289 92.5 16.75V5.5H70.5ZM72.9444 16.332C72.9444 15.1797 73.8573 14.25 74.9802 14.25H79.4642C80.591 14.25 81.5 15.1836 81.5 16.332C81.5 16.5625 81.3167 16.75 81.0913 16.75H73.3531C73.1278 16.75 72.9444 16.5625 72.9444 16.332ZM77.2222 8C77.8705 8 78.4923 8.26339 78.9507 8.73223C79.4091 9.20107 79.6667 9.83696 79.6667 10.5C79.6667 11.163 79.4091 11.7989 78.9507 12.2678C78.4923 12.7366 77.8705 13 77.2222 13C76.5739 13 75.9522 12.7366 75.4937 12.2678C75.0353 11.7989 74.7778 11.163 74.7778 10.5C74.7778 9.83696 75.0353 9.20107 75.4937 8.73223C75.9522 8.26339 76.5739 8 77.2222 8ZM83.9444 8.625C83.9444 8.28125 84.2194 8 84.5556 8H89.4444C89.7806 8 90.0556 8.28125 90.0556 8.625C90.0556 8.96875 89.7806 9.25 89.4444 9.25H84.5556C84.2194 9.25 83.9444 8.96875 83.9444 8.625ZM83.9444 11.125C83.9444 10.7812 84.2194 10.5 84.5556 10.5H89.4444C89.7806 10.5 90.0556 10.7812 90.0556 11.125C90.0556 11.4688 89.7806 11.75 89.4444 11.75H84.5556C84.2194 11.75 83.9444 11.4688 83.9444 11.125ZM83.9444 13.625C83.9444 13.2812 84.2194 13 84.5556 13H89.4444C89.7806 13 90.0556 13.2812 90.0556 13.625C90.0556 13.9688 89.7806 14.25 89.4444 14.25H84.5556C84.2194 14.25 83.9444 13.9688 83.9444 13.625Z" fill="#8DC63F"/>
</g>
<path d="M64.846 36.5V29.042L63.22 30.026V28.832L64.846 27.86H65.932V36.5H64.846ZM70.585 36.668C70.157 36.668 69.759 36.59 69.391 36.434C69.023 36.274 68.705 36.05 68.437 35.762C68.173 35.47 67.979 35.124 67.855 34.724L68.881 34.43C69.013 34.83 69.233 35.134 69.541 35.342C69.849 35.55 70.195 35.652 70.579 35.648C70.931 35.64 71.235 35.56 71.491 35.408C71.751 35.252 71.951 35.04 72.091 34.772C72.235 34.504 72.307 34.194 72.307 33.842C72.307 33.306 72.147 32.872 71.827 32.54C71.507 32.204 71.087 32.036 70.567 32.036C70.423 32.036 70.271 32.056 70.111 32.096C69.955 32.136 69.809 32.192 69.673 32.264L69.157 31.418L72.361 28.52L72.499 28.88H68.197V27.86H73.291V28.886L70.561 31.502L70.549 31.124C71.121 31.084 71.621 31.178 72.049 31.406C72.477 31.634 72.809 31.96 73.045 32.384C73.285 32.808 73.405 33.294 73.405 33.842C73.405 34.394 73.281 34.882 73.033 35.306C72.785 35.73 72.449 36.064 72.025 36.308C71.601 36.548 71.121 36.668 70.585 36.668ZM77.137 34.91V32.618H74.845V31.736H77.137V29.45H78.019V31.736H80.305V32.618H78.019V34.91H77.137ZM86.3397 36.5V32.906L83.4297 27.86H84.6717L86.8797 31.682L89.0817 27.86H90.3237L87.4197 32.906V36.5H86.3397ZM90.6798 36.5V30.02H91.6338V31.586L91.4778 31.382C91.5538 31.182 91.6518 30.998 91.7718 30.83C91.8958 30.662 92.0338 30.524 92.1858 30.416C92.3538 30.28 92.5438 30.176 92.7558 30.104C92.9678 30.032 93.1838 29.99 93.4038 29.978C93.6238 29.962 93.8298 29.976 94.0218 30.02V31.022C93.7978 30.962 93.5518 30.946 93.2838 30.974C93.0158 31.002 92.7678 31.1 92.5398 31.268C92.3318 31.416 92.1698 31.596 92.0538 31.808C91.9418 32.02 91.8638 32.25 91.8198 32.498C91.7758 32.742 91.7538 32.992 91.7538 33.248V36.5H90.6798ZM97.37 36.674C96.598 36.674 95.964 36.506 95.468 36.17C94.976 35.83 94.674 35.356 94.562 34.748L95.654 34.574C95.742 34.926 95.944 35.206 96.26 35.414C96.576 35.618 96.968 35.72 97.436 35.72C97.88 35.72 98.228 35.628 98.48 35.444C98.732 35.26 98.858 35.01 98.858 34.694C98.858 34.51 98.816 34.362 98.732 34.25C98.648 34.134 98.474 34.026 98.21 33.926C97.95 33.826 97.556 33.706 97.028 33.566C96.456 33.414 96.006 33.256 95.678 33.092C95.35 32.928 95.116 32.738 94.976 32.522C94.836 32.306 94.766 32.044 94.766 31.736C94.766 31.356 94.87 31.024 95.078 30.74C95.286 30.452 95.576 30.23 95.948 30.074C96.324 29.918 96.76 29.84 97.256 29.84C97.748 29.84 98.188 29.918 98.576 30.074C98.964 30.23 99.276 30.452 99.512 30.74C99.752 31.024 99.894 31.356 99.938 31.736L98.846 31.934C98.794 31.586 98.626 31.312 98.342 31.112C98.062 30.912 97.7 30.806 97.256 30.794C96.836 30.778 96.494 30.852 96.23 31.016C95.97 31.18 95.84 31.402 95.84 31.682C95.84 31.838 95.888 31.972 95.984 32.084C96.084 32.196 96.266 32.302 96.53 32.402C96.798 32.502 97.186 32.616 97.694 32.744C98.266 32.888 98.716 33.046 99.044 33.218C99.376 33.386 99.612 33.586 99.752 33.818C99.892 34.046 99.962 34.328 99.962 34.664C99.962 35.288 99.732 35.78 99.272 36.14C98.812 36.496 98.178 36.674 97.37 36.674Z" fill="#222222"/>
</g>
<g clip-path="url(#clip5_1324_157)">
<g clip-path="url(#clip6_1324_157)">
<path d="M155.187 0.800781C155.008 0.609375 154.762 0.5 154.5 0.5C154.238 0.5 153.992 0.609375 153.812 0.800781L149.75 5.17578C149.496 5.44922 149.43 5.84766 149.578 6.1875C149.727 6.52734 150.066 6.75 150.437 6.75H152.625V14.25H150.437C150.066 14.25 149.727 14.4727 149.578 14.8125C149.43 15.1523 149.496 15.5508 149.75 15.8242L153.812 20.1992C153.988 20.3906 154.238 20.5 154.5 20.5C154.762 20.5 155.008 20.3906 155.187 20.1992L159.25 15.8242C159.504 15.5508 159.57 15.1523 159.422 14.8125C159.273 14.4727 158.934 14.25 158.562 14.25H156.375V6.75H158.562C158.934 6.75 159.273 6.52734 159.422 6.1875C159.57 5.84766 159.504 5.44922 159.25 5.17578L155.187 0.800781Z" fill="#8DC63F"/>
</g>
<path d="M140.072 36.5V34.91H136.1V33.896L138.95 27.86H140.162L137.312 33.896H140.072V31.466H141.152V33.896H142.052V34.91H141.152V36.5H140.072ZM143.446 36.5V35.324H144.622V36.5H143.446ZM149.188 36.68C148.636 36.68 148.148 36.57 147.724 36.35C147.3 36.126 146.968 35.816 146.728 35.42C146.488 35.024 146.368 34.562 146.368 34.034C146.368 33.518 146.49 33.052 146.734 32.636C146.982 32.22 147.354 31.9 147.85 31.676L147.832 32.066C147.428 31.87 147.118 31.594 146.902 31.238C146.686 30.878 146.578 30.48 146.578 30.044C146.578 29.556 146.69 29.136 146.914 28.784C147.138 28.432 147.446 28.16 147.838 27.968C148.23 27.776 148.68 27.68 149.188 27.68C149.696 27.68 150.146 27.776 150.538 27.968C150.93 28.16 151.238 28.432 151.462 28.784C151.686 29.136 151.798 29.556 151.798 30.044C151.798 30.48 151.696 30.876 151.492 31.232C151.288 31.584 150.974 31.862 150.55 32.066L150.526 31.682C151.022 31.898 151.394 32.216 151.642 32.636C151.894 33.052 152.02 33.518 152.02 34.034C152.02 34.562 151.898 35.024 151.654 35.42C151.414 35.816 151.08 36.126 150.652 36.35C150.228 36.57 149.74 36.68 149.188 36.68ZM149.188 35.66C149.692 35.66 150.1 35.522 150.412 35.246C150.728 34.966 150.886 34.562 150.886 34.034C150.886 33.502 150.73 33.098 150.418 32.822C150.11 32.542 149.7 32.402 149.188 32.402C148.68 32.402 148.27 32.542 147.958 32.822C147.65 33.098 147.496 33.502 147.496 34.034C147.496 34.562 147.652 34.966 147.964 35.246C148.276 35.522 148.684 35.66 149.188 35.66ZM149.188 31.376C149.628 31.376 149.984 31.266 150.256 31.046C150.528 30.822 150.664 30.488 150.664 30.044C150.664 29.6 150.528 29.268 150.256 29.048C149.984 28.824 149.628 28.712 149.188 28.712C148.752 28.712 148.396 28.824 148.12 29.048C147.848 29.268 147.712 29.6 147.712 30.044C147.712 30.488 147.848 30.822 148.12 31.046C148.396 31.266 148.752 31.376 149.188 31.376ZM155.981 36.5V27.86H161.021V28.928H157.049V31.646H160.301V32.714H157.049V36.5H155.981ZM165.716 36.5C165.332 36.576 164.952 36.606 164.576 36.59C164.204 36.578 163.872 36.504 163.58 36.368C163.288 36.228 163.066 36.012 162.914 35.72C162.786 35.464 162.716 35.206 162.704 34.946C162.696 34.682 162.692 34.384 162.692 34.052V28.22H163.76V34.004C163.76 34.268 163.762 34.494 163.766 34.682C163.774 34.87 163.816 35.032 163.892 35.168C164.036 35.424 164.264 35.574 164.576 35.618C164.892 35.662 165.272 35.65 165.716 35.582V36.5ZM161.378 30.902V30.02H165.716V30.902H161.378ZM169.203 34.91V32.618H166.911V31.736H169.203V29.45H170.085V31.736H172.371V32.618H170.085V34.91H169.203Z" fill="#222222"/>
</g>
<g clip-path="url(#clip7_1324_157)">
<g clip-path="url(#clip8_1324_157)">
<path d="M224 21C226.785 21 229.455 19.8938 231.425 17.9246C233.394 15.9555 234.5 13.2848 234.5 10.5C234.5 7.71523 233.394 5.04451 231.425 3.07538C229.455 1.10625 226.785 0 224 0C221.215 0 218.545 1.10625 216.575 3.07538C214.606 5.04451 213.5 7.71523 213.5 10.5C213.5 13.2848 214.606 15.9555 216.575 17.9246C218.545 19.8938 221.215 21 224 21ZM224 6.5625C225.044 6.5625 226.046 6.97734 226.784 7.71577C227.523 8.45419 227.938 9.45571 227.938 10.5C227.938 11.5443 227.523 12.5458 226.784 13.2842C226.046 14.0227 225.044 14.4375 224 14.4375C222.956 14.4375 221.954 14.0227 221.216 13.2842C220.477 12.5458 220.062 11.5443 220.062 10.5C220.062 9.45571 220.477 8.45419 221.216 7.71577C221.954 6.97734 222.956 6.5625 224 6.5625Z" fill="#8DC63F"/>
</g>
<path d="M209.1 36.994L209.106 36.034L212.94 32.584C213.26 32.296 213.474 32.024 213.582 31.768C213.694 31.508 213.75 31.242 213.75 30.97C213.75 30.638 213.674 30.338 213.522 30.07C213.37 29.802 213.162 29.59 212.898 29.434C212.638 29.278 212.342 29.2 212.01 29.2C211.666 29.2 211.36 29.282 211.092 29.446C210.824 29.606 210.612 29.82 210.456 30.088C210.304 30.356 210.23 30.648 210.234 30.964H209.142C209.142 30.42 209.268 29.94 209.52 29.524C209.772 29.104 210.114 28.776 210.546 28.54C210.982 28.3 211.476 28.18 212.028 28.18C212.564 28.18 213.044 28.304 213.468 28.552C213.892 28.796 214.226 29.13 214.47 29.554C214.718 29.974 214.842 30.45 214.842 30.982C214.842 31.358 214.794 31.684 214.698 31.96C214.606 32.236 214.462 32.492 214.266 32.728C214.07 32.96 213.824 33.208 213.528 33.472L210.342 36.334L210.204 35.974H214.842V36.994H209.1ZM216.734 37L219.842 29.386H215.918V28.36H220.988V29.386L217.886 37H216.734ZM222.024 37V35.824H223.2V37H222.024ZM227.623 37.18C227.179 37.18 226.765 37.088 226.381 36.904C226.001 36.72 225.675 36.468 225.403 36.148C225.135 35.824 224.943 35.452 224.827 35.032L225.853 34.756C225.925 35.04 226.053 35.286 226.237 35.494C226.421 35.698 226.635 35.858 226.879 35.974C227.127 36.086 227.385 36.142 227.653 36.142C228.005 36.142 228.321 36.058 228.601 35.89C228.885 35.718 229.109 35.492 229.273 35.212C229.437 34.928 229.519 34.618 229.519 34.282C229.519 33.934 229.433 33.62 229.261 33.34C229.093 33.056 228.867 32.832 228.583 32.668C228.299 32.504 227.989 32.422 227.653 32.422C227.273 32.422 226.947 32.502 226.675 32.662C226.407 32.818 226.195 33.01 226.039 33.238L225.091 32.878L225.355 28.36H229.993V29.374H225.871L226.345 28.93L226.123 32.548L225.889 32.242C226.129 31.986 226.415 31.788 226.747 31.648C227.083 31.508 227.425 31.438 227.773 31.438C228.309 31.438 228.789 31.564 229.213 31.816C229.637 32.064 229.973 32.404 230.221 32.836C230.469 33.264 230.593 33.746 230.593 34.282C230.593 34.814 230.457 35.3 230.185 35.74C229.913 36.176 229.551 36.526 229.099 36.79C228.651 37.05 228.159 37.18 227.623 37.18ZM234.944 37.18C234.384 37.18 233.884 37.054 233.444 36.802C233.008 36.546 232.662 36.2 232.406 35.764C232.154 35.324 232.028 34.824 232.028 34.264V31.096C232.028 30.536 232.154 30.036 232.406 29.596C232.662 29.156 233.008 28.81 233.444 28.558C233.884 28.306 234.384 28.18 234.944 28.18C235.504 28.18 236.004 28.306 236.444 28.558C236.884 28.81 237.23 29.156 237.482 29.596C237.734 30.036 237.86 30.536 237.86 31.096V34.264C237.86 34.824 237.734 35.324 237.482 35.764C237.23 36.2 236.884 36.546 236.444 36.802C236.004 37.054 235.504 37.18 234.944 37.18ZM234.944 36.154C235.284 36.154 235.592 36.072 235.868 35.908C236.144 35.744 236.364 35.524 236.528 35.248C236.692 34.968 236.774 34.66 236.774 34.324V31.03C236.774 30.69 236.692 30.382 236.528 30.106C236.364 29.83 236.144 29.61 235.868 29.446C235.592 29.282 235.284 29.2 234.944 29.2C234.608 29.2 234.3 29.282 234.02 29.446C233.744 29.61 233.524 29.83 233.36 30.106C233.196 30.382 233.114 30.69 233.114 31.03V34.324C233.114 34.66 233.196 34.968 233.36 35.248C233.524 35.524 233.744 35.744 234.02 35.908C234.3 36.072 234.608 36.154 234.944 36.154Z" fill="#222222"/>
</g>
</g>
<defs>
<clipPath id="clip0_1324_157">
<rect width="239" height="39" fill="white" transform="translate(0.5)"/>
</clipPath>
<clipPath id="clip1_1324_157">
<rect width="27" height="38" fill="white" transform="translate(0.5 0.5)"/>
</clipPath>
<clipPath id="clip2_1324_157">
<rect width="25" height="20" fill="white" transform="translate(1.5 0.5)"/>
</clipPath>
<clipPath id="clip3_1324_157">
<rect width="38" height="38" fill="white" transform="translate(62.5 0.5)"/>
</clipPath>
<clipPath id="clip4_1324_157">
<rect width="22" height="20" fill="white" transform="translate(70.5 0.5)"/>
</clipPath>
<clipPath id="clip5_1324_157">
<rect width="38" height="38" fill="white" transform="translate(135.5 0.5)"/>
</clipPath>
<clipPath id="clip6_1324_157">
<rect width="10" height="20" fill="white" transform="translate(149.5 0.5)"/>
</clipPath>
<clipPath id="clip7_1324_157">
<rect width="31" height="39" fill="white" transform="translate(208.5)"/>
</clipPath>
<clipPath id="clip8_1324_157">
<rect width="21" height="21" fill="white" transform="translate(213.5)"/>
</clipPath>
</defs>
</svg>
