<svg width="254" height="39" viewBox="0 0 254 39" fill="none" xmlns="http://www.w3.org/2000/svg">
<g clip-path="url(#clip0_1_50595)">
<g clip-path="url(#clip1_1_50595)">
<g clip-path="url(#clip2_1_50595)">
<path d="M13.875 11.75C14.4495 11.75 15.0184 11.6368 15.5492 11.417C16.08 11.1971 16.5623 10.8748 16.9686 10.4686C17.3748 10.0623 17.6971 9.58004 17.917 9.04924C18.1368 8.51844 18.25 7.94953 18.25 7.375C18.25 6.80047 18.1368 6.23156 17.917 5.70076C17.6971 5.16996 17.3748 4.68766 16.9686 4.28141C16.5623 3.87515 16.08 3.55289 15.5492 3.33303C15.0184 3.11316 14.4495 3 13.875 3C13.3005 3 12.7316 3.11316 12.2008 3.33303C11.67 3.55289 11.1877 3.87515 10.7814 4.28141C10.3752 4.68766 10.0529 5.16996 9.83303 5.70076C9.61316 6.23156 9.5 6.80047 9.5 7.375C9.5 7.94953 9.61316 8.51844 9.83303 9.04924C10.0529 9.58004 10.3752 10.0623 10.7814 10.4686C11.1877 10.8748 11.67 11.1971 12.2008 11.417C12.7316 11.6368 13.3005 11.75 13.875 11.75ZM20.75 7.375C20.75 10.7461 18.3242 13.5508 15.125 14.1367V15.5H16.375C17.0664 15.5 17.625 16.0586 17.625 16.75C17.625 17.4414 17.0664 18 16.375 18H15.125V19.25C15.125 19.9414 14.5664 20.5 13.875 20.5C13.1836 20.5 12.625 19.9414 12.625 19.25V18H11.375C10.6836 18 10.125 17.4414 10.125 16.75C10.125 16.0586 10.6836 15.5 11.375 15.5H12.625V14.1367C9.42578 13.5508 7 10.7461 7 7.375C7 3.57812 10.0781 0.5 13.875 0.5C17.6719 0.5 20.75 3.57812 20.75 7.375ZM17.6211 14.5859C18.375 14.1914 19.0625 13.6836 19.6562 13.0859C20.4375 13.8086 21.4805 14.25 22.6289 14.25C25.0469 14.25 27.0039 12.293 27.0039 9.875C27.0039 7.45703 25.0469 5.5 22.6289 5.5C22.3477 5.5 22.0703 5.52734 21.8047 5.57812C21.6133 4.73828 21.2969 3.94922 20.8672 3.22656C21.4258 3.07813 22.0156 3 22.625 3C24.0703 3 25.4141 3.44531 26.5234 4.21094L27.3281 3.40625L26.0234 2.10156C25.7539 1.83203 25.6758 1.42969 25.8203 1.07812C25.9648 0.726562 26.3086 0.5 26.6875 0.5H31.0625C31.582 0.5 32 0.917969 32 1.4375V5.8125C32 6.19141 31.7734 6.53516 31.4219 6.67969C31.0703 6.82422 30.668 6.74609 30.3984 6.47656L29.0938 5.17188L28.2891 5.97656C29.0508 7.08594 29.5 8.42578 29.5 9.875C29.5 13.6719 26.4219 16.75 22.625 16.75C20.6523 16.75 18.875 15.918 17.6211 14.5859Z" fill="#8DC63F"/>
</g>
<path d="M4.248 36.68C3.58 36.68 2.99 36.542 2.478 36.266C1.966 35.99 1.564 35.604 1.272 35.108C0.984 34.608 0.84 34.022 0.84 33.35V27.866L1.92 27.86V33.26C1.92 33.668 1.988 34.024 2.124 34.328C2.264 34.628 2.448 34.878 2.676 35.078C2.904 35.278 3.154 35.428 3.426 35.528C3.702 35.624 3.976 35.672 4.248 35.672C4.524 35.672 4.8 35.622 5.076 35.522C5.352 35.422 5.602 35.274 5.826 35.078C6.054 34.878 6.236 34.626 6.372 34.322C6.508 34.018 6.576 33.664 6.576 33.26V27.86H7.656V33.35C7.656 34.018 7.51 34.602 7.218 35.102C6.93 35.602 6.53 35.99 6.018 36.266C5.506 36.542 4.916 36.68 4.248 36.68ZM13.9501 36.5V33.254C13.9501 32.946 13.9221 32.65 13.8661 32.366C13.8141 32.082 13.7201 31.828 13.5841 31.604C13.4521 31.376 13.2721 31.196 13.0441 31.064C12.8201 30.932 12.5361 30.866 12.1921 30.866C11.9241 30.866 11.6801 30.912 11.4601 31.004C11.2441 31.092 11.0581 31.228 10.9021 31.412C10.7461 31.596 10.6241 31.828 10.5361 32.108C10.4521 32.384 10.4101 32.71 10.4101 33.086L9.70809 32.87C9.70809 32.242 9.82009 31.704 10.0441 31.256C10.2721 30.804 10.5901 30.458 10.9981 30.218C11.4101 29.974 11.8941 29.852 12.4501 29.852C12.8701 29.852 13.2281 29.918 13.5241 30.05C13.8201 30.182 14.0661 30.358 14.2621 30.578C14.4581 30.794 14.6121 31.038 14.7241 31.31C14.8361 31.578 14.9141 31.852 14.9581 32.132C15.0061 32.408 15.0301 32.67 15.0301 32.918V36.5H13.9501ZM9.33009 36.5V30.02H10.2901V31.754H10.4101V36.5H9.33009ZM16.71 28.874V27.77H17.778V28.874H16.71ZM16.71 36.5V30.02H17.778V36.5H16.71ZM22.0263 36.674C21.2543 36.674 20.6203 36.506 20.1243 36.17C19.6323 35.83 19.3303 35.356 19.2183 34.748L20.3103 34.574C20.3983 34.926 20.6003 35.206 20.9163 35.414C21.2323 35.618 21.6243 35.72 22.0923 35.72C22.5363 35.72 22.8843 35.628 23.1363 35.444C23.3883 35.26 23.5143 35.01 23.5143 34.694C23.5143 34.51 23.4723 34.362 23.3883 34.25C23.3043 34.134 23.1303 34.026 22.8663 33.926C22.6063 33.826 22.2123 33.706 21.6843 33.566C21.1123 33.414 20.6623 33.256 20.3343 33.092C20.0063 32.928 19.7723 32.738 19.6323 32.522C19.4923 32.306 19.4223 32.044 19.4223 31.736C19.4223 31.356 19.5263 31.024 19.7343 30.74C19.9423 30.452 20.2323 30.23 20.6043 30.074C20.9803 29.918 21.4163 29.84 21.9123 29.84C22.4043 29.84 22.8443 29.918 23.2323 30.074C23.6203 30.23 23.9323 30.452 24.1683 30.74C24.4083 31.024 24.5503 31.356 24.5943 31.736L23.5023 31.934C23.4503 31.586 23.2823 31.312 22.9983 31.112C22.7183 30.912 22.3563 30.806 21.9123 30.794C21.4923 30.778 21.1503 30.852 20.8863 31.016C20.6263 31.18 20.4963 31.402 20.4963 31.682C20.4963 31.838 20.5443 31.972 20.6403 32.084C20.7403 32.196 20.9223 32.302 21.1863 32.402C21.4543 32.502 21.8423 32.616 22.3503 32.744C22.9223 32.888 23.3723 33.046 23.7003 33.218C24.0323 33.386 24.2683 33.586 24.4083 33.818C24.5483 34.046 24.6183 34.328 24.6183 34.664C24.6183 35.288 24.3883 35.78 23.9283 36.14C23.4683 36.496 22.8343 36.674 22.0263 36.674ZM28.7496 36.68C28.1136 36.68 27.5576 36.54 27.0816 36.26C26.6096 35.976 26.2416 35.582 25.9776 35.078C25.7136 34.57 25.5816 33.978 25.5816 33.302C25.5816 32.594 25.7116 31.982 25.9716 31.466C26.2316 30.946 26.5936 30.546 27.0576 30.266C27.5256 29.982 28.0736 29.84 28.7016 29.84C29.3536 29.84 29.9076 29.99 30.3636 30.29C30.8236 30.59 31.1676 31.018 31.3956 31.574C31.6276 32.13 31.7276 32.792 31.6956 33.56H30.6156V33.176C30.6036 32.38 30.4416 31.786 30.1296 31.394C29.8176 30.998 29.3536 30.8 28.7376 30.8C28.0776 30.8 27.5756 31.012 27.2316 31.436C26.8876 31.86 26.7156 32.468 26.7156 33.26C26.7156 34.024 26.8876 34.616 27.2316 35.036C27.5756 35.456 28.0656 35.666 28.7016 35.666C29.1296 35.666 29.5016 35.568 29.8176 35.372C30.1336 35.176 30.3816 34.894 30.5616 34.526L31.5876 34.88C31.3356 35.452 30.9556 35.896 30.4476 36.212C29.9436 36.524 29.3776 36.68 28.7496 36.68ZM26.3556 33.56V32.702H31.1436V33.56H26.3556ZM32.077 36.5L34.555 33.224L32.131 30.02H33.403L35.179 32.396L36.937 30.02H38.209L35.785 33.224L38.269 36.5H36.991L35.179 34.052L33.355 36.5H32.077Z" fill="#222222"/>
</g>
<g clip-path="url(#clip3_1_50595)">
<g clip-path="url(#clip4_1_50595)">
<path d="M82.5 4.25H104.5C104.5 2.87109 103.404 1.75 102.056 1.75H84.9444C83.5962 1.75 82.5 2.87109 82.5 4.25ZM82.5 5.5V16.75C82.5 18.1289 83.5962 19.25 84.9444 19.25H102.056C103.404 19.25 104.5 18.1289 104.5 16.75V5.5H82.5ZM84.9444 16.332C84.9444 15.1797 85.8573 14.25 86.9802 14.25H91.4642C92.591 14.25 93.5 15.1836 93.5 16.332C93.5 16.5625 93.3167 16.75 93.0913 16.75H85.3531C85.1278 16.75 84.9444 16.5625 84.9444 16.332ZM89.2222 8C89.8705 8 90.4923 8.26339 90.9507 8.73223C91.4091 9.20107 91.6667 9.83696 91.6667 10.5C91.6667 11.163 91.4091 11.7989 90.9507 12.2678C90.4923 12.7366 89.8705 13 89.2222 13C88.5739 13 87.9522 12.7366 87.4937 12.2678C87.0353 11.7989 86.7778 11.163 86.7778 10.5C86.7778 9.83696 87.0353 9.20107 87.4937 8.73223C87.9522 8.26339 88.5739 8 89.2222 8ZM95.9444 8.625C95.9444 8.28125 96.2194 8 96.5556 8H101.444C101.781 8 102.056 8.28125 102.056 8.625C102.056 8.96875 101.781 9.25 101.444 9.25H96.5556C96.2194 9.25 95.9444 8.96875 95.9444 8.625ZM95.9444 11.125C95.9444 10.7812 96.2194 10.5 96.5556 10.5H101.444C101.781 10.5 102.056 10.7812 102.056 11.125C102.056 11.4688 101.781 11.75 101.444 11.75H96.5556C96.2194 11.75 95.9444 11.4688 95.9444 11.125ZM95.9444 13.625C95.9444 13.2812 96.2194 13 96.5556 13H101.444C101.781 13 102.056 13.2812 102.056 13.625C102.056 13.9688 101.781 14.25 101.444 14.25H96.5556C96.2194 14.25 95.9444 13.9688 95.9444 13.625Z" fill="#8DC63F"/>
</g>
<path d="M76.346 36.5V29.042L74.72 30.026V28.832L76.346 27.86H77.432V36.5H76.346ZM82.271 36.68C81.827 36.68 81.413 36.588 81.029 36.404C80.649 36.22 80.323 35.968 80.051 35.648C79.783 35.324 79.591 34.952 79.475 34.532L80.501 34.256C80.573 34.54 80.701 34.786 80.885 34.994C81.069 35.198 81.283 35.358 81.527 35.474C81.775 35.586 82.033 35.642 82.301 35.642C82.653 35.642 82.969 35.558 83.249 35.39C83.533 35.218 83.757 34.992 83.921 34.712C84.085 34.428 84.167 34.118 84.167 33.782C84.167 33.434 84.081 33.12 83.909 32.84C83.741 32.556 83.515 32.332 83.231 32.168C82.947 32.004 82.637 31.922 82.301 31.922C81.921 31.922 81.595 32.002 81.323 32.162C81.055 32.318 80.843 32.51 80.687 32.738L79.739 32.378L80.003 27.86H84.641V28.874H80.519L80.993 28.43L80.771 32.048L80.537 31.742C80.777 31.486 81.063 31.288 81.395 31.148C81.731 31.008 82.073 30.938 82.421 30.938C82.957 30.938 83.437 31.064 83.861 31.316C84.285 31.564 84.621 31.904 84.869 32.336C85.117 32.764 85.241 33.246 85.241 33.782C85.241 34.314 85.105 34.8 84.833 35.24C84.561 35.676 84.199 36.026 83.747 36.29C83.299 36.55 82.807 36.68 82.271 36.68ZM88.8479 34.91V32.618H86.5559V31.736H88.8479V29.45H89.7299V31.736H92.0159V32.618H89.7299V34.91H88.8479ZM98.0506 36.5V32.906L95.1406 27.86H96.3826L98.5906 31.682L100.793 27.86H102.035L99.1306 32.906V36.5H98.0506ZM102.391 36.5V30.02H103.345V31.586L103.189 31.382C103.265 31.182 103.363 30.998 103.483 30.83C103.607 30.662 103.745 30.524 103.897 30.416C104.065 30.28 104.255 30.176 104.467 30.104C104.679 30.032 104.895 29.99 105.115 29.978C105.335 29.962 105.541 29.976 105.733 30.02V31.022C105.509 30.962 105.263 30.946 104.995 30.974C104.727 31.002 104.479 31.1 104.251 31.268C104.043 31.416 103.881 31.596 103.765 31.808C103.653 32.02 103.575 32.25 103.531 32.498C103.487 32.742 103.465 32.992 103.465 33.248V36.5H102.391ZM109.081 36.674C108.309 36.674 107.675 36.506 107.179 36.17C106.687 35.83 106.385 35.356 106.273 34.748L107.365 34.574C107.453 34.926 107.655 35.206 107.971 35.414C108.287 35.618 108.679 35.72 109.147 35.72C109.591 35.72 109.939 35.628 110.191 35.444C110.443 35.26 110.569 35.01 110.569 34.694C110.569 34.51 110.527 34.362 110.443 34.25C110.359 34.134 110.185 34.026 109.921 33.926C109.661 33.826 109.267 33.706 108.739 33.566C108.167 33.414 107.717 33.256 107.389 33.092C107.061 32.928 106.827 32.738 106.687 32.522C106.547 32.306 106.477 32.044 106.477 31.736C106.477 31.356 106.581 31.024 106.789 30.74C106.997 30.452 107.287 30.23 107.659 30.074C108.035 29.918 108.471 29.84 108.967 29.84C109.459 29.84 109.899 29.918 110.287 30.074C110.675 30.23 110.987 30.452 111.223 30.74C111.463 31.024 111.605 31.356 111.649 31.736L110.557 31.934C110.505 31.586 110.337 31.312 110.053 31.112C109.773 30.912 109.411 30.806 108.967 30.794C108.547 30.778 108.205 30.852 107.941 31.016C107.681 31.18 107.551 31.402 107.551 31.682C107.551 31.838 107.599 31.972 107.695 32.084C107.795 32.196 107.977 32.302 108.241 32.402C108.509 32.502 108.897 32.616 109.405 32.744C109.977 32.888 110.427 33.046 110.755 33.218C111.087 33.386 111.323 33.586 111.463 33.818C111.603 34.046 111.673 34.328 111.673 34.664C111.673 35.288 111.443 35.78 110.983 36.14C110.523 36.496 109.889 36.674 109.081 36.674Z" fill="#222222"/>
</g>
<g clip-path="url(#clip5_1_50595)">
<g clip-path="url(#clip6_1_50595)">
<path d="M167.687 0.800781C167.508 0.609375 167.262 0.5 167 0.5C166.738 0.5 166.492 0.609375 166.312 0.800781L162.25 5.17578C161.996 5.44922 161.93 5.84766 162.078 6.1875C162.227 6.52734 162.566 6.75 162.937 6.75H165.125V14.25H162.937C162.566 14.25 162.227 14.4727 162.078 14.8125C161.93 15.1523 161.996 15.5508 162.25 15.8242L166.312 20.1992C166.488 20.3906 166.738 20.5 167 20.5C167.262 20.5 167.508 20.3906 167.687 20.1992L171.75 15.8242C172.004 15.5508 172.07 15.1523 171.922 14.8125C171.773 14.4727 171.434 14.25 171.062 14.25H168.875V6.75H171.062C171.434 6.75 171.773 6.52734 171.922 6.1875C172.07 5.84766 172.004 5.44922 171.75 5.17578L167.687 0.800781Z" fill="#8DC63F"/>
</g>
<path d="M151.396 36.68C150.952 36.68 150.538 36.588 150.154 36.404C149.774 36.22 149.448 35.968 149.176 35.648C148.908 35.324 148.716 34.952 148.6 34.532L149.626 34.256C149.698 34.54 149.826 34.786 150.01 34.994C150.194 35.198 150.408 35.358 150.652 35.474C150.9 35.586 151.158 35.642 151.426 35.642C151.778 35.642 152.094 35.558 152.374 35.39C152.658 35.218 152.882 34.992 153.046 34.712C153.21 34.428 153.292 34.118 153.292 33.782C153.292 33.434 153.206 33.12 153.034 32.84C152.866 32.556 152.64 32.332 152.356 32.168C152.072 32.004 151.762 31.922 151.426 31.922C151.046 31.922 150.72 32.002 150.448 32.162C150.18 32.318 149.968 32.51 149.812 32.738L148.864 32.378L149.128 27.86H153.766V28.874H149.644L150.118 28.43L149.896 32.048L149.662 31.742C149.902 31.486 150.188 31.288 150.52 31.148C150.856 31.008 151.198 30.938 151.546 30.938C152.082 30.938 152.562 31.064 152.986 31.316C153.41 31.564 153.746 31.904 153.994 32.336C154.242 32.764 154.366 33.246 154.366 33.782C154.366 34.314 154.23 34.8 153.958 35.24C153.686 35.676 153.324 36.026 152.872 36.29C152.424 36.55 151.932 36.68 151.396 36.68ZM155.993 36.5V35.324H157.169V36.5H155.993ZM161.735 36.68C161.183 36.68 160.695 36.57 160.271 36.35C159.847 36.126 159.515 35.816 159.275 35.42C159.035 35.024 158.915 34.562 158.915 34.034C158.915 33.518 159.037 33.052 159.281 32.636C159.529 32.22 159.901 31.9 160.397 31.676L160.379 32.066C159.975 31.87 159.665 31.594 159.449 31.238C159.233 30.878 159.125 30.48 159.125 30.044C159.125 29.556 159.237 29.136 159.461 28.784C159.685 28.432 159.993 28.16 160.385 27.968C160.777 27.776 161.227 27.68 161.735 27.68C162.243 27.68 162.693 27.776 163.085 27.968C163.477 28.16 163.785 28.432 164.009 28.784C164.233 29.136 164.345 29.556 164.345 30.044C164.345 30.48 164.243 30.876 164.039 31.232C163.835 31.584 163.521 31.862 163.097 32.066L163.073 31.682C163.569 31.898 163.941 32.216 164.189 32.636C164.441 33.052 164.567 33.518 164.567 34.034C164.567 34.562 164.445 35.024 164.201 35.42C163.961 35.816 163.627 36.126 163.199 36.35C162.775 36.57 162.287 36.68 161.735 36.68ZM161.735 35.66C162.239 35.66 162.647 35.522 162.959 35.246C163.275 34.966 163.433 34.562 163.433 34.034C163.433 33.502 163.277 33.098 162.965 32.822C162.657 32.542 162.247 32.402 161.735 32.402C161.227 32.402 160.817 32.542 160.505 32.822C160.197 33.098 160.043 33.502 160.043 34.034C160.043 34.562 160.199 34.966 160.511 35.246C160.823 35.522 161.231 35.66 161.735 35.66ZM161.735 31.376C162.175 31.376 162.531 31.266 162.803 31.046C163.075 30.822 163.211 30.488 163.211 30.044C163.211 29.6 163.075 29.268 162.803 29.048C162.531 28.824 162.175 28.712 161.735 28.712C161.299 28.712 160.943 28.824 160.667 29.048C160.395 29.268 160.259 29.6 160.259 30.044C160.259 30.488 160.395 30.822 160.667 31.046C160.943 31.266 161.299 31.376 161.735 31.376ZM168.528 36.5V27.86H173.568V28.928H169.596V31.646H172.848V32.714H169.596V36.5H168.528ZM178.263 36.5C177.879 36.576 177.499 36.606 177.123 36.59C176.751 36.578 176.419 36.504 176.127 36.368C175.835 36.228 175.613 36.012 175.461 35.72C175.333 35.464 175.263 35.206 175.251 34.946C175.243 34.682 175.239 34.384 175.239 34.052V28.22H176.307V34.004C176.307 34.268 176.309 34.494 176.313 34.682C176.321 34.87 176.363 35.032 176.439 35.168C176.583 35.424 176.811 35.574 177.123 35.618C177.439 35.662 177.819 35.65 178.263 35.582V36.5ZM173.925 30.902V30.02H178.263V30.902H173.925ZM181.75 34.91V32.618H179.458V31.736H181.75V29.45H182.632V31.736H184.918V32.618H182.632V34.91H181.75Z" fill="#222222"/>
</g>
<g clip-path="url(#clip7_1_50595)">
<g clip-path="url(#clip8_1_50595)">
<path d="M237.5 21C240.285 21 242.955 19.8938 244.925 17.9246C246.894 15.9555 248 13.2848 248 10.5C248 7.71523 246.894 5.04451 244.925 3.07538C242.955 1.10625 240.285 0 237.5 0C234.715 0 232.045 1.10625 230.075 3.07538C228.106 5.04451 227 7.71523 227 10.5C227 13.2848 228.106 15.9555 230.075 17.9246C232.045 19.8938 234.715 21 237.5 21ZM237.5 6.5625C238.544 6.5625 239.546 6.97734 240.284 7.71577C241.023 8.45419 241.438 9.45571 241.438 10.5C241.438 11.5443 241.023 12.5458 240.284 13.2842C239.546 14.0227 238.544 14.4375 237.5 14.4375C236.456 14.4375 235.454 14.0227 234.716 13.2842C233.977 12.5458 233.562 11.5443 233.562 10.5C233.562 9.45571 233.977 8.45419 234.716 7.71577C235.454 6.97734 236.456 6.5625 237.5 6.5625Z" fill="#8DC63F"/>
</g>
<path d="M221.6 36.994L221.606 36.034L225.44 32.584C225.76 32.296 225.974 32.024 226.082 31.768C226.194 31.508 226.25 31.242 226.25 30.97C226.25 30.638 226.174 30.338 226.022 30.07C225.87 29.802 225.662 29.59 225.398 29.434C225.138 29.278 224.842 29.2 224.51 29.2C224.166 29.2 223.86 29.282 223.592 29.446C223.324 29.606 223.112 29.82 222.956 30.088C222.804 30.356 222.73 30.648 222.734 30.964H221.642C221.642 30.42 221.768 29.94 222.02 29.524C222.272 29.104 222.614 28.776 223.046 28.54C223.482 28.3 223.976 28.18 224.528 28.18C225.064 28.18 225.544 28.304 225.968 28.552C226.392 28.796 226.726 29.13 226.97 29.554C227.218 29.974 227.342 30.45 227.342 30.982C227.342 31.358 227.294 31.684 227.198 31.96C227.106 32.236 226.962 32.492 226.766 32.728C226.57 32.96 226.324 33.208 226.028 33.472L222.842 36.334L222.704 35.974H227.342V36.994H221.6ZM231.604 28.186C232.156 28.186 232.654 28.318 233.098 28.582C233.542 28.846 233.894 29.206 234.154 29.662C234.418 30.118 234.549 30.636 234.549 31.216V34.09C234.549 34.694 234.42 35.228 234.16 35.692C233.9 36.156 233.54 36.52 233.08 36.784C232.624 37.048 232.1 37.18 231.508 37.18C231.036 37.18 230.594 37.082 230.182 36.886C229.774 36.69 229.428 36.412 229.144 36.052L229.942 35.344C230.118 35.592 230.344 35.792 230.62 35.944C230.896 36.092 231.192 36.166 231.508 36.166C231.892 36.166 232.23 36.074 232.522 35.89C232.818 35.706 233.048 35.466 233.212 35.17C233.38 34.874 233.464 34.554 233.464 34.21V32.476L233.698 32.74C233.45 33.1 233.132 33.388 232.744 33.604C232.356 33.82 231.934 33.928 231.478 33.928C230.942 33.928 230.462 33.802 230.038 33.55C229.614 33.298 229.278 32.958 229.03 32.53C228.782 32.098 228.658 31.614 228.658 31.078C228.658 30.542 228.792 30.056 229.06 29.62C229.328 29.18 229.684 28.832 230.128 28.576C230.576 28.316 231.068 28.186 231.604 28.186ZM231.604 29.218C231.26 29.218 230.946 29.302 230.662 29.47C230.382 29.634 230.158 29.858 229.99 30.142C229.822 30.422 229.738 30.734 229.738 31.078C229.738 31.422 229.82 31.736 229.984 32.02C230.152 32.3 230.376 32.524 230.656 32.692C230.94 32.86 231.254 32.944 231.598 32.944C231.942 32.944 232.256 32.86 232.54 32.692C232.824 32.524 233.048 32.3 233.212 32.02C233.38 31.736 233.464 31.422 233.464 31.078C233.464 30.738 233.38 30.428 233.212 30.148C233.048 29.864 232.824 29.638 232.54 29.47C232.26 29.302 231.948 29.218 231.604 29.218ZM236.235 37V35.824H237.411V37H236.235ZM242.194 37.18C241.634 37.18 241.134 37.054 240.694 36.802C240.258 36.546 239.912 36.2 239.656 35.764C239.404 35.324 239.278 34.824 239.278 34.264V31.096C239.278 30.536 239.404 30.036 239.656 29.596C239.912 29.156 240.258 28.81 240.694 28.558C241.134 28.306 241.634 28.18 242.194 28.18C242.754 28.18 243.254 28.306 243.694 28.558C244.134 28.81 244.48 29.156 244.732 29.596C244.984 30.036 245.11 30.536 245.11 31.096V34.264C245.11 34.824 244.984 35.324 244.732 35.764C244.48 36.2 244.134 36.546 243.694 36.802C243.254 37.054 242.754 37.18 242.194 37.18ZM242.194 36.154C242.534 36.154 242.842 36.072 243.118 35.908C243.394 35.744 243.614 35.524 243.778 35.248C243.942 34.968 244.024 34.66 244.024 34.324V31.03C244.024 30.69 243.942 30.382 243.778 30.106C243.614 29.83 243.394 29.61 243.118 29.446C242.842 29.282 242.534 29.2 242.194 29.2C241.858 29.2 241.55 29.282 241.27 29.446C240.994 29.61 240.774 29.83 240.61 30.106C240.446 30.382 240.364 30.69 240.364 31.03V34.324C240.364 34.66 240.446 34.968 240.61 35.248C240.774 35.524 240.994 35.744 241.27 35.908C241.55 36.072 241.858 36.154 242.194 36.154ZM249.705 37.18C249.145 37.18 248.645 37.054 248.205 36.802C247.769 36.546 247.423 36.2 247.167 35.764C246.915 35.324 246.789 34.824 246.789 34.264V31.096C246.789 30.536 246.915 30.036 247.167 29.596C247.423 29.156 247.769 28.81 248.205 28.558C248.645 28.306 249.145 28.18 249.705 28.18C250.265 28.18 250.765 28.306 251.205 28.558C251.645 28.81 251.991 29.156 252.243 29.596C252.495 30.036 252.621 30.536 252.621 31.096V34.264C252.621 34.824 252.495 35.324 252.243 35.764C251.991 36.2 251.645 36.546 251.205 36.802C250.765 37.054 250.265 37.18 249.705 37.18ZM249.705 36.154C250.045 36.154 250.353 36.072 250.629 35.908C250.905 35.744 251.125 35.524 251.289 35.248C251.453 34.968 251.535 34.66 251.535 34.324V31.03C251.535 30.69 251.453 30.382 251.289 30.106C251.125 29.83 250.905 29.61 250.629 29.446C250.353 29.282 250.045 29.2 249.705 29.2C249.369 29.2 249.061 29.282 248.781 29.446C248.505 29.61 248.285 29.83 248.121 30.106C247.957 30.382 247.875 30.69 247.875 31.03V34.324C247.875 34.66 247.957 34.968 248.121 35.248C248.285 35.524 248.505 35.744 248.781 35.908C249.061 36.072 249.369 36.154 249.705 36.154Z" fill="#222222"/>
</g>
</g>
<defs>
<clipPath id="clip0_1_50595">
<rect width="254" height="39" fill="white"/>
</clipPath>
<clipPath id="clip1_1_50595">
<rect width="39" height="38" fill="white" transform="translate(0 0.5)"/>
</clipPath>
<clipPath id="clip2_1_50595">
<rect width="25" height="20" fill="white" transform="translate(7 0.5)"/>
</clipPath>
<clipPath id="clip3_1_50595">
<rect width="39" height="38" fill="white" transform="translate(74 0.5)"/>
</clipPath>
<clipPath id="clip4_1_50595">
<rect width="22" height="20" fill="white" transform="translate(82.5 0.5)"/>
</clipPath>
<clipPath id="clip5_1_50595">
<rect width="38" height="38" fill="white" transform="translate(148 0.5)"/>
</clipPath>
<clipPath id="clip6_1_50595">
<rect width="10" height="20" fill="white" transform="translate(162 0.5)"/>
</clipPath>
<clipPath id="clip7_1_50595">
<rect width="33" height="39" fill="white" transform="translate(221)"/>
</clipPath>
<clipPath id="clip8_1_50595">
<rect width="21" height="21" fill="white" transform="translate(227)"/>
</clipPath>
</defs>
</svg>
