<svg width="318" height="56" viewBox="0 0 318 56" fill="none" xmlns="http://www.w3.org/2000/svg">
<rect width="73.3372" height="56" rx="7" fill="#F1F1F1"/>
<path d="M18.4975 38V32.24H19.0855V34.836H22.2695V32.24H22.8535V38H22.2695V35.4H19.0855V38H18.4975ZM24.0541 32.86V32.2H24.6421V32.86H24.0541ZM24.0541 38V33.68H24.6421V38H24.0541ZM25.7613 35.732V35.228H28.1613V35.732H25.7613ZM30.092 38V32.804H28.08V32.24H32.692V32.804H30.68V38H30.092ZM34.5208 38.12C34.0995 38.12 33.7341 38.0267 33.4248 37.84C33.1181 37.6533 32.8795 37.3907 32.7088 37.052C32.5381 36.7133 32.4528 36.316 32.4528 35.86C32.4528 35.388 32.5368 34.98 32.7048 34.636C32.8728 34.292 33.1088 34.0267 33.4128 33.84C33.7195 33.6533 34.0808 33.56 34.4968 33.56C34.9235 33.56 35.2875 33.6587 35.5888 33.856C35.8901 34.0507 36.1181 34.3307 36.2728 34.696C36.4275 35.0613 36.4981 35.4973 36.4848 36.004H35.8848V35.796C35.8741 35.236 35.7528 34.8133 35.5208 34.528C35.2915 34.2427 34.9555 34.1 34.5128 34.1C34.0488 34.1 33.6928 34.2507 33.4448 34.552C33.1995 34.8533 33.0768 35.2827 33.0768 35.84C33.0768 36.384 33.1995 36.8067 33.4448 37.108C33.6928 37.4067 34.0435 37.556 34.4968 37.556C34.8061 37.556 35.0755 37.4853 35.3048 37.344C35.5368 37.2 35.7195 36.9933 35.8528 36.724L36.4008 36.936C36.2301 37.312 35.9781 37.604 35.6448 37.812C35.3141 38.0173 34.9395 38.12 34.5208 38.12ZM32.8688 36.004V35.512H36.1688V36.004H32.8688ZM40.3753 38V35.796C40.3753 35.556 40.3526 35.336 40.3073 35.136C40.262 34.9333 40.1886 34.7573 40.0873 34.608C39.9886 34.456 39.8593 34.3387 39.6993 34.256C39.542 34.1733 39.35 34.132 39.1233 34.132C38.9153 34.132 38.7313 34.168 38.5713 34.24C38.414 34.312 38.2806 34.416 38.1713 34.552C38.0646 34.6853 37.9833 34.848 37.9273 35.04C37.8713 35.232 37.8433 35.4507 37.8433 35.696L37.4273 35.604C37.4273 35.1613 37.5046 34.7893 37.6593 34.488C37.814 34.1867 38.0273 33.9587 38.2993 33.804C38.5713 33.6493 38.8833 33.572 39.2353 33.572C39.494 33.572 39.7193 33.612 39.9113 33.692C40.106 33.772 40.27 33.88 40.4033 34.016C40.5393 34.152 40.6486 34.308 40.7313 34.484C40.814 34.6573 40.874 34.8427 40.9113 35.04C40.9486 35.2347 40.9673 35.4293 40.9673 35.624V38H40.3753ZM37.2513 38V33.68H37.7833V34.744H37.8433V38H37.2513ZM43.6173 38.116C43.1106 38.116 42.6933 38.0067 42.3653 37.788C42.04 37.5693 41.84 37.2653 41.7653 36.876L42.3653 36.776C42.4293 37.0213 42.5746 37.2173 42.8013 37.364C43.0306 37.508 43.3133 37.58 43.6493 37.58C43.9773 37.58 44.236 37.512 44.4253 37.376C44.6146 37.2373 44.7093 37.0493 44.7093 36.812C44.7093 36.6787 44.6786 36.5707 44.6173 36.488C44.5586 36.4027 44.4373 36.324 44.2533 36.252C44.0693 36.18 43.7946 36.0947 43.4293 35.996C43.0373 35.8893 42.7306 35.7827 42.5093 35.676C42.288 35.5693 42.1306 35.4467 42.0373 35.308C41.944 35.1667 41.8973 34.9947 41.8973 34.792C41.8973 34.5467 41.9666 34.332 42.1053 34.148C42.244 33.9613 42.436 33.8173 42.6813 33.716C42.9266 33.612 43.212 33.56 43.5373 33.56C43.8626 33.56 44.1533 33.6133 44.4093 33.72C44.668 33.824 44.876 33.9707 45.0333 34.16C45.1906 34.3493 45.284 34.5693 45.3133 34.82L44.7133 34.928C44.6733 34.6747 44.5466 34.4747 44.3333 34.328C44.1226 34.1787 43.8546 34.1013 43.5293 34.096C43.2226 34.088 42.9733 34.1467 42.7813 34.272C42.5893 34.3947 42.4933 34.5587 42.4933 34.764C42.4933 34.8787 42.528 34.9773 42.5973 35.06C42.6666 35.14 42.792 35.216 42.9733 35.288C43.1573 35.36 43.4186 35.4387 43.7573 35.524C44.1546 35.6253 44.4666 35.732 44.6933 35.844C44.92 35.956 45.0813 36.088 45.1773 36.24C45.2733 36.392 45.3213 36.58 45.3213 36.804C45.3213 37.212 45.1693 37.5333 44.8653 37.768C44.564 38 44.148 38.116 43.6173 38.116ZM46.2884 32.86V32.2H46.8764V32.86H46.2884ZM46.2884 38V33.68H46.8764V38H46.2884ZM48.1556 38V32.12H48.7436V38H48.1556ZM51.7708 38.12C51.3495 38.12 50.9841 38.0267 50.6748 37.84C50.3681 37.6533 50.1295 37.3907 49.9588 37.052C49.7881 36.7133 49.7028 36.316 49.7028 35.86C49.7028 35.388 49.7868 34.98 49.9548 34.636C50.1228 34.292 50.3588 34.0267 50.6628 33.84C50.9695 33.6533 51.3308 33.56 51.7468 33.56C52.1735 33.56 52.5375 33.6587 52.8388 33.856C53.1401 34.0507 53.3681 34.3307 53.5228 34.696C53.6775 35.0613 53.7481 35.4973 53.7348 36.004H53.1348V35.796C53.1241 35.236 53.0028 34.8133 52.7708 34.528C52.5415 34.2427 52.2055 34.1 51.7628 34.1C51.2988 34.1 50.9428 34.2507 50.6948 34.552C50.4495 34.8533 50.3268 35.2827 50.3268 35.84C50.3268 36.384 50.4495 36.8067 50.6948 37.108C50.9428 37.4067 51.2935 37.556 51.7468 37.556C52.0561 37.556 52.3255 37.4853 52.5548 37.344C52.7868 37.2 52.9695 36.9933 53.1028 36.724L53.6508 36.936C53.4801 37.312 53.2281 37.604 52.8948 37.812C52.5641 38.0173 52.1895 38.12 51.7708 38.12ZM50.1188 36.004V35.512H53.4188V36.004H50.1188ZM28.9584 46.12C28.5558 46.12 28.1931 46.0533 27.8704 45.92C27.5504 45.784 27.2851 45.592 27.0744 45.344C26.8664 45.096 26.7304 44.8013 26.6664 44.46L27.2664 44.36C27.3624 44.7333 27.5651 45.0267 27.8744 45.24C28.1838 45.4507 28.5531 45.556 28.9824 45.556C29.2651 45.556 29.5184 45.512 29.7424 45.424C29.9664 45.3333 30.1424 45.2053 30.2704 45.04C30.3984 44.8747 30.4624 44.6787 30.4624 44.452C30.4624 44.3027 30.4358 44.176 30.3824 44.072C30.3291 43.9653 30.2584 43.8773 30.1704 43.808C30.0824 43.7387 29.9864 43.6813 29.8824 43.636C29.7784 43.588 29.6771 43.5493 29.5784 43.52L28.1184 43.084C27.9424 43.0333 27.7798 42.9693 27.6304 42.892C27.4811 42.812 27.3504 42.7173 27.2384 42.608C27.1291 42.496 27.0438 42.3653 26.9824 42.216C26.9211 42.0667 26.8904 41.896 26.8904 41.704C26.8904 41.3787 26.9758 41.0973 27.1464 40.86C27.3171 40.6227 27.5504 40.44 27.8464 40.312C28.1424 40.184 28.4798 40.1213 28.8584 40.124C29.2424 40.124 29.5851 40.192 29.8864 40.328C30.1904 40.464 30.4411 40.6587 30.6384 40.912C30.8358 41.1627 30.9664 41.46 31.0304 41.804L30.4144 41.916C30.3744 41.6653 30.2824 41.448 30.1384 41.264C29.9944 41.08 29.8104 40.9387 29.5864 40.84C29.3651 40.7387 29.1211 40.6867 28.8544 40.684C28.5958 40.684 28.3651 40.728 28.1624 40.816C27.9624 40.9013 27.8038 41.0187 27.6864 41.168C27.5691 41.3173 27.5104 41.488 27.5104 41.68C27.5104 41.8747 27.5638 42.0307 27.6704 42.148C27.7798 42.2653 27.9131 42.3573 28.0704 42.424C28.2304 42.4907 28.3851 42.5453 28.5344 42.588L29.6624 42.92C29.7798 42.952 29.9171 42.9987 30.0744 43.06C30.2344 43.1187 30.3891 43.204 30.5384 43.316C30.6904 43.4253 30.8158 43.5693 30.9144 43.748C31.0131 43.9267 31.0624 44.1533 31.0624 44.428C31.0624 44.6947 31.0091 44.9333 30.9024 45.144C30.7984 45.3547 30.6504 45.532 30.4584 45.676C30.2691 45.82 30.0464 45.9293 29.7904 46.004C29.5371 46.0813 29.2598 46.12 28.9584 46.12ZM34.2401 46C33.9975 46.0507 33.7575 46.0707 33.5201 46.06C33.2855 46.0493 33.0748 45.9987 32.8881 45.908C32.7041 45.8173 32.5641 45.676 32.4681 45.484C32.3908 45.324 32.3481 45.1627 32.3401 45C32.3348 44.8347 32.3321 44.6467 32.3321 44.436V40.48H32.9161V44.412C32.9161 44.5933 32.9175 44.7453 32.9201 44.868C32.9255 44.988 32.9535 45.0947 33.0041 45.188C33.1001 45.3667 33.2521 45.4733 33.4601 45.508C33.6708 45.5427 33.9308 45.5347 34.2401 45.484V46ZM31.4081 42.184V41.68H34.2401V42.184H31.4081ZM36.763 46.12C36.3417 46.12 35.9763 46.0267 35.667 45.84C35.3603 45.6533 35.1217 45.3907 34.951 45.052C34.7803 44.7133 34.695 44.316 34.695 43.86C34.695 43.388 34.779 42.98 34.947 42.636C35.115 42.292 35.351 42.0267 35.655 41.84C35.9617 41.6533 36.323 41.56 36.739 41.56C37.1657 41.56 37.5297 41.6587 37.831 41.856C38.1323 42.0507 38.3603 42.3307 38.515 42.696C38.6697 43.0613 38.7403 43.4973 38.727 44.004H38.127V43.796C38.1163 43.236 37.995 42.8133 37.763 42.528C37.5337 42.2427 37.1977 42.1 36.755 42.1C36.291 42.1 35.935 42.2507 35.687 42.552C35.4417 42.8533 35.319 43.2827 35.319 43.84C35.319 44.384 35.4417 44.8067 35.687 45.108C35.935 45.4067 36.2857 45.556 36.739 45.556C37.0483 45.556 37.3177 45.4853 37.547 45.344C37.779 45.2 37.9617 44.9933 38.095 44.724L38.643 44.936C38.4723 45.312 38.2203 45.604 37.887 45.812C37.5563 46.0173 37.1817 46.12 36.763 46.12ZM35.111 44.004V43.512H38.411V44.004H35.111ZM41.4427 46.12C41.0214 46.12 40.656 46.0267 40.3467 45.84C40.04 45.6533 39.8014 45.3907 39.6307 45.052C39.46 44.7133 39.3747 44.316 39.3747 43.86C39.3747 43.388 39.4587 42.98 39.6267 42.636C39.7947 42.292 40.0307 42.0267 40.3347 41.84C40.6414 41.6533 41.0027 41.56 41.4187 41.56C41.8454 41.56 42.2094 41.6587 42.5107 41.856C42.812 42.0507 43.04 42.3307 43.1947 42.696C43.3494 43.0613 43.42 43.4973 43.4067 44.004H42.8067V43.796C42.796 43.236 42.6747 42.8133 42.4427 42.528C42.2134 42.2427 41.8774 42.1 41.4347 42.1C40.9707 42.1 40.6147 42.2507 40.3667 42.552C40.1214 42.8533 39.9987 43.2827 39.9987 43.84C39.9987 44.384 40.1214 44.8067 40.3667 45.108C40.6147 45.4067 40.9654 45.556 41.4187 45.556C41.728 45.556 41.9974 45.4853 42.2267 45.344C42.4587 45.2 42.6414 44.9933 42.7747 44.724L43.3227 44.936C43.152 45.312 42.9 45.604 42.5667 45.812C42.236 46.0173 41.8614 46.12 41.4427 46.12ZM39.7907 44.004V43.512H43.0907V44.004H39.7907ZM44.3744 46V40.12H44.9624V46H44.3744Z" fill="#222222"/>
<path d="M13.3696 23.4243V13.3443H19.4386V15.0313H15.0566V17.5443H18.5986V19.2243H15.0566V23.4243H13.3696ZM20.6978 23.4243V13.3443H24.8628C24.9608 13.3443 25.0868 13.349 25.2408 13.3583C25.3948 13.363 25.5371 13.377 25.6678 13.4003C26.2511 13.489 26.7318 13.6826 27.1098 13.9813C27.4924 14.28 27.7748 14.658 27.9568 15.1153C28.1434 15.568 28.2368 16.072 28.2368 16.6273C28.2368 17.4486 28.0291 18.1556 27.6138 18.7483C27.1984 19.3363 26.5614 19.7003 25.7028 19.8403L24.9818 19.9033H22.3848V23.4243H20.6978ZM26.4868 23.4243L24.4988 19.3223L26.2138 18.9443L28.3978 23.4243H26.4868ZM22.3848 18.3283H24.7928C24.8861 18.3283 24.9911 18.3236 25.1078 18.3143C25.2244 18.305 25.3318 18.2863 25.4298 18.2583C25.7098 18.1883 25.9291 18.0646 26.0878 17.8873C26.2511 17.71 26.3654 17.5093 26.4308 17.2853C26.5008 17.0613 26.5358 16.842 26.5358 16.6273C26.5358 16.4126 26.5008 16.1933 26.4308 15.9693C26.3654 15.7406 26.2511 15.5376 26.0878 15.3603C25.9291 15.183 25.7098 15.0593 25.4298 14.9893C25.3318 14.9613 25.2244 14.945 25.1078 14.9403C24.9911 14.931 24.8861 14.9263 24.7928 14.9263H22.3848V18.3283ZM29.24 23.4243L32.418 13.3443H34.889L38.067 23.4243H36.331L33.447 14.3803H33.825L30.976 23.4243H29.24ZM31.011 21.2403V19.6653H36.303V21.2403H31.011ZM39.3325 23.4243V13.3443H40.8515L44.3375 20.4843L47.8235 13.3443H49.3425V23.4243H47.7675V16.9633L44.6735 23.4243H44.0015L40.9145 16.9633V23.4243H39.3325ZM51.3091 23.4243V13.3443H57.8191V14.9263H52.9961V17.4113H56.9791V18.9933H52.9961V21.8423H57.8191V23.4243H51.3091Z" fill="#222222"/>
<rect x="244.662" width="73.3372" height="56" rx="7" fill="#F1F1F1"/>
<g clip-path="url(#clip0_1324_212)">
<path d="M264.431 37.996L264.435 37.46L267.039 35.108C267.263 34.9053 267.411 34.7133 267.483 34.532C267.558 34.348 267.595 34.156 267.595 33.956C267.595 33.7187 267.539 33.504 267.427 33.312C267.315 33.12 267.165 32.968 266.975 32.856C266.786 32.7413 266.574 32.684 266.339 32.684C266.094 32.684 265.875 32.7427 265.683 32.86C265.491 32.9773 265.339 33.132 265.227 33.324C265.118 33.516 265.065 33.7253 265.067 33.952H264.467C264.467 33.6027 264.55 33.2893 264.715 33.012C264.881 32.7347 265.105 32.5173 265.387 32.36C265.67 32.2 265.99 32.12 266.347 32.12C266.697 32.12 267.01 32.2027 267.287 32.368C267.567 32.5307 267.787 32.752 267.947 33.032C268.11 33.3093 268.191 33.6187 268.191 33.96C268.191 34.2 268.162 34.412 268.103 34.596C268.047 34.7773 267.958 34.9467 267.835 35.104C267.715 35.2587 267.562 35.4187 267.375 35.584L265.063 37.672L264.971 37.432H268.191V37.996H264.431ZM271.102 38.12C270.742 38.12 270.414 38.0333 270.118 37.86C269.824 37.684 269.59 37.4467 269.414 37.148C269.24 36.8467 269.154 36.508 269.154 36.132V34.136C269.154 33.7493 269.24 33.4053 269.414 33.104C269.587 32.8 269.823 32.5613 270.122 32.388C270.423 32.212 270.764 32.124 271.146 32.124C271.474 32.124 271.778 32.196 272.058 32.34C272.34 32.484 272.571 32.6853 272.75 32.944L272.298 33.316C272.175 33.124 272.012 32.9707 271.81 32.856C271.607 32.7413 271.386 32.684 271.146 32.684C270.876 32.684 270.636 32.7493 270.426 32.88C270.215 33.0107 270.05 33.1827 269.93 33.396C269.81 33.6067 269.75 33.836 269.75 34.084V35.34L269.602 35.172C269.77 34.908 269.99 34.6947 270.262 34.532C270.536 34.3693 270.835 34.288 271.158 34.288C271.515 34.288 271.836 34.3733 272.122 34.544C272.407 34.712 272.634 34.94 272.802 35.228C272.97 35.516 273.054 35.8387 273.054 36.196C273.054 36.5507 272.964 36.8733 272.786 37.164C272.61 37.4547 272.374 37.6867 272.078 37.86C271.784 38.0333 271.459 38.12 271.102 38.12ZM271.102 37.548C271.352 37.548 271.58 37.488 271.786 37.368C271.994 37.248 272.158 37.0853 272.278 36.88C272.4 36.6747 272.462 36.4467 272.462 36.196C272.462 35.9453 272.4 35.7173 272.278 35.512C272.158 35.304 271.995 35.14 271.79 35.02C271.584 34.8973 271.356 34.836 271.106 34.836C270.855 34.836 270.627 34.8973 270.422 35.02C270.216 35.14 270.052 35.304 269.93 35.512C269.81 35.7173 269.75 35.9453 269.75 36.196C269.75 36.444 269.81 36.6707 269.93 36.876C270.05 37.0813 270.212 37.2453 270.418 37.368C270.623 37.488 270.851 37.548 271.102 37.548ZM275.236 38L277.232 35.084L275.288 32.24H276L277.58 34.592L279.16 32.24H279.876L277.932 35.084L279.924 38H279.212L277.58 35.58L275.952 38H275.236ZM282.009 37.996L282.013 37.46L284.617 35.108C284.841 34.9053 284.989 34.7133 285.061 34.532C285.136 34.348 285.173 34.156 285.173 33.956C285.173 33.7187 285.117 33.504 285.005 33.312C284.893 33.12 284.743 32.968 284.553 32.856C284.364 32.7413 284.152 32.684 283.917 32.684C283.672 32.684 283.453 32.7427 283.261 32.86C283.069 32.9773 282.917 33.132 282.805 33.324C282.696 33.516 282.643 33.7253 282.645 33.952H282.045C282.045 33.6027 282.128 33.2893 282.293 33.012C282.459 32.7347 282.683 32.5173 282.965 32.36C283.248 32.2 283.568 32.12 283.925 32.12C284.275 32.12 284.588 32.2027 284.865 32.368C285.145 32.5307 285.365 32.752 285.525 33.032C285.688 33.3093 285.769 33.6187 285.769 33.96C285.769 34.2 285.74 34.412 285.681 34.596C285.625 34.7773 285.536 34.9467 285.413 35.104C285.293 35.2587 285.14 35.4187 284.953 35.584L282.641 37.672L282.549 37.432H285.769V37.996H282.009ZM286.844 38V37.316H287.528V38H286.844ZM290.643 38.12C290.288 38.12 289.968 38.0373 289.683 37.872C289.4 37.7067 289.176 37.4827 289.011 37.2C288.846 36.9147 288.763 36.5947 288.763 36.24V34C288.763 33.6453 288.846 33.3267 289.011 33.044C289.176 32.7587 289.4 32.5333 289.683 32.368C289.968 32.2027 290.288 32.12 290.643 32.12C290.998 32.12 291.316 32.2027 291.599 32.368C291.884 32.5333 292.11 32.7587 292.275 33.044C292.44 33.3267 292.523 33.6453 292.523 34V36.24C292.523 36.5947 292.44 36.9147 292.275 37.2C292.11 37.4827 291.884 37.7067 291.599 37.872C291.316 38.0373 290.998 38.12 290.643 38.12ZM290.643 37.552C290.88 37.552 291.096 37.4947 291.291 37.38C291.486 37.2627 291.64 37.1067 291.755 36.912C291.87 36.7173 291.927 36.5027 291.927 36.268V33.972C291.927 33.7347 291.87 33.5187 291.755 33.324C291.64 33.1293 291.486 32.9747 291.291 32.86C291.096 32.7427 290.88 32.684 290.643 32.684C290.406 32.684 290.19 32.7427 289.995 32.86C289.8 32.9747 289.646 33.1293 289.531 33.324C289.416 33.5187 289.359 33.7347 289.359 33.972V36.268C289.359 36.5027 289.416 36.7173 289.531 36.912C289.646 37.1067 289.8 37.2627 289.995 37.38C290.19 37.4947 290.406 37.552 290.643 37.552ZM295.526 38.12C295.171 38.12 294.851 38.0373 294.566 37.872C294.283 37.7067 294.059 37.4827 293.894 37.2C293.729 36.9147 293.646 36.5947 293.646 36.24V34C293.646 33.6453 293.729 33.3267 293.894 33.044C294.059 32.7587 294.283 32.5333 294.566 32.368C294.851 32.2027 295.171 32.12 295.526 32.12C295.881 32.12 296.199 32.2027 296.482 32.368C296.767 32.5333 296.993 32.7587 297.158 33.044C297.323 33.3267 297.406 33.6453 297.406 34V36.24C297.406 36.5947 297.323 36.9147 297.158 37.2C296.993 37.4827 296.767 37.7067 296.482 37.872C296.199 38.0373 295.881 38.12 295.526 38.12ZM295.526 37.552C295.763 37.552 295.979 37.4947 296.174 37.38C296.369 37.2627 296.523 37.1067 296.638 36.912C296.753 36.7173 296.81 36.5027 296.81 36.268V33.972C296.81 33.7347 296.753 33.5187 296.638 33.324C296.523 33.1293 296.369 32.9747 296.174 32.86C295.979 32.7427 295.763 32.684 295.526 32.684C295.289 32.684 295.073 32.7427 294.878 32.86C294.683 32.9747 294.529 33.1293 294.414 33.324C294.299 33.5187 294.242 33.7347 294.242 33.972V36.268C294.242 36.5027 294.299 36.7173 294.414 36.912C294.529 37.1067 294.683 37.2627 294.878 37.38C295.073 37.4947 295.289 37.552 295.526 37.552ZM271.037 46V40.24H271.629L274.801 44.96V40.24H275.393V46H274.801L271.629 41.276V46H271.037ZM277.129 47.92L277.965 45.652L277.977 46.324L276.085 41.68H276.709L278.261 45.564H278.005L279.437 41.68H280.037L277.717 47.92H277.129ZM280.812 46V40.12H281.4V46H280.812ZM284.403 46.12C283.974 46.12 283.607 46.0227 283.303 45.828C282.999 45.6333 282.766 45.364 282.603 45.02C282.44 44.676 282.359 44.2813 282.359 43.836C282.359 43.3827 282.442 42.9853 282.607 42.644C282.772 42.3027 283.007 42.0373 283.311 41.848C283.618 41.656 283.982 41.56 284.403 41.56C284.835 41.56 285.203 41.6573 285.507 41.852C285.814 42.044 286.047 42.312 286.207 42.656C286.37 42.9973 286.451 43.3907 286.451 43.836C286.451 44.2893 286.37 44.688 286.207 45.032C286.044 45.3733 285.81 45.64 285.503 45.832C285.196 46.024 284.83 46.12 284.403 46.12ZM284.403 45.556C284.883 45.556 285.24 45.3973 285.475 45.08C285.71 44.76 285.827 44.3453 285.827 43.836C285.827 43.3133 285.708 42.8973 285.471 42.588C285.236 42.2787 284.88 42.124 284.403 42.124C284.08 42.124 283.814 42.1973 283.603 42.344C283.395 42.488 283.239 42.6893 283.135 42.948C283.034 43.204 282.983 43.5 282.983 43.836C282.983 44.356 283.103 44.7733 283.343 45.088C283.583 45.4 283.936 45.556 284.403 45.556ZM290.453 46V43.796C290.453 43.556 290.431 43.336 290.385 43.136C290.34 42.9333 290.267 42.7573 290.165 42.608C290.067 42.456 289.937 42.3387 289.777 42.256C289.62 42.1733 289.428 42.132 289.201 42.132C288.993 42.132 288.809 42.168 288.649 42.24C288.492 42.312 288.359 42.416 288.249 42.552C288.143 42.6853 288.061 42.848 288.005 43.04C287.949 43.232 287.921 43.4507 287.921 43.696L287.505 43.604C287.505 43.1613 287.583 42.7893 287.737 42.488C287.892 42.1867 288.105 41.9587 288.377 41.804C288.649 41.6493 288.961 41.572 289.313 41.572C289.572 41.572 289.797 41.612 289.989 41.692C290.184 41.772 290.348 41.88 290.481 42.016C290.617 42.152 290.727 42.308 290.809 42.484C290.892 42.6573 290.952 42.8427 290.989 43.04C291.027 43.2347 291.045 43.4293 291.045 43.624V46H290.453ZM287.329 46V41.68H287.861V42.744H287.921V46H287.329Z" fill="#222222"/>
</g>
<path d="M261.402 23V14.502H258.14V12.92H266.351V14.502H263.089V23H261.402ZM270.344 23V18.87L266.914 12.92H268.881L271.198 16.938L273.508 12.92H275.475L272.052 18.87V23H270.344ZM276.453 23V12.92H280.618C280.716 12.92 280.842 12.9247 280.996 12.934C281.15 12.9387 281.292 12.9527 281.423 12.976C282.006 13.0647 282.487 13.2583 282.865 13.557C283.247 13.8557 283.53 14.2337 283.712 14.691C283.898 15.1437 283.992 15.6477 283.992 16.203C283.992 17.0243 283.784 17.7313 283.369 18.324C282.953 18.912 282.316 19.276 281.458 19.416L280.737 19.479H278.14V23H276.453ZM282.242 23L280.254 18.898L281.969 18.52L284.153 23H282.242ZM278.14 17.904H280.548C280.641 17.904 280.746 17.8993 280.863 17.89C280.979 17.8807 281.087 17.862 281.185 17.834C281.465 17.764 281.684 17.6403 281.843 17.463C282.006 17.2857 282.12 17.085 282.186 16.861C282.256 16.637 282.291 16.4177 282.291 16.203C282.291 15.9883 282.256 15.769 282.186 15.545C282.12 15.3163 282.006 15.1133 281.843 14.936C281.684 14.7587 281.465 14.635 281.185 14.565C281.087 14.537 280.979 14.5207 280.863 14.516C280.746 14.5067 280.641 14.502 280.548 14.502H278.14V17.904ZM285.695 23V12.92H292.205V14.502H287.382V16.987H291.365V18.569H287.382V21.418H292.205V23H285.695ZM297.52 23.21C296.782 23.21 296.117 23.0817 295.525 22.825C294.937 22.5683 294.451 22.202 294.069 21.726C293.691 21.2453 293.45 20.676 293.348 20.018L295.098 19.752C295.247 20.3493 295.553 20.8113 296.015 21.138C296.481 21.4647 297.018 21.628 297.625 21.628C297.984 21.628 298.322 21.572 298.64 21.46C298.957 21.348 299.214 21.1847 299.41 20.97C299.61 20.7553 299.711 20.4917 299.711 20.179C299.711 20.039 299.687 19.9107 299.641 19.794C299.594 19.6727 299.524 19.5653 299.431 19.472C299.342 19.3787 299.225 19.2947 299.081 19.22C298.941 19.1407 298.777 19.073 298.591 19.017L295.987 18.247C295.763 18.1817 295.52 18.0953 295.259 17.988C295.002 17.876 294.757 17.7243 294.524 17.533C294.295 17.337 294.106 17.0897 293.957 16.791C293.812 16.4877 293.74 16.1143 293.74 15.671C293.74 15.0223 293.903 14.4787 294.23 14.04C294.561 13.5967 295.004 13.2653 295.56 13.046C296.12 12.8267 296.74 12.7193 297.422 12.724C298.112 12.7287 298.728 12.8477 299.27 13.081C299.811 13.3097 300.264 13.6433 300.628 14.082C300.992 14.5207 301.248 15.0503 301.398 15.671L299.585 15.986C299.51 15.6313 299.365 15.3303 299.151 15.083C298.941 14.831 298.682 14.6397 298.374 14.509C298.07 14.3783 297.746 14.3083 297.401 14.299C297.065 14.2943 296.752 14.3457 296.463 14.453C296.178 14.5557 295.947 14.705 295.77 14.901C295.597 15.097 295.511 15.3257 295.511 15.587C295.511 15.8343 295.585 16.0373 295.735 16.196C295.884 16.35 296.068 16.4737 296.288 16.567C296.512 16.6557 296.738 16.7303 296.967 16.791L298.773 17.295C299.02 17.3603 299.298 17.449 299.606 17.561C299.914 17.673 300.21 17.8293 300.495 18.03C300.779 18.2307 301.013 18.4943 301.195 18.821C301.381 19.1477 301.475 19.563 301.475 20.067C301.475 20.5897 301.365 21.0493 301.146 21.446C300.931 21.838 300.639 22.1647 300.271 22.426C299.902 22.6873 299.48 22.8833 299.004 23.014C298.532 23.1447 298.038 23.21 297.52 23.21Z" fill="#222222"/>
<rect x="81.3496" width="73.3372" height="56" rx="7" fill="#F1F1F1"/>
<g clip-path="url(#clip1_1324_212)">
<path d="M98.8178 38.12C98.4151 38.12 98.0525 38.0533 97.7298 37.92C97.4098 37.784 97.1445 37.592 96.9338 37.344C96.7258 37.096 96.5898 36.8013 96.5258 36.46L97.1258 36.36C97.2218 36.7333 97.4245 37.0267 97.7338 37.24C98.0431 37.4507 98.4125 37.556 98.8418 37.556C99.1245 37.556 99.3778 37.512 99.6018 37.424C99.8258 37.3333 100.002 37.2053 100.13 37.04C100.258 36.8747 100.322 36.6787 100.322 36.452C100.322 36.3027 100.295 36.176 100.242 36.072C100.188 35.9653 100.118 35.8773 100.03 35.808C99.9418 35.7387 99.8458 35.6813 99.7418 35.636C99.6378 35.588 99.5365 35.5493 99.4378 35.52L97.9778 35.084C97.8018 35.0333 97.6391 34.9693 97.4898 34.892C97.3405 34.812 97.2098 34.7173 97.0978 34.608C96.9885 34.496 96.9031 34.3653 96.8418 34.216C96.7805 34.0667 96.7498 33.896 96.7498 33.704C96.7498 33.3787 96.8351 33.0973 97.0058 32.86C97.1765 32.6227 97.4098 32.44 97.7058 32.312C98.0018 32.184 98.3391 32.1213 98.7178 32.124C99.1018 32.124 99.4445 32.192 99.7458 32.328C100.05 32.464 100.3 32.6587 100.498 32.912C100.695 33.1627 100.826 33.46 100.89 33.804L100.274 33.916C100.234 33.6653 100.142 33.448 99.9978 33.264C99.8538 33.08 99.6698 32.9387 99.4458 32.84C99.2245 32.7387 98.9805 32.6867 98.7138 32.684C98.4551 32.684 98.2245 32.728 98.0218 32.816C97.8218 32.9013 97.6631 33.0187 97.5458 33.168C97.4285 33.3173 97.3698 33.488 97.3698 33.68C97.3698 33.8747 97.4231 34.0307 97.5298 34.148C97.6391 34.2653 97.7725 34.3573 97.9298 34.424C98.0898 34.4907 98.2445 34.5453 98.3938 34.588L99.5218 34.92C99.6391 34.952 99.7765 34.9987 99.9338 35.06C100.094 35.1187 100.248 35.204 100.398 35.316C100.55 35.4253 100.675 35.5693 100.774 35.748C100.872 35.9267 100.922 36.1533 100.922 36.428C100.922 36.6947 100.868 36.9333 100.762 37.144C100.658 37.3547 100.51 37.532 100.318 37.676C100.128 37.82 99.9058 37.9293 99.6498 38.004C99.3965 38.0813 99.1191 38.12 98.8178 38.12ZM103.4 38.108C103.141 38.108 102.914 38.068 102.72 37.988C102.528 37.908 102.364 37.8 102.228 37.664C102.094 37.528 101.986 37.3733 101.904 37.2C101.821 37.024 101.761 36.8387 101.724 36.644C101.686 36.4467 101.668 36.2507 101.668 36.056V33.68H102.26V35.884C102.26 36.1213 102.282 36.3413 102.328 36.544C102.373 36.7467 102.445 36.924 102.544 37.076C102.645 37.2253 102.774 37.3413 102.932 37.424C103.092 37.5067 103.285 37.548 103.512 37.548C103.72 37.548 103.902 37.512 104.06 37.44C104.22 37.368 104.353 37.2653 104.46 37.132C104.569 36.996 104.652 36.832 104.708 36.64C104.764 36.4453 104.792 36.2267 104.792 35.984L105.207 36.076C105.207 36.5187 105.13 36.8907 104.976 37.192C104.821 37.4933 104.608 37.7213 104.336 37.876C104.064 38.0307 103.752 38.108 103.4 38.108ZM104.852 38V36.936H104.792V33.68H105.38V38H104.852ZM108.11 38.116C107.603 38.116 107.186 38.0067 106.858 37.788C106.532 37.5693 106.332 37.2653 106.258 36.876L106.858 36.776C106.922 37.0213 107.067 37.2173 107.294 37.364C107.523 37.508 107.806 37.58 108.141 37.58C108.47 37.58 108.728 37.512 108.918 37.376C109.107 37.2373 109.202 37.0493 109.202 36.812C109.202 36.6787 109.171 36.5707 109.11 36.488C109.051 36.4027 108.93 36.324 108.746 36.252C108.562 36.18 108.287 36.0947 107.922 35.996C107.53 35.8893 107.223 35.7827 107.002 35.676C106.78 35.5693 106.623 35.4467 106.53 35.308C106.436 35.1667 106.39 34.9947 106.39 34.792C106.39 34.5467 106.459 34.332 106.598 34.148C106.736 33.9613 106.928 33.8173 107.174 33.716C107.419 33.612 107.704 33.56 108.03 33.56C108.355 33.56 108.646 33.6133 108.902 33.72C109.16 33.824 109.368 33.9707 109.526 34.16C109.683 34.3493 109.776 34.5693 109.806 34.82L109.206 34.928C109.166 34.6747 109.039 34.4747 108.826 34.328C108.615 34.1787 108.347 34.1013 108.022 34.096C107.715 34.088 107.466 34.1467 107.274 34.272C107.082 34.3947 106.986 34.5587 106.986 34.764C106.986 34.8787 107.02 34.9773 107.09 35.06C107.159 35.14 107.284 35.216 107.466 35.288C107.65 35.36 107.911 35.4387 108.25 35.524C108.647 35.6253 108.959 35.732 109.186 35.844C109.412 35.956 109.574 36.088 109.67 36.24C109.766 36.392 109.814 36.58 109.814 36.804C109.814 37.212 109.662 37.5333 109.358 37.768C109.056 38 108.64 38.116 108.11 38.116ZM112.641 38.12C112.243 38.12 111.907 38.02 111.633 37.82C111.358 37.6173 111.15 37.344 111.009 37C110.867 36.6533 110.797 36.2653 110.797 35.836C110.797 35.3987 110.867 35.0093 111.009 34.668C111.153 34.324 111.363 34.0533 111.641 33.856C111.918 33.6587 112.259 33.56 112.665 33.56C113.059 33.56 113.398 33.66 113.681 33.86C113.963 34.06 114.179 34.332 114.329 34.676C114.481 35.02 114.557 35.4067 114.557 35.836C114.557 36.268 114.481 36.656 114.329 37C114.177 37.344 113.958 37.6173 113.673 37.82C113.387 38.02 113.043 38.12 112.641 38.12ZM110.697 39.92V33.68H111.225V36.932H111.289V39.92H110.697ZM112.581 37.572C112.882 37.572 113.133 37.496 113.333 37.344C113.533 37.192 113.682 36.9853 113.781 36.724C113.882 36.46 113.933 36.164 113.933 35.836C113.933 35.5107 113.883 35.2173 113.785 34.956C113.686 34.6947 113.535 34.488 113.333 34.336C113.133 34.184 112.878 34.108 112.569 34.108C112.267 34.108 112.017 34.1813 111.817 34.328C111.619 34.4747 111.471 34.6787 111.373 34.94C111.274 35.1987 111.225 35.4973 111.225 35.836C111.225 36.1693 111.274 36.468 111.373 36.732C111.471 36.9933 111.621 37.1987 111.821 37.348C112.021 37.4973 112.274 37.572 112.581 37.572ZM117.263 38.12C116.842 38.12 116.476 38.0267 116.167 37.84C115.86 37.6533 115.622 37.3907 115.451 37.052C115.28 36.7133 115.195 36.316 115.195 35.86C115.195 35.388 115.279 34.98 115.447 34.636C115.615 34.292 115.851 34.0267 116.155 33.84C116.462 33.6533 116.823 33.56 117.239 33.56C117.666 33.56 118.03 33.6587 118.331 33.856C118.632 34.0507 118.86 34.3307 119.015 34.696C119.17 35.0613 119.24 35.4973 119.227 36.004H118.627V35.796C118.616 35.236 118.495 34.8133 118.263 34.528C118.034 34.2427 117.698 34.1 117.255 34.1C116.791 34.1 116.435 34.2507 116.187 34.552C115.942 34.8533 115.819 35.2827 115.819 35.84C115.819 36.384 115.942 36.8067 116.187 37.108C116.435 37.4067 116.786 37.556 117.239 37.556C117.548 37.556 117.818 37.4853 118.047 37.344C118.279 37.2 118.462 36.9933 118.595 36.724L119.143 36.936C118.972 37.312 118.72 37.604 118.387 37.812C118.056 38.0173 117.682 38.12 117.263 38.12ZM115.611 36.004V35.512H118.911V36.004H115.611ZM123.118 38V35.796C123.118 35.556 123.095 35.336 123.05 35.136C123.004 34.9333 122.931 34.7573 122.83 34.608C122.731 34.456 122.602 34.3387 122.442 34.256C122.284 34.1733 122.092 34.132 121.866 34.132C121.658 34.132 121.474 34.168 121.314 34.24C121.156 34.312 121.023 34.416 120.914 34.552C120.807 34.6853 120.726 34.848 120.67 35.04C120.614 35.232 120.586 35.4507 120.586 35.696L120.17 35.604C120.17 35.1613 120.247 34.7893 120.402 34.488C120.556 34.1867 120.77 33.9587 121.042 33.804C121.314 33.6493 121.626 33.572 121.978 33.572C122.236 33.572 122.462 33.612 122.654 33.692C122.848 33.772 123.012 33.88 123.146 34.016C123.282 34.152 123.391 34.308 123.474 34.484C123.556 34.6573 123.616 34.8427 123.654 35.04C123.691 35.2347 123.71 35.4293 123.71 35.624V38H123.118ZM119.994 38V33.68H120.526V34.744H120.586V38H119.994ZM126.36 38.116C125.853 38.116 125.436 38.0067 125.108 37.788C124.782 37.5693 124.582 37.2653 124.508 36.876L125.108 36.776C125.172 37.0213 125.317 37.2173 125.544 37.364C125.773 37.508 126.056 37.58 126.391 37.58C126.72 37.58 126.978 37.512 127.168 37.376C127.357 37.2373 127.452 37.0493 127.452 36.812C127.452 36.6787 127.421 36.5707 127.36 36.488C127.301 36.4027 127.18 36.324 126.996 36.252C126.812 36.18 126.537 36.0947 126.172 35.996C125.78 35.8893 125.473 35.7827 125.252 35.676C125.03 35.5693 124.873 35.4467 124.78 35.308C124.686 35.1667 124.64 34.9947 124.64 34.792C124.64 34.5467 124.709 34.332 124.848 34.148C124.986 33.9613 125.178 33.8173 125.424 33.716C125.669 33.612 125.954 33.56 126.28 33.56C126.605 33.56 126.896 33.6133 127.152 33.72C127.41 33.824 127.618 33.9707 127.776 34.16C127.933 34.3493 128.026 34.5693 128.056 34.82L127.456 34.928C127.416 34.6747 127.289 34.4747 127.076 34.328C126.865 34.1787 126.597 34.1013 126.272 34.096C125.965 34.088 125.716 34.1467 125.524 34.272C125.332 34.3947 125.236 34.5587 125.236 34.764C125.236 34.8787 125.27 34.9773 125.34 35.06C125.409 35.14 125.534 35.216 125.716 35.288C125.9 35.36 126.161 35.4387 126.5 35.524C126.897 35.6253 127.209 35.732 127.436 35.844C127.662 35.956 127.824 36.088 127.92 36.24C128.016 36.392 128.064 36.58 128.064 36.804C128.064 37.212 127.912 37.5333 127.608 37.768C127.306 38 126.89 38.116 126.36 38.116ZM129.031 32.86V32.2H129.619V32.86H129.031ZM129.031 38V33.68H129.619V38H129.031ZM132.622 38.12C132.192 38.12 131.826 38.0227 131.522 37.828C131.218 37.6333 130.984 37.364 130.822 37.02C130.659 36.676 130.578 36.2813 130.578 35.836C130.578 35.3827 130.66 34.9853 130.826 34.644C130.991 34.3027 131.226 34.0373 131.53 33.848C131.836 33.656 132.2 33.56 132.622 33.56C133.054 33.56 133.422 33.6573 133.726 33.852C134.032 34.044 134.266 34.312 134.426 34.656C134.588 34.9973 134.67 35.3907 134.67 35.836C134.67 36.2893 134.588 36.688 134.426 37.032C134.263 37.3733 134.028 37.64 133.722 37.832C133.415 38.024 133.048 38.12 132.622 38.12ZM132.622 37.556C133.102 37.556 133.459 37.3973 133.694 37.08C133.928 36.76 134.046 36.3453 134.046 35.836C134.046 35.3133 133.927 34.8973 133.69 34.588C133.455 34.2787 133.099 34.124 132.622 34.124C132.299 34.124 132.032 34.1973 131.822 34.344C131.614 34.488 131.458 34.6893 131.354 34.948C131.252 35.204 131.202 35.5 131.202 35.836C131.202 36.356 131.322 36.7733 131.562 37.088C131.802 37.4 132.155 37.556 132.622 37.556ZM138.672 38V35.796C138.672 35.556 138.65 35.336 138.604 35.136C138.559 34.9333 138.486 34.7573 138.384 34.608C138.286 34.456 138.156 34.3387 137.996 34.256C137.839 34.1733 137.647 34.132 137.42 34.132C137.212 34.132 137.028 34.168 136.868 34.24C136.711 34.312 136.578 34.416 136.468 34.552C136.362 34.6853 136.28 34.848 136.224 35.04C136.168 35.232 136.14 35.4507 136.14 35.696L135.724 35.604C135.724 35.1613 135.802 34.7893 135.956 34.488C136.111 34.1867 136.324 33.9587 136.596 33.804C136.868 33.6493 137.18 33.572 137.532 33.572C137.791 33.572 138.016 33.612 138.208 33.692C138.403 33.772 138.567 33.88 138.7 34.016C138.836 34.152 138.946 34.308 139.028 34.484C139.111 34.6573 139.171 34.8427 139.208 35.04C139.246 35.2347 139.264 35.4293 139.264 35.624V38H138.672ZM135.548 38V33.68H136.08V34.744H136.14V38H135.548ZM110.81 46V40.24H114.118V40.828H111.398V42.828H113.638V43.412H111.398V46H110.81ZM116.528 46.12C116.099 46.12 115.732 46.0227 115.428 45.828C115.124 45.6333 114.891 45.364 114.728 45.02C114.565 44.676 114.484 44.2813 114.484 43.836C114.484 43.3827 114.567 42.9853 114.732 42.644C114.897 42.3027 115.132 42.0373 115.436 41.848C115.743 41.656 116.107 41.56 116.528 41.56C116.96 41.56 117.328 41.6573 117.632 41.852C117.939 42.044 118.172 42.312 118.332 42.656C118.495 42.9973 118.576 43.3907 118.576 43.836C118.576 44.2893 118.495 44.688 118.332 45.032C118.169 45.3733 117.935 45.64 117.628 45.832C117.321 46.024 116.955 46.12 116.528 46.12ZM116.528 45.556C117.008 45.556 117.365 45.3973 117.6 45.08C117.835 44.76 117.952 44.3453 117.952 43.836C117.952 43.3133 117.833 42.8973 117.596 42.588C117.361 42.2787 117.005 42.124 116.528 42.124C116.205 42.124 115.939 42.1973 115.728 42.344C115.52 42.488 115.364 42.6893 115.26 42.948C115.159 43.204 115.108 43.5 115.108 43.836C115.108 44.356 115.228 44.7733 115.468 45.088C115.708 45.4 116.061 45.556 116.528 45.556ZM119.458 46V41.68H119.986V42.72L119.882 42.584C119.93 42.456 119.993 42.3387 120.07 42.232C120.148 42.1227 120.232 42.0333 120.322 41.964C120.434 41.8653 120.565 41.7907 120.714 41.74C120.864 41.6867 121.014 41.656 121.166 41.648C121.318 41.6373 121.457 41.648 121.582 41.68V42.232C121.425 42.192 121.253 42.1827 121.066 42.204C120.88 42.2253 120.708 42.3 120.55 42.428C120.406 42.54 120.298 42.6747 120.226 42.832C120.154 42.9867 120.106 43.152 120.082 43.328C120.058 43.5013 120.046 43.6733 120.046 43.844V46H119.458ZM122.337 46L122.341 40.24H122.933V43.76L124.861 41.68H125.645L123.621 43.84L125.909 46H125.053L122.933 43.92V46H122.337Z" fill="#222222"/>
</g>
<path d="M99.98 23V12.92H106.049V14.607H101.667V17.12H105.209V18.8H101.667V23H99.98ZM111.571 23.21C110.563 23.21 109.7 22.9907 108.981 22.552C108.262 22.1087 107.709 21.4927 107.322 20.704C106.939 19.9153 106.748 19.0007 106.748 17.96C106.748 16.9193 106.939 16.0047 107.322 15.216C107.709 14.4273 108.262 13.8137 108.981 13.375C109.7 12.9317 110.563 12.71 111.571 12.71C112.579 12.71 113.442 12.9317 114.161 13.375C114.884 13.8137 115.437 14.4273 115.82 15.216C116.207 16.0047 116.401 16.9193 116.401 17.96C116.401 19.0007 116.207 19.9153 115.82 20.704C115.437 21.4927 114.884 22.1087 114.161 22.552C113.442 22.9907 112.579 23.21 111.571 23.21ZM111.571 21.621C112.248 21.6257 112.81 21.4763 113.258 21.173C113.711 20.8697 114.049 20.4427 114.273 19.892C114.502 19.3413 114.616 18.6973 114.616 17.96C114.616 17.2227 114.502 16.5833 114.273 16.042C114.049 15.496 113.711 15.0713 113.258 14.768C112.81 14.4647 112.248 14.3083 111.571 14.299C110.894 14.2943 110.332 14.4437 109.884 14.747C109.436 15.0503 109.098 15.4773 108.869 16.028C108.645 16.5787 108.533 17.2227 108.533 17.96C108.533 18.6973 108.645 19.339 108.869 19.885C109.093 20.4263 109.429 20.8487 109.877 21.152C110.33 21.4553 110.894 21.6117 111.571 21.621ZM117.794 23V12.92H121.959C122.057 12.92 122.183 12.9247 122.337 12.934C122.491 12.9387 122.634 12.9527 122.764 12.976C123.348 13.0647 123.828 13.2583 124.206 13.557C124.589 13.8557 124.871 14.2337 125.053 14.691C125.24 15.1437 125.333 15.6477 125.333 16.203C125.333 17.0243 125.126 17.7313 124.71 18.324C124.295 18.912 123.658 19.276 122.799 19.416L122.078 19.479H119.481V23H117.794ZM123.583 23L121.595 18.898L123.31 18.52L125.494 23H123.583ZM119.481 17.904H121.889C121.983 17.904 122.088 17.8993 122.204 17.89C122.321 17.8807 122.428 17.862 122.526 17.834C122.806 17.764 123.026 17.6403 123.184 17.463C123.348 17.2857 123.462 17.085 123.527 16.861C123.597 16.637 123.632 16.4177 123.632 16.203C123.632 15.9883 123.597 15.769 123.527 15.545C123.462 15.3163 123.348 15.1133 123.184 14.936C123.026 14.7587 122.806 14.635 122.526 14.565C122.428 14.537 122.321 14.5207 122.204 14.516C122.088 14.5067 121.983 14.502 121.889 14.502H119.481V17.904ZM127.037 23V12.92H128.724V17.596L132.749 12.92H134.821L130.488 17.862L135.115 23H132.973L128.724 18.296V23H127.037Z" fill="#222222"/>
<rect x="162.697" width="73.9535" height="56" rx="7" fill="#F1F1F1"/>
<g clip-path="url(#clip2_1324_212)">
<path d="M194.865 38.12C194.462 38.12 194.099 38.0533 193.777 37.92C193.457 37.784 193.191 37.592 192.981 37.344C192.773 37.096 192.637 36.8013 192.573 36.46L193.173 36.36C193.269 36.7333 193.471 37.0267 193.781 37.24C194.09 37.4507 194.459 37.556 194.889 37.556C195.171 37.556 195.425 37.512 195.649 37.424C195.873 37.3333 196.049 37.2053 196.177 37.04C196.305 36.8747 196.369 36.6787 196.369 36.452C196.369 36.3027 196.342 36.176 196.289 36.072C196.235 35.9653 196.165 35.8773 196.077 35.808C195.989 35.7387 195.893 35.6813 195.789 35.636C195.685 35.588 195.583 35.5493 195.485 35.52L194.025 35.084C193.849 35.0333 193.686 34.9693 193.537 34.892C193.387 34.812 193.257 34.7173 193.145 34.608C193.035 34.496 192.95 34.3653 192.889 34.216C192.827 34.0667 192.797 33.896 192.797 33.704C192.797 33.3787 192.882 33.0973 193.053 32.86C193.223 32.6227 193.457 32.44 193.753 32.312C194.049 32.184 194.386 32.1213 194.765 32.124C195.149 32.124 195.491 32.192 195.793 32.328C196.097 32.464 196.347 32.6587 196.545 32.912C196.742 33.1627 196.873 33.46 196.937 33.804L196.321 33.916C196.281 33.6653 196.189 33.448 196.045 33.264C195.901 33.08 195.717 32.9387 195.493 32.84C195.271 32.7387 195.027 32.6867 194.761 32.684C194.502 32.684 194.271 32.728 194.069 32.816C193.869 32.9013 193.71 33.0187 193.593 33.168C193.475 33.3173 193.417 33.488 193.417 33.68C193.417 33.8747 193.47 34.0307 193.577 34.148C193.686 34.2653 193.819 34.3573 193.977 34.424C194.137 34.4907 194.291 34.5453 194.441 34.588L195.569 34.92C195.686 34.952 195.823 34.9987 195.981 35.06C196.141 35.1187 196.295 35.204 196.445 35.316C196.597 35.4253 196.722 35.5693 196.821 35.748C196.919 35.9267 196.969 36.1533 196.969 36.428C196.969 36.6947 196.915 36.9333 196.809 37.144C196.705 37.3547 196.557 37.532 196.365 37.676C196.175 37.82 195.953 37.9293 195.697 38.004C195.443 38.0813 195.166 38.12 194.865 38.12ZM197.874 32.86V32.2H198.462V32.86H197.874ZM197.874 38V33.68H198.462V38H197.874ZM199.262 38V37.876L202.05 34.228H199.47V33.68H203.018V33.816L200.234 37.452H202.866V38H199.262ZM205.404 38.12C204.982 38.12 204.617 38.0267 204.308 37.84C204.001 37.6533 203.762 37.3907 203.592 37.052C203.421 36.7133 203.336 36.316 203.336 35.86C203.336 35.388 203.42 34.98 203.588 34.636C203.756 34.292 203.992 34.0267 204.296 33.84C204.602 33.6533 204.964 33.56 205.38 33.56C205.806 33.56 206.17 33.6587 206.472 33.856C206.773 34.0507 207.001 34.3307 207.156 34.696C207.31 35.0613 207.381 35.4973 207.368 36.004H206.768V35.796C206.757 35.236 206.636 34.8133 206.404 34.528C206.174 34.2427 205.838 34.1 205.396 34.1C204.932 34.1 204.576 34.2507 204.328 34.552C204.082 34.8533 203.96 35.2827 203.96 35.84C203.96 36.384 204.082 36.8067 204.328 37.108C204.576 37.4067 204.926 37.556 205.38 37.556C205.689 37.556 205.958 37.4853 206.188 37.344C206.42 37.2 206.602 36.9933 206.736 36.724L207.284 36.936C207.113 37.312 206.861 37.604 206.528 37.812C206.197 38.0173 205.822 38.12 205.404 38.12ZM203.752 36.004V35.512H207.052V36.004H203.752ZM194.939 46V40.896L193.855 41.548V40.888L194.939 40.24H195.535V46H194.939ZM197.36 46L199.48 40.812H196.812V40.24H200.108V40.812L197.992 46H197.36ZM200.649 46V45.316H201.333V46H200.649ZM204.268 46.12C203.969 46.12 203.693 46.0587 203.44 45.936C203.186 45.8133 202.97 45.644 202.792 45.428C202.613 45.212 202.485 44.964 202.408 44.684L202.972 44.532C203.022 44.74 203.114 44.92 203.248 45.072C203.381 45.2213 203.537 45.3373 203.716 45.42C203.897 45.5027 204.086 45.544 204.284 45.544C204.54 45.544 204.769 45.4827 204.972 45.36C205.177 45.2347 205.34 45.0693 205.46 44.864C205.58 44.6587 205.64 44.4333 205.64 44.188C205.64 43.9347 205.577 43.7067 205.452 43.504C205.326 43.2987 205.161 43.136 204.956 43.016C204.75 42.896 204.526 42.836 204.284 42.836C204.012 42.836 203.777 42.896 203.58 43.016C203.382 43.1333 203.225 43.2813 203.108 43.46L202.572 43.236L202.748 40.24H205.824V40.804H203.008L203.3 40.528L203.144 43.084L202.996 42.888C203.161 42.6987 203.361 42.5507 203.596 42.444C203.83 42.3373 204.077 42.284 204.336 42.284C204.69 42.284 205.01 42.3693 205.296 42.54C205.581 42.708 205.808 42.936 205.976 43.224C206.144 43.512 206.228 43.8333 206.228 44.188C206.228 44.54 206.138 44.8627 205.96 45.156C205.781 45.4467 205.544 45.68 205.248 45.856C204.952 46.032 204.625 46.12 204.268 46.12Z" fill="#222222"/>
</g>
<path d="M179.108 23L176.161 12.92H177.932L179.941 20.2L181.943 12.934L183.714 12.92L185.723 20.2L187.725 12.92H189.496L186.556 23H184.89L182.825 15.832L180.774 23H179.108ZM190.638 23V12.92H192.325V17.162H197.099V12.92H198.779V23H197.099V18.744H192.325V23H190.638ZM200.742 23V12.92H207.252V14.502H202.429V16.987H206.412V18.569H202.429V21.418H207.252V23H200.742ZM208.931 23V12.92H215.441V14.502H210.618V16.987H214.601V18.569H210.618V21.418H215.441V23H208.931ZM217.261 23V12.92H218.948V21.418H223.4V23H217.261Z" fill="#222222"/>
<defs>
<clipPath id="clip0_1324_212">
<rect width="44" height="16" fill="white" transform="translate(259 31)"/>
</clipPath>
<clipPath id="clip1_1324_212">
<rect width="50" height="16" fill="white" transform="translate(93 31)"/>
</clipPath>
<clipPath id="clip2_1324_212">
<rect width="23" height="16" fill="white" transform="translate(188.5 31)"/>
</clipPath>
</defs>
</svg>
