<svg width="318" height="56" viewBox="0 0 318 56" fill="none" xmlns="http://www.w3.org/2000/svg">
<rect width="73.3372" height="56" rx="7" fill="#F1F1F1"/>
<path d="M25.2553 38.12C24.6819 38.12 24.1979 37.9933 23.8033 37.74C23.4086 37.484 23.1099 37.1307 22.9073 36.68C22.7046 36.2293 22.6033 35.7093 22.6033 35.12C22.6033 34.5307 22.7046 34.0107 22.9073 33.56C23.1099 33.1093 23.4086 32.7573 23.8033 32.504C24.1979 32.248 24.6819 32.12 25.2553 32.12C25.9246 32.12 26.4713 32.292 26.8953 32.636C27.3193 32.9773 27.6099 33.436 27.7673 34.012L27.1673 34.168C27.0446 33.712 26.8246 33.3507 26.5073 33.084C26.1899 32.8173 25.7726 32.684 25.2553 32.684C24.8046 32.684 24.4299 32.7867 24.1313 32.992C23.8326 33.1973 23.6073 33.484 23.4553 33.852C23.3059 34.2173 23.2286 34.64 23.2233 35.12C23.2206 35.6 23.2939 36.0227 23.4433 36.388C23.5953 36.7533 23.8219 37.04 24.1233 37.248C24.4273 37.4533 24.8046 37.556 25.2553 37.556C25.7726 37.556 26.1899 37.4227 26.5073 37.156C26.8246 36.8867 27.0446 36.5253 27.1673 36.072L27.7673 36.228C27.6099 36.804 27.3193 37.264 26.8953 37.608C26.4713 37.9493 25.9246 38.12 25.2553 38.12ZM29.8858 38.12C29.5605 38.12 29.2872 38.0613 29.0658 37.944C28.8472 37.8267 28.6832 37.6707 28.5738 37.476C28.4645 37.2813 28.4098 37.0693 28.4098 36.84C28.4098 36.6053 28.4565 36.4053 28.5498 36.24C28.6458 36.072 28.7752 35.9347 28.9378 35.828C29.1032 35.7213 29.2938 35.64 29.5098 35.584C29.7285 35.5307 29.9698 35.484 30.2338 35.444C30.5005 35.4013 30.7605 35.3653 31.0138 35.336C31.2698 35.304 31.4938 35.2733 31.6858 35.244L31.4778 35.372C31.4858 34.9453 31.4032 34.6293 31.2298 34.424C31.0565 34.2187 30.7552 34.116 30.3258 34.116C30.0298 34.116 29.7792 34.1827 29.5738 34.316C29.3712 34.4493 29.2285 34.66 29.1458 34.948L28.5738 34.78C28.6725 34.3933 28.8712 34.0933 29.1698 33.88C29.4685 33.6667 29.8565 33.56 30.3338 33.56C30.7285 33.56 31.0632 33.6347 31.3378 33.784C31.6152 33.9307 31.8112 34.144 31.9258 34.424C31.9792 34.5493 32.0138 34.6893 32.0298 34.844C32.0458 34.9987 32.0538 35.156 32.0538 35.316V38H31.5298V36.916L31.6818 36.98C31.5352 37.3507 31.3072 37.6333 30.9978 37.828C30.6885 38.0227 30.3178 38.12 29.8858 38.12ZM29.9538 37.612C30.2285 37.612 30.4685 37.5627 30.6738 37.464C30.8792 37.3653 31.0445 37.2307 31.1698 37.06C31.2952 36.8867 31.3765 36.692 31.4138 36.476C31.4458 36.3373 31.4632 36.1853 31.4658 36.02C31.4685 35.852 31.4698 35.7267 31.4698 35.644L31.6938 35.76C31.4938 35.7867 31.2765 35.8133 31.0418 35.84C30.8098 35.8667 30.5805 35.8973 30.3538 35.932C30.1298 35.9667 29.9272 36.008 29.7458 36.056C29.6232 36.0907 29.5045 36.14 29.3898 36.204C29.2752 36.2653 29.1805 36.348 29.1058 36.452C29.0338 36.556 28.9978 36.6853 28.9978 36.84C28.9978 36.9653 29.0285 37.0867 29.0898 37.204C29.1538 37.3213 29.2552 37.4187 29.3938 37.496C29.5352 37.5733 29.7218 37.612 29.9538 37.612ZM33.0952 38V33.68H33.6232V34.72L33.5192 34.584C33.5672 34.456 33.6298 34.3387 33.7072 34.232C33.7845 34.1227 33.8685 34.0333 33.9592 33.964C34.0712 33.8653 34.2018 33.7907 34.3512 33.74C34.5005 33.6867 34.6512 33.656 34.8032 33.648C34.9552 33.6373 35.0938 33.648 35.2192 33.68V34.232C35.0618 34.192 34.8898 34.1827 34.7032 34.204C34.5165 34.2253 34.3445 34.3 34.1872 34.428C34.0432 34.54 33.9352 34.6747 33.8632 34.832C33.7912 34.9867 33.7432 35.152 33.7192 35.328C33.6952 35.5013 33.6832 35.6733 33.6832 35.844V38H33.0952ZM37.918 38.12C37.5206 38.12 37.1846 38.02 36.91 37.82C36.6353 37.6173 36.4273 37.344 36.286 37C36.1446 36.6533 36.074 36.2653 36.074 35.836C36.074 35.3987 36.1446 35.0093 36.286 34.668C36.43 34.324 36.6406 34.0533 36.918 33.856C37.1953 33.6587 37.5366 33.56 37.942 33.56C38.3366 33.56 38.6753 33.66 38.958 33.86C39.2406 34.06 39.4566 34.332 39.606 34.676C39.758 35.02 39.834 35.4067 39.834 35.836C39.834 36.268 39.758 36.656 39.606 37C39.454 37.344 39.2353 37.6173 38.95 37.82C38.6646 38.02 38.3206 38.12 37.918 38.12ZM35.974 38V32.24H36.566V34.748H36.502V38H35.974ZM37.858 37.572C38.1593 37.572 38.41 37.496 38.61 37.344C38.81 37.192 38.9593 36.9853 39.058 36.724C39.1593 36.46 39.21 36.164 39.21 35.836C39.21 35.5107 39.1606 35.2173 39.062 34.956C38.9633 34.6947 38.8126 34.488 38.61 34.336C38.41 34.184 38.1553 34.108 37.846 34.108C37.5446 34.108 37.294 34.1813 37.094 34.328C36.8966 34.4747 36.7486 34.6787 36.65 34.94C36.5513 35.1987 36.502 35.4973 36.502 35.836C36.502 36.1693 36.5513 36.468 36.65 36.732C36.7486 36.9933 36.898 37.1987 37.098 37.348C37.298 37.4973 37.5513 37.572 37.858 37.572ZM42.5163 38.12C42.087 38.12 41.7203 38.0227 41.4163 37.828C41.1123 37.6333 40.879 37.364 40.7163 37.02C40.5537 36.676 40.4723 36.2813 40.4723 35.836C40.4723 35.3827 40.555 34.9853 40.7203 34.644C40.8857 34.3027 41.1203 34.0373 41.4243 33.848C41.731 33.656 42.095 33.56 42.5163 33.56C42.9483 33.56 43.3163 33.6573 43.6203 33.852C43.927 34.044 44.1603 34.312 44.3203 34.656C44.483 34.9973 44.5643 35.3907 44.5643 35.836C44.5643 36.2893 44.483 36.688 44.3203 37.032C44.1577 37.3733 43.923 37.64 43.6163 37.832C43.3097 38.024 42.943 38.12 42.5163 38.12ZM42.5163 37.556C42.9963 37.556 43.3537 37.3973 43.5883 37.08C43.823 36.76 43.9403 36.3453 43.9403 35.836C43.9403 35.3133 43.8217 34.8973 43.5843 34.588C43.3497 34.2787 42.9937 34.124 42.5163 34.124C42.1937 34.124 41.927 34.1973 41.7163 34.344C41.5083 34.488 41.3523 34.6893 41.2483 34.948C41.147 35.204 41.0963 35.5 41.0963 35.836C41.0963 36.356 41.2163 36.7733 41.4563 37.088C41.6963 37.4 42.0497 37.556 42.5163 37.556ZM48.5667 38V35.796C48.5667 35.556 48.5441 35.336 48.4987 35.136C48.4534 34.9333 48.3801 34.7573 48.2787 34.608C48.1801 34.456 48.0507 34.3387 47.8907 34.256C47.7334 34.1733 47.5414 34.132 47.3147 34.132C47.1067 34.132 46.9227 34.168 46.7627 34.24C46.6054 34.312 46.4721 34.416 46.3627 34.552C46.2561 34.6853 46.1747 34.848 46.1187 35.04C46.0627 35.232 46.0347 35.4507 46.0347 35.696L45.6187 35.604C45.6187 35.1613 45.6961 34.7893 45.8507 34.488C46.0054 34.1867 46.2187 33.9587 46.4907 33.804C46.7627 33.6493 47.0747 33.572 47.4267 33.572C47.6854 33.572 47.9107 33.612 48.1027 33.692C48.2974 33.772 48.4614 33.88 48.5947 34.016C48.7307 34.152 48.8401 34.308 48.9227 34.484C49.0054 34.6573 49.0654 34.8427 49.1027 35.04C49.1401 35.2347 49.1587 35.4293 49.1587 35.624V38H48.5667ZM45.4427 38V33.68H45.9747V34.744H46.0347V38H45.4427ZM27.4623 46V40.24H30.7703V40.828H28.0503V42.828H30.2903V43.412H28.0503V46H27.4623ZM31.5736 40.86V40.2H32.1616V40.86H31.5736ZM31.5736 46V41.68H32.1616V46H31.5736ZM35.3008 46.12C34.9034 46.12 34.5674 46.02 34.2928 45.82C34.0181 45.6173 33.8101 45.344 33.6688 45C33.5274 44.6533 33.4568 44.2653 33.4568 43.836C33.4568 43.3987 33.5274 43.0093 33.6688 42.668C33.8128 42.324 34.0234 42.0533 34.3008 41.856C34.5781 41.6587 34.9194 41.56 35.3248 41.56C35.7194 41.56 36.0581 41.66 36.3408 41.86C36.6234 42.06 36.8394 42.332 36.9888 42.676C37.1408 43.02 37.2168 43.4067 37.2168 43.836C37.2168 44.268 37.1408 44.656 36.9888 45C36.8368 45.344 36.6181 45.6173 36.3328 45.82C36.0474 46.02 35.7034 46.12 35.3008 46.12ZM33.3568 46V40.24H33.9488V42.748H33.8848V46H33.3568ZM35.2408 45.572C35.5421 45.572 35.7928 45.496 35.9928 45.344C36.1928 45.192 36.3421 44.9853 36.4408 44.724C36.5421 44.46 36.5928 44.164 36.5928 43.836C36.5928 43.5107 36.5434 43.2173 36.4448 42.956C36.3461 42.6947 36.1954 42.488 35.9928 42.336C35.7928 42.184 35.5381 42.108 35.2288 42.108C34.9274 42.108 34.6768 42.1813 34.4768 42.328C34.2794 42.4747 34.1314 42.6787 34.0328 42.94C33.9341 43.1987 33.8848 43.4973 33.8848 43.836C33.8848 44.1693 33.9341 44.468 34.0328 44.732C34.1314 44.9933 34.2808 45.1987 34.4808 45.348C34.6808 45.4973 34.9341 45.572 35.2408 45.572ZM39.9232 46.12C39.5018 46.12 39.1365 46.0267 38.8272 45.84C38.5205 45.6533 38.2818 45.3907 38.1112 45.052C37.9405 44.7133 37.8552 44.316 37.8552 43.86C37.8552 43.388 37.9392 42.98 38.1072 42.636C38.2752 42.292 38.5112 42.0267 38.8152 41.84C39.1218 41.6533 39.4832 41.56 39.8992 41.56C40.3258 41.56 40.6898 41.6587 40.9912 41.856C41.2925 42.0507 41.5205 42.3307 41.6752 42.696C41.8298 43.0613 41.9005 43.4973 41.8872 44.004H41.2872V43.796C41.2765 43.236 41.1552 42.8133 40.9232 42.528C40.6938 42.2427 40.3578 42.1 39.9152 42.1C39.4512 42.1 39.0952 42.2507 38.8472 42.552C38.6018 42.8533 38.4792 43.2827 38.4792 43.84C38.4792 44.384 38.6018 44.8067 38.8472 45.108C39.0952 45.4067 39.4458 45.556 39.8992 45.556C40.2085 45.556 40.4778 45.4853 40.7072 45.344C40.9392 45.2 41.1218 44.9933 41.2552 44.724L41.8032 44.936C41.6325 45.312 41.3805 45.604 41.0472 45.812C40.7165 46.0173 40.3418 46.12 39.9232 46.12ZM38.2712 44.004V43.512H41.5712V44.004H38.2712ZM42.7748 46V41.68H43.3028V42.72L43.1988 42.584C43.2468 42.456 43.3095 42.3387 43.3868 42.232C43.4642 42.1227 43.5482 42.0333 43.6388 41.964C43.7508 41.8653 43.8815 41.7907 44.0308 41.74C44.1802 41.6867 44.3308 41.656 44.4828 41.648C44.6348 41.6373 44.7735 41.648 44.8988 41.68V42.232C44.7415 42.192 44.5695 42.1827 44.3828 42.204C44.1962 42.2253 44.0242 42.3 43.8668 42.428C43.7228 42.54 43.6148 42.6747 43.5428 42.832C43.4708 42.9867 43.4228 43.152 43.3988 43.328C43.3748 43.5013 43.3628 43.6733 43.3628 43.844V46H42.7748Z" fill="#222222"/>
<path d="M13.3696 23.4243V13.3443H19.4386V15.0313H15.0566V17.5443H18.5986V19.2243H15.0566V23.4243H13.3696ZM20.6978 23.4243V13.3443H24.8628C24.9608 13.3443 25.0868 13.349 25.2408 13.3583C25.3948 13.363 25.5371 13.377 25.6678 13.4003C26.2511 13.489 26.7318 13.6826 27.1098 13.9813C27.4924 14.28 27.7748 14.658 27.9568 15.1153C28.1434 15.568 28.2368 16.072 28.2368 16.6273C28.2368 17.4486 28.0291 18.1556 27.6138 18.7483C27.1984 19.3363 26.5614 19.7003 25.7028 19.8403L24.9818 19.9033H22.3848V23.4243H20.6978ZM26.4868 23.4243L24.4988 19.3223L26.2138 18.9443L28.3978 23.4243H26.4868ZM22.3848 18.3283H24.7928C24.8861 18.3283 24.9911 18.3236 25.1078 18.3143C25.2244 18.305 25.3318 18.2863 25.4298 18.2583C25.7098 18.1883 25.9291 18.0646 26.0878 17.8873C26.2511 17.71 26.3654 17.5093 26.4308 17.2853C26.5008 17.0613 26.5358 16.842 26.5358 16.6273C26.5358 16.4126 26.5008 16.1933 26.4308 15.9693C26.3654 15.7406 26.2511 15.5376 26.0878 15.3603C25.9291 15.183 25.7098 15.0593 25.4298 14.9893C25.3318 14.9613 25.2244 14.945 25.1078 14.9403C24.9911 14.931 24.8861 14.9263 24.7928 14.9263H22.3848V18.3283ZM29.24 23.4243L32.418 13.3443H34.889L38.067 23.4243H36.331L33.447 14.3803H33.825L30.976 23.4243H29.24ZM31.011 21.2403V19.6653H36.303V21.2403H31.011ZM39.3325 23.4243V13.3443H40.8515L44.3375 20.4843L47.8235 13.3443H49.3425V23.4243H47.7675V16.9633L44.6735 23.4243H44.0015L40.9145 16.9633V23.4243H39.3325ZM51.3091 23.4243V13.3443H57.8191V14.9263H52.9961V17.4113H56.9791V18.9933H52.9961V21.8423H57.8191V23.4243H51.3091Z" fill="#222222"/>
<rect x="244.662" width="73.3372" height="56" rx="7" fill="#F1F1F1"/>
<g clip-path="url(#clip0_1324_98)">
<path d="M265.607 37.996L265.611 37.46L268.215 35.108C268.439 34.9053 268.587 34.7133 268.659 34.532C268.734 34.348 268.771 34.156 268.771 33.956C268.771 33.7187 268.715 33.504 268.603 33.312C268.491 33.12 268.34 32.968 268.151 32.856C267.962 32.7413 267.75 32.684 267.515 32.684C267.27 32.684 267.051 32.7427 266.859 32.86C266.667 32.9773 266.515 33.132 266.403 33.324C266.294 33.516 266.24 33.7253 266.243 33.952H265.643C265.643 33.6027 265.726 33.2893 265.891 33.012C266.056 32.7347 266.28 32.5173 266.563 32.36C266.846 32.2 267.166 32.12 267.523 32.12C267.872 32.12 268.186 32.2027 268.463 32.368C268.743 32.5307 268.963 32.752 269.123 33.032C269.286 33.3093 269.367 33.6187 269.367 33.96C269.367 34.2 269.338 34.412 269.279 34.596C269.223 34.7773 269.134 34.9467 269.011 35.104C268.891 35.2587 268.738 35.4187 268.551 35.584L266.239 37.672L266.147 37.432H269.367V37.996H265.607ZM272.709 38V36.884H270.013V36.324L271.941 32.24H272.601L270.673 36.324H272.709V34.644H273.301V36.324H273.929V36.884H273.301V38H272.709ZM276.014 38L278.01 35.084L276.066 32.24H276.778L278.358 34.592L279.938 32.24H280.654L278.71 35.084L280.702 38H279.99L278.358 35.58L276.73 38H276.014ZM283.951 38V32.896L282.867 33.548V32.888L283.951 32.24H284.547V38H283.951ZM285.856 38V37.316H286.54V38H285.856ZM289.671 32.124C290.034 32.124 290.362 32.212 290.655 32.388C290.951 32.5613 291.186 32.7987 291.359 33.1C291.532 33.3987 291.619 33.7347 291.619 34.108V36.108C291.619 36.492 291.532 36.836 291.359 37.14C291.186 37.444 290.948 37.684 290.647 37.86C290.348 38.0333 290.008 38.12 289.627 38.12C289.299 38.12 288.995 38.048 288.715 37.904C288.438 37.7573 288.208 37.556 288.027 37.3L288.475 36.928C288.598 37.1173 288.76 37.2693 288.963 37.384C289.168 37.4987 289.39 37.556 289.627 37.556C289.899 37.556 290.139 37.492 290.347 37.364C290.558 37.2333 290.723 37.0627 290.843 36.852C290.966 36.6387 291.027 36.408 291.027 36.16V34.904L291.171 35.072C291.006 35.336 290.786 35.5493 290.511 35.712C290.239 35.8747 289.94 35.956 289.615 35.956C289.26 35.956 288.939 35.8707 288.651 35.7C288.366 35.5293 288.139 35.3 287.971 35.012C287.806 34.724 287.723 34.4027 287.723 34.048C287.723 33.6933 287.811 33.3707 287.987 33.08C288.163 32.7867 288.399 32.5547 288.695 32.384C288.991 32.2107 289.316 32.124 289.671 32.124ZM289.671 32.692C289.42 32.692 289.192 32.7533 288.987 32.876C288.782 32.996 288.618 33.1587 288.495 33.364C288.375 33.5693 288.315 33.7973 288.315 34.048C288.315 34.2987 288.375 34.5267 288.495 34.732C288.615 34.9373 288.778 35.1013 288.983 35.224C289.188 35.344 289.416 35.404 289.667 35.404C289.918 35.404 290.146 35.344 290.351 35.224C290.559 35.1013 290.723 34.9373 290.843 34.732C290.966 34.5267 291.027 34.2987 291.027 34.048C291.027 33.8 290.966 33.5733 290.843 33.368C290.723 33.1627 290.56 32.9987 290.355 32.876C290.15 32.7533 289.922 32.692 289.671 32.692ZM294.436 38.12C294.137 38.12 293.861 38.0587 293.608 37.936C293.354 37.8133 293.138 37.644 292.96 37.428C292.781 37.212 292.653 36.964 292.576 36.684L293.14 36.532C293.19 36.74 293.282 36.92 293.416 37.072C293.549 37.2213 293.705 37.3373 293.884 37.42C294.065 37.5027 294.254 37.544 294.452 37.544C294.708 37.544 294.937 37.4827 295.14 37.36C295.345 37.2347 295.508 37.0693 295.628 36.864C295.748 36.6587 295.808 36.4333 295.808 36.188C295.808 35.9347 295.745 35.7067 295.62 35.504C295.494 35.2987 295.329 35.136 295.124 35.016C294.918 34.896 294.694 34.836 294.452 34.836C294.18 34.836 293.945 34.896 293.748 35.016C293.55 35.1333 293.393 35.2813 293.276 35.46L292.74 35.236L292.916 32.24H295.992V32.804H293.176L293.468 32.528L293.312 35.084L293.164 34.888C293.329 34.6987 293.529 34.5507 293.764 34.444C293.998 34.3373 294.245 34.284 294.504 34.284C294.858 34.284 295.178 34.3693 295.464 34.54C295.749 34.708 295.976 34.936 296.144 35.224C296.312 35.512 296.396 35.8333 296.396 36.188C296.396 36.54 296.306 36.8627 296.128 37.156C295.949 37.4467 295.712 37.68 295.416 37.856C295.12 38.032 294.793 38.12 294.436 38.12ZM271.037 46V40.24H271.629L274.801 44.96V40.24H275.393V46H274.801L271.629 41.276V46H271.037ZM277.129 47.92L277.965 45.652L277.977 46.324L276.085 41.68H276.709L278.261 45.564H278.005L279.437 41.68H280.037L277.717 47.92H277.129ZM280.812 46V40.12H281.4V46H280.812ZM284.403 46.12C283.974 46.12 283.607 46.0227 283.303 45.828C282.999 45.6333 282.766 45.364 282.603 45.02C282.44 44.676 282.359 44.2813 282.359 43.836C282.359 43.3827 282.442 42.9853 282.607 42.644C282.772 42.3027 283.007 42.0373 283.311 41.848C283.618 41.656 283.982 41.56 284.403 41.56C284.835 41.56 285.203 41.6573 285.507 41.852C285.814 42.044 286.047 42.312 286.207 42.656C286.37 42.9973 286.451 43.3907 286.451 43.836C286.451 44.2893 286.37 44.688 286.207 45.032C286.044 45.3733 285.81 45.64 285.503 45.832C285.196 46.024 284.83 46.12 284.403 46.12ZM284.403 45.556C284.883 45.556 285.24 45.3973 285.475 45.08C285.71 44.76 285.827 44.3453 285.827 43.836C285.827 43.3133 285.708 42.8973 285.471 42.588C285.236 42.2787 284.88 42.124 284.403 42.124C284.08 42.124 283.814 42.1973 283.603 42.344C283.395 42.488 283.239 42.6893 283.135 42.948C283.034 43.204 282.983 43.5 282.983 43.836C282.983 44.356 283.103 44.7733 283.343 45.088C283.583 45.4 283.936 45.556 284.403 45.556ZM290.453 46V43.796C290.453 43.556 290.431 43.336 290.385 43.136C290.34 42.9333 290.267 42.7573 290.165 42.608C290.067 42.456 289.937 42.3387 289.777 42.256C289.62 42.1733 289.428 42.132 289.201 42.132C288.993 42.132 288.809 42.168 288.649 42.24C288.492 42.312 288.359 42.416 288.249 42.552C288.143 42.6853 288.061 42.848 288.005 43.04C287.949 43.232 287.921 43.4507 287.921 43.696L287.505 43.604C287.505 43.1613 287.583 42.7893 287.737 42.488C287.892 42.1867 288.105 41.9587 288.377 41.804C288.649 41.6493 288.961 41.572 289.313 41.572C289.572 41.572 289.797 41.612 289.989 41.692C290.184 41.772 290.348 41.88 290.481 42.016C290.617 42.152 290.727 42.308 290.809 42.484C290.892 42.6573 290.952 42.8427 290.989 43.04C291.027 43.2347 291.045 43.4293 291.045 43.624V46H290.453ZM287.329 46V41.68H287.861V42.744H287.921V46H287.329Z" fill="#222222"/>
</g>
<path d="M261.402 23V14.502H258.14V12.92H266.351V14.502H263.089V23H261.402ZM270.344 23V18.87L266.914 12.92H268.881L271.198 16.938L273.508 12.92H275.475L272.052 18.87V23H270.344ZM276.453 23V12.92H280.618C280.716 12.92 280.842 12.9247 280.996 12.934C281.15 12.9387 281.292 12.9527 281.423 12.976C282.006 13.0647 282.487 13.2583 282.865 13.557C283.247 13.8557 283.53 14.2337 283.712 14.691C283.898 15.1437 283.992 15.6477 283.992 16.203C283.992 17.0243 283.784 17.7313 283.369 18.324C282.953 18.912 282.316 19.276 281.458 19.416L280.737 19.479H278.14V23H276.453ZM282.242 23L280.254 18.898L281.969 18.52L284.153 23H282.242ZM278.14 17.904H280.548C280.641 17.904 280.746 17.8993 280.863 17.89C280.979 17.8807 281.087 17.862 281.185 17.834C281.465 17.764 281.684 17.6403 281.843 17.463C282.006 17.2857 282.12 17.085 282.186 16.861C282.256 16.637 282.291 16.4177 282.291 16.203C282.291 15.9883 282.256 15.769 282.186 15.545C282.12 15.3163 282.006 15.1133 281.843 14.936C281.684 14.7587 281.465 14.635 281.185 14.565C281.087 14.537 280.979 14.5207 280.863 14.516C280.746 14.5067 280.641 14.502 280.548 14.502H278.14V17.904ZM285.695 23V12.92H292.205V14.502H287.382V16.987H291.365V18.569H287.382V21.418H292.205V23H285.695ZM297.52 23.21C296.782 23.21 296.117 23.0817 295.525 22.825C294.937 22.5683 294.451 22.202 294.069 21.726C293.691 21.2453 293.45 20.676 293.348 20.018L295.098 19.752C295.247 20.3493 295.553 20.8113 296.015 21.138C296.481 21.4647 297.018 21.628 297.625 21.628C297.984 21.628 298.322 21.572 298.64 21.46C298.957 21.348 299.214 21.1847 299.41 20.97C299.61 20.7553 299.711 20.4917 299.711 20.179C299.711 20.039 299.687 19.9107 299.641 19.794C299.594 19.6727 299.524 19.5653 299.431 19.472C299.342 19.3787 299.225 19.2947 299.081 19.22C298.941 19.1407 298.777 19.073 298.591 19.017L295.987 18.247C295.763 18.1817 295.52 18.0953 295.259 17.988C295.002 17.876 294.757 17.7243 294.524 17.533C294.295 17.337 294.106 17.0897 293.957 16.791C293.812 16.4877 293.74 16.1143 293.74 15.671C293.74 15.0223 293.903 14.4787 294.23 14.04C294.561 13.5967 295.004 13.2653 295.56 13.046C296.12 12.8267 296.74 12.7193 297.422 12.724C298.112 12.7287 298.728 12.8477 299.27 13.081C299.811 13.3097 300.264 13.6433 300.628 14.082C300.992 14.5207 301.248 15.0503 301.398 15.671L299.585 15.986C299.51 15.6313 299.365 15.3303 299.151 15.083C298.941 14.831 298.682 14.6397 298.374 14.509C298.07 14.3783 297.746 14.3083 297.401 14.299C297.065 14.2943 296.752 14.3457 296.463 14.453C296.178 14.5557 295.947 14.705 295.77 14.901C295.597 15.097 295.511 15.3257 295.511 15.587C295.511 15.8343 295.585 16.0373 295.735 16.196C295.884 16.35 296.068 16.4737 296.288 16.567C296.512 16.6557 296.738 16.7303 296.967 16.791L298.773 17.295C299.02 17.3603 299.298 17.449 299.606 17.561C299.914 17.673 300.21 17.8293 300.495 18.03C300.779 18.2307 301.013 18.4943 301.195 18.821C301.381 19.1477 301.475 19.563 301.475 20.067C301.475 20.5897 301.365 21.0493 301.146 21.446C300.931 21.838 300.639 22.1647 300.271 22.426C299.902 22.6873 299.48 22.8833 299.004 23.014C298.532 23.1447 298.038 23.21 297.52 23.21Z" fill="#222222"/>
<rect x="81.3496" width="73.3372" height="56" rx="7" fill="#F1F1F1"/>
<g clip-path="url(#clip1_1324_98)">
<path d="M98.8178 38.12C98.4151 38.12 98.0525 38.0533 97.7298 37.92C97.4098 37.784 97.1445 37.592 96.9338 37.344C96.7258 37.096 96.5898 36.8013 96.5258 36.46L97.1258 36.36C97.2218 36.7333 97.4245 37.0267 97.7338 37.24C98.0431 37.4507 98.4125 37.556 98.8418 37.556C99.1245 37.556 99.3778 37.512 99.6018 37.424C99.8258 37.3333 100.002 37.2053 100.13 37.04C100.258 36.8747 100.322 36.6787 100.322 36.452C100.322 36.3027 100.295 36.176 100.242 36.072C100.188 35.9653 100.118 35.8773 100.03 35.808C99.9418 35.7387 99.8458 35.6813 99.7418 35.636C99.6378 35.588 99.5365 35.5493 99.4378 35.52L97.9778 35.084C97.8018 35.0333 97.6391 34.9693 97.4898 34.892C97.3405 34.812 97.2098 34.7173 97.0978 34.608C96.9885 34.496 96.9031 34.3653 96.8418 34.216C96.7805 34.0667 96.7498 33.896 96.7498 33.704C96.7498 33.3787 96.8351 33.0973 97.0058 32.86C97.1765 32.6227 97.4098 32.44 97.7058 32.312C98.0018 32.184 98.3391 32.1213 98.7178 32.124C99.1018 32.124 99.4445 32.192 99.7458 32.328C100.05 32.464 100.3 32.6587 100.498 32.912C100.695 33.1627 100.826 33.46 100.89 33.804L100.274 33.916C100.234 33.6653 100.142 33.448 99.9978 33.264C99.8538 33.08 99.6698 32.9387 99.4458 32.84C99.2245 32.7387 98.9805 32.6867 98.7138 32.684C98.4551 32.684 98.2245 32.728 98.0218 32.816C97.8218 32.9013 97.6631 33.0187 97.5458 33.168C97.4285 33.3173 97.3698 33.488 97.3698 33.68C97.3698 33.8747 97.4231 34.0307 97.5298 34.148C97.6391 34.2653 97.7725 34.3573 97.9298 34.424C98.0898 34.4907 98.2445 34.5453 98.3938 34.588L99.5218 34.92C99.6391 34.952 99.7765 34.9987 99.9338 35.06C100.094 35.1187 100.248 35.204 100.398 35.316C100.55 35.4253 100.675 35.5693 100.774 35.748C100.872 35.9267 100.922 36.1533 100.922 36.428C100.922 36.6947 100.868 36.9333 100.762 37.144C100.658 37.3547 100.51 37.532 100.318 37.676C100.128 37.82 99.9058 37.9293 99.6498 38.004C99.3965 38.0813 99.1191 38.12 98.8178 38.12ZM103.4 38.108C103.141 38.108 102.914 38.068 102.72 37.988C102.528 37.908 102.364 37.8 102.228 37.664C102.094 37.528 101.986 37.3733 101.904 37.2C101.821 37.024 101.761 36.8387 101.724 36.644C101.686 36.4467 101.668 36.2507 101.668 36.056V33.68H102.26V35.884C102.26 36.1213 102.282 36.3413 102.328 36.544C102.373 36.7467 102.445 36.924 102.544 37.076C102.645 37.2253 102.774 37.3413 102.932 37.424C103.092 37.5067 103.285 37.548 103.512 37.548C103.72 37.548 103.902 37.512 104.06 37.44C104.22 37.368 104.353 37.2653 104.46 37.132C104.569 36.996 104.652 36.832 104.708 36.64C104.764 36.4453 104.792 36.2267 104.792 35.984L105.207 36.076C105.207 36.5187 105.13 36.8907 104.976 37.192C104.821 37.4933 104.608 37.7213 104.336 37.876C104.064 38.0307 103.752 38.108 103.4 38.108ZM104.852 38V36.936H104.792V33.68H105.38V38H104.852ZM108.11 38.116C107.603 38.116 107.186 38.0067 106.858 37.788C106.532 37.5693 106.332 37.2653 106.258 36.876L106.858 36.776C106.922 37.0213 107.067 37.2173 107.294 37.364C107.523 37.508 107.806 37.58 108.141 37.58C108.47 37.58 108.728 37.512 108.918 37.376C109.107 37.2373 109.202 37.0493 109.202 36.812C109.202 36.6787 109.171 36.5707 109.11 36.488C109.051 36.4027 108.93 36.324 108.746 36.252C108.562 36.18 108.287 36.0947 107.922 35.996C107.53 35.8893 107.223 35.7827 107.002 35.676C106.78 35.5693 106.623 35.4467 106.53 35.308C106.436 35.1667 106.39 34.9947 106.39 34.792C106.39 34.5467 106.459 34.332 106.598 34.148C106.736 33.9613 106.928 33.8173 107.174 33.716C107.419 33.612 107.704 33.56 108.03 33.56C108.355 33.56 108.646 33.6133 108.902 33.72C109.16 33.824 109.368 33.9707 109.526 34.16C109.683 34.3493 109.776 34.5693 109.806 34.82L109.206 34.928C109.166 34.6747 109.039 34.4747 108.826 34.328C108.615 34.1787 108.347 34.1013 108.022 34.096C107.715 34.088 107.466 34.1467 107.274 34.272C107.082 34.3947 106.986 34.5587 106.986 34.764C106.986 34.8787 107.02 34.9773 107.09 35.06C107.159 35.14 107.284 35.216 107.466 35.288C107.65 35.36 107.911 35.4387 108.25 35.524C108.647 35.6253 108.959 35.732 109.186 35.844C109.412 35.956 109.574 36.088 109.67 36.24C109.766 36.392 109.814 36.58 109.814 36.804C109.814 37.212 109.662 37.5333 109.358 37.768C109.056 38 108.64 38.116 108.11 38.116ZM112.641 38.12C112.243 38.12 111.907 38.02 111.633 37.82C111.358 37.6173 111.15 37.344 111.009 37C110.867 36.6533 110.797 36.2653 110.797 35.836C110.797 35.3987 110.867 35.0093 111.009 34.668C111.153 34.324 111.363 34.0533 111.641 33.856C111.918 33.6587 112.259 33.56 112.665 33.56C113.059 33.56 113.398 33.66 113.681 33.86C113.963 34.06 114.179 34.332 114.329 34.676C114.481 35.02 114.557 35.4067 114.557 35.836C114.557 36.268 114.481 36.656 114.329 37C114.177 37.344 113.958 37.6173 113.673 37.82C113.387 38.02 113.043 38.12 112.641 38.12ZM110.697 39.92V33.68H111.225V36.932H111.289V39.92H110.697ZM112.581 37.572C112.882 37.572 113.133 37.496 113.333 37.344C113.533 37.192 113.682 36.9853 113.781 36.724C113.882 36.46 113.933 36.164 113.933 35.836C113.933 35.5107 113.883 35.2173 113.785 34.956C113.686 34.6947 113.535 34.488 113.333 34.336C113.133 34.184 112.878 34.108 112.569 34.108C112.267 34.108 112.017 34.1813 111.817 34.328C111.619 34.4747 111.471 34.6787 111.373 34.94C111.274 35.1987 111.225 35.4973 111.225 35.836C111.225 36.1693 111.274 36.468 111.373 36.732C111.471 36.9933 111.621 37.1987 111.821 37.348C112.021 37.4973 112.274 37.572 112.581 37.572ZM117.263 38.12C116.842 38.12 116.476 38.0267 116.167 37.84C115.86 37.6533 115.622 37.3907 115.451 37.052C115.28 36.7133 115.195 36.316 115.195 35.86C115.195 35.388 115.279 34.98 115.447 34.636C115.615 34.292 115.851 34.0267 116.155 33.84C116.462 33.6533 116.823 33.56 117.239 33.56C117.666 33.56 118.03 33.6587 118.331 33.856C118.632 34.0507 118.86 34.3307 119.015 34.696C119.17 35.0613 119.24 35.4973 119.227 36.004H118.627V35.796C118.616 35.236 118.495 34.8133 118.263 34.528C118.034 34.2427 117.698 34.1 117.255 34.1C116.791 34.1 116.435 34.2507 116.187 34.552C115.942 34.8533 115.819 35.2827 115.819 35.84C115.819 36.384 115.942 36.8067 116.187 37.108C116.435 37.4067 116.786 37.556 117.239 37.556C117.548 37.556 117.818 37.4853 118.047 37.344C118.279 37.2 118.462 36.9933 118.595 36.724L119.143 36.936C118.972 37.312 118.72 37.604 118.387 37.812C118.056 38.0173 117.682 38.12 117.263 38.12ZM115.611 36.004V35.512H118.911V36.004H115.611ZM123.118 38V35.796C123.118 35.556 123.095 35.336 123.05 35.136C123.004 34.9333 122.931 34.7573 122.83 34.608C122.731 34.456 122.602 34.3387 122.442 34.256C122.284 34.1733 122.092 34.132 121.866 34.132C121.658 34.132 121.474 34.168 121.314 34.24C121.156 34.312 121.023 34.416 120.914 34.552C120.807 34.6853 120.726 34.848 120.67 35.04C120.614 35.232 120.586 35.4507 120.586 35.696L120.17 35.604C120.17 35.1613 120.247 34.7893 120.402 34.488C120.556 34.1867 120.77 33.9587 121.042 33.804C121.314 33.6493 121.626 33.572 121.978 33.572C122.236 33.572 122.462 33.612 122.654 33.692C122.848 33.772 123.012 33.88 123.146 34.016C123.282 34.152 123.391 34.308 123.474 34.484C123.556 34.6573 123.616 34.8427 123.654 35.04C123.691 35.2347 123.71 35.4293 123.71 35.624V38H123.118ZM119.994 38V33.68H120.526V34.744H120.586V38H119.994ZM126.36 38.116C125.853 38.116 125.436 38.0067 125.108 37.788C124.782 37.5693 124.582 37.2653 124.508 36.876L125.108 36.776C125.172 37.0213 125.317 37.2173 125.544 37.364C125.773 37.508 126.056 37.58 126.391 37.58C126.72 37.58 126.978 37.512 127.168 37.376C127.357 37.2373 127.452 37.0493 127.452 36.812C127.452 36.6787 127.421 36.5707 127.36 36.488C127.301 36.4027 127.18 36.324 126.996 36.252C126.812 36.18 126.537 36.0947 126.172 35.996C125.78 35.8893 125.473 35.7827 125.252 35.676C125.03 35.5693 124.873 35.4467 124.78 35.308C124.686 35.1667 124.64 34.9947 124.64 34.792C124.64 34.5467 124.709 34.332 124.848 34.148C124.986 33.9613 125.178 33.8173 125.424 33.716C125.669 33.612 125.954 33.56 126.28 33.56C126.605 33.56 126.896 33.6133 127.152 33.72C127.41 33.824 127.618 33.9707 127.776 34.16C127.933 34.3493 128.026 34.5693 128.056 34.82L127.456 34.928C127.416 34.6747 127.289 34.4747 127.076 34.328C126.865 34.1787 126.597 34.1013 126.272 34.096C125.965 34.088 125.716 34.1467 125.524 34.272C125.332 34.3947 125.236 34.5587 125.236 34.764C125.236 34.8787 125.27 34.9773 125.34 35.06C125.409 35.14 125.534 35.216 125.716 35.288C125.9 35.36 126.161 35.4387 126.5 35.524C126.897 35.6253 127.209 35.732 127.436 35.844C127.662 35.956 127.824 36.088 127.92 36.24C128.016 36.392 128.064 36.58 128.064 36.804C128.064 37.212 127.912 37.5333 127.608 37.768C127.306 38 126.89 38.116 126.36 38.116ZM129.031 32.86V32.2H129.619V32.86H129.031ZM129.031 38V33.68H129.619V38H129.031ZM132.622 38.12C132.192 38.12 131.826 38.0227 131.522 37.828C131.218 37.6333 130.984 37.364 130.822 37.02C130.659 36.676 130.578 36.2813 130.578 35.836C130.578 35.3827 130.66 34.9853 130.826 34.644C130.991 34.3027 131.226 34.0373 131.53 33.848C131.836 33.656 132.2 33.56 132.622 33.56C133.054 33.56 133.422 33.6573 133.726 33.852C134.032 34.044 134.266 34.312 134.426 34.656C134.588 34.9973 134.67 35.3907 134.67 35.836C134.67 36.2893 134.588 36.688 134.426 37.032C134.263 37.3733 134.028 37.64 133.722 37.832C133.415 38.024 133.048 38.12 132.622 38.12ZM132.622 37.556C133.102 37.556 133.459 37.3973 133.694 37.08C133.928 36.76 134.046 36.3453 134.046 35.836C134.046 35.3133 133.927 34.8973 133.69 34.588C133.455 34.2787 133.099 34.124 132.622 34.124C132.299 34.124 132.032 34.1973 131.822 34.344C131.614 34.488 131.458 34.6893 131.354 34.948C131.252 35.204 131.202 35.5 131.202 35.836C131.202 36.356 131.322 36.7733 131.562 37.088C131.802 37.4 132.155 37.556 132.622 37.556ZM138.672 38V35.796C138.672 35.556 138.65 35.336 138.604 35.136C138.559 34.9333 138.486 34.7573 138.384 34.608C138.286 34.456 138.156 34.3387 137.996 34.256C137.839 34.1733 137.647 34.132 137.42 34.132C137.212 34.132 137.028 34.168 136.868 34.24C136.711 34.312 136.578 34.416 136.468 34.552C136.362 34.6853 136.28 34.848 136.224 35.04C136.168 35.232 136.14 35.4507 136.14 35.696L135.724 35.604C135.724 35.1613 135.802 34.7893 135.956 34.488C136.111 34.1867 136.324 33.9587 136.596 33.804C136.868 33.6493 137.18 33.572 137.532 33.572C137.791 33.572 138.016 33.612 138.208 33.692C138.403 33.772 138.567 33.88 138.7 34.016C138.836 34.152 138.946 34.308 139.028 34.484C139.111 34.6573 139.171 34.8427 139.208 35.04C139.246 35.2347 139.264 35.4293 139.264 35.624V38H138.672ZM135.548 38V33.68H136.08V34.744H136.14V38H135.548ZM110.81 46V40.24H114.118V40.828H111.398V42.828H113.638V43.412H111.398V46H110.81ZM116.528 46.12C116.099 46.12 115.732 46.0227 115.428 45.828C115.124 45.6333 114.891 45.364 114.728 45.02C114.565 44.676 114.484 44.2813 114.484 43.836C114.484 43.3827 114.567 42.9853 114.732 42.644C114.897 42.3027 115.132 42.0373 115.436 41.848C115.743 41.656 116.107 41.56 116.528 41.56C116.96 41.56 117.328 41.6573 117.632 41.852C117.939 42.044 118.172 42.312 118.332 42.656C118.495 42.9973 118.576 43.3907 118.576 43.836C118.576 44.2893 118.495 44.688 118.332 45.032C118.169 45.3733 117.935 45.64 117.628 45.832C117.321 46.024 116.955 46.12 116.528 46.12ZM116.528 45.556C117.008 45.556 117.365 45.3973 117.6 45.08C117.835 44.76 117.952 44.3453 117.952 43.836C117.952 43.3133 117.833 42.8973 117.596 42.588C117.361 42.2787 117.005 42.124 116.528 42.124C116.205 42.124 115.939 42.1973 115.728 42.344C115.52 42.488 115.364 42.6893 115.26 42.948C115.159 43.204 115.108 43.5 115.108 43.836C115.108 44.356 115.228 44.7733 115.468 45.088C115.708 45.4 116.061 45.556 116.528 45.556ZM119.458 46V41.68H119.986V42.72L119.882 42.584C119.93 42.456 119.993 42.3387 120.07 42.232C120.148 42.1227 120.232 42.0333 120.322 41.964C120.434 41.8653 120.565 41.7907 120.714 41.74C120.864 41.6867 121.014 41.656 121.166 41.648C121.318 41.6373 121.457 41.648 121.582 41.68V42.232C121.425 42.192 121.253 42.1827 121.066 42.204C120.88 42.2253 120.708 42.3 120.55 42.428C120.406 42.54 120.298 42.6747 120.226 42.832C120.154 42.9867 120.106 43.152 120.082 43.328C120.058 43.5013 120.046 43.6733 120.046 43.844V46H119.458ZM122.337 46L122.341 40.24H122.933V43.76L124.861 41.68H125.645L123.621 43.84L125.909 46H125.053L122.933 43.92V46H122.337Z" fill="#222222"/>
</g>
<path d="M99.98 23V12.92H106.049V14.607H101.667V17.12H105.209V18.8H101.667V23H99.98ZM111.571 23.21C110.563 23.21 109.7 22.9907 108.981 22.552C108.262 22.1087 107.709 21.4927 107.322 20.704C106.939 19.9153 106.748 19.0007 106.748 17.96C106.748 16.9193 106.939 16.0047 107.322 15.216C107.709 14.4273 108.262 13.8137 108.981 13.375C109.7 12.9317 110.563 12.71 111.571 12.71C112.579 12.71 113.442 12.9317 114.161 13.375C114.884 13.8137 115.437 14.4273 115.82 15.216C116.207 16.0047 116.401 16.9193 116.401 17.96C116.401 19.0007 116.207 19.9153 115.82 20.704C115.437 21.4927 114.884 22.1087 114.161 22.552C113.442 22.9907 112.579 23.21 111.571 23.21ZM111.571 21.621C112.248 21.6257 112.81 21.4763 113.258 21.173C113.711 20.8697 114.049 20.4427 114.273 19.892C114.502 19.3413 114.616 18.6973 114.616 17.96C114.616 17.2227 114.502 16.5833 114.273 16.042C114.049 15.496 113.711 15.0713 113.258 14.768C112.81 14.4647 112.248 14.3083 111.571 14.299C110.894 14.2943 110.332 14.4437 109.884 14.747C109.436 15.0503 109.098 15.4773 108.869 16.028C108.645 16.5787 108.533 17.2227 108.533 17.96C108.533 18.6973 108.645 19.339 108.869 19.885C109.093 20.4263 109.429 20.8487 109.877 21.152C110.33 21.4553 110.894 21.6117 111.571 21.621ZM117.794 23V12.92H121.959C122.057 12.92 122.183 12.9247 122.337 12.934C122.491 12.9387 122.634 12.9527 122.764 12.976C123.348 13.0647 123.828 13.2583 124.206 13.557C124.589 13.8557 124.871 14.2337 125.053 14.691C125.24 15.1437 125.333 15.6477 125.333 16.203C125.333 17.0243 125.126 17.7313 124.71 18.324C124.295 18.912 123.658 19.276 122.799 19.416L122.078 19.479H119.481V23H117.794ZM123.583 23L121.595 18.898L123.31 18.52L125.494 23H123.583ZM119.481 17.904H121.889C121.983 17.904 122.088 17.8993 122.204 17.89C122.321 17.8807 122.428 17.862 122.526 17.834C122.806 17.764 123.026 17.6403 123.184 17.463C123.348 17.2857 123.462 17.085 123.527 16.861C123.597 16.637 123.632 16.4177 123.632 16.203C123.632 15.9883 123.597 15.769 123.527 15.545C123.462 15.3163 123.348 15.1133 123.184 14.936C123.026 14.7587 122.806 14.635 122.526 14.565C122.428 14.537 122.321 14.5207 122.204 14.516C122.088 14.5067 121.983 14.502 121.889 14.502H119.481V17.904ZM127.037 23V12.92H128.724V17.596L132.749 12.92H134.821L130.488 17.862L135.115 23H132.973L128.724 18.296V23H127.037Z" fill="#222222"/>
<rect x="162.697" width="73.9535" height="56" rx="7" fill="#F1F1F1"/>
<g clip-path="url(#clip2_1324_98)">
<path d="M194.865 38.12C194.462 38.12 194.099 38.0533 193.777 37.92C193.457 37.784 193.191 37.592 192.981 37.344C192.773 37.096 192.637 36.8013 192.573 36.46L193.173 36.36C193.269 36.7333 193.471 37.0267 193.781 37.24C194.09 37.4507 194.459 37.556 194.889 37.556C195.171 37.556 195.425 37.512 195.649 37.424C195.873 37.3333 196.049 37.2053 196.177 37.04C196.305 36.8747 196.369 36.6787 196.369 36.452C196.369 36.3027 196.342 36.176 196.289 36.072C196.235 35.9653 196.165 35.8773 196.077 35.808C195.989 35.7387 195.893 35.6813 195.789 35.636C195.685 35.588 195.583 35.5493 195.485 35.52L194.025 35.084C193.849 35.0333 193.686 34.9693 193.537 34.892C193.387 34.812 193.257 34.7173 193.145 34.608C193.035 34.496 192.95 34.3653 192.889 34.216C192.827 34.0667 192.797 33.896 192.797 33.704C192.797 33.3787 192.882 33.0973 193.053 32.86C193.223 32.6227 193.457 32.44 193.753 32.312C194.049 32.184 194.386 32.1213 194.765 32.124C195.149 32.124 195.491 32.192 195.793 32.328C196.097 32.464 196.347 32.6587 196.545 32.912C196.742 33.1627 196.873 33.46 196.937 33.804L196.321 33.916C196.281 33.6653 196.189 33.448 196.045 33.264C195.901 33.08 195.717 32.9387 195.493 32.84C195.271 32.7387 195.027 32.6867 194.761 32.684C194.502 32.684 194.271 32.728 194.069 32.816C193.869 32.9013 193.71 33.0187 193.593 33.168C193.475 33.3173 193.417 33.488 193.417 33.68C193.417 33.8747 193.47 34.0307 193.577 34.148C193.686 34.2653 193.819 34.3573 193.977 34.424C194.137 34.4907 194.291 34.5453 194.441 34.588L195.569 34.92C195.686 34.952 195.823 34.9987 195.981 35.06C196.141 35.1187 196.295 35.204 196.445 35.316C196.597 35.4253 196.722 35.5693 196.821 35.748C196.919 35.9267 196.969 36.1533 196.969 36.428C196.969 36.6947 196.915 36.9333 196.809 37.144C196.705 37.3547 196.557 37.532 196.365 37.676C196.175 37.82 195.953 37.9293 195.697 38.004C195.443 38.0813 195.166 38.12 194.865 38.12ZM197.874 32.86V32.2H198.462V32.86H197.874ZM197.874 38V33.68H198.462V38H197.874ZM199.262 38V37.876L202.05 34.228H199.47V33.68H203.018V33.816L200.234 37.452H202.866V38H199.262ZM205.404 38.12C204.982 38.12 204.617 38.0267 204.308 37.84C204.001 37.6533 203.762 37.3907 203.592 37.052C203.421 36.7133 203.336 36.316 203.336 35.86C203.336 35.388 203.42 34.98 203.588 34.636C203.756 34.292 203.992 34.0267 204.296 33.84C204.602 33.6533 204.964 33.56 205.38 33.56C205.806 33.56 206.17 33.6587 206.472 33.856C206.773 34.0507 207.001 34.3307 207.156 34.696C207.31 35.0613 207.381 35.4973 207.368 36.004H206.768V35.796C206.757 35.236 206.636 34.8133 206.404 34.528C206.174 34.2427 205.838 34.1 205.396 34.1C204.932 34.1 204.576 34.2507 204.328 34.552C204.082 34.8533 203.96 35.2827 203.96 35.84C203.96 36.384 204.082 36.8067 204.328 37.108C204.576 37.4067 204.926 37.556 205.38 37.556C205.689 37.556 205.958 37.4853 206.188 37.344C206.42 37.2 206.602 36.9933 206.736 36.724L207.284 36.936C207.113 37.312 206.861 37.604 206.528 37.812C206.197 38.0173 205.822 38.12 205.404 38.12ZM203.752 36.004V35.512H207.052V36.004H203.752ZM197.525 46V40.896L196.441 41.548V40.888L197.525 40.24H198.121V46H197.525ZM201.586 46.12C201.226 46.12 200.898 46.0333 200.602 45.86C200.309 45.684 200.074 45.4467 199.898 45.148C199.725 44.8467 199.638 44.508 199.638 44.132V42.136C199.638 41.7493 199.725 41.4053 199.898 41.104C200.071 40.8 200.307 40.5613 200.606 40.388C200.907 40.212 201.249 40.124 201.63 40.124C201.958 40.124 202.262 40.196 202.542 40.34C202.825 40.484 203.055 40.6853 203.234 40.944L202.782 41.316C202.659 41.124 202.497 40.9707 202.294 40.856C202.091 40.7413 201.87 40.684 201.63 40.684C201.361 40.684 201.121 40.7493 200.91 40.88C200.699 41.0107 200.534 41.1827 200.414 41.396C200.294 41.6067 200.234 41.836 200.234 42.084V43.34L200.086 43.172C200.254 42.908 200.474 42.6947 200.746 42.532C201.021 42.3693 201.319 42.288 201.642 42.288C201.999 42.288 202.321 42.3733 202.606 42.544C202.891 42.712 203.118 42.94 203.286 43.228C203.454 43.516 203.538 43.8387 203.538 44.196C203.538 44.5507 203.449 44.8733 203.27 45.164C203.094 45.4547 202.858 45.6867 202.562 45.86C202.269 46.0333 201.943 46.12 201.586 46.12ZM201.586 45.548C201.837 45.548 202.065 45.488 202.27 45.368C202.478 45.248 202.642 45.0853 202.762 44.88C202.885 44.6747 202.946 44.4467 202.946 44.196C202.946 43.9453 202.885 43.7173 202.762 43.512C202.642 43.304 202.479 43.14 202.274 43.02C202.069 42.8973 201.841 42.836 201.59 42.836C201.339 42.836 201.111 42.8973 200.906 43.02C200.701 43.14 200.537 43.304 200.414 43.512C200.294 43.7173 200.234 43.9453 200.234 44.196C200.234 44.444 200.294 44.6707 200.414 44.876C200.534 45.0813 200.697 45.2453 200.902 45.368C201.107 45.488 201.335 45.548 201.586 45.548Z" fill="#222222"/>
</g>
<path d="M179.108 23L176.161 12.92H177.932L179.941 20.2L181.943 12.934L183.714 12.92L185.723 20.2L187.725 12.92H189.496L186.556 23H184.89L182.825 15.832L180.774 23H179.108ZM190.638 23V12.92H192.325V17.162H197.099V12.92H198.779V23H197.099V18.744H192.325V23H190.638ZM200.742 23V12.92H207.252V14.502H202.429V16.987H206.412V18.569H202.429V21.418H207.252V23H200.742ZM208.931 23V12.92H215.441V14.502H210.618V16.987H214.601V18.569H210.618V21.418H215.441V23H208.931ZM217.261 23V12.92H218.948V21.418H223.4V23H217.261Z" fill="#222222"/>
<defs>
<clipPath id="clip0_1324_98">
<rect width="44" height="16" fill="white" transform="translate(259 31)"/>
</clipPath>
<clipPath id="clip1_1324_98">
<rect width="46" height="16" fill="white" transform="translate(95 31)"/>
</clipPath>
<clipPath id="clip2_1324_98">
<rect width="23" height="16" fill="white" transform="translate(188.5 31)"/>
</clipPath>
</defs>
</svg>
