<svg width="318" height="56" viewBox="0 0 318 56" fill="none" xmlns="http://www.w3.org/2000/svg">
<rect width="73.3372" height="56" rx="7" fill="#F1F1F1"/>
<path d="M18.4975 38V32.24H19.0855V34.836H22.2695V32.24H22.8535V38H22.2695V35.4H19.0855V38H18.4975ZM24.0541 32.86V32.2H24.6421V32.86H24.0541ZM24.0541 38V33.68H24.6421V38H24.0541ZM25.7613 35.732V35.228H28.1613V35.732H25.7613ZM30.092 38V32.804H28.08V32.24H32.692V32.804H30.68V38H30.092ZM34.5208 38.12C34.0995 38.12 33.7341 38.0267 33.4248 37.84C33.1181 37.6533 32.8795 37.3907 32.7088 37.052C32.5381 36.7133 32.4528 36.316 32.4528 35.86C32.4528 35.388 32.5368 34.98 32.7048 34.636C32.8728 34.292 33.1088 34.0267 33.4128 33.84C33.7195 33.6533 34.0808 33.56 34.4968 33.56C34.9235 33.56 35.2875 33.6587 35.5888 33.856C35.8901 34.0507 36.1181 34.3307 36.2728 34.696C36.4275 35.0613 36.4981 35.4973 36.4848 36.004H35.8848V35.796C35.8741 35.236 35.7528 34.8133 35.5208 34.528C35.2915 34.2427 34.9555 34.1 34.5128 34.1C34.0488 34.1 33.6928 34.2507 33.4448 34.552C33.1995 34.8533 33.0768 35.2827 33.0768 35.84C33.0768 36.384 33.1995 36.8067 33.4448 37.108C33.6928 37.4067 34.0435 37.556 34.4968 37.556C34.8061 37.556 35.0755 37.4853 35.3048 37.344C35.5368 37.2 35.7195 36.9933 35.8528 36.724L36.4008 36.936C36.2301 37.312 35.9781 37.604 35.6448 37.812C35.3141 38.0173 34.9395 38.12 34.5208 38.12ZM32.8688 36.004V35.512H36.1688V36.004H32.8688ZM40.3753 38V35.796C40.3753 35.556 40.3526 35.336 40.3073 35.136C40.262 34.9333 40.1886 34.7573 40.0873 34.608C39.9886 34.456 39.8593 34.3387 39.6993 34.256C39.542 34.1733 39.35 34.132 39.1233 34.132C38.9153 34.132 38.7313 34.168 38.5713 34.24C38.414 34.312 38.2806 34.416 38.1713 34.552C38.0646 34.6853 37.9833 34.848 37.9273 35.04C37.8713 35.232 37.8433 35.4507 37.8433 35.696L37.4273 35.604C37.4273 35.1613 37.5046 34.7893 37.6593 34.488C37.814 34.1867 38.0273 33.9587 38.2993 33.804C38.5713 33.6493 38.8833 33.572 39.2353 33.572C39.494 33.572 39.7193 33.612 39.9113 33.692C40.106 33.772 40.27 33.88 40.4033 34.016C40.5393 34.152 40.6486 34.308 40.7313 34.484C40.814 34.6573 40.874 34.8427 40.9113 35.04C40.9486 35.2347 40.9673 35.4293 40.9673 35.624V38H40.3753ZM37.2513 38V33.68H37.7833V34.744H37.8433V38H37.2513ZM43.6173 38.116C43.1106 38.116 42.6933 38.0067 42.3653 37.788C42.04 37.5693 41.84 37.2653 41.7653 36.876L42.3653 36.776C42.4293 37.0213 42.5746 37.2173 42.8013 37.364C43.0306 37.508 43.3133 37.58 43.6493 37.58C43.9773 37.58 44.236 37.512 44.4253 37.376C44.6146 37.2373 44.7093 37.0493 44.7093 36.812C44.7093 36.6787 44.6786 36.5707 44.6173 36.488C44.5586 36.4027 44.4373 36.324 44.2533 36.252C44.0693 36.18 43.7946 36.0947 43.4293 35.996C43.0373 35.8893 42.7306 35.7827 42.5093 35.676C42.288 35.5693 42.1306 35.4467 42.0373 35.308C41.944 35.1667 41.8973 34.9947 41.8973 34.792C41.8973 34.5467 41.9666 34.332 42.1053 34.148C42.244 33.9613 42.436 33.8173 42.6813 33.716C42.9266 33.612 43.212 33.56 43.5373 33.56C43.8626 33.56 44.1533 33.6133 44.4093 33.72C44.668 33.824 44.876 33.9707 45.0333 34.16C45.1906 34.3493 45.284 34.5693 45.3133 34.82L44.7133 34.928C44.6733 34.6747 44.5466 34.4747 44.3333 34.328C44.1226 34.1787 43.8546 34.1013 43.5293 34.096C43.2226 34.088 42.9733 34.1467 42.7813 34.272C42.5893 34.3947 42.4933 34.5587 42.4933 34.764C42.4933 34.8787 42.528 34.9773 42.5973 35.06C42.6666 35.14 42.792 35.216 42.9733 35.288C43.1573 35.36 43.4186 35.4387 43.7573 35.524C44.1546 35.6253 44.4666 35.732 44.6933 35.844C44.92 35.956 45.0813 36.088 45.1773 36.24C45.2733 36.392 45.3213 36.58 45.3213 36.804C45.3213 37.212 45.1693 37.5333 44.8653 37.768C44.564 38 44.148 38.116 43.6173 38.116ZM46.2884 32.86V32.2H46.8764V32.86H46.2884ZM46.2884 38V33.68H46.8764V38H46.2884ZM48.1556 38V32.12H48.7436V38H48.1556ZM51.7708 38.12C51.3495 38.12 50.9841 38.0267 50.6748 37.84C50.3681 37.6533 50.1295 37.3907 49.9588 37.052C49.7881 36.7133 49.7028 36.316 49.7028 35.86C49.7028 35.388 49.7868 34.98 49.9548 34.636C50.1228 34.292 50.3588 34.0267 50.6628 33.84C50.9695 33.6533 51.3308 33.56 51.7468 33.56C52.1735 33.56 52.5375 33.6587 52.8388 33.856C53.1401 34.0507 53.3681 34.3307 53.5228 34.696C53.6775 35.0613 53.7481 35.4973 53.7348 36.004H53.1348V35.796C53.1241 35.236 53.0028 34.8133 52.7708 34.528C52.5415 34.2427 52.2055 34.1 51.7628 34.1C51.2988 34.1 50.9428 34.2507 50.6948 34.552C50.4495 34.8533 50.3268 35.2827 50.3268 35.84C50.3268 36.384 50.4495 36.8067 50.6948 37.108C50.9428 37.4067 51.2935 37.556 51.7468 37.556C52.0561 37.556 52.3255 37.4853 52.5548 37.344C52.7868 37.2 52.9695 36.9933 53.1028 36.724L53.6508 36.936C53.4801 37.312 53.2281 37.604 52.8948 37.812C52.5641 38.0173 52.1895 38.12 51.7708 38.12ZM50.1188 36.004V35.512H53.4188V36.004H50.1188ZM28.9584 46.12C28.5558 46.12 28.1931 46.0533 27.8704 45.92C27.5504 45.784 27.2851 45.592 27.0744 45.344C26.8664 45.096 26.7304 44.8013 26.6664 44.46L27.2664 44.36C27.3624 44.7333 27.5651 45.0267 27.8744 45.24C28.1838 45.4507 28.5531 45.556 28.9824 45.556C29.2651 45.556 29.5184 45.512 29.7424 45.424C29.9664 45.3333 30.1424 45.2053 30.2704 45.04C30.3984 44.8747 30.4624 44.6787 30.4624 44.452C30.4624 44.3027 30.4358 44.176 30.3824 44.072C30.3291 43.9653 30.2584 43.8773 30.1704 43.808C30.0824 43.7387 29.9864 43.6813 29.8824 43.636C29.7784 43.588 29.6771 43.5493 29.5784 43.52L28.1184 43.084C27.9424 43.0333 27.7798 42.9693 27.6304 42.892C27.4811 42.812 27.3504 42.7173 27.2384 42.608C27.1291 42.496 27.0438 42.3653 26.9824 42.216C26.9211 42.0667 26.8904 41.896 26.8904 41.704C26.8904 41.3787 26.9758 41.0973 27.1464 40.86C27.3171 40.6227 27.5504 40.44 27.8464 40.312C28.1424 40.184 28.4798 40.1213 28.8584 40.124C29.2424 40.124 29.5851 40.192 29.8864 40.328C30.1904 40.464 30.4411 40.6587 30.6384 40.912C30.8358 41.1627 30.9664 41.46 31.0304 41.804L30.4144 41.916C30.3744 41.6653 30.2824 41.448 30.1384 41.264C29.9944 41.08 29.8104 40.9387 29.5864 40.84C29.3651 40.7387 29.1211 40.6867 28.8544 40.684C28.5958 40.684 28.3651 40.728 28.1624 40.816C27.9624 40.9013 27.8038 41.0187 27.6864 41.168C27.5691 41.3173 27.5104 41.488 27.5104 41.68C27.5104 41.8747 27.5638 42.0307 27.6704 42.148C27.7798 42.2653 27.9131 42.3573 28.0704 42.424C28.2304 42.4907 28.3851 42.5453 28.5344 42.588L29.6624 42.92C29.7798 42.952 29.9171 42.9987 30.0744 43.06C30.2344 43.1187 30.3891 43.204 30.5384 43.316C30.6904 43.4253 30.8158 43.5693 30.9144 43.748C31.0131 43.9267 31.0624 44.1533 31.0624 44.428C31.0624 44.6947 31.0091 44.9333 30.9024 45.144C30.7984 45.3547 30.6504 45.532 30.4584 45.676C30.2691 45.82 30.0464 45.9293 29.7904 46.004C29.5371 46.0813 29.2598 46.12 28.9584 46.12ZM34.2401 46C33.9975 46.0507 33.7575 46.0707 33.5201 46.06C33.2855 46.0493 33.0748 45.9987 32.8881 45.908C32.7041 45.8173 32.5641 45.676 32.4681 45.484C32.3908 45.324 32.3481 45.1627 32.3401 45C32.3348 44.8347 32.3321 44.6467 32.3321 44.436V40.48H32.9161V44.412C32.9161 44.5933 32.9175 44.7453 32.9201 44.868C32.9255 44.988 32.9535 45.0947 33.0041 45.188C33.1001 45.3667 33.2521 45.4733 33.4601 45.508C33.6708 45.5427 33.9308 45.5347 34.2401 45.484V46ZM31.4081 42.184V41.68H34.2401V42.184H31.4081ZM36.763 46.12C36.3417 46.12 35.9763 46.0267 35.667 45.84C35.3603 45.6533 35.1217 45.3907 34.951 45.052C34.7803 44.7133 34.695 44.316 34.695 43.86C34.695 43.388 34.779 42.98 34.947 42.636C35.115 42.292 35.351 42.0267 35.655 41.84C35.9617 41.6533 36.323 41.56 36.739 41.56C37.1657 41.56 37.5297 41.6587 37.831 41.856C38.1323 42.0507 38.3603 42.3307 38.515 42.696C38.6697 43.0613 38.7403 43.4973 38.727 44.004H38.127V43.796C38.1163 43.236 37.995 42.8133 37.763 42.528C37.5337 42.2427 37.1977 42.1 36.755 42.1C36.291 42.1 35.935 42.2507 35.687 42.552C35.4417 42.8533 35.319 43.2827 35.319 43.84C35.319 44.384 35.4417 44.8067 35.687 45.108C35.935 45.4067 36.2857 45.556 36.739 45.556C37.0483 45.556 37.3177 45.4853 37.547 45.344C37.779 45.2 37.9617 44.9933 38.095 44.724L38.643 44.936C38.4723 45.312 38.2203 45.604 37.887 45.812C37.5563 46.0173 37.1817 46.12 36.763 46.12ZM35.111 44.004V43.512H38.411V44.004H35.111ZM41.4427 46.12C41.0214 46.12 40.656 46.0267 40.3467 45.84C40.04 45.6533 39.8014 45.3907 39.6307 45.052C39.46 44.7133 39.3747 44.316 39.3747 43.86C39.3747 43.388 39.4587 42.98 39.6267 42.636C39.7947 42.292 40.0307 42.0267 40.3347 41.84C40.6414 41.6533 41.0027 41.56 41.4187 41.56C41.8454 41.56 42.2094 41.6587 42.5107 41.856C42.812 42.0507 43.04 42.3307 43.1947 42.696C43.3494 43.0613 43.42 43.4973 43.4067 44.004H42.8067V43.796C42.796 43.236 42.6747 42.8133 42.4427 42.528C42.2134 42.2427 41.8774 42.1 41.4347 42.1C40.9707 42.1 40.6147 42.2507 40.3667 42.552C40.1214 42.8533 39.9987 43.2827 39.9987 43.84C39.9987 44.384 40.1214 44.8067 40.3667 45.108C40.6147 45.4067 40.9654 45.556 41.4187 45.556C41.728 45.556 41.9974 45.4853 42.2267 45.344C42.4587 45.2 42.6414 44.9933 42.7747 44.724L43.3227 44.936C43.152 45.312 42.9 45.604 42.5667 45.812C42.236 46.0173 41.8614 46.12 41.4427 46.12ZM39.7907 44.004V43.512H43.0907V44.004H39.7907ZM44.3744 46V40.12H44.9624V46H44.3744Z" fill="#222222"/>
<path d="M13.3696 23.4243V13.3443H19.4386V15.0313H15.0566V17.5443H18.5986V19.2243H15.0566V23.4243H13.3696ZM20.6978 23.4243V13.3443H24.8628C24.9608 13.3443 25.0868 13.349 25.2408 13.3583C25.3948 13.363 25.5371 13.377 25.6678 13.4003C26.2511 13.489 26.7318 13.6826 27.1098 13.9813C27.4924 14.28 27.7748 14.658 27.9568 15.1153C28.1434 15.568 28.2368 16.072 28.2368 16.6273C28.2368 17.4486 28.0291 18.1556 27.6138 18.7483C27.1984 19.3363 26.5614 19.7003 25.7028 19.8403L24.9818 19.9033H22.3848V23.4243H20.6978ZM26.4868 23.4243L24.4988 19.3223L26.2138 18.9443L28.3978 23.4243H26.4868ZM22.3848 18.3283H24.7928C24.8861 18.3283 24.9911 18.3236 25.1078 18.3143C25.2244 18.305 25.3318 18.2863 25.4298 18.2583C25.7098 18.1883 25.9291 18.0646 26.0878 17.8873C26.2511 17.71 26.3654 17.5093 26.4308 17.2853C26.5008 17.0613 26.5358 16.842 26.5358 16.6273C26.5358 16.4126 26.5008 16.1933 26.4308 15.9693C26.3654 15.7406 26.2511 15.5376 26.0878 15.3603C25.9291 15.183 25.7098 15.0593 25.4298 14.9893C25.3318 14.9613 25.2244 14.945 25.1078 14.9403C24.9911 14.931 24.8861 14.9263 24.7928 14.9263H22.3848V18.3283ZM29.24 23.4243L32.418 13.3443H34.889L38.067 23.4243H36.331L33.447 14.3803H33.825L30.976 23.4243H29.24ZM31.011 21.2403V19.6653H36.303V21.2403H31.011ZM39.3325 23.4243V13.3443H40.8515L44.3375 20.4843L47.8235 13.3443H49.3425V23.4243H47.7675V16.9633L44.6735 23.4243H44.0015L40.9145 16.9633V23.4243H39.3325ZM51.3091 23.4243V13.3443H57.8191V14.9263H52.9961V17.4113H56.9791V18.9933H52.9961V21.8423H57.8191V23.4243H51.3091Z" fill="#222222"/>
<rect x="244.662" width="73.3372" height="56" rx="7" fill="#F1F1F1"/>
<g clip-path="url(#clip0_1324_174)">
<path d="M262.138 37.996L262.142 37.46L264.746 35.108C264.97 34.9053 265.118 34.7133 265.19 34.532C265.265 34.348 265.302 34.156 265.302 33.956C265.302 33.7187 265.246 33.504 265.134 33.312C265.022 33.12 264.872 32.968 264.682 32.856C264.493 32.7413 264.281 32.684 264.046 32.684C263.801 32.684 263.582 32.7427 263.39 32.86C263.198 32.9773 263.046 33.132 262.934 33.324C262.825 33.516 262.772 33.7253 262.774 33.952H262.174C262.174 33.6027 262.257 33.2893 262.422 33.012C262.588 32.7347 262.812 32.5173 263.094 32.36C263.377 32.2 263.697 32.12 264.054 32.12C264.404 32.12 264.717 32.2027 264.994 32.368C265.274 32.5307 265.494 32.752 265.654 33.032C265.817 33.3093 265.898 33.6187 265.898 33.96C265.898 34.2 265.869 34.412 265.81 34.596C265.754 34.7773 265.665 34.9467 265.542 35.104C265.422 35.2587 265.269 35.4187 265.082 35.584L262.77 37.672L262.678 37.432H265.898V37.996H262.138ZM267.169 38L269.289 32.812H266.621V32.24H269.917V32.812L267.801 38H267.169ZM270.457 38V37.316H271.141V38H270.457ZM274.076 38.12C273.778 38.12 273.502 38.0587 273.248 37.936C272.995 37.8133 272.779 37.644 272.6 37.428C272.422 37.212 272.294 36.964 272.216 36.684L272.78 36.532C272.831 36.74 272.923 36.92 273.056 37.072C273.19 37.2213 273.346 37.3373 273.524 37.42C273.706 37.5027 273.895 37.544 274.092 37.544C274.348 37.544 274.578 37.4827 274.78 37.36C274.986 37.2347 275.148 37.0693 275.268 36.864C275.388 36.6587 275.448 36.4333 275.448 36.188C275.448 35.9347 275.386 35.7067 275.26 35.504C275.135 35.2987 274.97 35.136 274.764 35.016C274.559 34.896 274.335 34.836 274.092 34.836C273.82 34.836 273.586 34.896 273.388 35.016C273.191 35.1333 273.034 35.2813 272.916 35.46L272.38 35.236L272.556 32.24H275.632V32.804H272.816L273.108 32.528L272.952 35.084L272.804 34.888C272.97 34.6987 273.17 34.5507 273.404 34.444C273.639 34.3373 273.886 34.284 274.144 34.284C274.499 34.284 274.819 34.3693 275.104 34.54C275.39 34.708 275.616 34.936 275.784 35.224C275.952 35.512 276.036 35.8333 276.036 36.188C276.036 36.54 275.947 36.8627 275.768 37.156C275.59 37.4467 275.352 37.68 275.056 37.856C274.76 38.032 274.434 38.12 274.076 38.12ZM278.115 38L280.111 35.084L278.167 32.24H278.879L280.459 34.592L282.039 32.24H282.755L280.811 35.084L282.803 38H282.091L280.459 35.58L278.831 38H278.115ZM284.888 37.996L284.892 37.46L287.496 35.108C287.72 34.9053 287.868 34.7133 287.94 34.532C288.015 34.348 288.052 34.156 288.052 33.956C288.052 33.7187 287.996 33.504 287.884 33.312C287.772 33.12 287.622 32.968 287.432 32.856C287.243 32.7413 287.031 32.684 286.796 32.684C286.551 32.684 286.332 32.7427 286.14 32.86C285.948 32.9773 285.796 33.132 285.684 33.324C285.575 33.516 285.522 33.7253 285.524 33.952H284.924C284.924 33.6027 285.007 33.2893 285.172 33.012C285.338 32.7347 285.562 32.5173 285.844 32.36C286.127 32.2 286.447 32.12 286.804 32.12C287.154 32.12 287.467 32.2027 287.744 32.368C288.024 32.5307 288.244 32.752 288.404 33.032C288.567 33.3093 288.648 33.6187 288.648 33.96C288.648 34.2 288.619 34.412 288.56 34.596C288.504 34.7773 288.415 34.9467 288.292 35.104C288.172 35.2587 288.019 35.4187 287.832 35.584L285.52 37.672L285.428 37.432H288.648V37.996H284.888ZM289.723 38V37.316H290.407V38H289.723ZM291.482 37.996L291.486 37.46L294.09 35.108C294.314 34.9053 294.462 34.7133 294.534 34.532C294.609 34.348 294.646 34.156 294.646 33.956C294.646 33.7187 294.59 33.504 294.478 33.312C294.366 33.12 294.215 32.968 294.026 32.856C293.837 32.7413 293.625 32.684 293.39 32.684C293.145 32.684 292.926 32.7427 292.734 32.86C292.542 32.9773 292.39 33.132 292.278 33.324C292.169 33.516 292.115 33.7253 292.118 33.952H291.518C291.518 33.6027 291.601 33.2893 291.766 33.012C291.931 32.7347 292.155 32.5173 292.438 32.36C292.721 32.2 293.041 32.12 293.398 32.12C293.747 32.12 294.061 32.2027 294.338 32.368C294.618 32.5307 294.838 32.752 294.998 33.032C295.161 33.3093 295.242 33.6187 295.242 33.96C295.242 34.2 295.213 34.412 295.154 34.596C295.098 34.7773 295.009 34.9467 294.886 35.104C294.766 35.2587 294.613 35.4187 294.426 35.584L292.114 37.672L292.022 37.432H295.242V37.996H291.482ZM297.905 38.12C297.606 38.12 297.33 38.0587 297.077 37.936C296.823 37.8133 296.607 37.644 296.429 37.428C296.25 37.212 296.122 36.964 296.045 36.684L296.609 36.532C296.659 36.74 296.751 36.92 296.885 37.072C297.018 37.2213 297.174 37.3373 297.353 37.42C297.534 37.5027 297.723 37.544 297.921 37.544C298.177 37.544 298.406 37.4827 298.609 37.36C298.814 37.2347 298.977 37.0693 299.097 36.864C299.217 36.6587 299.277 36.4333 299.277 36.188C299.277 35.9347 299.214 35.7067 299.089 35.504C298.963 35.2987 298.798 35.136 298.593 35.016C298.387 34.896 298.163 34.836 297.921 34.836C297.649 34.836 297.414 34.896 297.217 35.016C297.019 35.1333 296.862 35.2813 296.745 35.46L296.209 35.236L296.385 32.24H299.461V32.804H296.645L296.937 32.528L296.781 35.084L296.633 34.888C296.798 34.6987 296.998 34.5507 297.233 34.444C297.467 34.3373 297.714 34.284 297.973 34.284C298.327 34.284 298.647 34.3693 298.933 34.54C299.218 34.708 299.445 34.936 299.613 35.224C299.781 35.512 299.865 35.8333 299.865 36.188C299.865 36.54 299.775 36.8627 299.597 37.156C299.418 37.4467 299.181 37.68 298.885 37.856C298.589 38.032 298.262 38.12 297.905 38.12ZM271.037 46V40.24H271.629L274.801 44.96V40.24H275.393V46H274.801L271.629 41.276V46H271.037ZM277.129 47.92L277.965 45.652L277.977 46.324L276.085 41.68H276.709L278.261 45.564H278.005L279.437 41.68H280.037L277.717 47.92H277.129ZM280.812 46V40.12H281.4V46H280.812ZM284.403 46.12C283.974 46.12 283.607 46.0227 283.303 45.828C282.999 45.6333 282.766 45.364 282.603 45.02C282.44 44.676 282.359 44.2813 282.359 43.836C282.359 43.3827 282.442 42.9853 282.607 42.644C282.772 42.3027 283.007 42.0373 283.311 41.848C283.618 41.656 283.982 41.56 284.403 41.56C284.835 41.56 285.203 41.6573 285.507 41.852C285.814 42.044 286.047 42.312 286.207 42.656C286.37 42.9973 286.451 43.3907 286.451 43.836C286.451 44.2893 286.37 44.688 286.207 45.032C286.044 45.3733 285.81 45.64 285.503 45.832C285.196 46.024 284.83 46.12 284.403 46.12ZM284.403 45.556C284.883 45.556 285.24 45.3973 285.475 45.08C285.71 44.76 285.827 44.3453 285.827 43.836C285.827 43.3133 285.708 42.8973 285.471 42.588C285.236 42.2787 284.88 42.124 284.403 42.124C284.08 42.124 283.814 42.1973 283.603 42.344C283.395 42.488 283.239 42.6893 283.135 42.948C283.034 43.204 282.983 43.5 282.983 43.836C282.983 44.356 283.103 44.7733 283.343 45.088C283.583 45.4 283.936 45.556 284.403 45.556ZM290.453 46V43.796C290.453 43.556 290.431 43.336 290.385 43.136C290.34 42.9333 290.267 42.7573 290.165 42.608C290.067 42.456 289.937 42.3387 289.777 42.256C289.62 42.1733 289.428 42.132 289.201 42.132C288.993 42.132 288.809 42.168 288.649 42.24C288.492 42.312 288.359 42.416 288.249 42.552C288.143 42.6853 288.061 42.848 288.005 43.04C287.949 43.232 287.921 43.4507 287.921 43.696L287.505 43.604C287.505 43.1613 287.583 42.7893 287.737 42.488C287.892 42.1867 288.105 41.9587 288.377 41.804C288.649 41.6493 288.961 41.572 289.313 41.572C289.572 41.572 289.797 41.612 289.989 41.692C290.184 41.772 290.348 41.88 290.481 42.016C290.617 42.152 290.727 42.308 290.809 42.484C290.892 42.6573 290.952 42.8427 290.989 43.04C291.027 43.2347 291.045 43.4293 291.045 43.624V46H290.453ZM287.329 46V41.68H287.861V42.744H287.921V46H287.329Z" fill="#222222"/>
</g>
<path d="M261.402 23V14.502H258.14V12.92H266.351V14.502H263.089V23H261.402ZM270.344 23V18.87L266.914 12.92H268.881L271.198 16.938L273.508 12.92H275.475L272.052 18.87V23H270.344ZM276.453 23V12.92H280.618C280.716 12.92 280.842 12.9247 280.996 12.934C281.15 12.9387 281.292 12.9527 281.423 12.976C282.006 13.0647 282.487 13.2583 282.865 13.557C283.247 13.8557 283.53 14.2337 283.712 14.691C283.898 15.1437 283.992 15.6477 283.992 16.203C283.992 17.0243 283.784 17.7313 283.369 18.324C282.953 18.912 282.316 19.276 281.458 19.416L280.737 19.479H278.14V23H276.453ZM282.242 23L280.254 18.898L281.969 18.52L284.153 23H282.242ZM278.14 17.904H280.548C280.641 17.904 280.746 17.8993 280.863 17.89C280.979 17.8807 281.087 17.862 281.185 17.834C281.465 17.764 281.684 17.6403 281.843 17.463C282.006 17.2857 282.12 17.085 282.186 16.861C282.256 16.637 282.291 16.4177 282.291 16.203C282.291 15.9883 282.256 15.769 282.186 15.545C282.12 15.3163 282.006 15.1133 281.843 14.936C281.684 14.7587 281.465 14.635 281.185 14.565C281.087 14.537 280.979 14.5207 280.863 14.516C280.746 14.5067 280.641 14.502 280.548 14.502H278.14V17.904ZM285.695 23V12.92H292.205V14.502H287.382V16.987H291.365V18.569H287.382V21.418H292.205V23H285.695ZM297.52 23.21C296.782 23.21 296.117 23.0817 295.525 22.825C294.937 22.5683 294.451 22.202 294.069 21.726C293.691 21.2453 293.45 20.676 293.348 20.018L295.098 19.752C295.247 20.3493 295.553 20.8113 296.015 21.138C296.481 21.4647 297.018 21.628 297.625 21.628C297.984 21.628 298.322 21.572 298.64 21.46C298.957 21.348 299.214 21.1847 299.41 20.97C299.61 20.7553 299.711 20.4917 299.711 20.179C299.711 20.039 299.687 19.9107 299.641 19.794C299.594 19.6727 299.524 19.5653 299.431 19.472C299.342 19.3787 299.225 19.2947 299.081 19.22C298.941 19.1407 298.777 19.073 298.591 19.017L295.987 18.247C295.763 18.1817 295.52 18.0953 295.259 17.988C295.002 17.876 294.757 17.7243 294.524 17.533C294.295 17.337 294.106 17.0897 293.957 16.791C293.812 16.4877 293.74 16.1143 293.74 15.671C293.74 15.0223 293.903 14.4787 294.23 14.04C294.561 13.5967 295.004 13.2653 295.56 13.046C296.12 12.8267 296.74 12.7193 297.422 12.724C298.112 12.7287 298.728 12.8477 299.27 13.081C299.811 13.3097 300.264 13.6433 300.628 14.082C300.992 14.5207 301.248 15.0503 301.398 15.671L299.585 15.986C299.51 15.6313 299.365 15.3303 299.151 15.083C298.941 14.831 298.682 14.6397 298.374 14.509C298.07 14.3783 297.746 14.3083 297.401 14.299C297.065 14.2943 296.752 14.3457 296.463 14.453C296.178 14.5557 295.947 14.705 295.77 14.901C295.597 15.097 295.511 15.3257 295.511 15.587C295.511 15.8343 295.585 16.0373 295.735 16.196C295.884 16.35 296.068 16.4737 296.288 16.567C296.512 16.6557 296.738 16.7303 296.967 16.791L298.773 17.295C299.02 17.3603 299.298 17.449 299.606 17.561C299.914 17.673 300.21 17.8293 300.495 18.03C300.779 18.2307 301.013 18.4943 301.195 18.821C301.381 19.1477 301.475 19.563 301.475 20.067C301.475 20.5897 301.365 21.0493 301.146 21.446C300.931 21.838 300.639 22.1647 300.271 22.426C299.902 22.6873 299.48 22.8833 299.004 23.014C298.532 23.1447 298.038 23.21 297.52 23.21Z" fill="#222222"/>
<rect x="81.3496" width="73.3372" height="56" rx="7" fill="#F1F1F1"/>
<g clip-path="url(#clip1_1324_174)">
<path d="M109.431 38V32.24H111.655C111.711 32.24 111.774 32.2427 111.843 32.248C111.915 32.2507 111.987 32.2587 112.059 32.272C112.36 32.3173 112.615 32.4227 112.823 32.588C113.034 32.7507 113.192 32.956 113.299 33.204C113.408 33.452 113.463 33.7267 113.463 34.028C113.463 34.4627 113.348 34.84 113.119 35.16C112.89 35.48 112.562 35.6813 112.135 35.764L111.931 35.812H110.019V38H109.431ZM112.919 38L111.783 35.656L112.347 35.44L113.595 38H112.919ZM110.019 35.252H111.639C111.687 35.252 111.743 35.2493 111.807 35.244C111.871 35.2387 111.934 35.2293 111.995 35.216C112.192 35.1733 112.354 35.092 112.479 34.972C112.607 34.852 112.702 34.7093 112.763 34.544C112.827 34.3787 112.859 34.2067 112.859 34.028C112.859 33.8493 112.827 33.6773 112.763 33.512C112.702 33.344 112.607 33.2 112.479 33.08C112.354 32.96 112.192 32.8787 111.995 32.836C111.934 32.8227 111.871 32.8147 111.807 32.812C111.743 32.8067 111.687 32.804 111.639 32.804H110.019V35.252ZM114.558 32.86V32.2H115.146V32.86H114.558ZM114.558 38V33.68H115.146V38H114.558ZM118.061 40.04C117.84 40.04 117.621 40.0067 117.405 39.94C117.192 39.876 116.994 39.7733 116.813 39.632C116.632 39.4933 116.48 39.312 116.357 39.088L116.889 38.792C117.009 39.032 117.177 39.204 117.393 39.308C117.612 39.4147 117.834 39.468 118.061 39.468C118.373 39.468 118.625 39.4093 118.817 39.292C119.012 39.1773 119.153 39.0067 119.241 38.78C119.329 38.5533 119.372 38.2707 119.369 37.932V36.78H119.437V33.68H119.961V37.94C119.961 38.0627 119.957 38.18 119.949 38.292C119.944 38.4067 119.932 38.5187 119.913 38.628C119.862 38.9507 119.757 39.216 119.597 39.424C119.44 39.632 119.232 39.7867 118.973 39.888C118.717 39.9893 118.413 40.04 118.061 40.04ZM118.021 38.12C117.618 38.12 117.274 38.02 116.989 37.82C116.704 37.6173 116.485 37.344 116.333 37C116.181 36.656 116.105 36.268 116.105 35.836C116.105 35.4067 116.18 35.02 116.329 34.676C116.481 34.332 116.698 34.06 116.981 33.86C117.264 33.66 117.602 33.56 117.997 33.56C118.402 33.56 118.744 33.6587 119.021 33.856C119.298 34.0533 119.508 34.324 119.649 34.668C119.793 35.0093 119.865 35.3987 119.865 35.836C119.865 36.2653 119.794 36.6533 119.653 37C119.512 37.344 119.304 37.6173 119.029 37.82C118.754 38.02 118.418 38.12 118.021 38.12ZM118.081 37.572C118.388 37.572 118.641 37.4973 118.841 37.348C119.041 37.1987 119.19 36.9933 119.289 36.732C119.388 36.468 119.437 36.1693 119.437 35.836C119.437 35.4973 119.388 35.1987 119.289 34.94C119.19 34.6787 119.041 34.4747 118.841 34.328C118.644 34.1813 118.394 34.108 118.093 34.108C117.784 34.108 117.528 34.184 117.325 34.336C117.122 34.488 116.972 34.6947 116.873 34.956C116.777 35.2173 116.729 35.5107 116.729 35.836C116.729 36.164 116.778 36.46 116.877 36.724C116.978 36.9853 117.129 37.192 117.329 37.344C117.529 37.496 117.78 37.572 118.081 37.572ZM121.16 32.86V32.2H121.748V32.86H121.16ZM121.16 38V33.68H121.748V38H121.16ZM124.623 38.12C124.22 38.12 123.876 38.02 123.591 37.82C123.305 37.6173 123.087 37.344 122.935 37C122.783 36.656 122.707 36.268 122.707 35.836C122.707 35.4067 122.781 35.02 122.931 34.676C123.083 34.332 123.3 34.06 123.583 33.86C123.865 33.66 124.204 33.56 124.599 33.56C125.004 33.56 125.345 33.6587 125.623 33.856C125.9 34.0533 126.109 34.324 126.251 34.668C126.395 35.0093 126.467 35.3987 126.467 35.836C126.467 36.2653 126.396 36.6533 126.255 37C126.113 37.344 125.905 37.6173 125.631 37.82C125.356 38.02 125.02 38.12 124.623 38.12ZM124.683 37.572C124.989 37.572 125.243 37.4973 125.443 37.348C125.643 37.1987 125.792 36.9933 125.891 36.732C125.989 36.468 126.039 36.1693 126.039 35.836C126.039 35.4973 125.989 35.1987 125.891 34.94C125.792 34.6787 125.643 34.4747 125.443 34.328C125.245 34.1813 124.996 34.108 124.695 34.108C124.385 34.108 124.129 34.184 123.927 34.336C123.724 34.488 123.573 34.6947 123.475 34.956C123.379 35.2173 123.331 35.5107 123.331 35.836C123.331 36.164 123.38 36.46 123.479 36.724C123.58 36.9853 123.731 37.192 123.931 37.344C124.131 37.496 124.381 37.572 124.683 37.572ZM126.039 38V34.748H125.975V32.24H126.567V38H126.039ZM110.81 46V40.24H114.118V40.828H111.398V42.828H113.638V43.412H111.398V46H110.81ZM116.528 46.12C116.099 46.12 115.732 46.0227 115.428 45.828C115.124 45.6333 114.891 45.364 114.728 45.02C114.565 44.676 114.484 44.2813 114.484 43.836C114.484 43.3827 114.567 42.9853 114.732 42.644C114.897 42.3027 115.132 42.0373 115.436 41.848C115.743 41.656 116.107 41.56 116.528 41.56C116.96 41.56 117.328 41.6573 117.632 41.852C117.939 42.044 118.172 42.312 118.332 42.656C118.495 42.9973 118.576 43.3907 118.576 43.836C118.576 44.2893 118.495 44.688 118.332 45.032C118.169 45.3733 117.935 45.64 117.628 45.832C117.321 46.024 116.955 46.12 116.528 46.12ZM116.528 45.556C117.008 45.556 117.365 45.3973 117.6 45.08C117.835 44.76 117.952 44.3453 117.952 43.836C117.952 43.3133 117.833 42.8973 117.596 42.588C117.361 42.2787 117.005 42.124 116.528 42.124C116.205 42.124 115.939 42.1973 115.728 42.344C115.52 42.488 115.364 42.6893 115.26 42.948C115.159 43.204 115.108 43.5 115.108 43.836C115.108 44.356 115.228 44.7733 115.468 45.088C115.708 45.4 116.061 45.556 116.528 45.556ZM119.458 46V41.68H119.986V42.72L119.882 42.584C119.93 42.456 119.993 42.3387 120.07 42.232C120.148 42.1227 120.232 42.0333 120.322 41.964C120.434 41.8653 120.565 41.7907 120.714 41.74C120.864 41.6867 121.014 41.656 121.166 41.648C121.318 41.6373 121.457 41.648 121.582 41.68V42.232C121.425 42.192 121.253 42.1827 121.066 42.204C120.88 42.2253 120.708 42.3 120.55 42.428C120.406 42.54 120.298 42.6747 120.226 42.832C120.154 42.9867 120.106 43.152 120.082 43.328C120.058 43.5013 120.046 43.6733 120.046 43.844V46H119.458ZM122.337 46L122.341 40.24H122.933V43.76L124.861 41.68H125.645L123.621 43.84L125.909 46H125.053L122.933 43.92V46H122.337Z" fill="#222222"/>
</g>
<path d="M99.98 23V12.92H106.049V14.607H101.667V17.12H105.209V18.8H101.667V23H99.98ZM111.571 23.21C110.563 23.21 109.7 22.9907 108.981 22.552C108.262 22.1087 107.709 21.4927 107.322 20.704C106.939 19.9153 106.748 19.0007 106.748 17.96C106.748 16.9193 106.939 16.0047 107.322 15.216C107.709 14.4273 108.262 13.8137 108.981 13.375C109.7 12.9317 110.563 12.71 111.571 12.71C112.579 12.71 113.442 12.9317 114.161 13.375C114.884 13.8137 115.437 14.4273 115.82 15.216C116.207 16.0047 116.401 16.9193 116.401 17.96C116.401 19.0007 116.207 19.9153 115.82 20.704C115.437 21.4927 114.884 22.1087 114.161 22.552C113.442 22.9907 112.579 23.21 111.571 23.21ZM111.571 21.621C112.248 21.6257 112.81 21.4763 113.258 21.173C113.711 20.8697 114.049 20.4427 114.273 19.892C114.502 19.3413 114.616 18.6973 114.616 17.96C114.616 17.2227 114.502 16.5833 114.273 16.042C114.049 15.496 113.711 15.0713 113.258 14.768C112.81 14.4647 112.248 14.3083 111.571 14.299C110.894 14.2943 110.332 14.4437 109.884 14.747C109.436 15.0503 109.098 15.4773 108.869 16.028C108.645 16.5787 108.533 17.2227 108.533 17.96C108.533 18.6973 108.645 19.339 108.869 19.885C109.093 20.4263 109.429 20.8487 109.877 21.152C110.33 21.4553 110.894 21.6117 111.571 21.621ZM117.794 23V12.92H121.959C122.057 12.92 122.183 12.9247 122.337 12.934C122.491 12.9387 122.634 12.9527 122.764 12.976C123.348 13.0647 123.828 13.2583 124.206 13.557C124.589 13.8557 124.871 14.2337 125.053 14.691C125.24 15.1437 125.333 15.6477 125.333 16.203C125.333 17.0243 125.126 17.7313 124.71 18.324C124.295 18.912 123.658 19.276 122.799 19.416L122.078 19.479H119.481V23H117.794ZM123.583 23L121.595 18.898L123.31 18.52L125.494 23H123.583ZM119.481 17.904H121.889C121.983 17.904 122.088 17.8993 122.204 17.89C122.321 17.8807 122.428 17.862 122.526 17.834C122.806 17.764 123.026 17.6403 123.184 17.463C123.348 17.2857 123.462 17.085 123.527 16.861C123.597 16.637 123.632 16.4177 123.632 16.203C123.632 15.9883 123.597 15.769 123.527 15.545C123.462 15.3163 123.348 15.1133 123.184 14.936C123.026 14.7587 122.806 14.635 122.526 14.565C122.428 14.537 122.321 14.5207 122.204 14.516C122.088 14.5067 121.983 14.502 121.889 14.502H119.481V17.904ZM127.037 23V12.92H128.724V17.596L132.749 12.92H134.821L130.488 17.862L135.115 23H132.973L128.724 18.296V23H127.037Z" fill="#222222"/>
<rect x="162.697" width="73.9535" height="56" rx="7" fill="#F1F1F1"/>
<g clip-path="url(#clip2_1324_174)">
<path d="M194.865 38.12C194.462 38.12 194.099 38.0533 193.777 37.92C193.457 37.784 193.191 37.592 192.981 37.344C192.773 37.096 192.637 36.8013 192.573 36.46L193.173 36.36C193.269 36.7333 193.471 37.0267 193.781 37.24C194.09 37.4507 194.459 37.556 194.889 37.556C195.171 37.556 195.425 37.512 195.649 37.424C195.873 37.3333 196.049 37.2053 196.177 37.04C196.305 36.8747 196.369 36.6787 196.369 36.452C196.369 36.3027 196.342 36.176 196.289 36.072C196.235 35.9653 196.165 35.8773 196.077 35.808C195.989 35.7387 195.893 35.6813 195.789 35.636C195.685 35.588 195.583 35.5493 195.485 35.52L194.025 35.084C193.849 35.0333 193.686 34.9693 193.537 34.892C193.387 34.812 193.257 34.7173 193.145 34.608C193.035 34.496 192.95 34.3653 192.889 34.216C192.827 34.0667 192.797 33.896 192.797 33.704C192.797 33.3787 192.882 33.0973 193.053 32.86C193.223 32.6227 193.457 32.44 193.753 32.312C194.049 32.184 194.386 32.1213 194.765 32.124C195.149 32.124 195.491 32.192 195.793 32.328C196.097 32.464 196.347 32.6587 196.545 32.912C196.742 33.1627 196.873 33.46 196.937 33.804L196.321 33.916C196.281 33.6653 196.189 33.448 196.045 33.264C195.901 33.08 195.717 32.9387 195.493 32.84C195.271 32.7387 195.027 32.6867 194.761 32.684C194.502 32.684 194.271 32.728 194.069 32.816C193.869 32.9013 193.71 33.0187 193.593 33.168C193.475 33.3173 193.417 33.488 193.417 33.68C193.417 33.8747 193.47 34.0307 193.577 34.148C193.686 34.2653 193.819 34.3573 193.977 34.424C194.137 34.4907 194.291 34.5453 194.441 34.588L195.569 34.92C195.686 34.952 195.823 34.9987 195.981 35.06C196.141 35.1187 196.295 35.204 196.445 35.316C196.597 35.4253 196.722 35.5693 196.821 35.748C196.919 35.9267 196.969 36.1533 196.969 36.428C196.969 36.6947 196.915 36.9333 196.809 37.144C196.705 37.3547 196.557 37.532 196.365 37.676C196.175 37.82 195.953 37.9293 195.697 38.004C195.443 38.0813 195.166 38.12 194.865 38.12ZM197.874 32.86V32.2H198.462V32.86H197.874ZM197.874 38V33.68H198.462V38H197.874ZM199.262 38V37.876L202.05 34.228H199.47V33.68H203.018V33.816L200.234 37.452H202.866V38H199.262ZM205.404 38.12C204.982 38.12 204.617 38.0267 204.308 37.84C204.001 37.6533 203.762 37.3907 203.592 37.052C203.421 36.7133 203.336 36.316 203.336 35.86C203.336 35.388 203.42 34.98 203.588 34.636C203.756 34.292 203.992 34.0267 204.296 33.84C204.602 33.6533 204.964 33.56 205.38 33.56C205.806 33.56 206.17 33.6587 206.472 33.856C206.773 34.0507 207.001 34.3307 207.156 34.696C207.31 35.0613 207.381 35.4973 207.368 36.004H206.768V35.796C206.757 35.236 206.636 34.8133 206.404 34.528C206.174 34.2427 205.838 34.1 205.396 34.1C204.932 34.1 204.576 34.2507 204.328 34.552C204.082 34.8533 203.96 35.2827 203.96 35.84C203.96 36.384 204.082 36.8067 204.328 37.108C204.576 37.4067 204.926 37.556 205.38 37.556C205.689 37.556 205.958 37.4853 206.188 37.344C206.42 37.2 206.602 36.9933 206.736 36.724L207.284 36.936C207.113 37.312 206.861 37.604 206.528 37.812C206.197 38.0173 205.822 38.12 205.404 38.12ZM203.752 36.004V35.512H207.052V36.004H203.752ZM197.685 46V40.896L196.601 41.548V40.888L197.685 40.24H198.281V46H197.685ZM201.554 46.12C201.194 46.12 200.876 46.048 200.598 45.904C200.324 45.76 200.108 45.5587 199.95 45.3C199.796 45.0387 199.718 44.7333 199.718 44.384C199.718 44.0267 199.805 43.7093 199.978 43.432C200.152 43.152 200.416 42.94 200.77 42.796L200.762 43.028C200.466 42.9187 200.241 42.74 200.086 42.492C199.932 42.244 199.854 41.9693 199.854 41.668C199.854 41.348 199.928 41.0733 200.074 40.844C200.221 40.612 200.421 40.4333 200.674 40.308C200.93 40.1827 201.224 40.12 201.554 40.12C201.885 40.12 202.178 40.1827 202.434 40.308C202.69 40.4333 202.892 40.612 203.038 40.844C203.185 41.0733 203.258 41.348 203.258 41.668C203.258 41.9693 203.184 42.2427 203.034 42.488C202.888 42.7333 202.662 42.9133 202.358 43.028L202.338 42.796C202.693 42.9373 202.958 43.148 203.134 43.428C203.313 43.708 203.402 44.0267 203.402 44.384C203.402 44.7333 203.324 45.0387 203.166 45.3C203.009 45.5587 202.792 45.76 202.514 45.904C202.237 46.048 201.917 46.12 201.554 46.12ZM201.554 45.556C201.917 45.556 202.212 45.456 202.438 45.256C202.665 45.0533 202.778 44.7627 202.778 44.384C202.778 44 202.666 43.7093 202.442 43.512C202.218 43.312 201.922 43.212 201.554 43.212C201.186 43.212 200.892 43.312 200.67 43.512C200.449 43.7093 200.338 44 200.338 44.384C200.338 44.7627 200.45 45.0533 200.674 45.256C200.898 45.456 201.192 45.556 201.554 45.556ZM201.554 42.644C201.874 42.644 202.134 42.5627 202.334 42.4C202.534 42.2347 202.634 41.9907 202.634 41.668C202.634 41.3453 202.534 41.104 202.334 40.944C202.134 40.7813 201.874 40.7 201.554 40.7C201.234 40.7 200.974 40.7813 200.774 40.944C200.577 41.104 200.478 41.3453 200.478 41.668C200.478 41.9907 200.577 42.2347 200.774 42.4C200.974 42.5627 201.234 42.644 201.554 42.644Z" fill="#222222"/>
</g>
<path d="M179.108 23L176.161 12.92H177.932L179.941 20.2L181.943 12.934L183.714 12.92L185.723 20.2L187.725 12.92H189.496L186.556 23H184.89L182.825 15.832L180.774 23H179.108ZM190.638 23V12.92H192.325V17.162H197.099V12.92H198.779V23H197.099V18.744H192.325V23H190.638ZM200.742 23V12.92H207.252V14.502H202.429V16.987H206.412V18.569H202.429V21.418H207.252V23H200.742ZM208.931 23V12.92H215.441V14.502H210.618V16.987H214.601V18.569H210.618V21.418H215.441V23H208.931ZM217.261 23V12.92H218.948V21.418H223.4V23H217.261Z" fill="#222222"/>
<defs>
<clipPath id="clip0_1324_174">
<rect width="44" height="16" fill="white" transform="translate(259 31)"/>
</clipPath>
<clipPath id="clip1_1324_174">
<rect width="32" height="16" fill="white" transform="translate(102 31)"/>
</clipPath>
<clipPath id="clip2_1324_174">
<rect width="23" height="16" fill="white" transform="translate(188.5 31)"/>
</clipPath>
</defs>
</svg>
