<svg width="242" height="39" viewBox="0 0 242 39" fill="none" xmlns="http://www.w3.org/2000/svg">
<g clip-path="url(#clip0_1324_43)">
<g clip-path="url(#clip1_1324_43)">
<g clip-path="url(#clip2_1324_43)">
<path d="M7.875 11.75C8.44953 11.75 9.01844 11.6368 9.54924 11.417C10.08 11.1971 10.5623 10.8748 10.9686 10.4686C11.3748 10.0623 11.6971 9.58004 11.917 9.04924C12.1368 8.51844 12.25 7.94953 12.25 7.375C12.25 6.80047 12.1368 6.23156 11.917 5.70076C11.6971 5.16996 11.3748 4.68766 10.9686 4.28141C10.5623 3.87515 10.08 3.55289 9.54924 3.33303C9.01844 3.11316 8.44953 3 7.875 3C7.30047 3 6.73156 3.11316 6.20076 3.33303C5.66996 3.55289 5.18766 3.87515 4.78141 4.28141C4.37515 4.68766 4.05289 5.16996 3.83303 5.70076C3.61316 6.23156 3.5 6.80047 3.5 7.375C3.5 7.94953 3.61316 8.51844 3.83303 9.04924C4.05289 9.58004 4.37515 10.0623 4.78141 10.4686C5.18766 10.8748 5.66996 11.1971 6.20076 11.417C6.73156 11.6368 7.30047 11.75 7.875 11.75ZM14.75 7.375C14.75 10.7461 12.3242 13.5508 9.125 14.1367V15.5H10.375C11.0664 15.5 11.625 16.0586 11.625 16.75C11.625 17.4414 11.0664 18 10.375 18H9.125V19.25C9.125 19.9414 8.56641 20.5 7.875 20.5C7.18359 20.5 6.625 19.9414 6.625 19.25V18H5.375C4.68359 18 4.125 17.4414 4.125 16.75C4.125 16.0586 4.68359 15.5 5.375 15.5H6.625V14.1367C3.42578 13.5508 1 10.7461 1 7.375C1 3.57812 4.07812 0.5 7.875 0.5C11.6719 0.5 14.75 3.57812 14.75 7.375ZM11.6211 14.5859C12.375 14.1914 13.0625 13.6836 13.6562 13.0859C14.4375 13.8086 15.4805 14.25 16.6289 14.25C19.0469 14.25 21.0039 12.293 21.0039 9.875C21.0039 7.45703 19.0469 5.5 16.6289 5.5C16.3477 5.5 16.0703 5.52734 15.8047 5.57812C15.6133 4.73828 15.2969 3.94922 14.8672 3.22656C15.4258 3.07812 16.0156 3 16.625 3C18.0703 3 19.4141 3.44531 20.5234 4.21094L21.3281 3.40625L20.0234 2.10156C19.7539 1.83203 19.6758 1.42969 19.8203 1.07812C19.9648 0.726562 20.3086 0.5 20.6875 0.5H25.0625C25.582 0.5 26 0.917969 26 1.4375V5.8125C26 6.19141 25.7734 6.53516 25.4219 6.67969C25.0703 6.82422 24.668 6.74609 24.3984 6.47656L23.0938 5.17188L22.2891 5.97656C23.0508 7.08594 23.5 8.42578 23.5 9.875C23.5 13.6719 20.4219 16.75 16.625 16.75C14.6523 16.75 12.875 15.918 11.6211 14.5859Z" fill="#8DC63F"/>
</g>
<path d="M0.84 36.5V27.86H1.812L5.076 34.742L8.322 27.86H9.306V36.494H8.292V30.206L5.358 36.5H4.788L1.854 30.206V36.5H0.84ZM12.8304 36.68C12.3464 36.68 11.9404 36.592 11.6124 36.416C11.2884 36.236 11.0424 36 10.8744 35.708C10.7104 35.416 10.6284 35.096 10.6284 34.748C10.6284 34.408 10.6924 34.114 10.8204 33.866C10.9524 33.614 11.1364 33.406 11.3724 33.242C11.6084 33.074 11.8904 32.942 12.2184 32.846C12.5264 32.762 12.8704 32.69 13.2504 32.63C13.6344 32.566 14.0224 32.508 14.4144 32.456C14.8064 32.404 15.1724 32.354 15.5124 32.306L15.1284 32.528C15.1404 31.952 15.0244 31.526 14.7804 31.25C14.5404 30.974 14.1244 30.836 13.5324 30.836C13.1404 30.836 12.7964 30.926 12.5004 31.106C12.2084 31.282 12.0024 31.57 11.8824 31.97L10.8684 31.664C11.0244 31.096 11.3264 30.65 11.7744 30.326C12.2224 30.002 12.8124 29.84 13.5444 29.84C14.1324 29.84 14.6364 29.946 15.0564 30.158C15.4804 30.366 15.7844 30.682 15.9684 31.106C16.0604 31.306 16.1184 31.524 16.1424 31.76C16.1664 31.992 16.1784 32.236 16.1784 32.492V36.5H15.2304V34.946L15.4524 35.09C15.2084 35.614 14.8664 36.01 14.4264 36.278C13.9904 36.546 13.4584 36.68 12.8304 36.68ZM12.9924 35.786C13.3764 35.786 13.7084 35.718 13.9884 35.582C14.2724 35.442 14.5004 35.26 14.6724 35.036C14.8444 34.808 14.9564 34.56 15.0084 34.292C15.0684 34.092 15.1004 33.87 15.1044 33.626C15.1124 33.378 15.1164 33.188 15.1164 33.056L15.4884 33.218C15.1404 33.266 14.7984 33.312 14.4624 33.356C14.1264 33.4 13.8084 33.448 13.5084 33.5C13.2084 33.548 12.9384 33.606 12.6984 33.674C12.5224 33.73 12.3564 33.802 12.2004 33.89C12.0484 33.978 11.9244 34.092 11.8284 34.232C11.7364 34.368 11.6904 34.538 11.6904 34.742C11.6904 34.918 11.7344 35.086 11.8224 35.246C11.9144 35.406 12.0544 35.536 12.2424 35.636C12.4344 35.736 12.6844 35.786 12.9924 35.786ZM17.8584 36.5V27.68H18.9264V36.5H17.8584ZM23.5347 36.68C22.8987 36.68 22.3427 36.54 21.8667 36.26C21.3947 35.976 21.0267 35.582 20.7627 35.078C20.4987 34.57 20.3667 33.978 20.3667 33.302C20.3667 32.594 20.4967 31.982 20.7567 31.466C21.0167 30.946 21.3787 30.546 21.8427 30.266C22.3107 29.982 22.8587 29.84 23.4867 29.84C24.1387 29.84 24.6927 29.99 25.1487 30.29C25.6087 30.59 25.9527 31.018 26.1807 31.574C26.4127 32.13 26.5127 32.792 26.4807 33.56H25.4007V33.176C25.3887 32.38 25.2267 31.786 24.9147 31.394C24.6027 30.998 24.1387 30.8 23.5227 30.8C22.8627 30.8 22.3607 31.012 22.0167 31.436C21.6727 31.86 21.5007 32.468 21.5007 33.26C21.5007 34.024 21.6727 34.616 22.0167 35.036C22.3607 35.456 22.8507 35.666 23.4867 35.666C23.9147 35.666 24.2867 35.568 24.6027 35.372C24.9187 35.176 25.1667 34.894 25.3467 34.526L26.3727 34.88C26.1207 35.452 25.7407 35.896 25.2327 36.212C24.7287 36.524 24.1627 36.68 23.5347 36.68ZM21.1407 33.56V32.702H25.9287V33.56H21.1407Z" fill="#222222"/>
</g>
<g clip-path="url(#clip3_1324_43)">
<g clip-path="url(#clip4_1324_43)">
<path d="M70.5 4.25H92.5C92.5 2.87109 91.4038 1.75 90.0556 1.75H72.9444C71.5962 1.75 70.5 2.87109 70.5 4.25ZM70.5 5.5V16.75C70.5 18.1289 71.5962 19.25 72.9444 19.25H90.0556C91.4038 19.25 92.5 18.1289 92.5 16.75V5.5H70.5ZM72.9444 16.332C72.9444 15.1797 73.8573 14.25 74.9802 14.25H79.4642C80.591 14.25 81.5 15.1836 81.5 16.332C81.5 16.5625 81.3167 16.75 81.0913 16.75H73.3531C73.1278 16.75 72.9444 16.5625 72.9444 16.332ZM77.2222 8C77.8705 8 78.4923 8.26339 78.9507 8.73223C79.4091 9.20107 79.6667 9.83696 79.6667 10.5C79.6667 11.163 79.4091 11.7989 78.9507 12.2678C78.4923 12.7366 77.8705 13 77.2222 13C76.5739 13 75.9522 12.7366 75.4937 12.2678C75.0353 11.7989 74.7778 11.163 74.7778 10.5C74.7778 9.83696 75.0353 9.20107 75.4937 8.73223C75.9522 8.26339 76.5739 8 77.2222 8ZM83.9444 8.625C83.9444 8.28125 84.2194 8 84.5556 8H89.4444C89.7806 8 90.0556 8.28125 90.0556 8.625C90.0556 8.96875 89.7806 9.25 89.4444 9.25H84.5556C84.2194 9.25 83.9444 8.96875 83.9444 8.625ZM83.9444 11.125C83.9444 10.7812 84.2194 10.5 84.5556 10.5H89.4444C89.7806 10.5 90.0556 10.7812 90.0556 11.125C90.0556 11.4688 89.7806 11.75 89.4444 11.75H84.5556C84.2194 11.75 83.9444 11.4688 83.9444 11.125ZM83.9444 13.625C83.9444 13.2812 84.2194 13 84.5556 13H89.4444C89.7806 13 90.0556 13.2812 90.0556 13.625C90.0556 13.9688 89.7806 14.25 89.4444 14.25H84.5556C84.2194 14.25 83.9444 13.9688 83.9444 13.625Z" fill="#8DC63F"/>
</g>
<path d="M64.346 36.5V29.042L62.72 30.026V28.832L64.346 27.86H65.432V36.5H64.346ZM70.415 36.68C69.863 36.68 69.375 36.57 68.951 36.35C68.527 36.126 68.195 35.816 67.955 35.42C67.715 35.024 67.595 34.562 67.595 34.034C67.595 33.518 67.717 33.052 67.961 32.636C68.209 32.22 68.581 31.9 69.077 31.676L69.059 32.066C68.655 31.87 68.345 31.594 68.129 31.238C67.913 30.878 67.805 30.48 67.805 30.044C67.805 29.556 67.917 29.136 68.141 28.784C68.365 28.432 68.673 28.16 69.065 27.968C69.457 27.776 69.907 27.68 70.415 27.68C70.923 27.68 71.373 27.776 71.765 27.968C72.157 28.16 72.465 28.432 72.689 28.784C72.913 29.136 73.025 29.556 73.025 30.044C73.025 30.48 72.923 30.876 72.719 31.232C72.515 31.584 72.201 31.862 71.777 32.066L71.753 31.682C72.249 31.898 72.621 32.216 72.869 32.636C73.121 33.052 73.247 33.518 73.247 34.034C73.247 34.562 73.125 35.024 72.881 35.42C72.641 35.816 72.307 36.126 71.879 36.35C71.455 36.57 70.967 36.68 70.415 36.68ZM70.415 35.66C70.919 35.66 71.327 35.522 71.639 35.246C71.955 34.966 72.113 34.562 72.113 34.034C72.113 33.502 71.957 33.098 71.645 32.822C71.337 32.542 70.927 32.402 70.415 32.402C69.907 32.402 69.497 32.542 69.185 32.822C68.877 33.098 68.723 33.502 68.723 34.034C68.723 34.562 68.879 34.966 69.191 35.246C69.503 35.522 69.911 35.66 70.415 35.66ZM70.415 31.376C70.855 31.376 71.211 31.266 71.483 31.046C71.755 30.822 71.891 30.488 71.891 30.044C71.891 29.6 71.755 29.268 71.483 29.048C71.211 28.824 70.855 28.712 70.415 28.712C69.979 28.712 69.623 28.824 69.347 29.048C69.075 29.268 68.939 29.6 68.939 30.044C68.939 30.488 69.075 30.822 69.347 31.046C69.623 31.266 69.979 31.376 70.415 31.376ZM76.9768 34.91V32.618H74.6848V31.736H76.9768V29.45H77.8588V31.736H80.1448V32.618H77.8588V34.91H76.9768ZM86.1795 36.5V32.906L83.2695 27.86H84.5115L86.7195 31.682L88.9215 27.86H90.1635L87.2595 32.906V36.5H86.1795ZM90.5197 36.5V30.02H91.4737V31.586L91.3177 31.382C91.3937 31.182 91.4917 30.998 91.6117 30.83C91.7357 30.662 91.8737 30.524 92.0257 30.416C92.1937 30.28 92.3837 30.176 92.5957 30.104C92.8077 30.032 93.0237 29.99 93.2437 29.978C93.4637 29.962 93.6697 29.976 93.8617 30.02V31.022C93.6377 30.962 93.3917 30.946 93.1237 30.974C92.8557 31.002 92.6077 31.1 92.3797 31.268C92.1717 31.416 92.0097 31.596 91.8937 31.808C91.7817 32.02 91.7037 32.25 91.6597 32.498C91.6157 32.742 91.5937 32.992 91.5937 33.248V36.5H90.5197ZM97.2099 36.674C96.4379 36.674 95.8039 36.506 95.3079 36.17C94.8159 35.83 94.5139 35.356 94.4019 34.748L95.4939 34.574C95.5819 34.926 95.7839 35.206 96.0999 35.414C96.4159 35.618 96.8079 35.72 97.2759 35.72C97.7199 35.72 98.0679 35.628 98.3199 35.444C98.5719 35.26 98.6979 35.01 98.6979 34.694C98.6979 34.51 98.6559 34.362 98.5719 34.25C98.4879 34.134 98.3139 34.026 98.0499 33.926C97.7899 33.826 97.3959 33.706 96.8679 33.566C96.2959 33.414 95.8459 33.256 95.5179 33.092C95.1899 32.928 94.9559 32.738 94.8159 32.522C94.6759 32.306 94.6059 32.044 94.6059 31.736C94.6059 31.356 94.7099 31.024 94.9179 30.74C95.1259 30.452 95.4159 30.23 95.7879 30.074C96.1639 29.918 96.5999 29.84 97.0959 29.84C97.5879 29.84 98.0279 29.918 98.4159 30.074C98.8039 30.23 99.1159 30.452 99.3519 30.74C99.5919 31.024 99.7339 31.356 99.7779 31.736L98.6859 31.934C98.6339 31.586 98.4659 31.312 98.1819 31.112C97.9019 30.912 97.5399 30.806 97.0959 30.794C96.6759 30.778 96.3339 30.852 96.0699 31.016C95.8099 31.18 95.6799 31.402 95.6799 31.682C95.6799 31.838 95.7279 31.972 95.8239 32.084C95.9239 32.196 96.1059 32.302 96.3699 32.402C96.6379 32.502 97.0259 32.616 97.5339 32.744C98.1059 32.888 98.5559 33.046 98.8839 33.218C99.2159 33.386 99.4519 33.586 99.5919 33.818C99.7319 34.046 99.8019 34.328 99.8019 34.664C99.8019 35.288 99.5719 35.78 99.1119 36.14C98.6519 36.496 98.0179 36.674 97.2099 36.674Z" fill="#222222"/>
</g>
<g clip-path="url(#clip5_1324_43)">
<g clip-path="url(#clip6_1324_43)">
<path d="M155.687 0.800781C155.508 0.609375 155.262 0.5 155 0.5C154.738 0.5 154.492 0.609375 154.312 0.800781L150.25 5.17578C149.996 5.44922 149.93 5.84766 150.078 6.1875C150.227 6.52734 150.566 6.75 150.937 6.75H153.125V14.25H150.937C150.566 14.25 150.227 14.4727 150.078 14.8125C149.93 15.1523 149.996 15.5508 150.25 15.8242L154.312 20.1992C154.488 20.3906 154.738 20.5 155 20.5C155.262 20.5 155.508 20.3906 155.687 20.1992L159.75 15.8242C160.004 15.5508 160.07 15.1523 159.922 14.8125C159.773 14.4727 159.434 14.25 159.062 14.25H156.875V6.75H159.062C159.434 6.75 159.773 6.52734 159.922 6.1875C160.07 5.84766 160.004 5.44922 159.75 5.17578L155.687 0.800781Z" fill="#8DC63F"/>
</g>
<path d="M139.396 36.68C138.952 36.68 138.538 36.588 138.154 36.404C137.774 36.22 137.448 35.968 137.176 35.648C136.908 35.324 136.716 34.952 136.6 34.532L137.626 34.256C137.698 34.54 137.826 34.786 138.01 34.994C138.194 35.198 138.408 35.358 138.652 35.474C138.9 35.586 139.158 35.642 139.426 35.642C139.778 35.642 140.094 35.558 140.374 35.39C140.658 35.218 140.882 34.992 141.046 34.712C141.21 34.428 141.292 34.118 141.292 33.782C141.292 33.434 141.206 33.12 141.034 32.84C140.866 32.556 140.64 32.332 140.356 32.168C140.072 32.004 139.762 31.922 139.426 31.922C139.046 31.922 138.72 32.002 138.448 32.162C138.18 32.318 137.968 32.51 137.812 32.738L136.864 32.378L137.128 27.86H141.766V28.874H137.644L138.118 28.43L137.896 32.048L137.662 31.742C137.902 31.486 138.188 31.288 138.52 31.148C138.856 31.008 139.198 30.938 139.546 30.938C140.082 30.938 140.562 31.064 140.986 31.316C141.41 31.564 141.746 31.904 141.994 32.336C142.242 32.764 142.366 33.246 142.366 33.782C142.366 34.314 142.23 34.8 141.958 35.24C141.686 35.676 141.324 36.026 140.872 36.29C140.424 36.55 139.932 36.68 139.396 36.68ZM143.993 36.5V35.324H145.169V36.5H143.993ZM149.735 36.68C149.183 36.68 148.695 36.57 148.271 36.35C147.847 36.126 147.515 35.816 147.275 35.42C147.035 35.024 146.915 34.562 146.915 34.034C146.915 33.518 147.037 33.052 147.281 32.636C147.529 32.22 147.901 31.9 148.397 31.676L148.379 32.066C147.975 31.87 147.665 31.594 147.449 31.238C147.233 30.878 147.125 30.48 147.125 30.044C147.125 29.556 147.237 29.136 147.461 28.784C147.685 28.432 147.993 28.16 148.385 27.968C148.777 27.776 149.227 27.68 149.735 27.68C150.243 27.68 150.693 27.776 151.085 27.968C151.477 28.16 151.785 28.432 152.009 28.784C152.233 29.136 152.345 29.556 152.345 30.044C152.345 30.48 152.243 30.876 152.039 31.232C151.835 31.584 151.521 31.862 151.097 32.066L151.073 31.682C151.569 31.898 151.941 32.216 152.189 32.636C152.441 33.052 152.567 33.518 152.567 34.034C152.567 34.562 152.445 35.024 152.201 35.42C151.961 35.816 151.627 36.126 151.199 36.35C150.775 36.57 150.287 36.68 149.735 36.68ZM149.735 35.66C150.239 35.66 150.647 35.522 150.959 35.246C151.275 34.966 151.433 34.562 151.433 34.034C151.433 33.502 151.277 33.098 150.965 32.822C150.657 32.542 150.247 32.402 149.735 32.402C149.227 32.402 148.817 32.542 148.505 32.822C148.197 33.098 148.043 33.502 148.043 34.034C148.043 34.562 148.199 34.966 148.511 35.246C148.823 35.522 149.231 35.66 149.735 35.66ZM149.735 31.376C150.175 31.376 150.531 31.266 150.803 31.046C151.075 30.822 151.211 30.488 151.211 30.044C151.211 29.6 151.075 29.268 150.803 29.048C150.531 28.824 150.175 28.712 149.735 28.712C149.299 28.712 148.943 28.824 148.667 29.048C148.395 29.268 148.259 29.6 148.259 30.044C148.259 30.488 148.395 30.822 148.667 31.046C148.943 31.266 149.299 31.376 149.735 31.376ZM156.528 36.5V27.86H161.568V28.928H157.596V31.646H160.848V32.714H157.596V36.5H156.528ZM166.263 36.5C165.879 36.576 165.499 36.606 165.123 36.59C164.751 36.578 164.419 36.504 164.127 36.368C163.835 36.228 163.613 36.012 163.461 35.72C163.333 35.464 163.263 35.206 163.251 34.946C163.243 34.682 163.239 34.384 163.239 34.052V28.22H164.307V34.004C164.307 34.268 164.309 34.494 164.313 34.682C164.321 34.87 164.363 35.032 164.439 35.168C164.583 35.424 164.811 35.574 165.123 35.618C165.439 35.662 165.819 35.65 166.263 35.582V36.5ZM161.925 30.902V30.02H166.263V30.902H161.925ZM169.75 34.91V32.618H167.458V31.736H169.75V29.45H170.632V31.736H172.918V32.618H170.632V34.91H169.75Z" fill="#222222"/>
</g>
<g clip-path="url(#clip7_1324_43)">
<g clip-path="url(#clip8_1324_43)">
<path d="M225.5 21C228.285 21 230.955 19.8938 232.925 17.9246C234.894 15.9555 236 13.2848 236 10.5C236 7.71523 234.894 5.04451 232.925 3.07538C230.955 1.10625 228.285 0 225.5 0C222.715 0 220.045 1.10625 218.075 3.07538C216.106 5.04451 215 7.71523 215 10.5C215 13.2848 216.106 15.9555 218.075 17.9246C220.045 19.8938 222.715 21 225.5 21ZM225.5 6.5625C226.544 6.5625 227.546 6.97734 228.284 7.71577C229.023 8.45419 229.438 9.45571 229.438 10.5C229.438 11.5443 229.023 12.5458 228.284 13.2842C227.546 14.0227 226.544 14.4375 225.5 14.4375C224.456 14.4375 223.454 14.0227 222.716 13.2842C221.977 12.5458 221.562 11.5443 221.562 10.5C221.562 9.45571 221.977 8.45419 222.716 7.71577C223.454 6.97734 224.456 6.5625 225.5 6.5625Z" fill="#8DC63F"/>
</g>
<path d="M209.6 36.994L209.606 36.034L213.44 32.584C213.76 32.296 213.974 32.024 214.082 31.768C214.194 31.508 214.25 31.242 214.25 30.97C214.25 30.638 214.174 30.338 214.022 30.07C213.87 29.802 213.662 29.59 213.398 29.434C213.138 29.278 212.842 29.2 212.51 29.2C212.166 29.2 211.86 29.282 211.592 29.446C211.324 29.606 211.112 29.82 210.956 30.088C210.804 30.356 210.73 30.648 210.734 30.964H209.642C209.642 30.42 209.768 29.94 210.02 29.524C210.272 29.104 210.614 28.776 211.046 28.54C211.482 28.3 211.976 28.18 212.528 28.18C213.064 28.18 213.544 28.304 213.968 28.552C214.392 28.796 214.726 29.13 214.97 29.554C215.218 29.974 215.342 30.45 215.342 30.982C215.342 31.358 215.294 31.684 215.198 31.96C215.106 32.236 214.962 32.492 214.766 32.728C214.57 32.96 214.324 33.208 214.028 33.472L210.842 36.334L210.704 35.974H215.342V36.994H209.6ZM219.724 37.18C219.176 37.18 218.678 37.048 218.23 36.784C217.786 36.52 217.432 36.16 217.168 35.704C216.908 35.244 216.778 34.726 216.778 34.15V31.276C216.778 30.672 216.908 30.138 217.168 29.674C217.432 29.206 217.792 28.842 218.248 28.582C218.708 28.318 219.232 28.186 219.82 28.186C220.296 28.186 220.738 28.284 221.146 28.48C221.558 28.672 221.904 28.95 222.184 29.314L221.386 30.022C221.214 29.77 220.99 29.57 220.714 29.422C220.438 29.274 220.14 29.2 219.82 29.2C219.44 29.2 219.102 29.292 218.806 29.476C218.514 29.656 218.284 29.896 218.116 30.196C217.948 30.492 217.864 30.812 217.864 31.156V32.89L217.63 32.626C217.882 32.266 218.202 31.978 218.59 31.762C218.978 31.546 219.398 31.438 219.85 31.438C220.386 31.438 220.866 31.564 221.29 31.816C221.718 32.068 222.054 32.41 222.298 32.842C222.546 33.27 222.67 33.752 222.67 34.288C222.67 34.824 222.536 35.31 222.268 35.746C222 36.182 221.642 36.53 221.194 36.79C220.75 37.05 220.26 37.18 219.724 37.18ZM219.724 36.148C220.068 36.148 220.382 36.066 220.666 35.902C220.95 35.734 221.174 35.51 221.338 35.23C221.506 34.946 221.59 34.632 221.59 34.288C221.59 33.944 221.506 33.63 221.338 33.346C221.174 33.062 220.95 32.838 220.666 32.674C220.386 32.506 220.074 32.422 219.73 32.422C219.386 32.422 219.072 32.506 218.788 32.674C218.508 32.838 218.284 33.062 218.116 33.346C217.948 33.63 217.864 33.944 217.864 34.288C217.864 34.628 217.946 34.94 218.11 35.224C218.278 35.504 218.502 35.728 218.782 35.896C219.066 36.064 219.38 36.148 219.724 36.148ZM224.423 37V35.824H225.599V37H224.423ZM230.381 37.18C229.821 37.18 229.321 37.054 228.881 36.802C228.445 36.546 228.099 36.2 227.843 35.764C227.591 35.324 227.465 34.824 227.465 34.264V31.096C227.465 30.536 227.591 30.036 227.843 29.596C228.099 29.156 228.445 28.81 228.881 28.558C229.321 28.306 229.821 28.18 230.381 28.18C230.941 28.18 231.441 28.306 231.881 28.558C232.321 28.81 232.667 29.156 232.919 29.596C233.171 30.036 233.297 30.536 233.297 31.096V34.264C233.297 34.824 233.171 35.324 232.919 35.764C232.667 36.2 232.321 36.546 231.881 36.802C231.441 37.054 230.941 37.18 230.381 37.18ZM230.381 36.154C230.721 36.154 231.029 36.072 231.305 35.908C231.581 35.744 231.801 35.524 231.965 35.248C232.129 34.968 232.211 34.66 232.211 34.324V31.03C232.211 30.69 232.129 30.382 231.965 30.106C231.801 29.83 231.581 29.61 231.305 29.446C231.029 29.282 230.721 29.2 230.381 29.2C230.045 29.2 229.737 29.282 229.457 29.446C229.181 29.61 228.961 29.83 228.797 30.106C228.633 30.382 228.551 30.69 228.551 31.03V34.324C228.551 34.66 228.633 34.968 228.797 35.248C228.961 35.524 229.181 35.744 229.457 35.908C229.737 36.072 230.045 36.154 230.381 36.154ZM237.893 37.18C237.333 37.18 236.833 37.054 236.393 36.802C235.957 36.546 235.611 36.2 235.355 35.764C235.103 35.324 234.977 34.824 234.977 34.264V31.096C234.977 30.536 235.103 30.036 235.355 29.596C235.611 29.156 235.957 28.81 236.393 28.558C236.833 28.306 237.333 28.18 237.893 28.18C238.453 28.18 238.953 28.306 239.393 28.558C239.833 28.81 240.179 29.156 240.431 29.596C240.683 30.036 240.809 30.536 240.809 31.096V34.264C240.809 34.824 240.683 35.324 240.431 35.764C240.179 36.2 239.833 36.546 239.393 36.802C238.953 37.054 238.453 37.18 237.893 37.18ZM237.893 36.154C238.233 36.154 238.541 36.072 238.817 35.908C239.093 35.744 239.313 35.524 239.477 35.248C239.641 34.968 239.723 34.66 239.723 34.324V31.03C239.723 30.69 239.641 30.382 239.477 30.106C239.313 29.83 239.093 29.61 238.817 29.446C238.541 29.282 238.233 29.2 237.893 29.2C237.557 29.2 237.249 29.282 236.969 29.446C236.693 29.61 236.473 29.83 236.309 30.106C236.145 30.382 236.063 30.69 236.063 31.03V34.324C236.063 34.66 236.145 34.968 236.309 35.248C236.473 35.524 236.693 35.744 236.969 35.908C237.249 36.072 237.557 36.154 237.893 36.154Z" fill="#222222"/>
</g>
</g>
<defs>
<clipPath id="clip0_1324_43">
<rect width="242" height="39" fill="white"/>
</clipPath>
<clipPath id="clip1_1324_43">
<rect width="27" height="38" fill="white" transform="translate(0 0.5)"/>
</clipPath>
<clipPath id="clip2_1324_43">
<rect width="25" height="20" fill="white" transform="translate(1 0.5)"/>
</clipPath>
<clipPath id="clip3_1324_43">
<rect width="39" height="38" fill="white" transform="translate(62 0.5)"/>
</clipPath>
<clipPath id="clip4_1324_43">
<rect width="22" height="20" fill="white" transform="translate(70.5 0.5)"/>
</clipPath>
<clipPath id="clip5_1324_43">
<rect width="38" height="38" fill="white" transform="translate(136 0.5)"/>
</clipPath>
<clipPath id="clip6_1324_43">
<rect width="10" height="20" fill="white" transform="translate(150 0.5)"/>
</clipPath>
<clipPath id="clip7_1324_43">
<rect width="33" height="39" fill="white" transform="translate(209)"/>
</clipPath>
<clipPath id="clip8_1324_43">
<rect width="21" height="21" fill="white" transform="translate(215)"/>
</clipPath>
</defs>
</svg>
