<svg width="318" height="56" viewBox="0 0 318 56" fill="none" xmlns="http://www.w3.org/2000/svg">
<rect width="73.3372" height="56" rx="7" fill="#F1F1F1"/>
<g clip-path="url(#clip0_1323_19)">
<path d="M17.8514 38L19.8354 32.24H20.6154L22.5994 38H21.9874L20.1034 32.568H20.3354L18.4634 38H17.8514ZM18.7354 36.604V36.052H21.7114V36.604H18.7354ZM23.4017 38V32.12H23.9897V38H23.4017ZM26.8409 38.108C26.5822 38.108 26.3556 38.068 26.1609 37.988C25.9689 37.908 25.8049 37.8 25.6689 37.664C25.5356 37.528 25.4276 37.3733 25.3449 37.2C25.2622 37.024 25.2022 36.8387 25.1649 36.644C25.1276 36.4467 25.1089 36.2507 25.1089 36.056V33.68H25.7009V35.884C25.7009 36.1213 25.7236 36.3413 25.7689 36.544C25.8142 36.7467 25.8862 36.924 25.9849 37.076C26.0862 37.2253 26.2156 37.3413 26.3729 37.424C26.5329 37.5067 26.7262 37.548 26.9529 37.548C27.1609 37.548 27.3436 37.512 27.5009 37.44C27.6609 37.368 27.7942 37.2653 27.9009 37.132C28.0102 36.996 28.0929 36.832 28.1489 36.64C28.2049 36.4453 28.2329 36.2267 28.2329 35.984L28.6489 36.076C28.6489 36.5187 28.5716 36.8907 28.4169 37.192C28.2622 37.4933 28.0489 37.7213 27.7769 37.876C27.5049 38.0307 27.1929 38.108 26.8409 38.108ZM28.2929 38V36.936H28.2329V33.68H28.8209V38H28.2929ZM35.0909 38L35.0949 35.164C35.0949 34.8307 35.0016 34.5693 34.8149 34.38C34.6309 34.188 34.3962 34.092 34.1109 34.092C33.9482 34.092 33.7896 34.1293 33.6349 34.204C33.4802 34.2787 33.3522 34.3987 33.2509 34.564C33.1522 34.7293 33.1029 34.9453 33.1029 35.212L32.7549 35.112C32.7469 34.8027 32.8069 34.532 32.9349 34.3C33.0656 34.068 33.2442 33.888 33.4709 33.76C33.7002 33.6293 33.9589 33.564 34.2469 33.564C34.6816 33.564 35.0296 33.6987 35.2909 33.968C35.5522 34.2347 35.6829 34.596 35.6829 35.052L35.6789 38H35.0909ZM29.9349 38V33.68H30.4629V34.744H30.5269V38H29.9349ZM32.5189 38L32.5229 35.204C32.5229 34.86 32.4309 34.5893 32.2469 34.392C32.0656 34.192 31.8256 34.092 31.5269 34.092C31.2282 34.092 30.9869 34.1947 30.8029 34.4C30.6189 34.6027 30.5269 34.8733 30.5269 35.212L30.1749 35.02C30.1749 34.7427 30.2402 34.4947 30.3709 34.276C30.5016 34.0547 30.6802 33.8813 30.9069 33.756C31.1336 33.628 31.3909 33.564 31.6789 33.564C31.9536 33.564 32.1976 33.6227 32.4109 33.74C32.6269 33.8573 32.7962 34.028 32.9189 34.252C33.0416 34.476 33.1029 34.748 33.1029 35.068L33.0989 38H32.5189ZM36.8002 32.86V32.2H37.3882V32.86H36.8002ZM36.8002 38V33.68H37.3882V38H36.8002ZM41.7073 38V35.796C41.7073 35.556 41.6847 35.336 41.6393 35.136C41.594 34.9333 41.5207 34.7573 41.4193 34.608C41.3207 34.456 41.1913 34.3387 41.0313 34.256C40.874 34.1733 40.682 34.132 40.4553 34.132C40.2473 34.132 40.0633 34.168 39.9033 34.24C39.746 34.312 39.6127 34.416 39.5033 34.552C39.3967 34.6853 39.3153 34.848 39.2593 35.04C39.2033 35.232 39.1753 35.4507 39.1753 35.696L38.7593 35.604C38.7593 35.1613 38.8367 34.7893 38.9913 34.488C39.146 34.1867 39.3593 33.9587 39.6313 33.804C39.9033 33.6493 40.2153 33.572 40.5673 33.572C40.826 33.572 41.0513 33.612 41.2433 33.692C41.438 33.772 41.602 33.88 41.7353 34.016C41.8713 34.152 41.9807 34.308 42.0633 34.484C42.146 34.6573 42.206 34.8427 42.2433 35.04C42.2807 35.2347 42.2993 35.4293 42.2993 35.624V38H41.7073ZM38.5833 38V33.68H39.1153V34.744H39.1753V38H38.5833ZM44.9893 38.108C44.7307 38.108 44.504 38.068 44.3093 37.988C44.1173 37.908 43.9533 37.8 43.8173 37.664C43.684 37.528 43.576 37.3733 43.4933 37.2C43.4107 37.024 43.3507 36.8387 43.3133 36.644C43.276 36.4467 43.2573 36.2507 43.2573 36.056V33.68H43.8493V35.884C43.8493 36.1213 43.872 36.3413 43.9173 36.544C43.9627 36.7467 44.0347 36.924 44.1333 37.076C44.2347 37.2253 44.364 37.3413 44.5213 37.424C44.6813 37.5067 44.8747 37.548 45.1013 37.548C45.3093 37.548 45.492 37.512 45.6493 37.44C45.8093 37.368 45.9427 37.2653 46.0493 37.132C46.1587 36.996 46.2413 36.832 46.2973 36.64C46.3533 36.4453 46.3813 36.2267 46.3813 35.984L46.7973 36.076C46.7973 36.5187 46.72 36.8907 46.5653 37.192C46.4107 37.4933 46.1973 37.7213 45.9253 37.876C45.6533 38.0307 45.3413 38.108 44.9893 38.108ZM46.4413 38V36.936H46.3813V33.68H46.9693V38H46.4413ZM53.2393 38L53.2433 35.164C53.2433 34.8307 53.15 34.5693 52.9633 34.38C52.7793 34.188 52.5447 34.092 52.2593 34.092C52.0967 34.092 51.938 34.1293 51.7833 34.204C51.6287 34.2787 51.5007 34.3987 51.3993 34.564C51.3007 34.7293 51.2513 34.9453 51.2513 35.212L50.9033 35.112C50.8953 34.8027 50.9553 34.532 51.0833 34.3C51.214 34.068 51.3927 33.888 51.6193 33.76C51.8487 33.6293 52.1073 33.564 52.3953 33.564C52.83 33.564 53.178 33.6987 53.4393 33.968C53.7007 34.2347 53.8313 34.596 53.8313 35.052L53.8273 38H53.2393ZM48.0833 38V33.68H48.6113V34.744H48.6753V38H48.0833ZM50.6673 38L50.6713 35.204C50.6713 34.86 50.5793 34.5893 50.3953 34.392C50.214 34.192 49.974 34.092 49.6753 34.092C49.3767 34.092 49.1353 34.1947 48.9513 34.4C48.7673 34.6027 48.6753 34.8733 48.6753 35.212L48.3233 35.02C48.3233 34.7427 48.3887 34.4947 48.5193 34.276C48.65 34.0547 48.8287 33.8813 49.0553 33.756C49.282 33.628 49.5393 33.564 49.8273 33.564C50.102 33.564 50.346 33.6227 50.5593 33.74C50.7753 33.8573 50.9447 34.028 51.0673 34.252C51.19 34.476 51.2513 34.748 51.2513 35.068L51.2473 38H50.6673ZM27.3592 46L29.3432 40.24H30.1232L32.1072 46H31.4952L29.6112 40.568H29.8432L27.9712 46H27.3592ZM28.2432 44.604V44.052H31.2192V44.604H28.2432ZM32.9095 46V40.12H33.4975V46H32.9095ZM34.7767 46V40.12H35.3647V46H34.7767ZM38.3679 46.12C37.9386 46.12 37.5719 46.0227 37.2679 45.828C36.9639 45.6333 36.7306 45.364 36.5679 45.02C36.4052 44.676 36.3239 44.2813 36.3239 43.836C36.3239 43.3827 36.4066 42.9853 36.5719 42.644C36.7372 42.3027 36.9719 42.0373 37.2759 41.848C37.5826 41.656 37.9466 41.56 38.3679 41.56C38.7999 41.56 39.1679 41.6573 39.4719 41.852C39.7786 42.044 40.0119 42.312 40.1719 42.656C40.3346 42.9973 40.4159 43.3907 40.4159 43.836C40.4159 44.2893 40.3346 44.688 40.1719 45.032C40.0092 45.3733 39.7746 45.64 39.4679 45.832C39.1612 46.024 38.7946 46.12 38.3679 46.12ZM38.3679 45.556C38.8479 45.556 39.2052 45.3973 39.4399 45.08C39.6746 44.76 39.7919 44.3453 39.7919 43.836C39.7919 43.3133 39.6732 42.8973 39.4359 42.588C39.2012 42.2787 38.8452 42.124 38.3679 42.124C38.0452 42.124 37.7786 42.1973 37.5679 42.344C37.3599 42.488 37.2039 42.6893 37.0999 42.948C36.9986 43.204 36.9479 43.5 36.9479 43.836C36.9479 44.356 37.0679 44.7733 37.3079 45.088C37.5479 45.4 37.9012 45.556 38.3679 45.556ZM41.758 47.92L42.594 45.652L42.606 46.324L40.714 41.68H41.338L42.89 45.564H42.634L44.066 41.68H44.666L42.346 47.92H41.758Z" fill="#222222"/>
</g>
<path d="M13.3696 23.4243V13.3443H19.4386V15.0313H15.0566V17.5443H18.5986V19.2243H15.0566V23.4243H13.3696ZM20.6978 23.4243V13.3443H24.8628C24.9608 13.3443 25.0868 13.349 25.2408 13.3583C25.3948 13.363 25.5371 13.377 25.6678 13.4003C26.2511 13.489 26.7318 13.6826 27.1098 13.9813C27.4924 14.28 27.7748 14.658 27.9568 15.1153C28.1434 15.568 28.2368 16.072 28.2368 16.6273C28.2368 17.4486 28.0291 18.1556 27.6138 18.7483C27.1984 19.3363 26.5614 19.7003 25.7028 19.8403L24.9818 19.9033H22.3848V23.4243H20.6978ZM26.4868 23.4243L24.4988 19.3223L26.2138 18.9443L28.3978 23.4243H26.4868ZM22.3848 18.3283H24.7928C24.8861 18.3283 24.9911 18.3236 25.1078 18.3143C25.2244 18.305 25.3318 18.2863 25.4298 18.2583C25.7098 18.1883 25.9291 18.0646 26.0878 17.8873C26.2511 17.71 26.3654 17.5093 26.4308 17.2853C26.5008 17.0613 26.5358 16.842 26.5358 16.6273C26.5358 16.4126 26.5008 16.1933 26.4308 15.9693C26.3654 15.7406 26.2511 15.5376 26.0878 15.3603C25.9291 15.183 25.7098 15.0593 25.4298 14.9893C25.3318 14.9613 25.2244 14.945 25.1078 14.9403C24.9911 14.931 24.8861 14.9263 24.7928 14.9263H22.3848V18.3283ZM29.24 23.4243L32.418 13.3443H34.889L38.067 23.4243H36.331L33.447 14.3803H33.825L30.976 23.4243H29.24ZM31.011 21.2403V19.6653H36.303V21.2403H31.011ZM39.3325 23.4243V13.3443H40.8515L44.3375 20.4843L47.8235 13.3443H49.3425V23.4243H47.7675V16.9633L44.6735 23.4243H44.0015L40.9145 16.9633V23.4243H39.3325ZM51.3091 23.4243V13.3443H57.8191V14.9263H52.9961V17.4113H56.9791V18.9933H52.9961V21.8423H57.8191V23.4243H51.3091Z" fill="#222222"/>
<rect x="244.662" width="73.3372" height="56" rx="7" fill="#F1F1F1"/>
<g clip-path="url(#clip1_1323_19)">
<path d="M262.005 37.996L262.009 37.46L264.613 35.108C264.837 34.9053 264.985 34.7133 265.057 34.532C265.132 34.348 265.169 34.156 265.169 33.956C265.169 33.7187 265.113 33.504 265.001 33.312C264.889 33.12 264.739 32.968 264.549 32.856C264.36 32.7413 264.148 32.684 263.913 32.684C263.668 32.684 263.449 32.7427 263.257 32.86C263.065 32.9773 262.913 33.132 262.801 33.324C262.692 33.516 262.639 33.7253 262.641 33.952H262.041C262.041 33.6027 262.124 33.2893 262.289 33.012C262.455 32.7347 262.679 32.5173 262.961 32.36C263.244 32.2 263.564 32.12 263.921 32.12C264.271 32.12 264.584 32.2027 264.861 32.368C265.141 32.5307 265.361 32.752 265.521 33.032C265.684 33.3093 265.765 33.6187 265.765 33.96C265.765 34.2 265.736 34.412 265.677 34.596C265.621 34.7773 265.532 34.9467 265.409 35.104C265.289 35.2587 265.136 35.4187 264.949 35.584L262.637 37.672L262.545 37.432H265.765V37.996H262.005ZM267.036 38L269.156 32.812H266.488V32.24H269.784V32.812L267.668 38H267.036ZM270.324 38V37.316H271.008V38H270.324ZM273.944 38.12C273.645 38.12 273.369 38.0587 273.116 37.936C272.862 37.8133 272.646 37.644 272.468 37.428C272.289 37.212 272.161 36.964 272.084 36.684L272.648 36.532C272.698 36.74 272.79 36.92 272.924 37.072C273.057 37.2213 273.213 37.3373 273.392 37.42C273.573 37.5027 273.762 37.544 273.96 37.544C274.216 37.544 274.445 37.4827 274.648 37.36C274.853 37.2347 275.016 37.0693 275.136 36.864C275.256 36.6587 275.316 36.4333 275.316 36.188C275.316 35.9347 275.253 35.7067 275.128 35.504C275.002 35.2987 274.837 35.136 274.632 35.016C274.426 34.896 274.202 34.836 273.96 34.836C273.688 34.836 273.453 34.896 273.256 35.016C273.058 35.1333 272.901 35.2813 272.784 35.46L272.248 35.236L272.424 32.24H275.5V32.804H272.684L272.976 32.528L272.82 35.084L272.672 34.888C272.837 34.6987 273.037 34.5507 273.272 34.444C273.506 34.3373 273.753 34.284 274.012 34.284C274.366 34.284 274.686 34.3693 274.972 34.54C275.257 34.708 275.484 34.936 275.652 35.224C275.82 35.512 275.904 35.8333 275.904 36.188C275.904 36.54 275.814 36.8627 275.636 37.156C275.457 37.4467 275.22 37.68 274.924 37.856C274.628 38.032 274.301 38.12 273.944 38.12ZM277.982 38L279.978 35.084L278.034 32.24H278.746L280.326 34.592L281.906 32.24H282.622L280.678 35.084L282.67 38H281.958L280.326 35.58L278.698 38H277.982ZM284.755 37.996L284.759 37.46L287.363 35.108C287.587 34.9053 287.735 34.7133 287.807 34.532C287.882 34.348 287.919 34.156 287.919 33.956C287.919 33.7187 287.863 33.504 287.751 33.312C287.639 33.12 287.489 32.968 287.299 32.856C287.11 32.7413 286.898 32.684 286.663 32.684C286.418 32.684 286.199 32.7427 286.007 32.86C285.815 32.9773 285.663 33.132 285.551 33.324C285.442 33.516 285.389 33.7253 285.391 33.952H284.791C284.791 33.6027 284.874 33.2893 285.039 33.012C285.205 32.7347 285.429 32.5173 285.711 32.36C285.994 32.2 286.314 32.12 286.671 32.12C287.021 32.12 287.334 32.2027 287.611 32.368C287.891 32.5307 288.111 32.752 288.271 33.032C288.434 33.3093 288.515 33.6187 288.515 33.96C288.515 34.2 288.486 34.412 288.427 34.596C288.371 34.7773 288.282 34.9467 288.159 35.104C288.039 35.2587 287.886 35.4187 287.699 35.584L285.387 37.672L285.295 37.432H288.515V37.996H284.755ZM289.59 38V37.316H290.274V38H289.59ZM291.349 37.996L291.353 37.46L293.957 35.108C294.181 34.9053 294.329 34.7133 294.401 34.532C294.476 34.348 294.513 34.156 294.513 33.956C294.513 33.7187 294.457 33.504 294.345 33.312C294.233 33.12 294.083 32.968 293.893 32.856C293.704 32.7413 293.492 32.684 293.257 32.684C293.012 32.684 292.793 32.7427 292.601 32.86C292.409 32.9773 292.257 33.132 292.145 33.324C292.036 33.516 291.983 33.7253 291.985 33.952H291.385C291.385 33.6027 291.468 33.2893 291.633 33.012C291.799 32.7347 292.023 32.5173 292.305 32.36C292.588 32.2 292.908 32.12 293.265 32.12C293.615 32.12 293.928 32.2027 294.205 32.368C294.485 32.5307 294.705 32.752 294.865 33.032C295.028 33.3093 295.109 33.6187 295.109 33.96C295.109 34.2 295.08 34.412 295.021 34.596C294.965 34.7773 294.876 34.9467 294.753 35.104C294.633 35.2587 294.48 35.4187 294.293 35.584L291.981 37.672L291.889 37.432H295.109V37.996H291.349ZM297.952 38.12C297.597 38.12 297.277 38.0373 296.992 37.872C296.709 37.7067 296.485 37.4827 296.32 37.2C296.154 36.9147 296.072 36.5947 296.072 36.24V34C296.072 33.6453 296.154 33.3267 296.32 33.044C296.485 32.7587 296.709 32.5333 296.992 32.368C297.277 32.2027 297.597 32.12 297.952 32.12C298.306 32.12 298.625 32.2027 298.908 32.368C299.193 32.5333 299.418 32.7587 299.584 33.044C299.749 33.3267 299.832 33.6453 299.832 34V36.24C299.832 36.5947 299.749 36.9147 299.584 37.2C299.418 37.4827 299.193 37.7067 298.908 37.872C298.625 38.0373 298.306 38.12 297.952 38.12ZM297.952 37.552C298.189 37.552 298.405 37.4947 298.6 37.38C298.794 37.2627 298.949 37.1067 299.064 36.912C299.178 36.7173 299.236 36.5027 299.236 36.268V33.972C299.236 33.7347 299.178 33.5187 299.064 33.324C298.949 33.1293 298.794 32.9747 298.6 32.86C298.405 32.7427 298.189 32.684 297.952 32.684C297.714 32.684 297.498 32.7427 297.304 32.86C297.109 32.9747 296.954 33.1293 296.84 33.324C296.725 33.5187 296.668 33.7347 296.668 33.972V36.268C296.668 36.5027 296.725 36.7173 296.84 36.912C296.954 37.1067 297.109 37.2627 297.304 37.38C297.498 37.4947 297.714 37.552 297.952 37.552ZM271.037 46V40.24H271.629L274.801 44.96V40.24H275.393V46H274.801L271.629 41.276V46H271.037ZM277.129 47.92L277.965 45.652L277.977 46.324L276.085 41.68H276.709L278.261 45.564H278.005L279.437 41.68H280.037L277.717 47.92H277.129ZM280.812 46V40.12H281.4V46H280.812ZM284.403 46.12C283.974 46.12 283.607 46.0227 283.303 45.828C282.999 45.6333 282.766 45.364 282.603 45.02C282.44 44.676 282.359 44.2813 282.359 43.836C282.359 43.3827 282.442 42.9853 282.607 42.644C282.772 42.3027 283.007 42.0373 283.311 41.848C283.618 41.656 283.982 41.56 284.403 41.56C284.835 41.56 285.203 41.6573 285.507 41.852C285.814 42.044 286.047 42.312 286.207 42.656C286.37 42.9973 286.451 43.3907 286.451 43.836C286.451 44.2893 286.37 44.688 286.207 45.032C286.044 45.3733 285.81 45.64 285.503 45.832C285.196 46.024 284.83 46.12 284.403 46.12ZM284.403 45.556C284.883 45.556 285.24 45.3973 285.475 45.08C285.71 44.76 285.827 44.3453 285.827 43.836C285.827 43.3133 285.708 42.8973 285.471 42.588C285.236 42.2787 284.88 42.124 284.403 42.124C284.08 42.124 283.814 42.1973 283.603 42.344C283.395 42.488 283.239 42.6893 283.135 42.948C283.034 43.204 282.983 43.5 282.983 43.836C282.983 44.356 283.103 44.7733 283.343 45.088C283.583 45.4 283.936 45.556 284.403 45.556ZM290.453 46V43.796C290.453 43.556 290.431 43.336 290.385 43.136C290.34 42.9333 290.267 42.7573 290.165 42.608C290.067 42.456 289.937 42.3387 289.777 42.256C289.62 42.1733 289.428 42.132 289.201 42.132C288.993 42.132 288.809 42.168 288.649 42.24C288.492 42.312 288.359 42.416 288.249 42.552C288.143 42.6853 288.061 42.848 288.005 43.04C287.949 43.232 287.921 43.4507 287.921 43.696L287.505 43.604C287.505 43.1613 287.583 42.7893 287.737 42.488C287.892 42.1867 288.105 41.9587 288.377 41.804C288.649 41.6493 288.961 41.572 289.313 41.572C289.572 41.572 289.797 41.612 289.989 41.692C290.184 41.772 290.348 41.88 290.481 42.016C290.617 42.152 290.727 42.308 290.809 42.484C290.892 42.6573 290.952 42.8427 290.989 43.04C291.027 43.2347 291.045 43.4293 291.045 43.624V46H290.453ZM287.329 46V41.68H287.861V42.744H287.921V46H287.329Z" fill="#222222"/>
</g>
<path d="M261.402 23V14.502H258.14V12.92H266.351V14.502H263.089V23H261.402ZM270.344 23V18.87L266.914 12.92H268.881L271.198 16.938L273.508 12.92H275.475L272.052 18.87V23H270.344ZM276.453 23V12.92H280.618C280.716 12.92 280.842 12.9247 280.996 12.934C281.15 12.9387 281.292 12.9527 281.423 12.976C282.006 13.0647 282.487 13.2583 282.865 13.557C283.247 13.8557 283.53 14.2337 283.712 14.691C283.898 15.1437 283.992 15.6477 283.992 16.203C283.992 17.0243 283.784 17.7313 283.369 18.324C282.953 18.912 282.316 19.276 281.458 19.416L280.737 19.479H278.14V23H276.453ZM282.242 23L280.254 18.898L281.969 18.52L284.153 23H282.242ZM278.14 17.904H280.548C280.641 17.904 280.746 17.8993 280.863 17.89C280.979 17.8807 281.087 17.862 281.185 17.834C281.465 17.764 281.684 17.6403 281.843 17.463C282.006 17.2857 282.12 17.085 282.186 16.861C282.256 16.637 282.291 16.4177 282.291 16.203C282.291 15.9883 282.256 15.769 282.186 15.545C282.12 15.3163 282.006 15.1133 281.843 14.936C281.684 14.7587 281.465 14.635 281.185 14.565C281.087 14.537 280.979 14.5207 280.863 14.516C280.746 14.5067 280.641 14.502 280.548 14.502H278.14V17.904ZM285.695 23V12.92H292.205V14.502H287.382V16.987H291.365V18.569H287.382V21.418H292.205V23H285.695ZM297.52 23.21C296.782 23.21 296.117 23.0817 295.525 22.825C294.937 22.5683 294.451 22.202 294.069 21.726C293.691 21.2453 293.45 20.676 293.348 20.018L295.098 19.752C295.247 20.3493 295.553 20.8113 296.015 21.138C296.481 21.4647 297.018 21.628 297.625 21.628C297.984 21.628 298.322 21.572 298.64 21.46C298.957 21.348 299.214 21.1847 299.41 20.97C299.61 20.7553 299.711 20.4917 299.711 20.179C299.711 20.039 299.687 19.9107 299.641 19.794C299.594 19.6727 299.524 19.5653 299.431 19.472C299.342 19.3787 299.225 19.2947 299.081 19.22C298.941 19.1407 298.777 19.073 298.591 19.017L295.987 18.247C295.763 18.1817 295.52 18.0953 295.259 17.988C295.002 17.876 294.757 17.7243 294.524 17.533C294.295 17.337 294.106 17.0897 293.957 16.791C293.812 16.4877 293.74 16.1143 293.74 15.671C293.74 15.0223 293.903 14.4787 294.23 14.04C294.561 13.5967 295.004 13.2653 295.56 13.046C296.12 12.8267 296.74 12.7193 297.422 12.724C298.112 12.7287 298.728 12.8477 299.27 13.081C299.811 13.3097 300.264 13.6433 300.628 14.082C300.992 14.5207 301.248 15.0503 301.398 15.671L299.585 15.986C299.51 15.6313 299.365 15.3303 299.151 15.083C298.941 14.831 298.682 14.6397 298.374 14.509C298.07 14.3783 297.746 14.3083 297.401 14.299C297.065 14.2943 296.752 14.3457 296.463 14.453C296.178 14.5557 295.947 14.705 295.77 14.901C295.597 15.097 295.511 15.3257 295.511 15.587C295.511 15.8343 295.585 16.0373 295.735 16.196C295.884 16.35 296.068 16.4737 296.288 16.567C296.512 16.6557 296.738 16.7303 296.967 16.791L298.773 17.295C299.02 17.3603 299.298 17.449 299.606 17.561C299.914 17.673 300.21 17.8293 300.495 18.03C300.779 18.2307 301.013 18.4943 301.195 18.821C301.381 19.1477 301.475 19.563 301.475 20.067C301.475 20.5897 301.365 21.0493 301.146 21.446C300.931 21.838 300.639 22.1647 300.271 22.426C299.902 22.6873 299.48 22.8833 299.004 23.014C298.532 23.1447 298.038 23.21 297.52 23.21Z" fill="#222222"/>
<rect x="81.3496" width="73.3372" height="56" rx="7" fill="#F1F1F1"/>
<g clip-path="url(#clip2_1323_19)">
<path d="M109.431 38V32.24H111.655C111.711 32.24 111.774 32.2427 111.843 32.248C111.915 32.2507 111.987 32.2587 112.059 32.272C112.36 32.3173 112.615 32.4227 112.823 32.588C113.034 32.7507 113.192 32.956 113.299 33.204C113.408 33.452 113.463 33.7267 113.463 34.028C113.463 34.4627 113.348 34.84 113.119 35.16C112.89 35.48 112.562 35.6813 112.135 35.764L111.931 35.812H110.019V38H109.431ZM112.919 38L111.783 35.656L112.347 35.44L113.595 38H112.919ZM110.019 35.252H111.639C111.687 35.252 111.743 35.2493 111.807 35.244C111.871 35.2387 111.934 35.2293 111.995 35.216C112.192 35.1733 112.354 35.092 112.479 34.972C112.607 34.852 112.702 34.7093 112.763 34.544C112.827 34.3787 112.859 34.2067 112.859 34.028C112.859 33.8493 112.827 33.6773 112.763 33.512C112.702 33.344 112.607 33.2 112.479 33.08C112.354 32.96 112.192 32.8787 111.995 32.836C111.934 32.8227 111.871 32.8147 111.807 32.812C111.743 32.8067 111.687 32.804 111.639 32.804H110.019V35.252ZM114.558 32.86V32.2H115.146V32.86H114.558ZM114.558 38V33.68H115.146V38H114.558ZM118.061 40.04C117.84 40.04 117.621 40.0067 117.405 39.94C117.192 39.876 116.994 39.7733 116.813 39.632C116.632 39.4933 116.48 39.312 116.357 39.088L116.889 38.792C117.009 39.032 117.177 39.204 117.393 39.308C117.612 39.4147 117.834 39.468 118.061 39.468C118.373 39.468 118.625 39.4093 118.817 39.292C119.012 39.1773 119.153 39.0067 119.241 38.78C119.329 38.5533 119.372 38.2707 119.369 37.932V36.78H119.437V33.68H119.961V37.94C119.961 38.0627 119.957 38.18 119.949 38.292C119.944 38.4067 119.932 38.5187 119.913 38.628C119.862 38.9507 119.757 39.216 119.597 39.424C119.44 39.632 119.232 39.7867 118.973 39.888C118.717 39.9893 118.413 40.04 118.061 40.04ZM118.021 38.12C117.618 38.12 117.274 38.02 116.989 37.82C116.704 37.6173 116.485 37.344 116.333 37C116.181 36.656 116.105 36.268 116.105 35.836C116.105 35.4067 116.18 35.02 116.329 34.676C116.481 34.332 116.698 34.06 116.981 33.86C117.264 33.66 117.602 33.56 117.997 33.56C118.402 33.56 118.744 33.6587 119.021 33.856C119.298 34.0533 119.508 34.324 119.649 34.668C119.793 35.0093 119.865 35.3987 119.865 35.836C119.865 36.2653 119.794 36.6533 119.653 37C119.512 37.344 119.304 37.6173 119.029 37.82C118.754 38.02 118.418 38.12 118.021 38.12ZM118.081 37.572C118.388 37.572 118.641 37.4973 118.841 37.348C119.041 37.1987 119.19 36.9933 119.289 36.732C119.388 36.468 119.437 36.1693 119.437 35.836C119.437 35.4973 119.388 35.1987 119.289 34.94C119.19 34.6787 119.041 34.4747 118.841 34.328C118.644 34.1813 118.394 34.108 118.093 34.108C117.784 34.108 117.528 34.184 117.325 34.336C117.122 34.488 116.972 34.6947 116.873 34.956C116.777 35.2173 116.729 35.5107 116.729 35.836C116.729 36.164 116.778 36.46 116.877 36.724C116.978 36.9853 117.129 37.192 117.329 37.344C117.529 37.496 117.78 37.572 118.081 37.572ZM121.16 32.86V32.2H121.748V32.86H121.16ZM121.16 38V33.68H121.748V38H121.16ZM124.623 38.12C124.22 38.12 123.876 38.02 123.591 37.82C123.305 37.6173 123.087 37.344 122.935 37C122.783 36.656 122.707 36.268 122.707 35.836C122.707 35.4067 122.781 35.02 122.931 34.676C123.083 34.332 123.3 34.06 123.583 33.86C123.865 33.66 124.204 33.56 124.599 33.56C125.004 33.56 125.345 33.6587 125.623 33.856C125.9 34.0533 126.109 34.324 126.251 34.668C126.395 35.0093 126.467 35.3987 126.467 35.836C126.467 36.2653 126.396 36.6533 126.255 37C126.113 37.344 125.905 37.6173 125.631 37.82C125.356 38.02 125.02 38.12 124.623 38.12ZM124.683 37.572C124.989 37.572 125.243 37.4973 125.443 37.348C125.643 37.1987 125.792 36.9933 125.891 36.732C125.989 36.468 126.039 36.1693 126.039 35.836C126.039 35.4973 125.989 35.1987 125.891 34.94C125.792 34.6787 125.643 34.4747 125.443 34.328C125.245 34.1813 124.996 34.108 124.695 34.108C124.385 34.108 124.129 34.184 123.927 34.336C123.724 34.488 123.573 34.6947 123.475 34.956C123.379 35.2173 123.331 35.5107 123.331 35.836C123.331 36.164 123.38 36.46 123.479 36.724C123.58 36.9853 123.731 37.192 123.931 37.344C124.131 37.496 124.381 37.572 124.683 37.572ZM126.039 38V34.748H125.975V32.24H126.567V38H126.039ZM110.81 46V40.24H114.118V40.828H111.398V42.828H113.638V43.412H111.398V46H110.81ZM116.528 46.12C116.099 46.12 115.732 46.0227 115.428 45.828C115.124 45.6333 114.891 45.364 114.728 45.02C114.565 44.676 114.484 44.2813 114.484 43.836C114.484 43.3827 114.567 42.9853 114.732 42.644C114.897 42.3027 115.132 42.0373 115.436 41.848C115.743 41.656 116.107 41.56 116.528 41.56C116.96 41.56 117.328 41.6573 117.632 41.852C117.939 42.044 118.172 42.312 118.332 42.656C118.495 42.9973 118.576 43.3907 118.576 43.836C118.576 44.2893 118.495 44.688 118.332 45.032C118.169 45.3733 117.935 45.64 117.628 45.832C117.321 46.024 116.955 46.12 116.528 46.12ZM116.528 45.556C117.008 45.556 117.365 45.3973 117.6 45.08C117.835 44.76 117.952 44.3453 117.952 43.836C117.952 43.3133 117.833 42.8973 117.596 42.588C117.361 42.2787 117.005 42.124 116.528 42.124C116.205 42.124 115.939 42.1973 115.728 42.344C115.52 42.488 115.364 42.6893 115.26 42.948C115.159 43.204 115.108 43.5 115.108 43.836C115.108 44.356 115.228 44.7733 115.468 45.088C115.708 45.4 116.061 45.556 116.528 45.556ZM119.458 46V41.68H119.986V42.72L119.882 42.584C119.93 42.456 119.993 42.3387 120.07 42.232C120.148 42.1227 120.232 42.0333 120.322 41.964C120.434 41.8653 120.565 41.7907 120.714 41.74C120.864 41.6867 121.014 41.656 121.166 41.648C121.318 41.6373 121.457 41.648 121.582 41.68V42.232C121.425 42.192 121.253 42.1827 121.066 42.204C120.88 42.2253 120.708 42.3 120.55 42.428C120.406 42.54 120.298 42.6747 120.226 42.832C120.154 42.9867 120.106 43.152 120.082 43.328C120.058 43.5013 120.046 43.6733 120.046 43.844V46H119.458ZM122.337 46L122.341 40.24H122.933V43.76L124.861 41.68H125.645L123.621 43.84L125.909 46H125.053L122.933 43.92V46H122.337Z" fill="#222222"/>
</g>
<path d="M99.98 23V12.92H106.049V14.607H101.667V17.12H105.209V18.8H101.667V23H99.98ZM111.571 23.21C110.563 23.21 109.7 22.9907 108.981 22.552C108.262 22.1087 107.709 21.4927 107.322 20.704C106.939 19.9153 106.748 19.0007 106.748 17.96C106.748 16.9193 106.939 16.0047 107.322 15.216C107.709 14.4273 108.262 13.8137 108.981 13.375C109.7 12.9317 110.563 12.71 111.571 12.71C112.579 12.71 113.442 12.9317 114.161 13.375C114.884 13.8137 115.437 14.4273 115.82 15.216C116.207 16.0047 116.401 16.9193 116.401 17.96C116.401 19.0007 116.207 19.9153 115.82 20.704C115.437 21.4927 114.884 22.1087 114.161 22.552C113.442 22.9907 112.579 23.21 111.571 23.21ZM111.571 21.621C112.248 21.6257 112.81 21.4763 113.258 21.173C113.711 20.8697 114.049 20.4427 114.273 19.892C114.502 19.3413 114.616 18.6973 114.616 17.96C114.616 17.2227 114.502 16.5833 114.273 16.042C114.049 15.496 113.711 15.0713 113.258 14.768C112.81 14.4647 112.248 14.3083 111.571 14.299C110.894 14.2943 110.332 14.4437 109.884 14.747C109.436 15.0503 109.098 15.4773 108.869 16.028C108.645 16.5787 108.533 17.2227 108.533 17.96C108.533 18.6973 108.645 19.339 108.869 19.885C109.093 20.4263 109.429 20.8487 109.877 21.152C110.33 21.4553 110.894 21.6117 111.571 21.621ZM117.794 23V12.92H121.959C122.057 12.92 122.183 12.9247 122.337 12.934C122.491 12.9387 122.634 12.9527 122.764 12.976C123.348 13.0647 123.828 13.2583 124.206 13.557C124.589 13.8557 124.871 14.2337 125.053 14.691C125.24 15.1437 125.333 15.6477 125.333 16.203C125.333 17.0243 125.126 17.7313 124.71 18.324C124.295 18.912 123.658 19.276 122.799 19.416L122.078 19.479H119.481V23H117.794ZM123.583 23L121.595 18.898L123.31 18.52L125.494 23H123.583ZM119.481 17.904H121.889C121.983 17.904 122.088 17.8993 122.204 17.89C122.321 17.8807 122.428 17.862 122.526 17.834C122.806 17.764 123.026 17.6403 123.184 17.463C123.348 17.2857 123.462 17.085 123.527 16.861C123.597 16.637 123.632 16.4177 123.632 16.203C123.632 15.9883 123.597 15.769 123.527 15.545C123.462 15.3163 123.348 15.1133 123.184 14.936C123.026 14.7587 122.806 14.635 122.526 14.565C122.428 14.537 122.321 14.5207 122.204 14.516C122.088 14.5067 121.983 14.502 121.889 14.502H119.481V17.904ZM127.037 23V12.92H128.724V17.596L132.749 12.92H134.821L130.488 17.862L135.115 23H132.973L128.724 18.296V23H127.037Z" fill="#222222"/>
<rect x="162.697" width="73.9535" height="56" rx="7" fill="#F1F1F1"/>
<g clip-path="url(#clip3_1323_19)">
<path d="M194.865 38.12C194.462 38.12 194.099 38.0533 193.777 37.92C193.457 37.784 193.191 37.592 192.981 37.344C192.773 37.096 192.637 36.8013 192.573 36.46L193.173 36.36C193.269 36.7333 193.471 37.0267 193.781 37.24C194.09 37.4507 194.459 37.556 194.889 37.556C195.171 37.556 195.425 37.512 195.649 37.424C195.873 37.3333 196.049 37.2053 196.177 37.04C196.305 36.8747 196.369 36.6787 196.369 36.452C196.369 36.3027 196.342 36.176 196.289 36.072C196.235 35.9653 196.165 35.8773 196.077 35.808C195.989 35.7387 195.893 35.6813 195.789 35.636C195.685 35.588 195.583 35.5493 195.485 35.52L194.025 35.084C193.849 35.0333 193.686 34.9693 193.537 34.892C193.387 34.812 193.257 34.7173 193.145 34.608C193.035 34.496 192.95 34.3653 192.889 34.216C192.827 34.0667 192.797 33.896 192.797 33.704C192.797 33.3787 192.882 33.0973 193.053 32.86C193.223 32.6227 193.457 32.44 193.753 32.312C194.049 32.184 194.386 32.1213 194.765 32.124C195.149 32.124 195.491 32.192 195.793 32.328C196.097 32.464 196.347 32.6587 196.545 32.912C196.742 33.1627 196.873 33.46 196.937 33.804L196.321 33.916C196.281 33.6653 196.189 33.448 196.045 33.264C195.901 33.08 195.717 32.9387 195.493 32.84C195.271 32.7387 195.027 32.6867 194.761 32.684C194.502 32.684 194.271 32.728 194.069 32.816C193.869 32.9013 193.71 33.0187 193.593 33.168C193.475 33.3173 193.417 33.488 193.417 33.68C193.417 33.8747 193.47 34.0307 193.577 34.148C193.686 34.2653 193.819 34.3573 193.977 34.424C194.137 34.4907 194.291 34.5453 194.441 34.588L195.569 34.92C195.686 34.952 195.823 34.9987 195.981 35.06C196.141 35.1187 196.295 35.204 196.445 35.316C196.597 35.4253 196.722 35.5693 196.821 35.748C196.919 35.9267 196.969 36.1533 196.969 36.428C196.969 36.6947 196.915 36.9333 196.809 37.144C196.705 37.3547 196.557 37.532 196.365 37.676C196.175 37.82 195.953 37.9293 195.697 38.004C195.443 38.0813 195.166 38.12 194.865 38.12ZM197.874 32.86V32.2H198.462V32.86H197.874ZM197.874 38V33.68H198.462V38H197.874ZM199.262 38V37.876L202.05 34.228H199.47V33.68H203.018V33.816L200.234 37.452H202.866V38H199.262ZM205.404 38.12C204.982 38.12 204.617 38.0267 204.308 37.84C204.001 37.6533 203.762 37.3907 203.592 37.052C203.421 36.7133 203.336 36.316 203.336 35.86C203.336 35.388 203.42 34.98 203.588 34.636C203.756 34.292 203.992 34.0267 204.296 33.84C204.602 33.6533 204.964 33.56 205.38 33.56C205.806 33.56 206.17 33.6587 206.472 33.856C206.773 34.0507 207.001 34.3307 207.156 34.696C207.31 35.0613 207.381 35.4973 207.368 36.004H206.768V35.796C206.757 35.236 206.636 34.8133 206.404 34.528C206.174 34.2427 205.838 34.1 205.396 34.1C204.932 34.1 204.576 34.2507 204.328 34.552C204.082 34.8533 203.96 35.2827 203.96 35.84C203.96 36.384 204.082 36.8067 204.328 37.108C204.576 37.4067 204.926 37.556 205.38 37.556C205.689 37.556 205.958 37.4853 206.188 37.344C206.42 37.2 206.602 36.9933 206.736 36.724L207.284 36.936C207.113 37.312 206.861 37.604 206.528 37.812C206.197 38.0173 205.822 38.12 205.404 38.12ZM203.752 36.004V35.512H207.052V36.004H203.752ZM197.998 46V40.896L196.914 41.548V40.888L197.998 40.24H198.594V46H197.998ZM200.419 46L202.539 40.812H199.871V40.24H203.167V40.812L201.051 46H200.419Z" fill="#222222"/>
</g>
<path d="M179.108 23L176.161 12.92H177.932L179.941 20.2L181.943 12.934L183.714 12.92L185.723 20.2L187.725 12.92H189.496L186.556 23H184.89L182.825 15.832L180.774 23H179.108ZM190.638 23V12.92H192.325V17.162H197.099V12.92H198.779V23H197.099V18.744H192.325V23H190.638ZM200.742 23V12.92H207.252V14.502H202.429V16.987H206.412V18.569H202.429V21.418H207.252V23H200.742ZM208.931 23V12.92H215.441V14.502H210.618V16.987H214.601V18.569H210.618V21.418H215.441V23H208.931ZM217.261 23V12.92H218.948V21.418H223.4V23H217.261Z" fill="#222222"/>
<defs>
<clipPath id="clip0_1323_19">
<rect width="60" height="16" fill="white" transform="translate(6 31)"/>
</clipPath>
<clipPath id="clip1_1323_19">
<rect width="44" height="16" fill="white" transform="translate(259 31)"/>
</clipPath>
<clipPath id="clip2_1323_19">
<rect width="31" height="16" fill="white" transform="translate(102.5 31)"/>
</clipPath>
<clipPath id="clip3_1323_19">
<rect width="23" height="16" fill="white" transform="translate(188.5 31)"/>
</clipPath>
</defs>
</svg>
