<svg width="58" height="47" viewBox="0 0 58 47" fill="none" xmlns="http://www.w3.org/2000/svg">
<path d="M42.1765 8.22368V7.76316L41.2647 6.38158L40.8088 5H16.1912L15.7353 6.38158L14.8235 7.76316V8.22368M42.1765 8.22368H44V11.9079M42.1765 8.22368H14.8235M44 11.9079L40.8088 14.6711M44 11.9079H13M40.8088 14.6711V20.901L38.0735 23.8816M40.8088 14.6711H16.1912M38.0735 23.8816L40.8088 27.1053V33.0921M38.0735 23.8816H19.3824M40.8088 33.0921L44 36.3158M40.8088 33.0921H16.1912M44 36.3158V40H13V36.3158M44 36.3158H13M13 36.3158L16.1912 33.0921M16.1912 33.0921V27.1053L19.3824 23.8816M19.3824 23.8816L16.1912 20.901V14.6711M16.1912 14.6711L13 11.9079M13 11.9079V8.22368H14.8235" stroke="#8DC63F" stroke-width="2"/>
</svg>
