<svg width="147" height="141" viewBox="0 0 147 141" fill="none" xmlns="http://www.w3.org/2000/svg">
<path d="M8.69504 108.674L10.6233 108.148C12.1971 107.719 13.8307 107.551 15.4588 107.652L125.694 114.485C131.141 114.823 136.41 116.549 141 119.5L145.13 122.942C146.278 123.899 146.796 125.417 146.472 126.876C146.178 128.2 145.232 129.285 143.96 129.756L134.688 133.19C133.233 133.728 131.726 134.113 130.191 134.337L108.5 137.5L86.5 139.5L64.5 141H55.8192C52.9446 141 50.075 140.763 47.2396 140.29C44.0865 139.764 40.9884 138.95 37.9844 137.858L31.5 135.5L23 131L14 124.5L9.01222 120.663C8.01085 119.893 7.1425 118.964 6.4417 117.913L5.26227 116.143C4.76523 115.398 4.5 114.522 4.5 113.626C4.5 112.279 5.0983 111.001 6.13308 110.139L6.54841 109.793C7.17547 109.27 7.90756 108.889 8.69504 108.674Z" fill="#DFDFDF"/>
<path d="M14.5 49.5L96.5 36.5V64.5L50.5 72L14.5 49.5Z" fill="#F1F1F1"/>
<path d="M13.5 49L49.5 72V137.5L13.5 116V49Z" fill="white"/>
<path d="M49.5 72L133.5 59V124.5L49.5 138V72Z" fill="white"/>
<path d="M96.5 36.5L133.5 59L96.5 64.5V36.5Z" fill="white"/>
<path d="M43 84.5L50.5 72.5L30 70.5H12C12.9975 71.83 14.126 73.0564 15.3685 74.1609L18 76.5L27 83.5L32.1093 87.1495C33.339 88.0278 34.831 88.5 36.3421 88.5C37.1029 88.5 37.868 88.3773 38.5897 88.1368C39.8385 87.7205 40.9464 86.9643 41.7891 85.9531L43 84.5Z" fill="#F1F1F1"/>
<path d="M57.5 86.5L50 72.5L132.5 63L133.5 81.5L71 92.5L66.2653 93.1764C64.7971 93.3861 63.3009 93.1005 62.0132 92.3647C61.0211 91.7978 60.1912 90.9854 59.6033 90.0055L57.5 86.5Z" fill="#F1F1F1"/>
<path d="M50.5 72L134 59L146.5 74.5L63.5 89L50.5 72Z" fill="white"/>
<path d="M13.5 50L50.5 72L37 86L0 63L13.5 50Z" fill="white"/>
<path d="M0.5 34L83.5 21L97 36.5L13.5 49.5L0.5 34Z" fill="white"/>
<path d="M110.5 24L147 45.5L133 59L97 36.5L110.5 24Z" fill="white"/>
<path d="M50 72L63.1308 88.535C63.3584 88.8217 63.7244 88.961 64.085 88.8984L133.5 76.8443M50 72L13.5 49.5M50 72L37.0647 85.4144C36.7358 85.7555 36.2126 85.8189 35.8117 85.5663L13.5 71.5069M50 72L96.5 64.7605M133.5 59L145.834 73.1616C146.346 73.7492 146.019 74.6704 145.251 74.8037L133.5 76.8443M133.5 59L146.087 46.4132C146.549 45.9509 146.451 45.1764 145.887 44.8445L111.129 24.3705C110.754 24.1498 110.28 24.1966 109.955 24.4862L96.5 36.5M133.5 59L96.5 36.5M133.5 59L96.5 64.7605M13.5 49.5L0.885517 62.1145C0.431857 62.5681 0.516706 63.3256 1.0595 63.6676L13.5 71.5069M13.5 49.5L96.5 36.5M13.5 49.5L1.18989 35.3662C0.673003 34.7727 1.01251 33.8424 1.79014 33.7213L82.9425 21.0868C83.2885 21.0329 83.6375 21.164 83.8626 21.4323L96.5 36.5M96.5 64.7605V40M13.5 71.5069V115.928C13.5 116.283 13.6873 116.61 13.9925 116.79L50 138M50 138L132.654 125.132C133.141 125.056 133.5 124.637 133.5 124.144V76.8443M50 138V76M44 89V100.5M44 103V105M44 107V111.5M91.5 111.5L92.078 110.8C97.1203 104.696 106.001 103.479 112.5 108V108M88 100L89.2369 100.353C90.6337 100.752 92.1371 100.363 93.1643 99.3357L93.5 99M21.5 99L32.5 102.5M21.5 110.5L24.5 111.5M21.5 103L32.5 106.5M21.5 107L32.5 110.5M26 112L27.5 112.5M29 113L30.5 113.5M108 96.5L108.941 96.7687C110.491 97.2117 112.156 96.6805 113.163 95.4214L113.5 95" stroke="#D3D3D3" stroke-linecap="round"/>
<path d="M77.4293 65L74.362 62.1548C72.5014 60.4289 71.2321 58.1606 70.7344 55.6721V55.6721C70.5785 54.8926 70.5 54.0996 70.5 53.3047V50.1574C70.5 48.7402 70.8426 47.3439 71.4986 46.0876V46.0876C73.0144 43.1851 76.0175 41.3654 79.292 41.3654H79.5H86.5H90.5803C94.814 41.3654 99.0016 40.4865 102.878 38.7845V38.7845C104.388 38.1216 105.842 37.3376 107.225 36.4404L109.475 34.9812C110.875 34.0732 112.175 33.0193 113.352 31.8373L115.092 30.0911C116.686 28.4909 117.862 26.5227 118.515 24.3603V24.3603C119.162 22.2167 119.276 19.9474 118.846 17.7498L118.087 13.862C117.715 11.9589 116.871 10.1797 115.632 8.68777V8.68777C114.277 7.05557 112.5 5.8272 110.494 5.13688L110.096 5" stroke="#C4C4C4" stroke-linejoin="round" stroke-dasharray="2 2"/>
<path d="M87 61.5L88.3576 59.4637C88.7765 58.8353 89 58.097 89 57.3418V57.3418C89 56.4732 88.7044 55.6305 88.1618 54.9522L87.8045 54.5057C87.2754 53.8443 86.5997 53.3152 85.8307 52.9603L83.1157 51.7072C81.3828 50.9074 79.5344 50.3864 77.6389 50.1634L75.9144 49.9605C73.3167 49.6549 70.6896 49.7016 68.1044 50.0993L65.5 50.5V50.5C61.8496 51.4956 58.0826 52 54.2989 52C52.3383 52 50.7008 52 50.5 52C50.2237 52 47.7048 51.5229 45.3494 51.063C43.4825 50.6985 41.7507 49.834 40.3291 48.5703V48.5703C38.8079 47.2181 37.7031 45.4607 37.1439 43.5037L36.6502 41.7758C36.2189 40.266 36 38.7034 36 37.1331V35.3987C36 33.1405 36.2612 30.8898 36.7784 28.6916L37.2774 26.5709C37.7575 24.5306 38.4735 22.5531 39.4109 20.6783V20.6783C40.1355 19.229 40.989 17.8479 41.9612 16.5517L43.5 14.5L46.5 11" stroke="#C4C4C4" stroke-linecap="round" stroke-linejoin="round" stroke-dasharray="2 2"/>
<path d="M107.288 2.7561V2.09109C107.288 1.8892 107.224 1.69246 107.106 1.52899V1.52899C106.951 1.31587 106.716 1.17569 106.455 1.1414L105.795 1.0547C105.519 1.01849 105.24 1.02842 104.967 1.08408L104.574 1.1645C103.847 1.31305 103.164 1.62472 102.575 2.07599L102.556 2.09026C102.317 2.27361 102.095 2.47822 101.893 2.70157L101.407 3.23746C101.228 3.43575 101.079 3.65992 100.966 3.90245V3.90245C100.668 4.54285 100.635 5.27541 100.876 5.93964L100.931 6.09218C101.067 6.46617 101.274 6.81017 101.541 7.10497L101.656 7.23237C102.013 7.62622 102.446 7.94375 102.929 8.16582L103.47 8.41463L104.898 8.85267C105.215 8.94976 105.549 8.97767 105.877 8.93452L106.361 8.87098C106.682 8.82878 106.971 8.6563 107.161 8.39405V8.39405C107.245 8.27865 107.307 8.14903 107.344 8.0115L107.373 7.90557C107.456 7.60008 107.456 7.27797 107.373 6.97248V6.97248C107.317 6.76491 107.223 6.56928 107.097 6.39511L106.439 5.4878" stroke="#B7B7B7" stroke-linecap="round" stroke-linejoin="round"/>
<path d="M99.5 5H107.5" stroke="#B3B3B3" stroke-width="1.5" stroke-linecap="round"/>
<path d="M47.5966 7.55858L47.25 6.99109C47.1447 6.81881 47.0966 6.61767 47.1125 6.4164V6.4164C47.1332 6.154 47.2609 5.91169 47.4658 5.74637L47.9836 5.32844C48.1999 5.15386 48.4437 5.01652 48.7051 4.92205L49.0828 4.78559C49.7804 4.53349 50.5261 4.44313 51.2638 4.52132L51.2871 4.52379C51.5868 4.55556 51.883 4.61436 52.1721 4.69947L52.8658 4.90368C53.1225 4.97924 53.3663 5.09296 53.5892 5.24102V5.24102C54.1776 5.63196 54.5872 6.24021 54.7281 6.93252L54.7604 7.09151C54.8397 7.48131 54.8424 7.88282 54.7681 8.27362L54.7361 8.4425C54.6369 8.96462 54.4331 9.46124 54.1368 9.90245L53.8049 10.3968L52.8141 11.5154C52.5945 11.7633 52.3242 11.9611 52.0215 12.0955L51.5758 12.2933C51.2798 12.4247 50.9427 12.4285 50.6438 12.3038V12.3038C50.5123 12.2489 50.3918 12.1707 50.2882 12.0728L50.2084 11.9974C49.9783 11.78 49.8104 11.5051 49.7219 11.2011V11.2011C49.6619 10.9946 49.6398 10.7789 49.6567 10.5644L49.7448 9.44737" stroke="#B7B7B7" stroke-linecap="round" stroke-linejoin="round"/>
<path d="M55.4121 5.41345L48.5853 9.58406" stroke="#B3B3B3" stroke-width="1.5" stroke-linecap="round"/>
</svg>
