<svg width="251" height="39" viewBox="0 0 251 39" fill="none" xmlns="http://www.w3.org/2000/svg">
<g clip-path="url(#clip0_1461_2919)">
<g clip-path="url(#clip1_1461_2919)">
<g clip-path="url(#clip2_1461_2919)">
<path d="M13.875 11.75C14.4495 11.75 15.0184 11.6368 15.5492 11.417C16.08 11.1971 16.5623 10.8748 16.9686 10.4686C17.3748 10.0623 17.6971 9.58004 17.917 9.04924C18.1368 8.51844 18.25 7.94953 18.25 7.375C18.25 6.80047 18.1368 6.23156 17.917 5.70076C17.6971 5.16996 17.3748 4.68766 16.9686 4.28141C16.5623 3.87515 16.08 3.55289 15.5492 3.33303C15.0184 3.11316 14.4495 3 13.875 3C13.3005 3 12.7316 3.11316 12.2008 3.33303C11.67 3.55289 11.1877 3.87515 10.7814 4.28141C10.3752 4.68766 10.0529 5.16996 9.83303 5.70076C9.61316 6.23156 9.5 6.80047 9.5 7.375C9.5 7.94953 9.61316 8.51844 9.83303 9.04924C10.0529 9.58004 10.3752 10.0623 10.7814 10.4686C11.1877 10.8748 11.67 11.1971 12.2008 11.417C12.7316 11.6368 13.3005 11.75 13.875 11.75ZM20.75 7.375C20.75 10.7461 18.3242 13.5508 15.125 14.1367V15.5H16.375C17.0664 15.5 17.625 16.0586 17.625 16.75C17.625 17.4414 17.0664 18 16.375 18H15.125V19.25C15.125 19.9414 14.5664 20.5 13.875 20.5C13.1836 20.5 12.625 19.9414 12.625 19.25V18H11.375C10.6836 18 10.125 17.4414 10.125 16.75C10.125 16.0586 10.6836 15.5 11.375 15.5H12.625V14.1367C9.42578 13.5508 7 10.7461 7 7.375C7 3.57812 10.0781 0.5 13.875 0.5C17.6719 0.5 20.75 3.57812 20.75 7.375ZM17.6211 14.5859C18.375 14.1914 19.0625 13.6836 19.6562 13.0859C20.4375 13.8086 21.4805 14.25 22.6289 14.25C25.0469 14.25 27.0039 12.293 27.0039 9.875C27.0039 7.45703 25.0469 5.5 22.6289 5.5C22.3477 5.5 22.0703 5.52734 21.8047 5.57812C21.6133 4.73828 21.2969 3.94922 20.8672 3.22656C21.4258 3.07812 22.0156 3 22.625 3C24.0703 3 25.4141 3.44531 26.5234 4.21094L27.3281 3.40625L26.0234 2.10156C25.7539 1.83203 25.6758 1.42969 25.8203 1.07812C25.9648 0.726562 26.3086 0.5 26.6875 0.5H31.0625C31.582 0.5 32 0.917969 32 1.4375V5.8125C32 6.19141 31.7734 6.53516 31.4219 6.67969C31.0703 6.82422 30.668 6.74609 30.3984 6.47656L29.0938 5.17188L28.2891 5.97656C29.0508 7.08594 29.5 8.42578 29.5 9.875C29.5 13.6719 26.4219 16.75 22.625 16.75C20.6523 16.75 18.875 15.918 17.6211 14.5859Z" fill="#8DC63F"/>
</g>
<path d="M4.248 36.68C3.58 36.68 2.99 36.542 2.478 36.266C1.966 35.99 1.564 35.604 1.272 35.108C0.984 34.608 0.84 34.022 0.84 33.35V27.866L1.92 27.86V33.26C1.92 33.668 1.988 34.024 2.124 34.328C2.264 34.628 2.448 34.878 2.676 35.078C2.904 35.278 3.154 35.428 3.426 35.528C3.702 35.624 3.976 35.672 4.248 35.672C4.524 35.672 4.8 35.622 5.076 35.522C5.352 35.422 5.602 35.274 5.826 35.078C6.054 34.878 6.236 34.626 6.372 34.322C6.508 34.018 6.576 33.664 6.576 33.26V27.86H7.656V33.35C7.656 34.018 7.51 34.602 7.218 35.102C6.93 35.602 6.53 35.99 6.018 36.266C5.506 36.542 4.916 36.68 4.248 36.68ZM13.9501 36.5V33.254C13.9501 32.946 13.9221 32.65 13.8661 32.366C13.8141 32.082 13.7201 31.828 13.5841 31.604C13.4521 31.376 13.2721 31.196 13.0441 31.064C12.8201 30.932 12.5361 30.866 12.1921 30.866C11.9241 30.866 11.6801 30.912 11.4601 31.004C11.2441 31.092 11.0581 31.228 10.9021 31.412C10.7461 31.596 10.6241 31.828 10.5361 32.108C10.4521 32.384 10.4101 32.71 10.4101 33.086L9.70809 32.87C9.70809 32.242 9.82009 31.704 10.0441 31.256C10.2721 30.804 10.5901 30.458 10.9981 30.218C11.4101 29.974 11.8941 29.852 12.4501 29.852C12.8701 29.852 13.2281 29.918 13.5241 30.05C13.8201 30.182 14.0661 30.358 14.2621 30.578C14.4581 30.794 14.6121 31.038 14.7241 31.31C14.8361 31.578 14.9141 31.852 14.9581 32.132C15.0061 32.408 15.0301 32.67 15.0301 32.918V36.5H13.9501ZM9.33009 36.5V30.02H10.2901V31.754H10.4101V36.5H9.33009ZM16.71 28.874V27.77H17.778V28.874H16.71ZM16.71 36.5V30.02H17.778V36.5H16.71ZM22.0263 36.674C21.2543 36.674 20.6203 36.506 20.1243 36.17C19.6323 35.83 19.3303 35.356 19.2183 34.748L20.3103 34.574C20.3983 34.926 20.6003 35.206 20.9163 35.414C21.2323 35.618 21.6243 35.72 22.0923 35.72C22.5363 35.72 22.8843 35.628 23.1363 35.444C23.3883 35.26 23.5143 35.01 23.5143 34.694C23.5143 34.51 23.4723 34.362 23.3883 34.25C23.3043 34.134 23.1303 34.026 22.8663 33.926C22.6063 33.826 22.2123 33.706 21.6843 33.566C21.1123 33.414 20.6623 33.256 20.3343 33.092C20.0063 32.928 19.7723 32.738 19.6323 32.522C19.4923 32.306 19.4223 32.044 19.4223 31.736C19.4223 31.356 19.5263 31.024 19.7343 30.74C19.9423 30.452 20.2323 30.23 20.6043 30.074C20.9803 29.918 21.4163 29.84 21.9123 29.84C22.4043 29.84 22.8443 29.918 23.2323 30.074C23.6203 30.23 23.9323 30.452 24.1683 30.74C24.4083 31.024 24.5503 31.356 24.5943 31.736L23.5023 31.934C23.4503 31.586 23.2823 31.312 22.9983 31.112C22.7183 30.912 22.3563 30.806 21.9123 30.794C21.4923 30.778 21.1503 30.852 20.8863 31.016C20.6263 31.18 20.4963 31.402 20.4963 31.682C20.4963 31.838 20.5443 31.972 20.6403 32.084C20.7403 32.196 20.9223 32.302 21.1863 32.402C21.4543 32.502 21.8423 32.616 22.3503 32.744C22.9223 32.888 23.3723 33.046 23.7003 33.218C24.0323 33.386 24.2683 33.586 24.4083 33.818C24.5483 34.046 24.6183 34.328 24.6183 34.664C24.6183 35.288 24.3883 35.78 23.9283 36.14C23.4683 36.496 22.8343 36.674 22.0263 36.674ZM28.7496 36.68C28.1136 36.68 27.5576 36.54 27.0816 36.26C26.6096 35.976 26.2416 35.582 25.9776 35.078C25.7136 34.57 25.5816 33.978 25.5816 33.302C25.5816 32.594 25.7116 31.982 25.9716 31.466C26.2316 30.946 26.5936 30.546 27.0576 30.266C27.5256 29.982 28.0736 29.84 28.7016 29.84C29.3536 29.84 29.9076 29.99 30.3636 30.29C30.8236 30.59 31.1676 31.018 31.3956 31.574C31.6276 32.13 31.7276 32.792 31.6956 33.56H30.6156V33.176C30.6036 32.38 30.4416 31.786 30.1296 31.394C29.8176 30.998 29.3536 30.8 28.7376 30.8C28.0776 30.8 27.5756 31.012 27.2316 31.436C26.8876 31.86 26.7156 32.468 26.7156 33.26C26.7156 34.024 26.8876 34.616 27.2316 35.036C27.5756 35.456 28.0656 35.666 28.7016 35.666C29.1296 35.666 29.5016 35.568 29.8176 35.372C30.1336 35.176 30.3816 34.894 30.5616 34.526L31.5876 34.88C31.3356 35.452 30.9556 35.896 30.4476 36.212C29.9436 36.524 29.3776 36.68 28.7496 36.68ZM26.3556 33.56V32.702H31.1436V33.56H26.3556ZM32.077 36.5L34.555 33.224L32.131 30.02H33.403L35.179 32.396L36.937 30.02H38.209L35.785 33.224L38.269 36.5H36.991L35.179 34.052L33.355 36.5H32.077Z" fill="#222222"/>
</g>
<g clip-path="url(#clip3_1461_2919)">
<g clip-path="url(#clip4_1461_2919)">
<path d="M81.5 4.25H103.5C103.5 2.87109 102.404 1.75 101.056 1.75H83.9444C82.5962 1.75 81.5 2.87109 81.5 4.25ZM81.5 5.5V16.75C81.5 18.1289 82.5962 19.25 83.9444 19.25H101.056C102.404 19.25 103.5 18.1289 103.5 16.75V5.5H81.5ZM83.9444 16.332C83.9444 15.1797 84.8573 14.25 85.9802 14.25H90.4642C91.591 14.25 92.5 15.1836 92.5 16.332C92.5 16.5625 92.3167 16.75 92.0913 16.75H84.3531C84.1278 16.75 83.9444 16.5625 83.9444 16.332ZM88.2222 8C88.8705 8 89.4923 8.26339 89.9507 8.73223C90.4091 9.20107 90.6667 9.83696 90.6667 10.5C90.6667 11.163 90.4091 11.7989 89.9507 12.2678C89.4923 12.7366 88.8705 13 88.2222 13C87.5739 13 86.9522 12.7366 86.4937 12.2678C86.0353 11.7989 85.7778 11.163 85.7778 10.5C85.7778 9.83696 86.0353 9.20107 86.4937 8.73223C86.9522 8.26339 87.5739 8 88.2222 8ZM94.9444 8.625C94.9444 8.28125 95.2194 8 95.5556 8H100.444C100.781 8 101.056 8.28125 101.056 8.625C101.056 8.96875 100.781 9.25 100.444 9.25H95.5556C95.2194 9.25 94.9444 8.96875 94.9444 8.625ZM94.9444 11.125C94.9444 10.7812 95.2194 10.5 95.5556 10.5H100.444C100.781 10.5 101.056 10.7812 101.056 11.125C101.056 11.4688 100.781 11.75 100.444 11.75H95.5556C95.2194 11.75 94.9444 11.4688 94.9444 11.125ZM94.9444 13.625C94.9444 13.2812 95.2194 13 95.5556 13H100.444C100.781 13 101.056 13.2812 101.056 13.625C101.056 13.9688 100.781 14.25 100.444 14.25H95.5556C95.2194 14.25 94.9444 13.9688 94.9444 13.625Z" fill="#8DC63F"/>
</g>
<path d="M76.346 36.5V29.042L74.72 30.026V28.832L76.346 27.86H77.432V36.5H76.346ZM81.221 36.5V29.042L79.595 30.026V28.832L81.221 27.86H82.307V36.5H81.221ZM86.762 34.91V32.618H84.47V31.736H86.762V29.45H87.644V31.736H89.93V32.618H87.644V34.91H86.762ZM95.9647 36.5V32.906L93.0547 27.86H94.2967L96.5047 31.682L98.7067 27.86H99.9487L97.0447 32.906V36.5H95.9647ZM100.305 36.5V30.02H101.259V31.586L101.103 31.382C101.179 31.182 101.277 30.998 101.397 30.83C101.521 30.662 101.659 30.524 101.811 30.416C101.979 30.28 102.169 30.176 102.381 30.104C102.593 30.032 102.809 29.99 103.029 29.978C103.249 29.962 103.455 29.976 103.647 30.02V31.022C103.423 30.962 103.177 30.946 102.909 30.974C102.641 31.002 102.393 31.1 102.165 31.268C101.957 31.416 101.795 31.596 101.679 31.808C101.567 32.02 101.489 32.25 101.445 32.498C101.401 32.742 101.379 32.992 101.379 33.248V36.5H100.305ZM106.995 36.674C106.223 36.674 105.589 36.506 105.093 36.17C104.601 35.83 104.299 35.356 104.187 34.748L105.279 34.574C105.367 34.926 105.569 35.206 105.885 35.414C106.201 35.618 106.593 35.72 107.061 35.72C107.505 35.72 107.853 35.628 108.105 35.444C108.357 35.26 108.483 35.01 108.483 34.694C108.483 34.51 108.441 34.362 108.357 34.25C108.273 34.134 108.099 34.026 107.835 33.926C107.575 33.826 107.181 33.706 106.653 33.566C106.081 33.414 105.631 33.256 105.303 33.092C104.975 32.928 104.741 32.738 104.601 32.522C104.461 32.306 104.391 32.044 104.391 31.736C104.391 31.356 104.495 31.024 104.703 30.74C104.911 30.452 105.201 30.23 105.573 30.074C105.949 29.918 106.385 29.84 106.881 29.84C107.373 29.84 107.813 29.918 108.201 30.074C108.589 30.23 108.901 30.452 109.137 30.74C109.377 31.024 109.519 31.356 109.563 31.736L108.471 31.934C108.419 31.586 108.251 31.312 107.967 31.112C107.687 30.912 107.325 30.806 106.881 30.794C106.461 30.778 106.119 30.852 105.855 31.016C105.595 31.18 105.465 31.402 105.465 31.682C105.465 31.838 105.513 31.972 105.609 32.084C105.709 32.196 105.891 32.302 106.155 32.402C106.423 32.502 106.811 32.616 107.319 32.744C107.891 32.888 108.341 33.046 108.669 33.218C109.001 33.386 109.237 33.586 109.377 33.818C109.517 34.046 109.587 34.328 109.587 34.664C109.587 35.288 109.357 35.78 108.897 36.14C108.437 36.496 107.803 36.674 106.995 36.674Z" fill="#222222"/>
</g>
<g clip-path="url(#clip5_1461_2919)">
<g clip-path="url(#clip6_1461_2919)">
<path d="M165.687 0.800781C165.508 0.609375 165.262 0.5 165 0.5C164.738 0.5 164.492 0.609375 164.312 0.800781L160.25 5.17578C159.996 5.44922 159.93 5.84766 160.078 6.1875C160.227 6.52734 160.566 6.75 160.937 6.75H163.125V14.25H160.937C160.566 14.25 160.227 14.4727 160.078 14.8125C159.93 15.1523 159.996 15.5508 160.25 15.8242L164.312 20.1992C164.488 20.3906 164.738 20.5 165 20.5C165.262 20.5 165.508 20.3906 165.687 20.1992L169.75 15.8242C170.004 15.5508 170.07 15.1523 169.922 14.8125C169.773 14.4727 169.434 14.25 169.062 14.25H166.875V6.75H169.062C169.434 6.75 169.773 6.52734 169.922 6.1875C170.07 5.84766 170.004 5.44922 169.75 5.17578L165.687 0.800781Z" fill="#8DC63F"/>
</g>
<path d="M150.572 36.5V34.91H146.6V33.896L149.45 27.86H150.662L147.812 33.896H150.572V31.466H151.652V33.896H152.552V34.91H151.652V36.5H150.572ZM153.946 36.5V35.324H155.122V36.5H153.946ZM159.688 36.68C159.136 36.68 158.648 36.57 158.224 36.35C157.8 36.126 157.468 35.816 157.228 35.42C156.988 35.024 156.868 34.562 156.868 34.034C156.868 33.518 156.99 33.052 157.234 32.636C157.482 32.22 157.854 31.9 158.35 31.676L158.332 32.066C157.928 31.87 157.618 31.594 157.402 31.238C157.186 30.878 157.078 30.48 157.078 30.044C157.078 29.556 157.19 29.136 157.414 28.784C157.638 28.432 157.946 28.16 158.338 27.968C158.73 27.776 159.18 27.68 159.688 27.68C160.196 27.68 160.646 27.776 161.038 27.968C161.43 28.16 161.738 28.432 161.962 28.784C162.186 29.136 162.298 29.556 162.298 30.044C162.298 30.48 162.196 30.876 161.992 31.232C161.788 31.584 161.474 31.862 161.05 32.066L161.026 31.682C161.522 31.898 161.894 32.216 162.142 32.636C162.394 33.052 162.52 33.518 162.52 34.034C162.52 34.562 162.398 35.024 162.154 35.42C161.914 35.816 161.58 36.126 161.152 36.35C160.728 36.57 160.24 36.68 159.688 36.68ZM159.688 35.66C160.192 35.66 160.6 35.522 160.912 35.246C161.228 34.966 161.386 34.562 161.386 34.034C161.386 33.502 161.23 33.098 160.918 32.822C160.61 32.542 160.2 32.402 159.688 32.402C159.18 32.402 158.77 32.542 158.458 32.822C158.15 33.098 157.996 33.502 157.996 34.034C157.996 34.562 158.152 34.966 158.464 35.246C158.776 35.522 159.184 35.66 159.688 35.66ZM159.688 31.376C160.128 31.376 160.484 31.266 160.756 31.046C161.028 30.822 161.164 30.488 161.164 30.044C161.164 29.6 161.028 29.268 160.756 29.048C160.484 28.824 160.128 28.712 159.688 28.712C159.252 28.712 158.896 28.824 158.62 29.048C158.348 29.268 158.212 29.6 158.212 30.044C158.212 30.488 158.348 30.822 158.62 31.046C158.896 31.266 159.252 31.376 159.688 31.376ZM166.481 36.5V27.86H171.521V28.928H167.549V31.646H170.801V32.714H167.549V36.5H166.481ZM176.216 36.5C175.832 36.576 175.452 36.606 175.076 36.59C174.704 36.578 174.372 36.504 174.08 36.368C173.788 36.228 173.566 36.012 173.414 35.72C173.286 35.464 173.216 35.206 173.204 34.946C173.196 34.682 173.192 34.384 173.192 34.052V28.22H174.26V34.004C174.26 34.268 174.262 34.494 174.266 34.682C174.274 34.87 174.316 35.032 174.392 35.168C174.536 35.424 174.764 35.574 175.076 35.618C175.392 35.662 175.772 35.65 176.216 35.582V36.5ZM171.878 30.902V30.02H176.216V30.902H171.878ZM179.703 34.91V32.618H177.411V31.736H179.703V29.45H180.585V31.736H182.871V32.618H180.585V34.91H179.703Z" fill="#222222"/>
</g>
<g clip-path="url(#clip7_1461_2919)">
<g clip-path="url(#clip8_1461_2919)">
<path d="M235 21C237.785 21 240.455 19.8938 242.425 17.9246C244.394 15.9555 245.5 13.2848 245.5 10.5C245.5 7.71523 244.394 5.04451 242.425 3.07538C240.455 1.10625 237.785 0 235 0C232.215 0 229.545 1.10625 227.575 3.07538C225.606 5.04451 224.5 7.71523 224.5 10.5C224.5 13.2848 225.606 15.9555 227.575 17.9246C229.545 19.8938 232.215 21 235 21ZM235 6.5625C236.044 6.5625 237.046 6.97734 237.784 7.71577C238.523 8.45419 238.938 9.45571 238.938 10.5C238.938 11.5443 238.523 12.5458 237.784 13.2842C237.046 14.0227 236.044 14.4375 235 14.4375C233.956 14.4375 232.954 14.0227 232.216 13.2842C231.477 12.5458 231.062 11.5443 231.062 10.5C231.062 9.45571 231.477 8.45419 232.216 7.71577C232.954 6.97734 233.956 6.5625 235 6.5625Z" fill="#8DC63F"/>
</g>
<path d="M219.6 36.994L219.606 36.034L223.44 32.584C223.76 32.296 223.974 32.024 224.082 31.768C224.194 31.508 224.25 31.242 224.25 30.97C224.25 30.638 224.174 30.338 224.022 30.07C223.87 29.802 223.662 29.59 223.398 29.434C223.138 29.278 222.842 29.2 222.51 29.2C222.166 29.2 221.86 29.282 221.592 29.446C221.324 29.606 221.112 29.82 220.956 30.088C220.804 30.356 220.73 30.648 220.734 30.964H219.642C219.642 30.42 219.768 29.94 220.02 29.524C220.272 29.104 220.614 28.776 221.046 28.54C221.482 28.3 221.976 28.18 222.528 28.18C223.064 28.18 223.544 28.304 223.968 28.552C224.392 28.796 224.726 29.13 224.97 29.554C225.218 29.974 225.342 30.45 225.342 30.982C225.342 31.358 225.294 31.684 225.198 31.96C225.106 32.236 224.962 32.492 224.766 32.728C224.57 32.96 224.324 33.208 224.028 33.472L220.842 36.334L220.704 35.974H225.342V36.994H219.6ZM230.275 37V35.41H226.303V34.396L229.153 28.36H230.365L227.515 34.396H230.275V31.966H231.355V34.396H232.255V35.41H231.355V37H230.275ZM233.649 37V35.824H234.825V37H233.649ZM239.608 37.18C239.048 37.18 238.548 37.054 238.108 36.802C237.672 36.546 237.326 36.2 237.07 35.764C236.818 35.324 236.692 34.824 236.692 34.264V31.096C236.692 30.536 236.818 30.036 237.07 29.596C237.326 29.156 237.672 28.81 238.108 28.558C238.548 28.306 239.048 28.18 239.608 28.18C240.168 28.18 240.668 28.306 241.108 28.558C241.548 28.81 241.894 29.156 242.146 29.596C242.398 30.036 242.524 30.536 242.524 31.096V34.264C242.524 34.824 242.398 35.324 242.146 35.764C241.894 36.2 241.548 36.546 241.108 36.802C240.668 37.054 240.168 37.18 239.608 37.18ZM239.608 36.154C239.948 36.154 240.256 36.072 240.532 35.908C240.808 35.744 241.028 35.524 241.192 35.248C241.356 34.968 241.438 34.66 241.438 34.324V31.03C241.438 30.69 241.356 30.382 241.192 30.106C241.028 29.83 240.808 29.61 240.532 29.446C240.256 29.282 239.948 29.2 239.608 29.2C239.272 29.2 238.964 29.282 238.684 29.446C238.408 29.61 238.188 29.83 238.024 30.106C237.86 30.382 237.778 30.69 237.778 31.03V34.324C237.778 34.66 237.86 34.968 238.024 35.248C238.188 35.524 238.408 35.744 238.684 35.908C238.964 36.072 239.272 36.154 239.608 36.154ZM247.119 37.18C246.559 37.18 246.059 37.054 245.619 36.802C245.183 36.546 244.837 36.2 244.581 35.764C244.329 35.324 244.203 34.824 244.203 34.264V31.096C244.203 30.536 244.329 30.036 244.581 29.596C244.837 29.156 245.183 28.81 245.619 28.558C246.059 28.306 246.559 28.18 247.119 28.18C247.679 28.18 248.179 28.306 248.619 28.558C249.059 28.81 249.405 29.156 249.657 29.596C249.909 30.036 250.035 30.536 250.035 31.096V34.264C250.035 34.824 249.909 35.324 249.657 35.764C249.405 36.2 249.059 36.546 248.619 36.802C248.179 37.054 247.679 37.18 247.119 37.18ZM247.119 36.154C247.459 36.154 247.767 36.072 248.043 35.908C248.319 35.744 248.539 35.524 248.703 35.248C248.867 34.968 248.949 34.66 248.949 34.324V31.03C248.949 30.69 248.867 30.382 248.703 30.106C248.539 29.83 248.319 29.61 248.043 29.446C247.767 29.282 247.459 29.2 247.119 29.2C246.783 29.2 246.475 29.282 246.195 29.446C245.919 29.61 245.699 29.83 245.535 30.106C245.371 30.382 245.289 30.69 245.289 31.03V34.324C245.289 34.66 245.371 34.968 245.535 35.248C245.699 35.524 245.919 35.744 246.195 35.908C246.475 36.072 246.783 36.154 247.119 36.154Z" fill="#222222"/>
</g>
</g>
<defs>
<clipPath id="clip0_1461_2919">
<rect width="251" height="39" fill="white"/>
</clipPath>
<clipPath id="clip1_1461_2919">
<rect width="39" height="38" fill="white" transform="translate(0 0.5)"/>
</clipPath>
<clipPath id="clip2_1461_2919">
<rect width="25" height="20" fill="white" transform="translate(7 0.5)"/>
</clipPath>
<clipPath id="clip3_1461_2919">
<rect width="37" height="38" fill="white" transform="translate(74 0.5)"/>
</clipPath>
<clipPath id="clip4_1461_2919">
<rect width="22" height="20" fill="white" transform="translate(81.5 0.5)"/>
</clipPath>
<clipPath id="clip5_1461_2919">
<rect width="38" height="38" fill="white" transform="translate(146 0.5)"/>
</clipPath>
<clipPath id="clip6_1461_2919">
<rect width="10" height="20" fill="white" transform="translate(160 0.5)"/>
</clipPath>
<clipPath id="clip7_1461_2919">
<rect width="32" height="39" fill="white" transform="translate(219)"/>
</clipPath>
<clipPath id="clip8_1461_2919">
<rect width="21" height="21" fill="white" transform="translate(224.5)"/>
</clipPath>
</defs>
</svg>
