<svg width="256" height="39" viewBox="0 0 256 39" fill="none" xmlns="http://www.w3.org/2000/svg">
<g clip-path="url(#clip0_1461_2882)">
<g clip-path="url(#clip1_1461_2882)">
<g clip-path="url(#clip2_1461_2882)">
<path d="M14.875 11.75C15.4495 11.75 16.0184 11.6368 16.5492 11.417C17.08 11.1971 17.5623 10.8748 17.9686 10.4686C18.3748 10.0623 18.6971 9.58004 18.917 9.04924C19.1368 8.51844 19.25 7.94953 19.25 7.375C19.25 6.80047 19.1368 6.23156 18.917 5.70076C18.6971 5.16996 18.3748 4.68766 17.9686 4.28141C17.5623 3.87515 17.08 3.55289 16.5492 3.33303C16.0184 3.11316 15.4495 3 14.875 3C14.3005 3 13.7316 3.11316 13.2008 3.33303C12.67 3.55289 12.1877 3.87515 11.7814 4.28141C11.3752 4.68766 11.0529 5.16996 10.833 5.70076C10.6132 6.23156 10.5 6.80047 10.5 7.375C10.5 7.94953 10.6132 8.51844 10.833 9.04924C11.0529 9.58004 11.3752 10.0623 11.7814 10.4686C12.1877 10.8748 12.67 11.1971 13.2008 11.417C13.7316 11.6368 14.3005 11.75 14.875 11.75ZM21.75 7.375C21.75 10.7461 19.3242 13.5508 16.125 14.1367V15.5H17.375C18.0664 15.5 18.625 16.0586 18.625 16.75C18.625 17.4414 18.0664 18 17.375 18H16.125V19.25C16.125 19.9414 15.5664 20.5 14.875 20.5C14.1836 20.5 13.625 19.9414 13.625 19.25V18H12.375C11.6836 18 11.125 17.4414 11.125 16.75C11.125 16.0586 11.6836 15.5 12.375 15.5H13.625V14.1367C10.4258 13.5508 8 10.7461 8 7.375C8 3.57812 11.0781 0.5 14.875 0.5C18.6719 0.5 21.75 3.57812 21.75 7.375ZM18.6211 14.5859C19.375 14.1914 20.0625 13.6836 20.6562 13.0859C21.4375 13.8086 22.4805 14.25 23.6289 14.25C26.0469 14.25 28.0039 12.293 28.0039 9.875C28.0039 7.45703 26.0469 5.5 23.6289 5.5C23.3477 5.5 23.0703 5.52734 22.8047 5.57812C22.6133 4.73828 22.2969 3.94922 21.8672 3.22656C22.4258 3.07812 23.0156 3 23.625 3C25.0703 3 26.4141 3.44531 27.5234 4.21094L28.3281 3.40625L27.0234 2.10156C26.7539 1.83203 26.6758 1.42969 26.8203 1.07812C26.9648 0.726562 27.3086 0.5 27.6875 0.5H32.0625C32.582 0.5 33 0.917969 33 1.4375V5.8125C33 6.19141 32.7734 6.53516 32.4219 6.67969C32.0703 6.82422 31.668 6.74609 31.3984 6.47656L30.0938 5.17188L29.2891 5.97656C30.0508 7.08594 30.5 8.42578 30.5 9.875C30.5 13.6719 27.4219 16.75 23.625 16.75C21.6523 16.75 19.875 15.918 18.6211 14.5859Z" fill="#8DC63F"/>
</g>
<path d="M0.84 36.5V27.86H5.88V28.928H1.908V31.646H5.16V32.714H1.908V36.5H0.84ZM9.58941 36.68C8.95341 36.68 8.39741 36.54 7.92141 36.26C7.44941 35.976 7.08141 35.582 6.81741 35.078C6.55341 34.57 6.42141 33.978 6.42141 33.302C6.42141 32.594 6.55141 31.982 6.81141 31.466C7.07141 30.946 7.43341 30.546 7.89741 30.266C8.36541 29.982 8.91341 29.84 9.54141 29.84C10.1934 29.84 10.7474 29.99 11.2034 30.29C11.6634 30.59 12.0074 31.018 12.2354 31.574C12.4674 32.13 12.5674 32.792 12.5354 33.56H11.4554V33.176C11.4434 32.38 11.2814 31.786 10.9694 31.394C10.6574 30.998 10.1934 30.8 9.57741 30.8C8.91741 30.8 8.41541 31.012 8.07141 31.436C7.72741 31.86 7.55541 32.468 7.55541 33.26C7.55541 34.024 7.72741 34.616 8.07141 35.036C8.41541 35.456 8.90541 35.666 9.54141 35.666C9.96941 35.666 10.3414 35.568 10.6574 35.372C10.9734 35.176 11.2214 34.894 11.4014 34.526L12.4274 34.88C12.1754 35.452 11.7954 35.896 11.2874 36.212C10.7834 36.524 10.2174 36.68 9.58941 36.68ZM7.19541 33.56V32.702H11.9834V33.56H7.19541ZM21.4415 36.5L21.4475 32.354C21.4475 31.87 21.3175 31.492 21.0575 31.22C20.8015 30.944 20.4675 30.806 20.0555 30.806C19.8155 30.806 19.5875 30.862 19.3715 30.974C19.1555 31.082 18.9795 31.254 18.8435 31.49C18.7075 31.722 18.6395 32.02 18.6395 32.384L18.0755 32.156C18.0675 31.696 18.1615 31.294 18.3575 30.95C18.5575 30.602 18.8295 30.332 19.1735 30.14C19.5175 29.948 19.9055 29.852 20.3375 29.852C21.0135 29.852 21.5455 30.058 21.9335 30.47C22.3215 30.878 22.5155 31.428 22.5155 32.12L22.5095 36.5H21.4415ZM13.6895 36.5V30.02H14.6435V31.754H14.7635V36.5H13.6895ZM17.5715 36.5L17.5775 32.396C17.5775 31.9 17.4495 31.512 17.1935 31.232C16.9375 30.948 16.5975 30.806 16.1735 30.806C15.7535 30.806 15.4135 30.95 15.1535 31.238C14.8935 31.526 14.7635 31.908 14.7635 32.384L14.1995 32.048C14.1995 31.628 14.2995 31.252 14.4995 30.92C14.6995 30.588 14.9715 30.328 15.3155 30.14C15.6595 29.948 16.0495 29.852 16.4855 29.852C16.9215 29.852 17.3015 29.944 17.6255 30.128C17.9495 30.312 18.1995 30.576 18.3755 30.92C18.5515 31.26 18.6395 31.666 18.6395 32.138L18.6335 36.5H17.5715ZM25.9203 36.68C25.4363 36.68 25.0303 36.592 24.7023 36.416C24.3783 36.236 24.1323 36 23.9643 35.708C23.8003 35.416 23.7183 35.096 23.7183 34.748C23.7183 34.408 23.7823 34.114 23.9103 33.866C24.0423 33.614 24.2263 33.406 24.4623 33.242C24.6983 33.074 24.9803 32.942 25.3083 32.846C25.6163 32.762 25.9603 32.69 26.3403 32.63C26.7243 32.566 27.1123 32.508 27.5043 32.456C27.8963 32.404 28.2623 32.354 28.6023 32.306L28.2183 32.528C28.2303 31.952 28.1143 31.526 27.8703 31.25C27.6303 30.974 27.2143 30.836 26.6223 30.836C26.2303 30.836 25.8863 30.926 25.5903 31.106C25.2983 31.282 25.0923 31.57 24.9723 31.97L23.9583 31.664C24.1143 31.096 24.4163 30.65 24.8643 30.326C25.3123 30.002 25.9023 29.84 26.6343 29.84C27.2223 29.84 27.7263 29.946 28.1463 30.158C28.5703 30.366 28.8743 30.682 29.0583 31.106C29.1503 31.306 29.2083 31.524 29.2323 31.76C29.2563 31.992 29.2683 32.236 29.2683 32.492V36.5H28.3203V34.946L28.5423 35.09C28.2983 35.614 27.9563 36.01 27.5163 36.278C27.0803 36.546 26.5483 36.68 25.9203 36.68ZM26.0823 35.786C26.4663 35.786 26.7983 35.718 27.0783 35.582C27.3623 35.442 27.5903 35.26 27.7623 35.036C27.9343 34.808 28.0463 34.56 28.0983 34.292C28.1583 34.092 28.1903 33.87 28.1943 33.626C28.2023 33.378 28.2063 33.188 28.2063 33.056L28.5783 33.218C28.2303 33.266 27.8883 33.312 27.5523 33.356C27.2163 33.4 26.8983 33.448 26.5983 33.5C26.2983 33.548 26.0283 33.606 25.7883 33.674C25.6123 33.73 25.4463 33.802 25.2903 33.89C25.1383 33.978 25.0143 34.092 24.9183 34.232C24.8263 34.368 24.7803 34.538 24.7803 34.742C24.7803 34.918 24.8243 35.086 24.9123 35.246C25.0043 35.406 25.1443 35.536 25.3323 35.636C25.5243 35.736 25.7743 35.786 26.0823 35.786ZM30.9483 36.5V27.68H32.0163V36.5H30.9483ZM36.6246 36.68C35.9886 36.68 35.4326 36.54 34.9566 36.26C34.4846 35.976 34.1166 35.582 33.8526 35.078C33.5886 34.57 33.4566 33.978 33.4566 33.302C33.4566 32.594 33.5866 31.982 33.8466 31.466C34.1066 30.946 34.4686 30.546 34.9326 30.266C35.4006 29.982 35.9486 29.84 36.5766 29.84C37.2286 29.84 37.7826 29.99 38.2386 30.29C38.6986 30.59 39.0426 31.018 39.2706 31.574C39.5026 32.13 39.6026 32.792 39.5706 33.56H38.4906V33.176C38.4786 32.38 38.3166 31.786 38.0046 31.394C37.6926 30.998 37.2286 30.8 36.6126 30.8C35.9526 30.8 35.4506 31.012 35.1066 31.436C34.7626 31.86 34.5906 32.468 34.5906 33.26C34.5906 34.024 34.7626 34.616 35.1066 35.036C35.4506 35.456 35.9406 35.666 36.5766 35.666C37.0046 35.666 37.3766 35.568 37.6926 35.372C38.0086 35.176 38.2566 34.894 38.4366 34.526L39.4626 34.88C39.2106 35.452 38.8306 35.896 38.3226 36.212C37.8186 36.524 37.2526 36.68 36.6246 36.68ZM34.2306 33.56V32.702H39.0186V33.56H34.2306Z" fill="#222222"/>
</g>
<g clip-path="url(#clip3_1461_2882)">
<g clip-path="url(#clip4_1461_2882)">
<path d="M84.5 4.25H106.5C106.5 2.87109 105.404 1.75 104.056 1.75H86.9444C85.5962 1.75 84.5 2.87109 84.5 4.25ZM84.5 5.5V16.75C84.5 18.1289 85.5962 19.25 86.9444 19.25H104.056C105.404 19.25 106.5 18.1289 106.5 16.75V5.5H84.5ZM86.9444 16.332C86.9444 15.1797 87.8573 14.25 88.9802 14.25H93.4642C94.591 14.25 95.5 15.1836 95.5 16.332C95.5 16.5625 95.3167 16.75 95.0913 16.75H87.3531C87.1278 16.75 86.9444 16.5625 86.9444 16.332ZM91.2222 8C91.8705 8 92.4923 8.26339 92.9507 8.73223C93.4091 9.20107 93.6667 9.83696 93.6667 10.5C93.6667 11.163 93.4091 11.7989 92.9507 12.2678C92.4923 12.7366 91.8705 13 91.2222 13C90.5739 13 89.9522 12.7366 89.4937 12.2678C89.0353 11.7989 88.7778 11.163 88.7778 10.5C88.7778 9.83696 89.0353 9.20107 89.4937 8.73223C89.9522 8.26339 90.5739 8 91.2222 8ZM97.9444 8.625C97.9444 8.28125 98.2194 8 98.5556 8H103.444C103.781 8 104.056 8.28125 104.056 8.625C104.056 8.96875 103.781 9.25 103.444 9.25H98.5556C98.2194 9.25 97.9444 8.96875 97.9444 8.625ZM97.9444 11.125C97.9444 10.7812 98.2194 10.5 98.5556 10.5H103.444C103.781 10.5 104.056 10.7812 104.056 11.125C104.056 11.4688 103.781 11.75 103.444 11.75H98.5556C98.2194 11.75 97.9444 11.4688 97.9444 11.125ZM97.9444 13.625C97.9444 13.2812 98.2194 13 98.5556 13H103.444C103.781 13 104.056 13.2812 104.056 13.625C104.056 13.9688 103.781 14.25 103.444 14.25H98.5556C98.2194 14.25 97.9444 13.9688 97.9444 13.625Z" fill="#8DC63F"/>
</g>
<path d="M78.346 36.5V29.042L76.72 30.026V28.832L78.346 27.86H79.432V36.5H78.346ZM84.415 36.68C83.863 36.68 83.375 36.57 82.951 36.35C82.527 36.126 82.195 35.816 81.955 35.42C81.715 35.024 81.595 34.562 81.595 34.034C81.595 33.518 81.717 33.052 81.961 32.636C82.209 32.22 82.581 31.9 83.077 31.676L83.059 32.066C82.655 31.87 82.345 31.594 82.129 31.238C81.913 30.878 81.805 30.48 81.805 30.044C81.805 29.556 81.917 29.136 82.141 28.784C82.365 28.432 82.673 28.16 83.065 27.968C83.457 27.776 83.907 27.68 84.415 27.68C84.923 27.68 85.373 27.776 85.765 27.968C86.157 28.16 86.465 28.432 86.689 28.784C86.913 29.136 87.025 29.556 87.025 30.044C87.025 30.48 86.923 30.876 86.719 31.232C86.515 31.584 86.201 31.862 85.777 32.066L85.753 31.682C86.249 31.898 86.621 32.216 86.869 32.636C87.121 33.052 87.247 33.518 87.247 34.034C87.247 34.562 87.125 35.024 86.881 35.42C86.641 35.816 86.307 36.126 85.879 36.35C85.455 36.57 84.967 36.68 84.415 36.68ZM84.415 35.66C84.919 35.66 85.327 35.522 85.639 35.246C85.955 34.966 86.113 34.562 86.113 34.034C86.113 33.502 85.957 33.098 85.645 32.822C85.337 32.542 84.927 32.402 84.415 32.402C83.907 32.402 83.497 32.542 83.185 32.822C82.877 33.098 82.723 33.502 82.723 34.034C82.723 34.562 82.879 34.966 83.191 35.246C83.503 35.522 83.911 35.66 84.415 35.66ZM84.415 31.376C84.855 31.376 85.211 31.266 85.483 31.046C85.755 30.822 85.891 30.488 85.891 30.044C85.891 29.6 85.755 29.268 85.483 29.048C85.211 28.824 84.855 28.712 84.415 28.712C83.979 28.712 83.623 28.824 83.347 29.048C83.075 29.268 82.939 29.6 82.939 30.044C82.939 30.488 83.075 30.822 83.347 31.046C83.623 31.266 83.979 31.376 84.415 31.376ZM90.9768 34.91V32.618H88.6848V31.736H90.9768V29.45H91.8588V31.736H94.1448V32.618H91.8588V34.91H90.9768ZM100.18 36.5V32.906L97.2695 27.86H98.5115L100.72 31.682L102.922 27.86H104.164L101.26 32.906V36.5H100.18ZM104.52 36.5V30.02H105.474V31.586L105.318 31.382C105.394 31.182 105.492 30.998 105.612 30.83C105.736 30.662 105.874 30.524 106.026 30.416C106.194 30.28 106.384 30.176 106.596 30.104C106.808 30.032 107.024 29.99 107.244 29.978C107.464 29.962 107.67 29.976 107.862 30.02V31.022C107.638 30.962 107.392 30.946 107.124 30.974C106.856 31.002 106.608 31.1 106.38 31.268C106.172 31.416 106.01 31.596 105.894 31.808C105.782 32.02 105.704 32.25 105.66 32.498C105.616 32.742 105.594 32.992 105.594 33.248V36.5H104.52ZM111.21 36.674C110.438 36.674 109.804 36.506 109.308 36.17C108.816 35.83 108.514 35.356 108.402 34.748L109.494 34.574C109.582 34.926 109.784 35.206 110.1 35.414C110.416 35.618 110.808 35.72 111.276 35.72C111.72 35.72 112.068 35.628 112.32 35.444C112.572 35.26 112.698 35.01 112.698 34.694C112.698 34.51 112.656 34.362 112.572 34.25C112.488 34.134 112.314 34.026 112.05 33.926C111.79 33.826 111.396 33.706 110.868 33.566C110.296 33.414 109.846 33.256 109.518 33.092C109.19 32.928 108.956 32.738 108.816 32.522C108.676 32.306 108.606 32.044 108.606 31.736C108.606 31.356 108.71 31.024 108.918 30.74C109.126 30.452 109.416 30.23 109.788 30.074C110.164 29.918 110.6 29.84 111.096 29.84C111.588 29.84 112.028 29.918 112.416 30.074C112.804 30.23 113.116 30.452 113.352 30.74C113.592 31.024 113.734 31.356 113.778 31.736L112.686 31.934C112.634 31.586 112.466 31.312 112.182 31.112C111.902 30.912 111.54 30.806 111.096 30.794C110.676 30.778 110.334 30.852 110.07 31.016C109.81 31.18 109.68 31.402 109.68 31.682C109.68 31.838 109.728 31.972 109.824 32.084C109.924 32.196 110.106 32.302 110.37 32.402C110.638 32.502 111.026 32.616 111.534 32.744C112.106 32.888 112.556 33.046 112.884 33.218C113.216 33.386 113.452 33.586 113.592 33.818C113.732 34.046 113.802 34.328 113.802 34.664C113.802 35.288 113.572 35.78 113.112 36.14C112.652 36.496 112.018 36.674 111.21 36.674Z" fill="#222222"/>
</g>
<g clip-path="url(#clip5_1461_2882)">
<g clip-path="url(#clip6_1461_2882)">
<path d="M170.187 0.800781C170.008 0.609375 169.762 0.5 169.5 0.5C169.238 0.5 168.992 0.609375 168.812 0.800781L164.75 5.17578C164.496 5.44922 164.43 5.84766 164.578 6.1875C164.727 6.52734 165.066 6.75 165.437 6.75H167.625V14.25H165.437C165.066 14.25 164.727 14.4727 164.578 14.8125C164.43 15.1523 164.496 15.5508 164.75 15.8242L168.812 20.1992C168.988 20.3906 169.238 20.5 169.5 20.5C169.762 20.5 170.008 20.3906 170.187 20.1992L174.25 15.8242C174.504 15.5508 174.57 15.1523 174.422 14.8125C174.273 14.4727 173.934 14.25 173.562 14.25H171.375V6.75H173.562C173.934 6.75 174.273 6.52734 174.422 6.1875C174.57 5.84766 174.504 5.44922 174.25 5.17578L170.187 0.800781Z" fill="#8DC63F"/>
</g>
<path d="M153.396 36.68C152.952 36.68 152.538 36.588 152.154 36.404C151.774 36.22 151.448 35.968 151.176 35.648C150.908 35.324 150.716 34.952 150.6 34.532L151.626 34.256C151.698 34.54 151.826 34.786 152.01 34.994C152.194 35.198 152.408 35.358 152.652 35.474C152.9 35.586 153.158 35.642 153.426 35.642C153.778 35.642 154.094 35.558 154.374 35.39C154.658 35.218 154.882 34.992 155.046 34.712C155.21 34.428 155.292 34.118 155.292 33.782C155.292 33.434 155.206 33.12 155.034 32.84C154.866 32.556 154.64 32.332 154.356 32.168C154.072 32.004 153.762 31.922 153.426 31.922C153.046 31.922 152.72 32.002 152.448 32.162C152.18 32.318 151.968 32.51 151.812 32.738L150.864 32.378L151.128 27.86H155.766V28.874H151.644L152.118 28.43L151.896 32.048L151.662 31.742C151.902 31.486 152.188 31.288 152.52 31.148C152.856 31.008 153.198 30.938 153.546 30.938C154.082 30.938 154.562 31.064 154.986 31.316C155.41 31.564 155.746 31.904 155.994 32.336C156.242 32.764 156.366 33.246 156.366 33.782C156.366 34.314 156.23 34.8 155.958 35.24C155.686 35.676 155.324 36.026 154.872 36.29C154.424 36.55 153.932 36.68 153.396 36.68ZM157.993 36.5V35.324H159.169V36.5H157.993ZM163.951 36.68C163.391 36.68 162.891 36.554 162.451 36.302C162.015 36.046 161.669 35.7 161.413 35.264C161.161 34.824 161.035 34.324 161.035 33.764V30.596C161.035 30.036 161.161 29.536 161.413 29.096C161.669 28.656 162.015 28.31 162.451 28.058C162.891 27.806 163.391 27.68 163.951 27.68C164.511 27.68 165.011 27.806 165.451 28.058C165.891 28.31 166.237 28.656 166.489 29.096C166.741 29.536 166.867 30.036 166.867 30.596V33.764C166.867 34.324 166.741 34.824 166.489 35.264C166.237 35.7 165.891 36.046 165.451 36.302C165.011 36.554 164.511 36.68 163.951 36.68ZM163.951 35.654C164.291 35.654 164.599 35.572 164.875 35.408C165.151 35.244 165.371 35.024 165.535 34.748C165.699 34.468 165.781 34.16 165.781 33.824V30.53C165.781 30.19 165.699 29.882 165.535 29.606C165.371 29.33 165.151 29.11 164.875 28.946C164.599 28.782 164.291 28.7 163.951 28.7C163.615 28.7 163.307 28.782 163.027 28.946C162.751 29.11 162.531 29.33 162.367 29.606C162.203 29.882 162.121 30.19 162.121 30.53V33.824C162.121 34.16 162.203 34.468 162.367 34.748C162.531 35.024 162.751 35.244 163.027 35.408C163.307 35.572 163.615 35.654 163.951 35.654ZM170.949 36.5V27.86H175.989V28.928H172.017V31.646H175.269V32.714H172.017V36.5H170.949ZM180.685 36.5C180.301 36.576 179.921 36.606 179.545 36.59C179.173 36.578 178.841 36.504 178.549 36.368C178.257 36.228 178.035 36.012 177.883 35.72C177.755 35.464 177.685 35.206 177.673 34.946C177.665 34.682 177.661 34.384 177.661 34.052V28.22H178.729V34.004C178.729 34.268 178.731 34.494 178.735 34.682C178.743 34.87 178.785 35.032 178.861 35.168C179.005 35.424 179.233 35.574 179.545 35.618C179.861 35.662 180.241 35.65 180.685 35.582V36.5ZM176.347 30.902V30.02H180.685V30.902H176.347ZM184.172 34.91V32.618H181.88V31.736H184.172V29.45H185.054V31.736H187.34V32.618H185.054V34.91H184.172Z" fill="#222222"/>
</g>
<g clip-path="url(#clip7_1461_2882)">
<g clip-path="url(#clip8_1461_2882)">
<path d="M240 21C242.785 21 245.455 19.8938 247.425 17.9246C249.394 15.9555 250.5 13.2848 250.5 10.5C250.5 7.71523 249.394 5.04451 247.425 3.07538C245.455 1.10625 242.785 0 240 0C237.215 0 234.545 1.10625 232.575 3.07538C230.606 5.04451 229.5 7.71523 229.5 10.5C229.5 13.2848 230.606 15.9555 232.575 17.9246C234.545 19.8938 237.215 21 240 21ZM240 6.5625C241.044 6.5625 242.046 6.97734 242.784 7.71577C243.523 8.45419 243.938 9.45571 243.938 10.5C243.938 11.5443 243.523 12.5458 242.784 13.2842C242.046 14.0227 241.044 14.4375 240 14.4375C238.956 14.4375 237.954 14.0227 237.216 13.2842C236.477 12.5458 236.062 11.5443 236.062 10.5C236.062 9.45571 236.477 8.45419 237.216 7.71577C237.954 6.97734 238.956 6.5625 240 6.5625Z" fill="#8DC63F"/>
</g>
<path d="M224.6 36.994L224.606 36.034L228.44 32.584C228.76 32.296 228.974 32.024 229.082 31.768C229.194 31.508 229.25 31.242 229.25 30.97C229.25 30.638 229.174 30.338 229.022 30.07C228.87 29.802 228.662 29.59 228.398 29.434C228.138 29.278 227.842 29.2 227.51 29.2C227.166 29.2 226.86 29.282 226.592 29.446C226.324 29.606 226.112 29.82 225.956 30.088C225.804 30.356 225.73 30.648 225.734 30.964H224.642C224.642 30.42 224.768 29.94 225.02 29.524C225.272 29.104 225.614 28.776 226.046 28.54C226.482 28.3 226.976 28.18 227.528 28.18C228.064 28.18 228.544 28.304 228.968 28.552C229.392 28.796 229.726 29.13 229.97 29.554C230.218 29.974 230.342 30.45 230.342 30.982C230.342 31.358 230.294 31.684 230.198 31.96C230.106 32.236 229.962 32.492 229.766 32.728C229.57 32.96 229.324 33.208 229.028 33.472L225.842 36.334L225.704 35.974H230.342V36.994H224.6ZM235.275 37V35.41H231.303V34.396L234.153 28.36H235.365L232.515 34.396H235.275V31.966H236.355V34.396H237.255V35.41H236.355V37H235.275ZM238.649 37V35.824H239.825V37H238.649ZM244.608 37.18C244.048 37.18 243.548 37.054 243.108 36.802C242.672 36.546 242.326 36.2 242.07 35.764C241.818 35.324 241.692 34.824 241.692 34.264V31.096C241.692 30.536 241.818 30.036 242.07 29.596C242.326 29.156 242.672 28.81 243.108 28.558C243.548 28.306 244.048 28.18 244.608 28.18C245.168 28.18 245.668 28.306 246.108 28.558C246.548 28.81 246.894 29.156 247.146 29.596C247.398 30.036 247.524 30.536 247.524 31.096V34.264C247.524 34.824 247.398 35.324 247.146 35.764C246.894 36.2 246.548 36.546 246.108 36.802C245.668 37.054 245.168 37.18 244.608 37.18ZM244.608 36.154C244.948 36.154 245.256 36.072 245.532 35.908C245.808 35.744 246.028 35.524 246.192 35.248C246.356 34.968 246.438 34.66 246.438 34.324V31.03C246.438 30.69 246.356 30.382 246.192 30.106C246.028 29.83 245.808 29.61 245.532 29.446C245.256 29.282 244.948 29.2 244.608 29.2C244.272 29.2 243.964 29.282 243.684 29.446C243.408 29.61 243.188 29.83 243.024 30.106C242.86 30.382 242.778 30.69 242.778 31.03V34.324C242.778 34.66 242.86 34.968 243.024 35.248C243.188 35.524 243.408 35.744 243.684 35.908C243.964 36.072 244.272 36.154 244.608 36.154ZM252.119 37.18C251.559 37.18 251.059 37.054 250.619 36.802C250.183 36.546 249.837 36.2 249.581 35.764C249.329 35.324 249.203 34.824 249.203 34.264V31.096C249.203 30.536 249.329 30.036 249.581 29.596C249.837 29.156 250.183 28.81 250.619 28.558C251.059 28.306 251.559 28.18 252.119 28.18C252.679 28.18 253.179 28.306 253.619 28.558C254.059 28.81 254.405 29.156 254.657 29.596C254.909 30.036 255.035 30.536 255.035 31.096V34.264C255.035 34.824 254.909 35.324 254.657 35.764C254.405 36.2 254.059 36.546 253.619 36.802C253.179 37.054 252.679 37.18 252.119 37.18ZM252.119 36.154C252.459 36.154 252.767 36.072 253.043 35.908C253.319 35.744 253.539 35.524 253.703 35.248C253.867 34.968 253.949 34.66 253.949 34.324V31.03C253.949 30.69 253.867 30.382 253.703 30.106C253.539 29.83 253.319 29.61 253.043 29.446C252.767 29.282 252.459 29.2 252.119 29.2C251.783 29.2 251.475 29.282 251.195 29.446C250.919 29.61 250.699 29.83 250.535 30.106C250.371 30.382 250.289 30.69 250.289 31.03V34.324C250.289 34.66 250.371 34.968 250.535 35.248C250.699 35.524 250.919 35.744 251.195 35.908C251.475 36.072 251.783 36.154 252.119 36.154Z" fill="#222222"/>
</g>
</g>
<defs>
<clipPath id="clip0_1461_2882">
<rect width="256" height="39" fill="white"/>
</clipPath>
<clipPath id="clip1_1461_2882">
<rect width="41" height="38" fill="white" transform="translate(0 0.5)"/>
</clipPath>
<clipPath id="clip2_1461_2882">
<rect width="25" height="20" fill="white" transform="translate(8 0.5)"/>
</clipPath>
<clipPath id="clip3_1461_2882">
<rect width="39" height="38" fill="white" transform="translate(76 0.5)"/>
</clipPath>
<clipPath id="clip4_1461_2882">
<rect width="22" height="20" fill="white" transform="translate(84.5 0.5)"/>
</clipPath>
<clipPath id="clip5_1461_2882">
<rect width="39" height="38" fill="white" transform="translate(150 0.5)"/>
</clipPath>
<clipPath id="clip6_1461_2882">
<rect width="10" height="20" fill="white" transform="translate(164.5 0.5)"/>
</clipPath>
<clipPath id="clip7_1461_2882">
<rect width="32" height="39" fill="white" transform="translate(224)"/>
</clipPath>
<clipPath id="clip8_1461_2882">
<rect width="21" height="21" fill="white" transform="translate(229.5)"/>
</clipPath>
</defs>
</svg>
