<svg width="18" height="16" viewBox="0 0 18 16" fill="none" xmlns="http://www.w3.org/2000/svg">
<g clip-path="url(#clip0_12_29)">
<path d="M6.34054 12.3094H15.4419C15.7461 12.3094 16.0112 12.0664 16.0112 11.7399C16.0112 11.4133 15.7461 11.1703 15.4419 11.1703H6.47313C6.02859 11.1703 5.75562 10.8666 5.68543 10.4034L4.40641 1.95159C4.32841 1.36686 4.11004 1.07071 3.31455 1.07071H0.577122C0.265164 1.07071 0 1.33649 0 1.64024C0 1.95159 0.265164 2.21736 0.577122 2.21736H3.21317L4.461 10.5553C4.62478 11.6336 5.2097 12.3094 6.34054 12.3094ZM4.90554 9.60605H15.4575C16.5961 9.60605 17.1811 8.92262 17.3449 7.8367L17.9688 3.81964C17.9843 3.72092 18 3.59942 18 3.53108C18 3.16658 17.7192 2.91599 17.2903 2.91599H4.22703L4.23482 4.06264H16.6741L16.1204 7.70003C16.058 8.17083 15.8007 8.46702 15.3405 8.46702H4.88994L4.90554 9.60605ZM6.95666 16C7.65856 16 8.22012 15.4608 8.22012 14.7698C8.22012 14.0863 7.65856 13.5396 6.95666 13.5396C6.24696 13.5396 5.68543 14.0863 5.68543 14.7698C5.68543 15.4608 6.24696 16 6.95666 16ZM14.2487 16C14.9584 16 15.5199 15.4608 15.5199 14.7698C15.5199 14.0863 14.9584 13.5396 14.2487 13.5396C13.5468 13.5396 12.9774 14.0863 12.9774 14.7698C12.9774 15.4608 13.5468 16 14.2487 16Z" fill="white"/>
</g>
<defs>
<clipPath id="clip0_12_29">
<rect width="18" height="16" fill="white"/>
</clipPath>
</defs>
</svg>
