<svg width="2084" height="616" viewBox="0 0 2084 616" fill="none" xmlns="http://www.w3.org/2000/svg">
<g clip-path="url(#clip0_1280_502)">
<path d="M-90.4742 637.249L60.9946 581.949L62.7639 581.507C122.217 566.644 183.236 557.72 244.933 554.865V554.865L351.572 561.51C394.383 564.178 437.172 562.187 479.176 555.574L492.672 553.449C552.444 544.039 609.612 523.992 661.475 494.257V494.257C693.669 475.8 727.968 461.04 763.743 450.25L845.693 425.532L854.427 423.464C932.355 405.009 1013.73 401.809 1094.11 414.037V414.037L1202.91 443.674L1288.5 471.907L1404.2 501.224V501.224C1462 510.822 1520.67 509.562 1577.13 497.511L1602.78 492.036L1659.44 480.988C1682.7 476.453 1706.32 473.624 1730.13 472.523V472.523C1783.12 470.071 1836.51 476.201 1888.21 490.676L1889.87 491.139C1930.19 502.428 1969.15 518.585 2005.85 539.243L2033.94 555.047L2176.33 625.848" stroke="#8DC63F" stroke-opacity="0.25" stroke-width="2"/>
<path d="M-92.6145 612.584L58.8543 557.284L60.6237 556.842C120.077 541.978 181.096 533.054 242.793 530.199V530.199L349.432 536.845C392.243 539.512 435.032 537.522 477.036 530.909L490.532 528.784C550.303 519.373 607.472 499.327 659.335 469.592V469.592C691.529 451.134 725.828 436.374 761.602 425.584L843.553 400.866L852.287 398.798C930.215 380.344 1011.59 377.143 1091.97 389.372V389.372L1200.77 419.008L1286.36 447.242L1402.06 476.559V476.559C1459.86 486.157 1518.53 484.897 1574.99 472.845L1600.64 467.37L1657.3 456.323C1680.56 451.788 1704.18 448.959 1727.99 447.857V447.857C1780.98 445.405 1834.37 451.536 1886.07 466.01L1887.73 466.474C1928.05 477.762 1967.01 493.92 2003.71 514.578L2031.8 530.382L2174.19 601.183" stroke="#8DC63F" stroke-opacity="0.25" stroke-width="2"/>
<path d="M-94.7544 587.918L56.7144 532.618L58.4838 532.176C117.937 517.313 178.956 508.389 240.653 505.534V505.534L347.292 512.179C390.103 514.847 432.892 512.856 474.896 506.243L488.392 504.118C548.163 494.708 605.332 474.661 657.195 444.926V444.926C689.389 426.468 723.688 411.709 759.463 400.919L841.413 376.201L850.147 374.133C928.075 355.678 1009.45 352.478 1089.83 364.706V364.706L1198.63 394.343L1284.22 422.576L1399.92 451.893V451.893C1457.72 461.491 1516.39 460.231 1572.85 448.18L1598.5 442.705L1655.16 431.657C1678.42 427.122 1702.04 424.293 1725.85 423.191V423.191C1778.84 420.739 1832.23 426.87 1883.93 441.345L1885.59 441.808C1925.91 453.096 1964.87 469.254 2001.57 489.912L2029.66 505.716L2172.05 576.517" stroke="#8DC63F" stroke-opacity="0.25" stroke-width="2"/>
<path d="M-96.8948 563.252L54.574 507.953L56.3434 507.51C115.796 492.647 176.816 483.723 238.513 480.868V480.868L345.151 487.513C387.963 490.181 430.752 488.191 472.756 481.578L486.251 479.453C546.023 470.042 603.191 449.996 655.055 420.261V420.261C687.248 401.803 721.548 387.043 757.322 376.253L839.273 351.535L848.006 349.467C925.935 331.012 1007.31 327.812 1087.69 340.041V340.041L1196.49 369.677L1282.08 397.911L1397.78 427.228V427.228C1455.58 436.826 1514.25 435.566 1570.71 423.514L1596.36 418.039L1653.02 406.991C1676.28 402.457 1699.9 399.627 1723.71 398.526V398.526C1776.7 396.074 1830.09 402.204 1881.79 416.679L1883.45 417.142C1923.77 428.431 1962.73 444.588 1999.43 465.246L2027.52 481.051L2169.91 551.851" stroke="#8DC63F" stroke-opacity="0.25" stroke-width="2"/>
<path d="M-99.0354 538.586L52.4334 483.287L54.2028 482.844C113.656 467.981 174.675 459.057 236.372 456.202V456.202L343.011 462.847C385.822 465.515 428.611 463.525 470.615 456.911L484.111 454.787C543.882 445.376 601.051 425.33 652.914 395.594V395.594C685.108 377.137 719.407 362.377 755.182 351.587L837.132 326.869L845.866 324.801C923.794 306.346 1005.17 303.146 1085.55 315.375V315.375L1194.35 345.011L1279.94 373.245L1395.64 402.561V402.561C1453.44 412.159 1512.1 410.9 1568.57 398.848L1594.22 393.373L1650.88 382.325C1674.14 377.791 1697.76 374.961 1721.57 373.86V373.86C1774.56 371.408 1827.95 377.538 1879.65 392.013L1881.31 392.476C1921.63 403.765 1960.58 419.922 1997.29 440.58L2025.38 456.384L2167.77 527.185" stroke="#8DC63F" stroke-opacity="0.25" stroke-width="2"/>
<path d="M-101.175 513.921L50.2935 458.621L52.0629 458.179C111.516 443.315 172.535 434.391 234.232 431.537V431.537L340.871 438.182C383.682 440.85 426.471 438.859 468.475 432.246L481.971 430.121C541.743 420.711 598.911 400.664 650.774 370.929V370.929C682.968 352.471 717.267 337.712 753.042 326.921L834.992 302.204L843.726 300.135C921.654 281.681 1003.03 278.48 1083.41 290.709V290.709L1192.21 320.345L1277.8 348.579L1393.5 377.896V377.896C1451.3 387.494 1509.97 386.234 1566.43 374.182L1592.08 368.708L1648.74 357.66C1672 353.125 1695.62 350.296 1719.43 349.194V349.194C1772.42 346.742 1825.81 352.873 1877.51 367.347L1879.17 367.811C1919.49 379.099 1958.44 395.257 1995.15 415.915L2023.24 431.719L2165.63 502.52" stroke="#8DC63F" stroke-opacity="0.25" stroke-width="2"/>
<path d="M-103.316 489.255L48.153 433.955L49.9224 433.513C109.375 418.65 170.395 409.726 232.092 406.871V406.871L338.73 413.516C381.542 416.184 424.331 414.193 466.335 407.58L479.83 405.456C539.602 396.045 596.77 375.998 648.634 346.263V346.263C680.827 327.806 715.127 313.046 750.901 302.256L832.852 277.538L841.585 275.47C919.514 257.015 1000.89 253.815 1081.27 266.043V266.043L1190.07 295.68L1275.66 323.913L1391.36 353.23V353.23C1449.16 362.828 1507.82 361.568 1564.29 349.517L1589.94 344.042L1646.6 332.994C1669.86 328.459 1693.48 325.63 1717.29 324.529V324.529C1770.28 322.077 1823.67 328.207 1875.37 342.682L1877.02 343.145C1917.35 354.434 1956.3 370.591 1993.01 391.249L2021.1 407.053L2163.49 477.854" stroke="#8DC63F" stroke-opacity="0.25" stroke-width="2"/>
<path d="M-105.456 464.59L46.0126 409.29L47.782 408.848C107.235 393.984 168.254 385.06 229.951 382.205V382.205L336.59 388.851C379.401 391.518 422.191 389.528 464.194 382.915L477.69 380.79C537.462 371.379 594.63 351.333 646.493 321.598V321.598C678.687 303.14 712.986 288.38 748.761 277.59L830.711 252.872L839.445 250.804C917.374 232.35 998.749 229.149 1079.13 241.378V241.378L1187.93 271.014L1273.51 299.248L1389.22 328.565V328.565C1447.02 338.163 1505.68 336.903 1562.15 324.851L1587.8 319.376L1644.46 308.329C1667.72 303.794 1691.34 300.965 1715.15 299.863V299.863C1768.14 297.411 1821.53 303.542 1873.23 318.016L1874.88 318.48C1915.2 329.768 1954.16 345.926 1990.87 366.584L2018.96 382.388L2161.35 453.189" stroke="#8DC63F" stroke-opacity="0.25" stroke-width="2"/>
<path d="M-107.596 439.924L43.8729 384.624L45.6422 384.182C105.095 369.318 166.114 360.394 227.812 357.54V357.54L334.45 364.185C377.261 366.853 420.051 364.862 462.055 358.249L475.55 356.124C535.322 346.714 592.49 326.667 644.354 296.932V296.932C676.547 278.474 710.846 263.715 746.621 252.924L828.572 228.207L837.305 226.138C915.234 207.684 996.609 204.484 1076.99 216.712V216.712L1185.79 246.348L1271.38 274.582L1387.08 303.899V303.899C1444.88 313.497 1503.54 312.237 1560.01 300.186L1585.66 294.711L1642.32 283.663C1665.58 279.128 1689.2 276.299 1713.01 275.197V275.197C1766 272.745 1819.39 278.876 1871.09 293.35L1872.74 293.814C1913.07 305.102 1952.02 321.26 1988.73 341.918L2016.82 357.722L2159.21 428.523" stroke="#8DC63F" stroke-opacity="0.25" stroke-width="2"/>
<path d="M-109.736 415.259L41.7325 359.959L43.5019 359.516C102.955 344.653 163.974 335.729 225.671 332.874V332.874L332.31 339.519C375.121 342.187 417.91 340.197 459.914 333.584L473.41 331.459C533.181 322.048 590.35 302.002 642.213 272.267V272.267C674.407 253.809 708.706 239.049 744.481 228.259L826.431 203.541L835.165 201.473C913.093 183.018 994.469 179.818 1074.85 192.047V192.047L1183.65 221.683L1269.23 249.917L1384.94 279.234V279.234C1442.74 288.832 1501.4 287.572 1557.87 275.52L1583.52 270.045L1640.18 258.997C1663.44 254.463 1687.06 251.633 1710.87 250.532V250.532C1763.86 248.08 1817.25 254.21 1868.95 268.685L1870.6 269.149C1910.92 280.437 1949.88 296.594 1986.59 317.252L2014.68 333.057L2157.07 403.857" stroke="#8DC63F" stroke-opacity="0.25" stroke-width="2"/>
<path d="M-111.876 390.592L39.5925 335.293L41.3618 334.85C100.815 319.987 161.834 311.063 223.531 308.208V308.208L330.17 314.853C372.981 317.521 415.77 315.531 457.774 308.917L471.27 306.793C531.041 297.382 588.21 277.335 640.073 247.6V247.6C672.267 229.143 706.566 214.383 742.341 203.593L824.291 178.875L833.025 176.807C910.953 158.352 992.329 155.152 1072.71 167.381V167.381L1181.51 197.017L1267.09 225.251L1382.8 254.567V254.567C1440.6 264.165 1499.26 262.906 1555.73 250.854L1581.38 245.379L1638.04 234.331C1661.3 229.797 1684.92 226.967 1708.73 225.866V225.866C1761.72 223.414 1815.11 229.544 1866.81 244.019L1868.46 244.482C1908.78 255.771 1947.74 271.928 1984.45 292.586L2012.54 308.39L2154.93 379.191" stroke="#8DC63F" stroke-opacity="0.25" stroke-width="2"/>
<path d="M-114.051 365.93L37.4254 310.611L39.1949 310.169C98.6497 295.298 159.67 286.367 221.366 283.505V283.505L328.002 290.138C370.813 292.801 413.602 290.806 455.606 284.188L469.102 282.061C528.874 272.643 586.045 252.59 637.913 222.848V222.848C670.11 204.386 704.411 189.622 740.187 178.828L822.141 154.1L830.875 152.031C908.806 133.567 990.18 130.357 1070.55 142.577V142.577L1179.35 172.201L1264.93 200.426L1380.63 229.73V229.73C1438.42 239.322 1497.09 238.055 1553.55 225.997L1579.2 220.519L1635.87 209.464C1659.12 204.927 1682.75 202.095 1706.56 200.991V200.991C1759.55 198.532 1812.93 204.657 1864.63 219.126L1866.29 219.589C1906.61 230.873 1945.56 247.027 1982.27 267.681L2010.35 283.483L2152.73 354.269" stroke="#8DC63F" stroke-opacity="0.25" stroke-width="2"/>
</g>
<defs>
<clipPath id="clip0_1280_502">
<rect width="2084" height="616" fill="white"/>
</clipPath>
</defs>
</svg>
