<svg width="34" height="33" viewBox="0 0 34 33" fill="none" xmlns="http://www.w3.org/2000/svg">
<g clip-path="url(#clip0_1_50859)">
<path d="M29.5934 0H4.22762C1.89609 0 0 1.84191 0 4.10683V28.7478C0 31.0127 1.89609 32.8547 4.22762 32.8547H29.5934C31.9249 32.8547 33.821 31.0127 33.821 28.7478V4.10683C33.821 1.84191 31.9249 0 29.5934 0Z" fill="white" fill-opacity="0.2"/>
<path fill-rule="evenodd" clip-rule="evenodd" d="M28.5364 16.4274H23.2519V12.3205C23.2519 11.187 24.1989 11.2938 25.3657 11.2938H27.4795V6.16028H23.2519C21.5701 6.16028 19.9571 6.8093 18.7678 7.96457C17.5786 9.11984 16.9105 10.6867 16.9105 12.3205V16.4274H12.6829V21.5609H16.9105V32.8547H23.2519V21.5609H26.4226L28.5364 16.4274Z" fill="white"/>
</g>
<defs>
<clipPath id="clip0_1_50859">
<rect width="33.821" height="32.8547" fill="white"/>
</clipPath>
</defs>
</svg>
