<svg width="17" height="15" viewBox="0 0 17 15" fill="none" xmlns="http://www.w3.org/2000/svg">
<g clip-path="url(#clip0_12_33)">
<path d="M0 5.2583C0 8.62678 3.0559 11.9399 7.8837 14.7865C8.06346 14.8893 8.32026 15 8.50002 15C8.67977 15 8.93656 14.8893 9.12493 14.7865C13.9441 11.9399 17 8.62678 17 5.2583C17 2.45914 14.92 0.482338 12.1465 0.482338C10.563 0.482338 9.27893 1.17817 8.50002 2.24565C7.73818 1.18608 6.43707 0.482338 4.85348 0.482338C2.08007 0.482338 0 2.45914 0 5.2583ZM1.37815 5.2583C1.37815 3.15497 2.85045 1.7554 4.83636 1.7554C6.44563 1.7554 7.3701 2.68055 7.91794 3.47127C8.14906 3.78755 8.29457 3.87454 8.50002 3.87454C8.70545 3.87454 8.83383 3.77965 9.08206 3.47127C9.67276 2.69636 10.563 1.7554 12.1637 1.7554C14.1496 1.7554 15.6219 3.15497 15.6219 5.2583C15.6219 8.19982 12.2578 11.3706 8.67977 13.5688C8.59417 13.6242 8.53426 13.6637 8.50002 13.6637C8.46577 13.6637 8.40585 13.6242 8.32881 13.5688C4.74221 11.3706 1.37815 8.19982 1.37815 5.2583Z" fill="white"/>
</g>
<defs>
<clipPath id="clip0_12_33">
<rect width="17" height="15" fill="white"/>
</clipPath>
</defs>
</svg>
