<svg width="36" height="35" viewBox="0 0 36 35" fill="none" xmlns="http://www.w3.org/2000/svg">
<g clip-path="url(#clip0_1_50854)">
<path d="M27.7285 0H8.02505C3.59294 0 0 3.49583 0 7.80816V26.9791C0 31.2915 3.59294 34.7873 8.02505 34.7873H27.7285C32.1607 34.7873 35.7536 31.2915 35.7536 26.9791V7.80816C35.7536 3.49583 32.1607 0 27.7285 0Z" fill="white" fill-opacity="0.2"/>
<path d="M9.90748 14.4596H13.6228V26.1236H9.90748V14.4596ZM11.8023 8.6637C12.2279 8.6637 12.6441 8.78637 12.9982 9.01622C13.3523 9.24608 13.6285 9.57282 13.7919 9.95523C13.9554 10.3376 13.9988 10.7586 13.9166 11.165C13.8345 11.5713 13.6305 11.9449 13.3303 12.2386C13.0302 12.5323 12.6474 12.7329 12.2302 12.8152C11.813 12.8975 11.3802 12.8577 10.9862 12.7008C10.5922 12.544 10.2548 12.2771 10.0166 11.9339C9.77831 11.5907 9.64985 11.1865 9.6474 10.7724C9.64577 10.496 9.70031 10.2221 9.80787 9.96633C9.91543 9.71056 10.0739 9.47801 10.2742 9.28204C10.4744 9.08607 10.7125 8.93056 10.9748 8.82444C11.237 8.71832 11.5183 8.66369 11.8023 8.6637ZM16.0006 14.4596H19.5796V16.0501C19.9379 15.4552 20.4555 14.9662 21.0771 14.6351C21.6987 14.304 22.4011 14.1434 23.1092 14.1704C26.8245 14.1704 27.5799 16.5803 27.5799 19.7253V26.1236H23.8646V20.4844C23.8646 19.1348 23.8646 17.3876 21.9327 17.3876C20.0007 17.3876 19.7035 18.8577 19.7035 20.3759V26.1477H15.9882L16.0006 14.4596Z" fill="white"/>
</g>
<defs>
<clipPath id="clip0_1_50854">
<rect width="35.7536" height="34.7873" fill="white"/>
</clipPath>
</defs>
</svg>
