<svg width="16" height="16" viewBox="0 0 16 16" fill="none" xmlns="http://www.w3.org/2000/svg">
<g clip-path="url(#clip0_12_25)">
<path d="M0 6.47136C0 10.0395 2.93142 12.9427 6.5343 12.9427C7.95907 12.9427 9.261 12.4886 10.3337 11.7263L14.3624 15.7242C14.5507 15.9108 14.7964 16 15.0584 16C15.6151 16 16 15.5864 16 15.043C16 14.7835 15.9017 14.5484 15.7298 14.3781L11.7257 10.3883C12.5691 9.30158 13.0686 7.94728 13.0686 6.47136C13.0686 2.90319 10.1371 0 6.5343 0C2.93142 0 0 2.90319 0 6.47136ZM1.40021 6.47136C1.40021 3.66548 3.70113 1.38672 6.5343 1.38672C9.36749 1.38672 11.6684 3.66548 11.6684 6.47136C11.6684 9.27725 9.36749 11.556 6.5343 11.556C3.70113 11.556 1.40021 9.27725 1.40021 6.47136Z" fill="white"/>
</g>
<defs>
<clipPath id="clip0_12_25">
<rect width="16" height="16" fill="white"/>
</clipPath>
</defs>
</svg>
