<svg width="34" height="35" viewBox="0 0 34 35" fill="none" xmlns="http://www.w3.org/2000/svg">
<g clip-path="url(#clip0_1_50849)">
<path d="M26.2297 0H7.59127C3.39873 0 0 3.49583 0 7.80816V26.9791C0 31.2915 3.39873 34.7873 7.59127 34.7873H26.2297C30.4222 34.7873 33.821 31.2915 33.821 26.9791V7.80816C33.821 3.49583 30.4222 0 26.2297 0Z" fill="white" fill-opacity="0.2"/>
<path fill-rule="evenodd" clip-rule="evenodd" d="M13.7533 21.8219C12.9543 21.8016 12.1812 21.5262 11.5411 21.034C10.9009 20.5418 10.4254 19.8571 10.1803 19.0746C10.7243 19.1986 11.2881 19.1986 11.8321 19.0746C11.3176 18.9503 10.8335 18.7181 10.4102 18.3926C9.98692 18.0671 9.63346 17.6552 9.37193 17.1828C8.98935 16.551 8.79396 15.8183 8.80961 15.0741C9.33474 15.3715 9.92086 15.5366 10.52 15.5561C9.71595 14.987 9.15098 14.1261 8.93848 13.1462C8.72365 12.1722 8.87871 11.1507 9.37193 10.2904C10.3369 11.5143 11.5398 12.5173 12.9035 13.2352C14.2672 13.9531 15.7617 14.3702 17.2912 14.4596C17.2912 14.303 17.2912 14.1704 17.2326 14.0258C17.1273 13.2057 17.2748 12.3722 17.6543 11.6429C18.0339 10.9135 18.6264 10.3251 19.3484 9.96042C20.0703 9.59579 20.8853 9.47336 21.6785 9.61039C22.4717 9.74741 23.2031 10.137 23.7696 10.7242C23.7942 10.7521 23.8258 10.7725 23.8609 10.7831C23.896 10.7938 23.9333 10.7942 23.9687 10.7845C24.7545 10.6126 25.5094 10.3158 26.2063 9.90484C25.9263 10.788 25.3597 11.5453 24.6013 12.0497C25.3408 11.9651 26.0636 11.7661 26.7452 11.4592L26.3586 12.0497C25.9522 12.5628 25.4837 13.0204 24.9645 13.4113C24.9451 13.4242 24.9295 13.4421 24.9192 13.4633C24.9089 13.4845 24.9043 13.5081 24.9059 13.5318C24.9284 14.1192 24.9049 14.7075 24.8356 15.291C24.6864 16.5106 24.3503 17.6981 23.8399 18.8095C23.3227 19.9615 22.6219 21.0163 21.7663 21.9304C20.34 23.4608 18.4991 24.5146 16.4829 24.9548C15.778 25.1123 15.0602 25.2011 14.3391 25.2199C12.1739 25.2961 10.0361 24.7044 8.20044 23.5209L8.10672 23.4607C9.40578 23.6048 10.7192 23.41 11.9258 22.8943C12.5801 22.6252 13.1951 22.2643 13.7533 21.8219Z" fill="white"/>
</g>
<defs>
<clipPath id="clip0_1_50849">
<rect width="33.821" height="34.7873" fill="white"/>
</clipPath>
</defs>
</svg>
